<!DOCTYPE svg PUBLIC "-//W3C//DTD SVG 1.1//EN" "http://www.w3.org/Graphics/SVG/1.1/DTD/svg11.dtd">
<svg xmlns="http://www.w3.org/2000/svg" xmlns:xlink="http://www.w3.org/1999/xlink" xmlns:jfreesvg="http://www.jfree.org/jfreesvg/svg" width="10939" height="1747" text-rendering="auto" shape-rendering="auto">
<defs></defs>
<line x1="0" y1="0" x2="10938" y2="0" style="stroke-width: 1.0;stroke: rgb(0,0,0);stroke-opacity: 1.0;stroke-linecap: square;" transform="matrix(1,0,0,1,0,0)" /><line x1="10939" y1="0" x2="10939" y2="1746" style="stroke-width: 1.0;stroke: rgb(0,0,0);stroke-opacity: 1.0;stroke-linecap: square;" transform="matrix(1,0,0,1,0,0)" /><line x1="10939" y1="1747" x2="1" y2="1747" style="stroke-width: 1.0;stroke: rgb(0,0,0);stroke-opacity: 1.0;stroke-linecap: square;" transform="matrix(1,0,0,1,0,0)" /><line x1="0" y1="1747" x2="0" y2="1" style="stroke-width: 1.0;stroke: rgb(0,0,0);stroke-opacity: 1.0;stroke-linecap: square;" transform="matrix(1,0,0,1,0,0)" /><g style="stroke-width: 1.0;stroke: rgb(0,0,0);stroke-opacity: 1.0;stroke-linecap: square;; fill: none" transform="matrix(1,0,0,1,0,0)" ><path d="M 1050 227.5 C 1050 246.55 1034.55 262 1015.5 262 C 996.45 262 981 246.55 981 227.5 C 981 208.45 996.45 193 1015.5 193 C 1034.55 193 1050 208.45 1050 227.5 Z "/></g><g style="stroke-width: 1.0;stroke: rgb(0,0,0);stroke-opacity: 1.0;stroke-linecap: square;; fill: none" transform="matrix(1,0,0,1,0,0)" ><path d="M 1250 227.5 C 1250 246.55 1234.55 262 1215.5 262 C 1196.45 262 1181 246.55 1181 227.5 C 1181 208.45 1196.45 193 1215.5 193 C 1234.55 193 1250 208.45 1250 227.5 Z "/></g><g style="stroke-width: 1.0;stroke: rgb(0,0,0);stroke-opacity: 1.0;stroke-linecap: square;; fill: none" transform="matrix(1,0,0,1,0,0)" ><path d="M 1451 227.5 C 1451 246.55 1435.55 262 1416.5 262 C 1397.45 262 1382 246.55 1382 227.5 C 1382 208.45 1397.45 193 1416.5 193 C 1435.55 193 1451 208.45 1451 227.5 Z "/></g><g style="stroke-width: 1.0;stroke: rgb(0,0,0);stroke-opacity: 1.0;stroke-linecap: square;; fill: none" transform="matrix(1,0,0,1,0,0)" ><path d="M 1652 227.5 C 1652 246.55 1636.55 262 1617.5 262 C 1598.45 262 1583 246.55 1583 227.5 C 1583 208.45 1598.45 193 1617.5 193 C 1636.55 193 1652 208.45 1652 227.5 Z "/></g><g style="stroke-width: 1.0;stroke: rgb(0,0,0);stroke-opacity: 1.0;stroke-linecap: square;; fill: none" transform="matrix(1,0,0,1,0,0)" ><path d="M 1853 227.5 C 1853 246.55 1837.55 262 1818.5 262 C 1799.45 262 1784 246.55 1784 227.5 C 1784 208.45 1799.45 193 1818.5 193 C 1837.55 193 1853 208.45 1853 227.5 Z "/></g><g style="stroke-width: 1.0;stroke: rgb(0,0,0);stroke-opacity: 1.0;stroke-linecap: square;; fill: none" transform="matrix(1,0,0,1,0,0)" ><path d="M 3661 227.5 C 3661 246.55 3645.55 262 3626.5 262 C 3607.45 262 3592 246.55 3592 227.5 C 3592 208.45 3607.45 193 3626.5 193 C 3645.55 193 3661 208.45 3661 227.5 Z "/></g><g style="stroke-width: 1.0;stroke: rgb(0,0,0);stroke-opacity: 1.0;stroke-linecap: square;; fill: none" transform="matrix(1,0,0,1,0,0)" ><path d="M 4465 227.5 C 4465 246.55 4449.55 262 4430.5 262 C 4411.45 262 4396 246.55 4396 227.5 C 4396 208.45 4411.45 193 4430.5 193 C 4449.55 193 4465 208.45 4465 227.5 Z "/></g><g style="stroke-width: 1.0;stroke: rgb(0,0,0);stroke-opacity: 1.0;stroke-linecap: square;; fill: none" transform="matrix(1,0,0,1,0,0)" ><path d="M 5068 227.5 C 5068 246.55 5052.55 262 5033.5 262 C 5014.45 262 4999 246.55 4999 227.5 C 4999 208.45 5014.45 193 5033.5 193 C 5052.55 193 5068 208.45 5068 227.5 Z "/></g><g style="stroke-width: 1.0;stroke: rgb(0,0,0);stroke-opacity: 1.0;stroke-linecap: square;; fill: none" transform="matrix(1,0,0,1,0,0)" ><path d="M 7479 227.5 C 7479 246.55 7463.55 262 7444.5 262 C 7425.45 262 7410 246.55 7410 227.5 C 7410 208.45 7425.45 193 7444.5 193 C 7463.55 193 7479 208.45 7479 227.5 Z "/></g><g style="stroke-width: 1.0;stroke: rgb(0,0,0);stroke-opacity: 1.0;stroke-linecap: square;; fill: none" transform="matrix(1,0,0,1,0,0)" ><path d="M 7680 227.5 C 7680 246.55 7664.55 262 7645.5 262 C 7626.45 262 7611 246.55 7611 227.5 C 7611 208.45 7626.45 193 7645.5 193 C 7664.55 193 7680 208.45 7680 227.5 Z "/></g><g style="stroke-width: 1.0;stroke: rgb(0,0,0);stroke-opacity: 1.0;stroke-linecap: square;; fill: none" transform="matrix(1,0,0,1,0,0)" ><path d="M 7881 227.5 C 7881 246.55 7865.55 262 7846.5 262 C 7827.45 262 7812 246.55 7812 227.5 C 7812 208.45 7827.45 193 7846.5 193 C 7865.55 193 7881 208.45 7881 227.5 Z "/></g><g style="stroke-width: 1.0;stroke: rgb(0,0,0);stroke-opacity: 1.0;stroke-linecap: square;; fill: none" transform="matrix(1,0,0,1,0,0)" ><path d="M 8082 227.5 C 8082 246.55 8066.55 262 8047.5 262 C 8028.45 262 8013 246.55 8013 227.5 C 8013 208.45 8028.45 193 8047.5 193 C 8066.55 193 8082 208.45 8082 227.5 Z "/></g><g style="stroke-width: 1.0;stroke: rgb(0,0,0);stroke-opacity: 1.0;stroke-linecap: square;; fill: none" transform="matrix(1,0,0,1,0,0)" ><path d="M 8282 227.5 C 8282 246.55 8266.55 262 8247.5 262 C 8228.45 262 8213 246.55 8213 227.5 C 8213 208.45 8228.45 193 8247.5 193 C 8266.55 193 8282 208.45 8282 227.5 Z "/></g><g style="stroke-width: 1.0;stroke: rgb(0,0,0);stroke-opacity: 1.0;stroke-linecap: square;; fill: none" transform="matrix(1,0,0,1,0,0)" ><path d="M 9588 227.5 C 9588 246.55 9572.55 262 9553.5 262 C 9534.45 262 9519 246.55 9519 227.5 C 9519 208.45 9534.45 193 9553.5 193 C 9572.55 193 9588 208.45 9588 227.5 Z "/></g><g style="stroke-width: 1.0;stroke: rgb(0,0,0);stroke-opacity: 1.0;stroke-linecap: square;; fill: none" transform="matrix(1,0,0,1,0,0)" ><path d="M 9890 227.5 C 9890 246.55 9874.55 262 9855.5 262 C 9836.45 262 9821 246.55 9821 227.5 C 9821 208.45 9836.45 193 9855.5 193 C 9874.55 193 9890 208.45 9890 227.5 Z "/></g><g style="stroke-width: 1.0;stroke: rgb(0,0,0);stroke-opacity: 1.0;stroke-linecap: square;; fill: none" transform="matrix(1,0,0,1,0,0)" ><path d="M 10091 227.5 C 10091 246.55 10075.55 262 10056.5 262 C 10037.45 262 10022 246.55 10022 227.5 C 10022 208.45 10037.45 193 10056.5 193 C 10075.55 193 10091 208.45 10091 227.5 Z "/></g><g style="stroke-width: 1.0;stroke: rgb(0,0,0);stroke-opacity: 1.0;stroke-linecap: square;; fill: none" transform="matrix(1,0,0,1,0,0)" ><path d="M 2054 303.5 C 2054 322.55 2038.55 338 2019.5 338 C 2000.45 338 1985 322.55 1985 303.5 C 1985 284.45 2000.45 269 2019.5 269 C 2038.55 269 2054 284.45 2054 303.5 Z "/></g><g style="stroke-width: 1.0;stroke: rgb(0,0,0);stroke-opacity: 1.0;stroke-linecap: square;; fill: none" transform="matrix(1,0,0,1,0,0)" ><path d="M 2858 303.5 C 2858 322.55 2842.55 338 2823.5 338 C 2804.45 338 2789 322.55 2789 303.5 C 2789 284.45 2804.45 269 2823.5 269 C 2842.55 269 2858 284.45 2858 303.5 Z "/></g><g style="stroke-width: 1.0;stroke: rgb(0,0,0);stroke-opacity: 1.0;stroke-linecap: square;; fill: none" transform="matrix(1,0,0,1,0,0)" ><path d="M 3561 303.5 C 3561 322.55 3545.55 338 3526.5 338 C 3507.45 338 3492 322.55 3492 303.5 C 3492 284.45 3507.45 269 3526.5 269 C 3545.55 269 3561 284.45 3561 303.5 Z "/></g><g style="stroke-width: 1.0;stroke: rgb(0,0,0);stroke-opacity: 1.0;stroke-linecap: square;; fill: none" transform="matrix(1,0,0,1,0,0)" ><path d="M 4063 303.5 C 4063 322.55 4047.55 338 4028.5 338 C 4009.45 338 3994 322.55 3994 303.5 C 3994 284.45 4009.45 269 4028.5 269 C 4047.55 269 4063 284.45 4063 303.5 Z "/></g><g style="stroke-width: 1.0;stroke: rgb(0,0,0);stroke-opacity: 1.0;stroke-linecap: square;; fill: none" transform="matrix(1,0,0,1,0,0)" ><path d="M 4365 303.5 C 4365 322.55 4349.55 338 4330.5 338 C 4311.45 338 4296 322.55 4296 303.5 C 4296 284.45 4311.45 269 4330.5 269 C 4349.55 269 4365 284.45 4365 303.5 Z "/></g><g style="stroke-width: 1.0;stroke: rgb(0,0,0);stroke-opacity: 1.0;stroke-linecap: square;; fill: none" transform="matrix(1,0,0,1,0,0)" ><path d="M 4867 303.5 C 4867 322.55 4851.55 338 4832.5 338 C 4813.45 338 4798 322.55 4798 303.5 C 4798 284.45 4813.45 269 4832.5 269 C 4851.55 269 4867 284.45 4867 303.5 Z "/></g><g style="stroke-width: 1.0;stroke: rgb(0,0,0);stroke-opacity: 1.0;stroke-linecap: square;; fill: none" transform="matrix(1,0,0,1,0,0)" ><path d="M 5269 303.5 C 5269 322.55 5253.55 338 5234.5 338 C 5215.45 338 5200 322.55 5200 303.5 C 5200 284.45 5215.45 269 5234.5 269 C 5253.55 269 5269 284.45 5269 303.5 Z "/></g><g style="stroke-width: 1.0;stroke: rgb(0,0,0);stroke-opacity: 1.0;stroke-linecap: square;; fill: none" transform="matrix(1,0,0,1,0,0)" ><path d="M 6072 303.5 C 6072 322.55 6056.55 338 6037.5 338 C 6018.45 338 6003 322.55 6003 303.5 C 6003 284.45 6018.45 269 6037.5 269 C 6056.55 269 6072 284.45 6072 303.5 Z "/></g><g style="stroke-width: 1.0;stroke: rgb(0,0,0);stroke-opacity: 1.0;stroke-linecap: square;; fill: none" transform="matrix(1,0,0,1,0,0)" ><path d="M 8483 303.5 C 8483 322.55 8467.55 338 8448.5 338 C 8429.45 338 8414 322.55 8414 303.5 C 8414 284.45 8429.45 269 8448.5 269 C 8467.55 269 8483 284.45 8483 303.5 Z "/></g><g style="stroke-width: 1.0;stroke: rgb(0,0,0);stroke-opacity: 1.0;stroke-linecap: square;; fill: none" transform="matrix(1,0,0,1,0,0)" ><path d="M 9287 303.5 C 9287 322.55 9271.55 338 9252.5 338 C 9233.45 338 9218 322.55 9218 303.5 C 9218 284.45 9233.45 269 9252.5 269 C 9271.55 269 9287 284.45 9287 303.5 Z "/></g><g style="stroke-width: 1.0;stroke: rgb(0,0,0);stroke-opacity: 1.0;stroke-linecap: square;; fill: none" transform="matrix(1,0,0,1,0,0)" ><path d="M 9890 303.5 C 9890 322.55 9874.55 338 9855.5 338 C 9836.45 338 9821 322.55 9821 303.5 C 9821 284.45 9836.45 269 9855.5 269 C 9874.55 269 9890 284.45 9890 303.5 Z "/></g><g style="stroke-width: 1.0;stroke: rgb(0,0,0);stroke-opacity: 1.0;stroke-linecap: square;; fill: none" transform="matrix(1,0,0,1,0,0)" ><path d="M 10091 303.5 C 10091 322.55 10075.55 338 10056.5 338 C 10037.45 338 10022 322.55 10022 303.5 C 10022 284.45 10037.45 269 10056.5 269 C 10075.55 269 10091 284.45 10091 303.5 Z "/></g><g style="stroke-width: 1.0;stroke: rgb(0,0,0);stroke-opacity: 1.0;stroke-linecap: square;; fill: none" transform="matrix(1,0,0,1,0,0)" ><path d="M 1853 379.5 C 1853 398.55 1837.55 414 1818.5 414 C 1799.45 414 1784 398.55 1784 379.5 C 1784 360.45 1799.45 345 1818.5 345 C 1837.55 345 1853 360.45 1853 379.5 Z "/></g><g style="stroke-width: 1.0;stroke: rgb(0,0,0);stroke-opacity: 1.0;stroke-linecap: square;; fill: none" transform="matrix(1,0,0,1,0,0)" ><path d="M 2255 379.5 C 2255 398.55 2239.55 414 2220.5 414 C 2201.45 414 2186 398.55 2186 379.5 C 2186 360.45 2201.45 345 2220.5 345 C 2239.55 345 2255 360.45 2255 379.5 Z "/></g><g style="stroke-width: 1.0;stroke: rgb(0,0,0);stroke-opacity: 1.0;stroke-linecap: square;; fill: none" transform="matrix(1,0,0,1,0,0)" ><path d="M 2757 379.5 C 2757 398.55 2741.55 414 2722.5 414 C 2703.45 414 2688 398.55 2688 379.5 C 2688 360.45 2703.45 345 2722.5 345 C 2741.55 345 2757 360.45 2757 379.5 Z "/></g><g style="stroke-width: 1.0;stroke: rgb(0,0,0);stroke-opacity: 1.0;stroke-linecap: square;; fill: none" transform="matrix(1,0,0,1,0,0)" ><path d="M 3461 379.5 C 3461 398.55 3445.55 414 3426.5 414 C 3407.45 414 3392 398.55 3392 379.5 C 3392 360.45 3407.45 345 3426.5 345 C 3445.55 345 3461 360.45 3461 379.5 Z "/></g><g style="stroke-width: 1.0;stroke: rgb(0,0,0);stroke-opacity: 1.0;stroke-linecap: square;; fill: none" transform="matrix(1,0,0,1,0,0)" ><path d="M 3762 379.5 C 3762 398.55 3746.55 414 3727.5 414 C 3708.45 414 3693 398.55 3693 379.5 C 3693 360.45 3708.45 345 3727.5 345 C 3746.55 345 3762 360.45 3762 379.5 Z "/></g><g style="stroke-width: 1.0;stroke: rgb(0,0,0);stroke-opacity: 1.0;stroke-linecap: square;; fill: none" transform="matrix(1,0,0,1,0,0)" ><path d="M 3963 379.5 C 3963 398.55 3947.55 414 3928.5 414 C 3909.45 414 3894 398.55 3894 379.5 C 3894 360.45 3909.45 345 3928.5 345 C 3947.55 345 3963 360.45 3963 379.5 Z "/></g><g style="stroke-width: 1.0;stroke: rgb(0,0,0);stroke-opacity: 1.0;stroke-linecap: square;; fill: none" transform="matrix(1,0,0,1,0,0)" ><path d="M 4264 379.5 C 4264 398.55 4248.55 414 4229.5 414 C 4210.45 414 4195 398.55 4195 379.5 C 4195 360.45 4210.45 345 4229.5 345 C 4248.55 345 4264 360.45 4264 379.5 Z "/></g><g style="stroke-width: 1.0;stroke: rgb(0,0,0);stroke-opacity: 1.0;stroke-linecap: square;; fill: none" transform="matrix(1,0,0,1,0,0)" ><path d="M 4566 379.5 C 4566 398.55 4550.55 414 4531.5 414 C 4512.45 414 4497 398.55 4497 379.5 C 4497 360.45 4512.45 345 4531.5 345 C 4550.55 345 4566 360.45 4566 379.5 Z "/></g><g style="stroke-width: 1.0;stroke: rgb(0,0,0);stroke-opacity: 1.0;stroke-linecap: square;; fill: none" transform="matrix(1,0,0,1,0,0)" ><path d="M 4766 379.5 C 4766 398.55 4750.55 414 4731.5 414 C 4712.45 414 4697 398.55 4697 379.5 C 4697 360.45 4712.45 345 4731.5 345 C 4750.55 345 4766 360.45 4766 379.5 Z "/></g><g style="stroke-width: 1.0;stroke: rgb(0,0,0);stroke-opacity: 1.0;stroke-linecap: square;; fill: none" transform="matrix(1,0,0,1,0,0)" ><path d="M 5068 379.5 C 5068 398.55 5052.55 414 5033.5 414 C 5014.45 414 4999 398.55 4999 379.5 C 4999 360.45 5014.45 345 5033.5 345 C 5052.55 345 5068 360.45 5068 379.5 Z "/></g><g style="stroke-width: 1.0;stroke: rgb(0,0,0);stroke-opacity: 1.0;stroke-linecap: square;; fill: none" transform="matrix(1,0,0,1,0,0)" ><path d="M 5470 379.5 C 5470 398.55 5454.55 414 5435.5 414 C 5416.45 414 5401 398.55 5401 379.5 C 5401 360.45 5416.45 345 5435.5 345 C 5454.55 345 5470 360.45 5470 379.5 Z "/></g><g style="stroke-width: 1.0;stroke: rgb(0,0,0);stroke-opacity: 1.0;stroke-linecap: square;; fill: none" transform="matrix(1,0,0,1,0,0)" ><path d="M 5972 379.5 C 5972 398.55 5956.55 414 5937.5 414 C 5918.45 414 5903 398.55 5903 379.5 C 5903 360.45 5918.45 345 5937.5 345 C 5956.55 345 5972 360.45 5972 379.5 Z "/></g><g style="stroke-width: 1.0;stroke: rgb(0,0,0);stroke-opacity: 1.0;stroke-linecap: square;; fill: none" transform="matrix(1,0,0,1,0,0)" ><path d="M 7680 379.5 C 7680 398.55 7664.55 414 7645.5 414 C 7626.45 414 7611 398.55 7611 379.5 C 7611 360.45 7626.45 345 7645.5 345 C 7664.55 345 7680 360.45 7680 379.5 Z "/></g><g style="stroke-width: 1.0;stroke: rgb(0,0,0);stroke-opacity: 1.0;stroke-linecap: square;; fill: none" transform="matrix(1,0,0,1,0,0)" ><path d="M 8282 379.5 C 8282 398.55 8266.55 414 8247.5 414 C 8228.45 414 8213 398.55 8213 379.5 C 8213 360.45 8228.45 345 8247.5 345 C 8266.55 345 8282 360.45 8282 379.5 Z "/></g><g style="stroke-width: 1.0;stroke: rgb(0,0,0);stroke-opacity: 1.0;stroke-linecap: square;; fill: none" transform="matrix(1,0,0,1,0,0)" ><path d="M 8684 379.5 C 8684 398.55 8668.55 414 8649.5 414 C 8630.45 414 8615 398.55 8615 379.5 C 8615 360.45 8630.45 345 8649.5 345 C 8668.55 345 8684 360.45 8684 379.5 Z "/></g><g style="stroke-width: 1.0;stroke: rgb(0,0,0);stroke-opacity: 1.0;stroke-linecap: square;; fill: none" transform="matrix(1,0,0,1,0,0)" ><path d="M 9187 379.5 C 9187 398.55 9171.55 414 9152.5 414 C 9133.45 414 9118 398.55 9118 379.5 C 9118 360.45 9133.45 345 9152.5 345 C 9171.55 345 9187 360.45 9187 379.5 Z "/></g><g style="stroke-width: 1.0;stroke: rgb(0,0,0);stroke-opacity: 1.0;stroke-linecap: square;; fill: none" transform="matrix(1,0,0,1,0,0)" ><path d="M 9689 379.5 C 9689 398.55 9673.55 414 9654.5 414 C 9635.45 414 9620 398.55 9620 379.5 C 9620 360.45 9635.45 345 9654.5 345 C 9673.55 345 9689 360.45 9689 379.5 Z "/></g><g style="stroke-width: 1.0;stroke: rgb(0,0,0);stroke-opacity: 1.0;stroke-linecap: square;; fill: none" transform="matrix(1,0,0,1,0,0)" ><path d="M 10493 379.5 C 10493 398.55 10477.55 414 10458.5 414 C 10439.45 414 10424 398.55 10424 379.5 C 10424 360.45 10439.45 345 10458.5 345 C 10477.55 345 10493 360.45 10493 379.5 Z "/></g><g style="stroke-width: 1.0;stroke: rgb(0,0,0);stroke-opacity: 1.0;stroke-linecap: square;; fill: none" transform="matrix(1,0,0,1,0,0)" ><path d="M 2054 455.5 C 2054 474.55 2038.55 490 2019.5 490 C 2000.45 490 1985 474.55 1985 455.5 C 1985 436.45 2000.45 421 2019.5 421 C 2038.55 421 2054 436.45 2054 455.5 Z "/></g><g style="stroke-width: 1.0;stroke: rgb(0,0,0);stroke-opacity: 1.0;stroke-linecap: square;; fill: none" transform="matrix(1,0,0,1,0,0)" ><path d="M 2657 455.5 C 2657 474.55 2641.55 490 2622.5 490 C 2603.45 490 2588 474.55 2588 455.5 C 2588 436.45 2603.45 421 2622.5 421 C 2641.55 421 2657 436.45 2657 455.5 Z "/></g><g style="stroke-width: 1.0;stroke: rgb(0,0,0);stroke-opacity: 1.0;stroke-linecap: square;; fill: none" transform="matrix(1,0,0,1,0,0)" ><path d="M 2958 455.5 C 2958 474.55 2942.55 490 2923.5 490 C 2904.45 490 2889 474.55 2889 455.5 C 2889 436.45 2904.45 421 2923.5 421 C 2942.55 421 2958 436.45 2958 455.5 Z "/></g><g style="stroke-width: 1.0;stroke: rgb(0,0,0);stroke-opacity: 1.0;stroke-linecap: square;; fill: none" transform="matrix(1,0,0,1,0,0)" ><path d="M 3561 455.5 C 3561 474.55 3545.55 490 3526.5 490 C 3507.45 490 3492 474.55 3492 455.5 C 3492 436.45 3507.45 421 3526.5 421 C 3545.55 421 3561 436.45 3561 455.5 Z "/></g><g style="stroke-width: 1.0;stroke: rgb(0,0,0);stroke-opacity: 1.0;stroke-linecap: square;; fill: none" transform="matrix(1,0,0,1,0,0)" ><path d="M 3862 455.5 C 3862 474.55 3846.55 490 3827.5 490 C 3808.45 490 3793 474.55 3793 455.5 C 3793 436.45 3808.45 421 3827.5 421 C 3846.55 421 3862 436.45 3862 455.5 Z "/></g><g style="stroke-width: 1.0;stroke: rgb(0,0,0);stroke-opacity: 1.0;stroke-linecap: square;; fill: none" transform="matrix(1,0,0,1,0,0)" ><path d="M 4164 455.5 C 4164 474.55 4148.55 490 4129.5 490 C 4110.45 490 4095 474.55 4095 455.5 C 4095 436.45 4110.45 421 4129.5 421 C 4148.55 421 4164 436.45 4164 455.5 Z "/></g><g style="stroke-width: 1.0;stroke: rgb(0,0,0);stroke-opacity: 1.0;stroke-linecap: square;; fill: none" transform="matrix(1,0,0,1,0,0)" ><path d="M 4365 455.5 C 4365 474.55 4349.55 490 4330.5 490 C 4311.45 490 4296 474.55 4296 455.5 C 4296 436.45 4311.45 421 4330.5 421 C 4349.55 421 4365 436.45 4365 455.5 Z "/></g><g style="stroke-width: 1.0;stroke: rgb(0,0,0);stroke-opacity: 1.0;stroke-linecap: square;; fill: none" transform="matrix(1,0,0,1,0,0)" ><path d="M 4666 455.5 C 4666 474.55 4650.55 490 4631.5 490 C 4612.45 490 4597 474.55 4597 455.5 C 4597 436.45 4612.45 421 4631.5 421 C 4650.55 421 4666 436.45 4666 455.5 Z "/></g><g style="stroke-width: 1.0;stroke: rgb(0,0,0);stroke-opacity: 1.0;stroke-linecap: square;; fill: none" transform="matrix(1,0,0,1,0,0)" ><path d="M 4967 455.5 C 4967 474.55 4951.55 490 4932.5 490 C 4913.45 490 4898 474.55 4898 455.5 C 4898 436.45 4913.45 421 4932.5 421 C 4951.55 421 4967 436.45 4967 455.5 Z "/></g><g style="stroke-width: 1.0;stroke: rgb(0,0,0);stroke-opacity: 1.0;stroke-linecap: square;; fill: none" transform="matrix(1,0,0,1,0,0)" ><path d="M 5269 455.5 C 5269 474.55 5253.55 490 5234.5 490 C 5215.45 490 5200 474.55 5200 455.5 C 5200 436.45 5215.45 421 5234.5 421 C 5253.55 421 5269 436.45 5269 455.5 Z "/></g><g style="stroke-width: 1.0;stroke: rgb(0,0,0);stroke-opacity: 1.0;stroke-linecap: square;; fill: none" transform="matrix(1,0,0,1,0,0)" ><path d="M 5872 455.5 C 5872 474.55 5856.55 490 5837.5 490 C 5818.45 490 5803 474.55 5803 455.5 C 5803 436.45 5818.45 421 5837.5 421 C 5856.55 421 5872 436.45 5872 455.5 Z "/></g><g style="stroke-width: 1.0;stroke: rgb(0,0,0);stroke-opacity: 1.0;stroke-linecap: square;; fill: none" transform="matrix(1,0,0,1,0,0)" ><path d="M 6173 455.5 C 6173 474.55 6157.55 490 6138.5 490 C 6119.45 490 6104 474.55 6104 455.5 C 6104 436.45 6119.45 421 6138.5 421 C 6157.55 421 6173 436.45 6173 455.5 Z "/></g><g style="stroke-width: 1.0;stroke: rgb(0,0,0);stroke-opacity: 1.0;stroke-linecap: square;; fill: none" transform="matrix(1,0,0,1,0,0)" ><path d="M 7579 455.5 C 7579 474.55 7563.55 490 7544.5 490 C 7525.45 490 7510 474.55 7510 455.5 C 7510 436.45 7525.45 421 7544.5 421 C 7563.55 421 7579 436.45 7579 455.5 Z "/></g><g style="stroke-width: 1.0;stroke: rgb(0,0,0);stroke-opacity: 1.0;stroke-linecap: square;; fill: none" transform="matrix(1,0,0,1,0,0)" ><path d="M 8082 455.5 C 8082 474.55 8066.55 490 8047.5 490 C 8028.45 490 8013 474.55 8013 455.5 C 8013 436.45 8028.45 421 8047.5 421 C 8066.55 421 8082 436.45 8082 455.5 Z "/></g><g style="stroke-width: 1.0;stroke: rgb(0,0,0);stroke-opacity: 1.0;stroke-linecap: square;; fill: none" transform="matrix(1,0,0,1,0,0)" ><path d="M 8483 455.5 C 8483 474.55 8467.55 490 8448.5 490 C 8429.45 490 8414 474.55 8414 455.5 C 8414 436.45 8429.45 421 8448.5 421 C 8467.55 421 8483 436.45 8483 455.5 Z "/></g><g style="stroke-width: 1.0;stroke: rgb(0,0,0);stroke-opacity: 1.0;stroke-linecap: square;; fill: none" transform="matrix(1,0,0,1,0,0)" ><path d="M 9086 455.5 C 9086 474.55 9070.55 490 9051.5 490 C 9032.45 490 9017 474.55 9017 455.5 C 9017 436.45 9032.45 421 9051.5 421 C 9070.55 421 9086 436.45 9086 455.5 Z "/></g><g style="stroke-width: 1.0;stroke: rgb(0,0,0);stroke-opacity: 1.0;stroke-linecap: square;; fill: none" transform="matrix(1,0,0,1,0,0)" ><path d="M 9388 455.5 C 9388 474.55 9372.55 490 9353.5 490 C 9334.45 490 9319 474.55 9319 455.5 C 9319 436.45 9334.45 421 9353.5 421 C 9372.55 421 9388 436.45 9388 455.5 Z "/></g><g style="stroke-width: 1.0;stroke: rgb(0,0,0);stroke-opacity: 1.0;stroke-linecap: square;; fill: none" transform="matrix(1,0,0,1,0,0)" ><path d="M 9890 455.5 C 9890 474.55 9874.55 490 9855.5 490 C 9836.45 490 9821 474.55 9821 455.5 C 9821 436.45 9836.45 421 9855.5 421 C 9874.55 421 9890 436.45 9890 455.5 Z "/></g><g style="stroke-width: 1.0;stroke: rgb(0,0,0);stroke-opacity: 1.0;stroke-linecap: square;; fill: none" transform="matrix(1,0,0,1,0,0)" ><path d="M 10091 455.5 C 10091 474.55 10075.55 490 10056.5 490 C 10037.45 490 10022 474.55 10022 455.5 C 10022 436.45 10037.45 421 10056.5 421 C 10075.55 421 10091 436.45 10091 455.5 Z "/></g><g style="stroke-width: 1.0;stroke: rgb(0,0,0);stroke-opacity: 1.0;stroke-linecap: square;; fill: none" transform="matrix(1,0,0,1,0,0)" ><path d="M 2255 531.5 C 2255 550.55 2239.55 566 2220.5 566 C 2201.45 566 2186 550.55 2186 531.5 C 2186 512.45 2201.45 497 2220.5 497 C 2239.55 497 2255 512.45 2255 531.5 Z "/></g><g style="stroke-width: 1.0;stroke: rgb(0,0,0);stroke-opacity: 1.0;stroke-linecap: square;; fill: none" transform="matrix(1,0,0,1,0,0)" ><path d="M 2757 531.5 C 2757 550.55 2741.55 566 2722.5 566 C 2703.45 566 2688 550.55 2688 531.5 C 2688 512.45 2703.45 497 2722.5 497 C 2741.55 497 2757 512.45 2757 531.5 Z "/></g><g style="stroke-width: 1.0;stroke: rgb(0,0,0);stroke-opacity: 1.0;stroke-linecap: square;; fill: none" transform="matrix(1,0,0,1,0,0)" ><path d="M 3059 531.5 C 3059 550.55 3043.55 566 3024.5 566 C 3005.45 566 2990 550.55 2990 531.5 C 2990 512.45 3005.45 497 3024.5 497 C 3043.55 497 3059 512.45 3059 531.5 Z "/></g><g style="stroke-width: 1.0;stroke: rgb(0,0,0);stroke-opacity: 1.0;stroke-linecap: square;; fill: none" transform="matrix(1,0,0,1,0,0)" ><path d="M 3461 531.5 C 3461 550.55 3445.55 566 3426.5 566 C 3407.45 566 3392 550.55 3392 531.5 C 3392 512.45 3407.45 497 3426.5 497 C 3445.55 497 3461 512.45 3461 531.5 Z "/></g><g style="stroke-width: 1.0;stroke: rgb(0,0,0);stroke-opacity: 1.0;stroke-linecap: square;; fill: none" transform="matrix(1,0,0,1,0,0)" ><path d="M 3762 531.5 C 3762 550.55 3746.55 566 3727.5 566 C 3708.45 566 3693 550.55 3693 531.5 C 3693 512.45 3708.45 497 3727.5 497 C 3746.55 497 3762 512.45 3762 531.5 Z "/></g><g style="stroke-width: 1.0;stroke: rgb(0,0,0);stroke-opacity: 1.0;stroke-linecap: square;; fill: none" transform="matrix(1,0,0,1,0,0)" ><path d="M 3963 531.5 C 3963 550.55 3947.55 566 3928.5 566 C 3909.45 566 3894 550.55 3894 531.5 C 3894 512.45 3909.45 497 3928.5 497 C 3947.55 497 3963 512.45 3963 531.5 Z "/></g><g style="stroke-width: 1.0;stroke: rgb(0,0,0);stroke-opacity: 1.0;stroke-linecap: square;; fill: none" transform="matrix(1,0,0,1,0,0)" ><path d="M 4264 531.5 C 4264 550.55 4248.55 566 4229.5 566 C 4210.45 566 4195 550.55 4195 531.5 C 4195 512.45 4210.45 497 4229.5 497 C 4248.55 497 4264 512.45 4264 531.5 Z "/></g><g style="stroke-width: 1.0;stroke: rgb(0,0,0);stroke-opacity: 1.0;stroke-linecap: square;; fill: none" transform="matrix(1,0,0,1,0,0)" ><path d="M 4566 531.5 C 4566 550.55 4550.55 566 4531.5 566 C 4512.45 566 4497 550.55 4497 531.5 C 4497 512.45 4512.45 497 4531.5 497 C 4550.55 497 4566 512.45 4566 531.5 Z "/></g><g style="stroke-width: 1.0;stroke: rgb(0,0,0);stroke-opacity: 1.0;stroke-linecap: square;; fill: none" transform="matrix(1,0,0,1,0,0)" ><path d="M 4766 531.5 C 4766 550.55 4750.55 566 4731.5 566 C 4712.45 566 4697 550.55 4697 531.5 C 4697 512.45 4712.45 497 4731.5 497 C 4750.55 497 4766 512.45 4766 531.5 Z "/></g><g style="stroke-width: 1.0;stroke: rgb(0,0,0);stroke-opacity: 1.0;stroke-linecap: square;; fill: none" transform="matrix(1,0,0,1,0,0)" ><path d="M 5470 531.5 C 5470 550.55 5454.55 566 5435.5 566 C 5416.45 566 5401 550.55 5401 531.5 C 5401 512.45 5416.45 497 5435.5 497 C 5454.55 497 5470 512.45 5470 531.5 Z "/></g><g style="stroke-width: 1.0;stroke: rgb(0,0,0);stroke-opacity: 1.0;stroke-linecap: square;; fill: none" transform="matrix(1,0,0,1,0,0)" ><path d="M 5972 531.5 C 5972 550.55 5956.55 566 5937.5 566 C 5918.45 566 5903 550.55 5903 531.5 C 5903 512.45 5918.45 497 5937.5 497 C 5956.55 497 5972 512.45 5972 531.5 Z "/></g><g style="stroke-width: 1.0;stroke: rgb(0,0,0);stroke-opacity: 1.0;stroke-linecap: square;; fill: none" transform="matrix(1,0,0,1,0,0)" ><path d="M 6273 531.5 C 6273 550.55 6257.55 566 6238.5 566 C 6219.45 566 6204 550.55 6204 531.5 C 6204 512.45 6219.45 497 6238.5 497 C 6257.55 497 6273 512.45 6273 531.5 Z "/></g><g style="stroke-width: 1.0;stroke: rgb(0,0,0);stroke-opacity: 1.0;stroke-linecap: square;; fill: none" transform="matrix(1,0,0,1,0,0)" ><path d="M 7479 531.5 C 7479 550.55 7463.55 566 7444.5 566 C 7425.45 566 7410 550.55 7410 531.5 C 7410 512.45 7425.45 497 7444.5 497 C 7463.55 497 7479 512.45 7479 531.5 Z "/></g><g style="stroke-width: 1.0;stroke: rgb(0,0,0);stroke-opacity: 1.0;stroke-linecap: square;; fill: none" transform="matrix(1,0,0,1,0,0)" ><path d="M 7780 531.5 C 7780 550.55 7764.55 566 7745.5 566 C 7726.45 566 7711 550.55 7711 531.5 C 7711 512.45 7726.45 497 7745.5 497 C 7764.55 497 7780 512.45 7780 531.5 Z "/></g><g style="stroke-width: 1.0;stroke: rgb(0,0,0);stroke-opacity: 1.0;stroke-linecap: square;; fill: none" transform="matrix(1,0,0,1,0,0)" ><path d="M 7981 531.5 C 7981 550.55 7965.55 566 7946.5 566 C 7927.45 566 7912 550.55 7912 531.5 C 7912 512.45 7927.45 497 7946.5 497 C 7965.55 497 7981 512.45 7981 531.5 Z "/></g><g style="stroke-width: 1.0;stroke: rgb(0,0,0);stroke-opacity: 1.0;stroke-linecap: square;; fill: none" transform="matrix(1,0,0,1,0,0)" ><path d="M 8684 531.5 C 8684 550.55 8668.55 566 8649.5 566 C 8630.45 566 8615 550.55 8615 531.5 C 8615 512.45 8630.45 497 8649.5 497 C 8668.55 497 8684 512.45 8684 531.5 Z "/></g><g style="stroke-width: 1.0;stroke: rgb(0,0,0);stroke-opacity: 1.0;stroke-linecap: square;; fill: none" transform="matrix(1,0,0,1,0,0)" ><path d="M 9187 531.5 C 9187 550.55 9171.55 566 9152.5 566 C 9133.45 566 9118 550.55 9118 531.5 C 9118 512.45 9133.45 497 9152.5 497 C 9171.55 497 9187 512.45 9187 531.5 Z "/></g><g style="stroke-width: 1.0;stroke: rgb(0,0,0);stroke-opacity: 1.0;stroke-linecap: square;; fill: none" transform="matrix(1,0,0,1,0,0)" ><path d="M 9488 531.5 C 9488 550.55 9472.55 566 9453.5 566 C 9434.45 566 9419 550.55 9419 531.5 C 9419 512.45 9434.45 497 9453.5 497 C 9472.55 497 9488 512.45 9488 531.5 Z "/></g><g style="stroke-width: 1.0;stroke: rgb(0,0,0);stroke-opacity: 1.0;stroke-linecap: square;; fill: none" transform="matrix(1,0,0,1,0,0)" ><path d="M 9789 531.5 C 9789 550.55 9773.55 566 9754.5 566 C 9735.45 566 9720 550.55 9720 531.5 C 9720 512.45 9735.45 497 9754.5 497 C 9773.55 497 9789 512.45 9789 531.5 Z "/></g><g style="stroke-width: 1.0;stroke: rgb(0,0,0);stroke-opacity: 1.0;stroke-linecap: square;; fill: none" transform="matrix(1,0,0,1,0,0)" ><path d="M 10292 531.5 C 10292 550.55 10276.55 566 10257.5 566 C 10238.45 566 10223 550.55 10223 531.5 C 10223 512.45 10238.45 497 10257.5 497 C 10276.55 497 10292 512.45 10292 531.5 Z "/></g><g style="stroke-width: 1.0;stroke: rgb(0,0,0);stroke-opacity: 1.0;stroke-linecap: square;; fill: none" transform="matrix(1,0,0,1,0,0)" ><path d="M 10693 531.5 C 10693 550.55 10677.55 566 10658.5 566 C 10639.45 566 10624 550.55 10624 531.5 C 10624 512.45 10639.45 497 10658.5 497 C 10677.55 497 10693 512.45 10693 531.5 Z "/></g><g style="stroke-width: 1.0;stroke: rgb(0,0,0);stroke-opacity: 1.0;stroke-linecap: square;; fill: none" transform="matrix(1,0,0,1,0,0)" ><path d="M 2657 607.5 C 2657 626.55 2641.55 642 2622.5 642 C 2603.45 642 2588 626.55 2588 607.5 C 2588 588.45 2603.45 573 2622.5 573 C 2641.55 573 2657 588.45 2657 607.5 Z "/></g><g style="stroke-width: 1.0;stroke: rgb(0,0,0);stroke-opacity: 1.0;stroke-linecap: square;; fill: none" transform="matrix(1,0,0,1,0,0)" ><path d="M 2958 607.5 C 2958 626.55 2942.55 642 2923.5 642 C 2904.45 642 2889 626.55 2889 607.5 C 2889 588.45 2904.45 573 2923.5 573 C 2942.55 573 2958 588.45 2958 607.5 Z "/></g><g style="stroke-width: 1.0;stroke: rgb(0,0,0);stroke-opacity: 1.0;stroke-linecap: square;; fill: none" transform="matrix(1,0,0,1,0,0)" ><path d="M 3862 607.5 C 3862 626.55 3846.55 642 3827.5 642 C 3808.45 642 3793 626.55 3793 607.5 C 3793 588.45 3808.45 573 3827.5 573 C 3846.55 573 3862 588.45 3862 607.5 Z "/></g><g style="stroke-width: 1.0;stroke: rgb(0,0,0);stroke-opacity: 1.0;stroke-linecap: square;; fill: none" transform="matrix(1,0,0,1,0,0)" ><path d="M 4164 607.5 C 4164 626.55 4148.55 642 4129.5 642 C 4110.45 642 4095 626.55 4095 607.5 C 4095 588.45 4110.45 573 4129.5 573 C 4148.55 573 4164 588.45 4164 607.5 Z "/></g><g style="stroke-width: 1.0;stroke: rgb(0,0,0);stroke-opacity: 1.0;stroke-linecap: square;; fill: none" transform="matrix(1,0,0,1,0,0)" ><path d="M 4666 607.5 C 4666 626.55 4650.55 642 4631.5 642 C 4612.45 642 4597 626.55 4597 607.5 C 4597 588.45 4612.45 573 4631.5 573 C 4650.55 573 4666 588.45 4666 607.5 Z "/></g><g style="stroke-width: 1.0;stroke: rgb(0,0,0);stroke-opacity: 1.0;stroke-linecap: square;; fill: none" transform="matrix(1,0,0,1,0,0)" ><path d="M 4967 607.5 C 4967 626.55 4951.55 642 4932.5 642 C 4913.45 642 4898 626.55 4898 607.5 C 4898 588.45 4913.45 573 4932.5 573 C 4951.55 573 4967 588.45 4967 607.5 Z "/></g><g style="stroke-width: 1.0;stroke: rgb(0,0,0);stroke-opacity: 1.0;stroke-linecap: square;; fill: none" transform="matrix(1,0,0,1,0,0)" ><path d="M 5872 607.5 C 5872 626.55 5856.55 642 5837.5 642 C 5818.45 642 5803 626.55 5803 607.5 C 5803 588.45 5818.45 573 5837.5 573 C 5856.55 573 5872 588.45 5872 607.5 Z "/></g><g style="stroke-width: 1.0;stroke: rgb(0,0,0);stroke-opacity: 1.0;stroke-linecap: square;; fill: none" transform="matrix(1,0,0,1,0,0)" ><path d="M 7881 607.5 C 7881 626.55 7865.55 642 7846.5 642 C 7827.45 642 7812 626.55 7812 607.5 C 7812 588.45 7827.45 573 7846.5 573 C 7865.55 573 7881 588.45 7881 607.5 Z "/></g><g style="stroke-width: 1.0;stroke: rgb(0,0,0);stroke-opacity: 1.0;stroke-linecap: square;; fill: none" transform="matrix(1,0,0,1,0,0)" ><path d="M 8182 607.5 C 8182 626.55 8166.55 642 8147.5 642 C 8128.45 642 8113 626.55 8113 607.5 C 8113 588.45 8128.45 573 8147.5 573 C 8166.55 573 8182 588.45 8182 607.5 Z "/></g><g style="stroke-width: 1.0;stroke: rgb(0,0,0);stroke-opacity: 1.0;stroke-linecap: square;; fill: none" transform="matrix(1,0,0,1,0,0)" ><path d="M 9086 607.5 C 9086 626.55 9070.55 642 9051.5 642 C 9032.45 642 9017 626.55 9017 607.5 C 9017 588.45 9032.45 573 9051.5 573 C 9070.55 573 9086 588.45 9086 607.5 Z "/></g><g style="stroke-width: 1.0;stroke: rgb(0,0,0);stroke-opacity: 1.0;stroke-linecap: square;; fill: none" transform="matrix(1,0,0,1,0,0)" ><path d="M 9388 607.5 C 9388 626.55 9372.55 642 9353.5 642 C 9334.45 642 9319 626.55 9319 607.5 C 9319 588.45 9334.45 573 9353.5 573 C 9372.55 573 9388 588.45 9388 607.5 Z "/></g><g style="stroke-width: 1.0;stroke: rgb(0,0,0);stroke-opacity: 1.0;stroke-linecap: square;; fill: none" transform="matrix(1,0,0,1,0,0)" ><path d="M 9890 607.5 C 9890 626.55 9874.55 642 9855.5 642 C 9836.45 642 9821 626.55 9821 607.5 C 9821 588.45 9836.45 573 9855.5 573 C 9874.55 573 9890 588.45 9890 607.5 Z "/></g><g style="stroke-width: 1.0;stroke: rgb(0,0,0);stroke-opacity: 1.0;stroke-linecap: square;; fill: none" transform="matrix(1,0,0,1,0,0)" ><path d="M 10091 607.5 C 10091 626.55 10075.55 642 10056.5 642 C 10037.45 642 10022 626.55 10022 607.5 C 10022 588.45 10037.45 573 10056.5 573 C 10075.55 573 10091 588.45 10091 607.5 Z "/></g><g style="stroke-width: 1.0;stroke: rgb(0,0,0);stroke-opacity: 1.0;stroke-linecap: square;; fill: none" transform="matrix(1,0,0,1,0,0)" ><path d="M 10241 607.5 C 10241 626.55 10225.55 642 10206.5 642 C 10187.45 642 10172 626.55 10172 607.5 C 10172 588.45 10187.45 573 10206.5 573 C 10225.55 573 10241 588.45 10241 607.5 Z "/></g><g style="stroke-width: 1.0;stroke: rgb(0,0,0);stroke-opacity: 1.0;stroke-linecap: square;; fill: none" transform="matrix(1,0,0,1,0,0)" ><path d="M 2858 683.5 C 2858 702.55 2842.55 718 2823.5 718 C 2804.45 718 2789 702.55 2789 683.5 C 2789 664.45 2804.45 649 2823.5 649 C 2842.55 649 2858 664.45 2858 683.5 Z "/></g><g style="stroke-width: 1.0;stroke: rgb(0,0,0);stroke-opacity: 1.0;stroke-linecap: square;; fill: none" transform="matrix(1,0,0,1,0,0)" ><path d="M 4063 683.5 C 4063 702.55 4047.55 718 4028.5 718 C 4009.45 718 3994 702.55 3994 683.5 C 3994 664.45 4009.45 649 4028.5 649 C 4047.55 649 4063 664.45 4063 683.5 Z "/></g><g style="stroke-width: 1.0;stroke: rgb(0,0,0);stroke-opacity: 1.0;stroke-linecap: square;; fill: none" transform="matrix(1,0,0,1,0,0)" ><path d="M 4867 683.5 C 4867 702.55 4851.55 718 4832.5 718 C 4813.45 718 4798 702.55 4798 683.5 C 4798 664.45 4813.45 649 4832.5 649 C 4851.55 649 4867 664.45 4867 683.5 Z "/></g><g style="stroke-width: 1.0;stroke: rgb(0,0,0);stroke-opacity: 1.0;stroke-linecap: square;; fill: none" transform="matrix(1,0,0,1,0,0)" ><path d="M 6072 683.5 C 6072 702.55 6056.55 718 6037.5 718 C 6018.45 718 6003 702.55 6003 683.5 C 6003 664.45 6018.45 649 6037.5 649 C 6056.55 649 6072 664.45 6072 683.5 Z "/></g><g style="stroke-width: 1.0;stroke: rgb(0,0,0);stroke-opacity: 1.0;stroke-linecap: square;; fill: none" transform="matrix(1,0,0,1,0,0)" ><path d="M 10191 683.5 C 10191 702.55 10175.55 718 10156.5 718 C 10137.45 718 10122 702.55 10122 683.5 C 10122 664.45 10137.45 649 10156.5 649 C 10175.55 649 10191 664.45 10191 683.5 Z "/></g><g style="stroke-width: 1.0;stroke: rgb(0,0,0);stroke-opacity: 1.0;stroke-linecap: square;; fill: none" transform="matrix(1,0,0,1,0,0)" ><path d="M 1050 759.5 C 1050 778.55 1034.55 794 1015.5 794 C 996.45 794 981 778.55 981 759.5 C 981 740.45 996.45 725 1015.5 725 C 1034.55 725 1050 740.45 1050 759.5 Z "/></g><g style="stroke-width: 1.0;stroke: rgb(0,0,0);stroke-opacity: 1.0;stroke-linecap: square;; fill: none" transform="matrix(1,0,0,1,0,0)" ><path d="M 1250 759.5 C 1250 778.55 1234.55 794 1215.5 794 C 1196.45 794 1181 778.55 1181 759.5 C 1181 740.45 1196.45 725 1215.5 725 C 1234.55 725 1250 740.45 1250 759.5 Z "/></g><g style="stroke-width: 1.0;stroke: rgb(0,0,0);stroke-opacity: 1.0;stroke-linecap: square;; fill: none" transform="matrix(1,0,0,1,0,0)" ><path d="M 1451 759.5 C 1451 778.55 1435.55 794 1416.5 794 C 1397.45 794 1382 778.55 1382 759.5 C 1382 740.45 1397.45 725 1416.5 725 C 1435.55 725 1451 740.45 1451 759.5 Z "/></g><g style="stroke-width: 1.0;stroke: rgb(0,0,0);stroke-opacity: 1.0;stroke-linecap: square;; fill: none" transform="matrix(1,0,0,1,0,0)" ><path d="M 1652 759.5 C 1652 778.55 1636.55 794 1617.5 794 C 1598.45 794 1583 778.55 1583 759.5 C 1583 740.45 1598.45 725 1617.5 725 C 1636.55 725 1652 740.45 1652 759.5 Z "/></g><g style="stroke-width: 1.0;stroke: rgb(0,0,0);stroke-opacity: 1.0;stroke-linecap: square;; fill: none" transform="matrix(1,0,0,1,0,0)" ><path d="M 1853 759.5 C 1853 778.55 1837.55 794 1818.5 794 C 1799.45 794 1784 778.55 1784 759.5 C 1784 740.45 1799.45 725 1818.5 725 C 1837.55 725 1853 740.45 1853 759.5 Z "/></g><g style="stroke-width: 1.0;stroke: rgb(0,0,0);stroke-opacity: 1.0;stroke-linecap: square;; fill: none" transform="matrix(1,0,0,1,0,0)" ><path d="M 2757 759.5 C 2757 778.55 2741.55 794 2722.5 794 C 2703.45 794 2688 778.55 2688 759.5 C 2688 740.45 2703.45 725 2722.5 725 C 2741.55 725 2757 740.45 2757 759.5 Z "/></g><g style="stroke-width: 1.0;stroke: rgb(0,0,0);stroke-opacity: 1.0;stroke-linecap: square;; fill: none" transform="matrix(1,0,0,1,0,0)" ><path d="M 2958 759.5 C 2958 778.55 2942.55 794 2923.5 794 C 2904.45 794 2889 778.55 2889 759.5 C 2889 740.45 2904.45 725 2923.5 725 C 2942.55 725 2958 740.45 2958 759.5 Z "/></g><g style="stroke-width: 1.0;stroke: rgb(0,0,0);stroke-opacity: 1.0;stroke-linecap: square;; fill: none" transform="matrix(1,0,0,1,0,0)" ><path d="M 3661 759.5 C 3661 778.55 3645.55 794 3626.5 794 C 3607.45 794 3592 778.55 3592 759.5 C 3592 740.45 3607.45 725 3626.5 725 C 3645.55 725 3661 740.45 3661 759.5 Z "/></g><g style="stroke-width: 1.0;stroke: rgb(0,0,0);stroke-opacity: 1.0;stroke-linecap: square;; fill: none" transform="matrix(1,0,0,1,0,0)" ><path d="M 4465 759.5 C 4465 778.55 4449.55 794 4430.5 794 C 4411.45 794 4396 778.55 4396 759.5 C 4396 740.45 4411.45 725 4430.5 725 C 4449.55 725 4465 740.45 4465 759.5 Z "/></g><g style="stroke-width: 1.0;stroke: rgb(0,0,0);stroke-opacity: 1.0;stroke-linecap: square;; fill: none" transform="matrix(1,0,0,1,0,0)" ><path d="M 5068 759.5 C 5068 778.55 5052.55 794 5033.5 794 C 5014.45 794 4999 778.55 4999 759.5 C 4999 740.45 5014.45 725 5033.5 725 C 5052.55 725 5068 740.45 5068 759.5 Z "/></g><g style="stroke-width: 1.0;stroke: rgb(0,0,0);stroke-opacity: 1.0;stroke-linecap: square;; fill: none" transform="matrix(1,0,0,1,0,0)" ><path d="M 5570 759.5 C 5570 778.55 5554.55 794 5535.5 794 C 5516.45 794 5501 778.55 5501 759.5 C 5501 740.45 5516.45 725 5535.5 725 C 5554.55 725 5570 740.45 5570 759.5 Z "/></g><g style="stroke-width: 1.0;stroke: rgb(0,0,0);stroke-opacity: 1.0;stroke-linecap: square;; fill: none" transform="matrix(1,0,0,1,0,0)" ><path d="M 5972 759.5 C 5972 778.55 5956.55 794 5937.5 794 C 5918.45 794 5903 778.55 5903 759.5 C 5903 740.45 5918.45 725 5937.5 725 C 5956.55 725 5972 740.45 5972 759.5 Z "/></g><g style="stroke-width: 1.0;stroke: rgb(0,0,0);stroke-opacity: 1.0;stroke-linecap: square;; fill: none" transform="matrix(1,0,0,1,0,0)" ><path d="M 6173 759.5 C 6173 778.55 6157.55 794 6138.5 794 C 6119.45 794 6104 778.55 6104 759.5 C 6104 740.45 6119.45 725 6138.5 725 C 6157.55 725 6173 740.45 6173 759.5 Z "/></g><g style="stroke-width: 1.0;stroke: rgb(0,0,0);stroke-opacity: 1.0;stroke-linecap: square;; fill: none" transform="matrix(1,0,0,1,0,0)" ><path d="M 6675 759.5 C 6675 778.55 6659.55 794 6640.5 794 C 6621.45 794 6606 778.55 6606 759.5 C 6606 740.45 6621.45 725 6640.5 725 C 6659.55 725 6675 740.45 6675 759.5 Z "/></g><g style="stroke-width: 1.0;stroke: rgb(0,0,0);stroke-opacity: 1.0;stroke-linecap: square;; fill: none" transform="matrix(1,0,0,1,0,0)" ><path d="M 6876 759.5 C 6876 778.55 6860.55 794 6841.5 794 C 6822.45 794 6807 778.55 6807 759.5 C 6807 740.45 6822.45 725 6841.5 725 C 6860.55 725 6876 740.45 6876 759.5 Z "/></g><g style="stroke-width: 1.0;stroke: rgb(0,0,0);stroke-opacity: 1.0;stroke-linecap: square;; fill: none" transform="matrix(1,0,0,1,0,0)" ><path d="M 7077 759.5 C 7077 778.55 7061.55 794 7042.5 794 C 7023.45 794 7008 778.55 7008 759.5 C 7008 740.45 7023.45 725 7042.5 725 C 7061.55 725 7077 740.45 7077 759.5 Z "/></g><g style="stroke-width: 1.0;stroke: rgb(0,0,0);stroke-opacity: 1.0;stroke-linecap: square;; fill: none" transform="matrix(1,0,0,1,0,0)" ><path d="M 7278 759.5 C 7278 778.55 7262.55 794 7243.5 794 C 7224.45 794 7209 778.55 7209 759.5 C 7209 740.45 7224.45 725 7243.5 725 C 7262.55 725 7278 740.45 7278 759.5 Z "/></g><g style="stroke-width: 1.0;stroke: rgb(0,0,0);stroke-opacity: 1.0;stroke-linecap: square;; fill: none" transform="matrix(1,0,0,1,0,0)" ><path d="M 7680 759.5 C 7680 778.55 7664.55 794 7645.5 794 C 7626.45 794 7611 778.55 7611 759.5 C 7611 740.45 7626.45 725 7645.5 725 C 7664.55 725 7680 740.45 7680 759.5 Z "/></g><g style="stroke-width: 1.0;stroke: rgb(0,0,0);stroke-opacity: 1.0;stroke-linecap: square;; fill: none" transform="matrix(1,0,0,1,0,0)" ><path d="M 8282 759.5 C 8282 778.55 8266.55 794 8247.5 794 C 8228.45 794 8213 778.55 8213 759.5 C 8213 740.45 8228.45 725 8247.5 725 C 8266.55 725 8282 740.45 8282 759.5 Z "/></g><g style="stroke-width: 1.0;stroke: rgb(0,0,0);stroke-opacity: 1.0;stroke-linecap: square;; fill: none" transform="matrix(1,0,0,1,0,0)" ><path d="M 8785 759.5 C 8785 778.55 8769.55 794 8750.5 794 C 8731.45 794 8716 778.55 8716 759.5 C 8716 740.45 8731.45 725 8750.5 725 C 8769.55 725 8785 740.45 8785 759.5 Z "/></g><g style="stroke-width: 1.0;stroke: rgb(0,0,0);stroke-opacity: 1.0;stroke-linecap: square;; fill: none" transform="matrix(1,0,0,1,0,0)" ><path d="M 9187 759.5 C 9187 778.55 9171.55 794 9152.5 794 C 9133.45 794 9118 778.55 9118 759.5 C 9118 740.45 9133.45 725 9152.5 725 C 9171.55 725 9187 740.45 9187 759.5 Z "/></g><g style="stroke-width: 1.0;stroke: rgb(0,0,0);stroke-opacity: 1.0;stroke-linecap: square;; fill: none" transform="matrix(1,0,0,1,0,0)" ><path d="M 9388 759.5 C 9388 778.55 9372.55 794 9353.5 794 C 9334.45 794 9319 778.55 9319 759.5 C 9319 740.45 9334.45 725 9353.5 725 C 9372.55 725 9388 740.45 9388 759.5 Z "/></g><g style="stroke-width: 1.0;stroke: rgb(0,0,0);stroke-opacity: 1.0;stroke-linecap: square;; fill: none" transform="matrix(1,0,0,1,0,0)" ><path d="M 9588 759.5 C 9588 778.55 9572.55 794 9553.5 794 C 9534.45 794 9519 778.55 9519 759.5 C 9519 740.45 9534.45 725 9553.5 725 C 9572.55 725 9588 740.45 9588 759.5 Z "/></g><g style="stroke-width: 1.0;stroke: rgb(0,0,0);stroke-opacity: 1.0;stroke-linecap: square;; fill: none" transform="matrix(1,0,0,1,0,0)" ><path d="M 10141 759.5 C 10141 778.55 10125.55 794 10106.5 794 C 10087.45 794 10072 778.55 10072 759.5 C 10072 740.45 10087.45 725 10106.5 725 C 10125.55 725 10141 740.45 10141 759.5 Z "/></g><g style="stroke-width: 1.0;stroke: rgb(0,0,0);stroke-opacity: 1.0;stroke-linecap: square;; fill: none" transform="matrix(1,0,0,1,0,0)" ><path d="M 10292 759.5 C 10292 778.55 10276.55 794 10257.5 794 C 10238.45 794 10223 778.55 10223 759.5 C 10223 740.45 10238.45 725 10257.5 725 C 10276.55 725 10292 740.45 10292 759.5 Z "/></g><g style="stroke-width: 1.0;stroke: rgb(0,0,0);stroke-opacity: 1.0;stroke-linecap: square;; fill: none" transform="matrix(1,0,0,1,0,0)" ><path d="M 10493 759.5 C 10493 778.55 10477.55 794 10458.5 794 C 10439.45 794 10424 778.55 10424 759.5 C 10424 740.45 10439.45 725 10458.5 725 C 10477.55 725 10493 740.45 10493 759.5 Z "/></g><g style="stroke-width: 1.0;stroke: rgb(0,0,0);stroke-opacity: 1.0;stroke-linecap: square;; fill: none" transform="matrix(1,0,0,1,0,0)" ><path d="M 2054 834.5 C 2054 853.55 2038.55 869 2019.5 869 C 2000.45 869 1985 853.55 1985 834.5 C 1985 815.45 2000.45 800 2019.5 800 C 2038.55 800 2054 815.45 2054 834.5 Z "/></g><g style="stroke-width: 1.0;stroke: rgb(0,0,0);stroke-opacity: 1.0;stroke-linecap: square;; fill: none" transform="matrix(1,0,0,1,0,0)" ><path d="M 2958 834.5 C 2958 853.55 2942.55 869 2923.5 869 C 2904.45 869 2889 853.55 2889 834.5 C 2889 815.45 2904.45 800 2923.5 800 C 2942.55 800 2958 815.45 2958 834.5 Z "/></g><g style="stroke-width: 1.0;stroke: rgb(0,0,0);stroke-opacity: 1.0;stroke-linecap: square;; fill: none" transform="matrix(1,0,0,1,0,0)" ><path d="M 3159 834.5 C 3159 853.55 3143.55 869 3124.5 869 C 3105.45 869 3090 853.55 3090 834.5 C 3090 815.45 3105.45 800 3124.5 800 C 3143.55 800 3159 815.45 3159 834.5 Z "/></g><g style="stroke-width: 1.0;stroke: rgb(0,0,0);stroke-opacity: 1.0;stroke-linecap: square;; fill: none" transform="matrix(1,0,0,1,0,0)" ><path d="M 3561 834.5 C 3561 853.55 3545.55 869 3526.5 869 C 3507.45 869 3492 853.55 3492 834.5 C 3492 815.45 3507.45 800 3526.5 800 C 3545.55 800 3561 815.45 3561 834.5 Z "/></g><g style="stroke-width: 1.0;stroke: rgb(0,0,0);stroke-opacity: 1.0;stroke-linecap: square;; fill: none" transform="matrix(1,0,0,1,0,0)" ><path d="M 4063 834.5 C 4063 853.55 4047.55 869 4028.5 869 C 4009.45 869 3994 853.55 3994 834.5 C 3994 815.45 4009.45 800 4028.5 800 C 4047.55 800 4063 815.45 4063 834.5 Z "/></g><g style="stroke-width: 1.0;stroke: rgb(0,0,0);stroke-opacity: 1.0;stroke-linecap: square;; fill: none" transform="matrix(1,0,0,1,0,0)" ><path d="M 4365 834.5 C 4365 853.55 4349.55 869 4330.5 869 C 4311.45 869 4296 853.55 4296 834.5 C 4296 815.45 4311.45 800 4330.5 800 C 4349.55 800 4365 815.45 4365 834.5 Z "/></g><g style="stroke-width: 1.0;stroke: rgb(0,0,0);stroke-opacity: 1.0;stroke-linecap: square;; fill: none" transform="matrix(1,0,0,1,0,0)" ><path d="M 4867 834.5 C 4867 853.55 4851.55 869 4832.5 869 C 4813.45 869 4798 853.55 4798 834.5 C 4798 815.45 4813.45 800 4832.5 800 C 4851.55 800 4867 815.45 4867 834.5 Z "/></g><g style="stroke-width: 1.0;stroke: rgb(0,0,0);stroke-opacity: 1.0;stroke-linecap: square;; fill: none" transform="matrix(1,0,0,1,0,0)" ><path d="M 5269 834.5 C 5269 853.55 5253.55 869 5234.5 869 C 5215.45 869 5200 853.55 5200 834.5 C 5200 815.45 5215.45 800 5234.5 800 C 5253.55 800 5269 815.45 5269 834.5 Z "/></g><g style="stroke-width: 1.0;stroke: rgb(0,0,0);stroke-opacity: 1.0;stroke-linecap: square;; fill: none" transform="matrix(1,0,0,1,0,0)" ><path d="M 6173 834.5 C 6173 853.55 6157.55 869 6138.5 869 C 6119.45 869 6104 853.55 6104 834.5 C 6104 815.45 6119.45 800 6138.5 800 C 6157.55 800 6173 815.45 6173 834.5 Z "/></g><g style="stroke-width: 1.0;stroke: rgb(0,0,0);stroke-opacity: 1.0;stroke-linecap: square;; fill: none" transform="matrix(1,0,0,1,0,0)" ><path d="M 6374 834.5 C 6374 853.55 6358.55 869 6339.5 869 C 6320.45 869 6305 853.55 6305 834.5 C 6305 815.45 6320.45 800 6339.5 800 C 6358.55 800 6374 815.45 6374 834.5 Z "/></g><g style="stroke-width: 1.0;stroke: rgb(0,0,0);stroke-opacity: 1.0;stroke-linecap: square;; fill: none" transform="matrix(1,0,0,1,0,0)" ><path d="M 7579 834.5 C 7579 853.55 7563.55 869 7544.5 869 C 7525.45 869 7510 853.55 7510 834.5 C 7510 815.45 7525.45 800 7544.5 800 C 7563.55 800 7579 815.45 7579 834.5 Z "/></g><g style="stroke-width: 1.0;stroke: rgb(0,0,0);stroke-opacity: 1.0;stroke-linecap: square;; fill: none" transform="matrix(1,0,0,1,0,0)" ><path d="M 8082 834.5 C 8082 853.55 8066.55 869 8047.5 869 C 8028.45 869 8013 853.55 8013 834.5 C 8013 815.45 8028.45 800 8047.5 800 C 8066.55 800 8082 815.45 8082 834.5 Z "/></g><g style="stroke-width: 1.0;stroke: rgb(0,0,0);stroke-opacity: 1.0;stroke-linecap: square;; fill: none" transform="matrix(1,0,0,1,0,0)" ><path d="M 8483 834.5 C 8483 853.55 8467.55 869 8448.5 869 C 8429.45 869 8414 853.55 8414 834.5 C 8414 815.45 8429.45 800 8448.5 800 C 8467.55 800 8483 815.45 8483 834.5 Z "/></g><g style="stroke-width: 1.0;stroke: rgb(0,0,0);stroke-opacity: 1.0;stroke-linecap: square;; fill: none" transform="matrix(1,0,0,1,0,0)" ><path d="M 9388 834.5 C 9388 853.55 9372.55 869 9353.5 869 C 9334.45 869 9319 853.55 9319 834.5 C 9319 815.45 9334.45 800 9353.5 800 C 9372.55 800 9388 815.45 9388 834.5 Z "/></g><g style="stroke-width: 1.0;stroke: rgb(0,0,0);stroke-opacity: 1.0;stroke-linecap: square;; fill: none" transform="matrix(1,0,0,1,0,0)" ><path d="M 9890 834.5 C 9890 853.55 9874.55 869 9855.5 869 C 9836.45 869 9821 853.55 9821 834.5 C 9821 815.45 9836.45 800 9855.5 800 C 9874.55 800 9890 815.45 9890 834.5 Z "/></g><g style="stroke-width: 1.0;stroke: rgb(0,0,0);stroke-opacity: 1.0;stroke-linecap: square;; fill: none" transform="matrix(1,0,0,1,0,0)" ><path d="M 10091 834.5 C 10091 853.55 10075.55 869 10056.5 869 C 10037.45 869 10022 853.55 10022 834.5 C 10022 815.45 10037.45 800 10056.5 800 C 10075.55 800 10091 815.45 10091 834.5 Z "/></g><g style="stroke-width: 1.0;stroke: rgb(0,0,0);stroke-opacity: 1.0;stroke-linecap: square;; fill: none" transform="matrix(1,0,0,1,0,0)" ><path d="M 1853 910.5 C 1853 929.55 1837.55 945 1818.5 945 C 1799.45 945 1784 929.55 1784 910.5 C 1784 891.45 1799.45 876 1818.5 876 C 1837.55 876 1853 891.45 1853 910.5 Z "/></g><g style="stroke-width: 1.0;stroke: rgb(0,0,0);stroke-opacity: 1.0;stroke-linecap: square;; fill: none" transform="matrix(1,0,0,1,0,0)" ><path d="M 2255 910.5 C 2255 929.55 2239.55 945 2220.5 945 C 2201.45 945 2186 929.55 2186 910.5 C 2186 891.45 2201.45 876 2220.5 876 C 2239.55 876 2255 891.45 2255 910.5 Z "/></g><g style="stroke-width: 1.0;stroke: rgb(0,0,0);stroke-opacity: 1.0;stroke-linecap: square;; fill: none" transform="matrix(1,0,0,1,0,0)" ><path d="M 3059 910.5 C 3059 929.55 3043.55 945 3024.5 945 C 3005.45 945 2990 929.55 2990 910.5 C 2990 891.45 3005.45 876 3024.5 876 C 3043.55 876 3059 891.45 3059 910.5 Z "/></g><g style="stroke-width: 1.0;stroke: rgb(0,0,0);stroke-opacity: 1.0;stroke-linecap: square;; fill: none" transform="matrix(1,0,0,1,0,0)" ><path d="M 3260 910.5 C 3260 929.55 3244.55 945 3225.5 945 C 3206.45 945 3191 929.55 3191 910.5 C 3191 891.45 3206.45 876 3225.5 876 C 3244.55 876 3260 891.45 3260 910.5 Z "/></g><g style="stroke-width: 1.0;stroke: rgb(0,0,0);stroke-opacity: 1.0;stroke-linecap: square;; fill: none" transform="matrix(1,0,0,1,0,0)" ><path d="M 3461 910.5 C 3461 929.55 3445.55 945 3426.5 945 C 3407.45 945 3392 929.55 3392 910.5 C 3392 891.45 3407.45 876 3426.5 876 C 3445.55 876 3461 891.45 3461 910.5 Z "/></g><g style="stroke-width: 1.0;stroke: rgb(0,0,0);stroke-opacity: 1.0;stroke-linecap: square;; fill: none" transform="matrix(1,0,0,1,0,0)" ><path d="M 3661 910.5 C 3661 929.55 3645.55 945 3626.5 945 C 3607.45 945 3592 929.55 3592 910.5 C 3592 891.45 3607.45 876 3626.5 876 C 3645.55 876 3661 891.45 3661 910.5 Z "/></g><g style="stroke-width: 1.0;stroke: rgb(0,0,0);stroke-opacity: 1.0;stroke-linecap: square;; fill: none" transform="matrix(1,0,0,1,0,0)" ><path d="M 3963 910.5 C 3963 929.55 3947.55 945 3928.5 945 C 3909.45 945 3894 929.55 3894 910.5 C 3894 891.45 3909.45 876 3928.5 876 C 3947.55 876 3963 891.45 3963 910.5 Z "/></g><g style="stroke-width: 1.0;stroke: rgb(0,0,0);stroke-opacity: 1.0;stroke-linecap: square;; fill: none" transform="matrix(1,0,0,1,0,0)" ><path d="M 4264 910.5 C 4264 929.55 4248.55 945 4229.5 945 C 4210.45 945 4195 929.55 4195 910.5 C 4195 891.45 4210.45 876 4229.5 876 C 4248.55 876 4264 891.45 4264 910.5 Z "/></g><g style="stroke-width: 1.0;stroke: rgb(0,0,0);stroke-opacity: 1.0;stroke-linecap: square;; fill: none" transform="matrix(1,0,0,1,0,0)" ><path d="M 4465 910.5 C 4465 929.55 4449.55 945 4430.5 945 C 4411.45 945 4396 929.55 4396 910.5 C 4396 891.45 4411.45 876 4430.5 876 C 4449.55 876 4465 891.45 4465 910.5 Z "/></g><g style="stroke-width: 1.0;stroke: rgb(0,0,0);stroke-opacity: 1.0;stroke-linecap: square;; fill: none" transform="matrix(1,0,0,1,0,0)" ><path d="M 4766 910.5 C 4766 929.55 4750.55 945 4731.5 945 C 4712.45 945 4697 929.55 4697 910.5 C 4697 891.45 4712.45 876 4731.5 876 C 4750.55 876 4766 891.45 4766 910.5 Z "/></g><g style="stroke-width: 1.0;stroke: rgb(0,0,0);stroke-opacity: 1.0;stroke-linecap: square;; fill: none" transform="matrix(1,0,0,1,0,0)" ><path d="M 5470 910.5 C 5470 929.55 5454.55 945 5435.5 945 C 5416.45 945 5401 929.55 5401 910.5 C 5401 891.45 5416.45 876 5435.5 876 C 5454.55 876 5470 891.45 5470 910.5 Z "/></g><g style="stroke-width: 1.0;stroke: rgb(0,0,0);stroke-opacity: 1.0;stroke-linecap: square;; fill: none" transform="matrix(1,0,0,1,0,0)" ><path d="M 6273 910.5 C 6273 929.55 6257.55 945 6238.5 945 C 6219.45 945 6204 929.55 6204 910.5 C 6204 891.45 6219.45 876 6238.5 876 C 6257.55 876 6273 891.45 6273 910.5 Z "/></g><g style="stroke-width: 1.0;stroke: rgb(0,0,0);stroke-opacity: 1.0;stroke-linecap: square;; fill: none" transform="matrix(1,0,0,1,0,0)" ><path d="M 6474 910.5 C 6474 929.55 6458.55 945 6439.5 945 C 6420.45 945 6405 929.55 6405 910.5 C 6405 891.45 6420.45 876 6439.5 876 C 6458.55 876 6474 891.45 6474 910.5 Z "/></g><g style="stroke-width: 1.0;stroke: rgb(0,0,0);stroke-opacity: 1.0;stroke-linecap: square;; fill: none" transform="matrix(1,0,0,1,0,0)" ><path d="M 6876 910.5 C 6876 929.55 6860.55 945 6841.5 945 C 6822.45 945 6807 929.55 6807 910.5 C 6807 891.45 6822.45 876 6841.5 876 C 6860.55 876 6876 891.45 6876 910.5 Z "/></g><g style="stroke-width: 1.0;stroke: rgb(0,0,0);stroke-opacity: 1.0;stroke-linecap: square;; fill: none" transform="matrix(1,0,0,1,0,0)" ><path d="M 7479 910.5 C 7479 929.55 7463.55 945 7444.5 945 C 7425.45 945 7410 929.55 7410 910.5 C 7410 891.45 7425.45 876 7444.5 876 C 7463.55 876 7479 891.45 7479 910.5 Z "/></g><g style="stroke-width: 1.0;stroke: rgb(0,0,0);stroke-opacity: 1.0;stroke-linecap: square;; fill: none" transform="matrix(1,0,0,1,0,0)" ><path d="M 7780 910.5 C 7780 929.55 7764.55 945 7745.5 945 C 7726.45 945 7711 929.55 7711 910.5 C 7711 891.45 7726.45 876 7745.5 876 C 7764.55 876 7780 891.45 7780 910.5 Z "/></g><g style="stroke-width: 1.0;stroke: rgb(0,0,0);stroke-opacity: 1.0;stroke-linecap: square;; fill: none" transform="matrix(1,0,0,1,0,0)" ><path d="M 7981 910.5 C 7981 929.55 7965.55 945 7946.5 945 C 7927.45 945 7912 929.55 7912 910.5 C 7912 891.45 7927.45 876 7946.5 876 C 7965.55 876 7981 891.45 7981 910.5 Z "/></g><g style="stroke-width: 1.0;stroke: rgb(0,0,0);stroke-opacity: 1.0;stroke-linecap: square;; fill: none" transform="matrix(1,0,0,1,0,0)" ><path d="M 8282 910.5 C 8282 929.55 8266.55 945 8247.5 945 C 8228.45 945 8213 929.55 8213 910.5 C 8213 891.45 8228.45 876 8247.5 876 C 8266.55 876 8282 891.45 8282 910.5 Z "/></g><g style="stroke-width: 1.0;stroke: rgb(0,0,0);stroke-opacity: 1.0;stroke-linecap: square;; fill: none" transform="matrix(1,0,0,1,0,0)" ><path d="M 8684 910.5 C 8684 929.55 8668.55 945 8649.5 945 C 8630.45 945 8615 929.55 8615 910.5 C 8615 891.45 8630.45 876 8649.5 876 C 8668.55 876 8684 891.45 8684 910.5 Z "/></g><g style="stroke-width: 1.0;stroke: rgb(0,0,0);stroke-opacity: 1.0;stroke-linecap: square;; fill: none" transform="matrix(1,0,0,1,0,0)" ><path d="M 8885 910.5 C 8885 929.55 8869.55 945 8850.5 945 C 8831.45 945 8816 929.55 8816 910.5 C 8816 891.45 8831.45 876 8850.5 876 C 8869.55 876 8885 891.45 8885 910.5 Z "/></g><g style="stroke-width: 1.0;stroke: rgb(0,0,0);stroke-opacity: 1.0;stroke-linecap: square;; fill: none" transform="matrix(1,0,0,1,0,0)" ><path d="M 9488 910.5 C 9488 929.55 9472.55 945 9453.5 945 C 9434.45 945 9419 929.55 9419 910.5 C 9419 891.45 9434.45 876 9453.5 876 C 9472.55 876 9488 891.45 9488 910.5 Z "/></g><g style="stroke-width: 1.0;stroke: rgb(0,0,0);stroke-opacity: 1.0;stroke-linecap: square;; fill: none" transform="matrix(1,0,0,1,0,0)" ><path d="M 9689 910.5 C 9689 929.55 9673.55 945 9654.5 945 C 9635.45 945 9620 929.55 9620 910.5 C 9620 891.45 9635.45 876 9654.5 876 C 9673.55 876 9689 891.45 9689 910.5 Z "/></g><g style="stroke-width: 1.0;stroke: rgb(0,0,0);stroke-opacity: 1.0;stroke-linecap: square;; fill: none" transform="matrix(1,0,0,1,0,0)" ><path d="M 10040 910.5 C 10040 929.55 10024.55 945 10005.5 945 C 9986.45 945 9971 929.55 9971 910.5 C 9971 891.45 9986.45 876 10005.5 876 C 10024.55 876 10040 891.45 10040 910.5 Z "/></g><g style="stroke-width: 1.0;stroke: rgb(0,0,0);stroke-opacity: 1.0;stroke-linecap: square;; fill: none" transform="matrix(1,0,0,1,0,0)" ><path d="M 10292 910.5 C 10292 929.55 10276.55 945 10257.5 945 C 10238.45 945 10223 929.55 10223 910.5 C 10223 891.45 10238.45 876 10257.5 876 C 10276.55 876 10292 891.45 10292 910.5 Z "/></g><g style="stroke-width: 1.0;stroke: rgb(0,0,0);stroke-opacity: 1.0;stroke-linecap: square;; fill: none" transform="matrix(1,0,0,1,0,0)" ><path d="M 10693 910.5 C 10693 929.55 10677.55 945 10658.5 945 C 10639.45 945 10624 929.55 10624 910.5 C 10624 891.45 10639.45 876 10658.5 876 C 10677.55 876 10693 891.45 10693 910.5 Z "/></g><g style="stroke-width: 1.0;stroke: rgb(0,0,0);stroke-opacity: 1.0;stroke-linecap: square;; fill: none" transform="matrix(1,0,0,1,0,0)" ><path d="M 2054 986.5 C 2054 1005.55 2038.55 1021 2019.5 1021 C 2000.45 1021 1985 1005.55 1985 986.5 C 1985 967.45 2000.45 952 2019.5 952 C 2038.55 952 2054 967.45 2054 986.5 Z "/></g><g style="stroke-width: 1.0;stroke: rgb(0,0,0);stroke-opacity: 1.0;stroke-linecap: square;; fill: none" transform="matrix(1,0,0,1,0,0)" ><path d="M 2657 986.5 C 2657 1005.55 2641.55 1021 2622.5 1021 C 2603.45 1021 2588 1005.55 2588 986.5 C 2588 967.45 2603.45 952 2622.5 952 C 2641.55 952 2657 967.45 2657 986.5 Z "/></g><g style="stroke-width: 1.0;stroke: rgb(0,0,0);stroke-opacity: 1.0;stroke-linecap: square;; fill: none" transform="matrix(1,0,0,1,0,0)" ><path d="M 2958 986.5 C 2958 1005.55 2942.55 1021 2923.5 1021 C 2904.45 1021 2889 1005.55 2889 986.5 C 2889 967.45 2904.45 952 2923.5 952 C 2942.55 952 2958 967.45 2958 986.5 Z "/></g><g style="stroke-width: 1.0;stroke: rgb(0,0,0);stroke-opacity: 1.0;stroke-linecap: square;; fill: none" transform="matrix(1,0,0,1,0,0)" ><path d="M 3360 986.5 C 3360 1005.55 3344.55 1021 3325.5 1021 C 3306.45 1021 3291 1005.55 3291 986.5 C 3291 967.45 3306.45 952 3325.5 952 C 3344.55 952 3360 967.45 3360 986.5 Z "/></g><g style="stroke-width: 1.0;stroke: rgb(0,0,0);stroke-opacity: 1.0;stroke-linecap: square;; fill: none" transform="matrix(1,0,0,1,0,0)" ><path d="M 3561 986.5 C 3561 1005.55 3545.55 1021 3526.5 1021 C 3507.45 1021 3492 1005.55 3492 986.5 C 3492 967.45 3507.45 952 3526.5 952 C 3545.55 952 3561 967.45 3561 986.5 Z "/></g><g style="stroke-width: 1.0;stroke: rgb(0,0,0);stroke-opacity: 1.0;stroke-linecap: square;; fill: none" transform="matrix(1,0,0,1,0,0)" ><path d="M 3862 986.5 C 3862 1005.55 3846.55 1021 3827.5 1021 C 3808.45 1021 3793 1005.55 3793 986.5 C 3793 967.45 3808.45 952 3827.5 952 C 3846.55 952 3862 967.45 3862 986.5 Z "/></g><g style="stroke-width: 1.0;stroke: rgb(0,0,0);stroke-opacity: 1.0;stroke-linecap: square;; fill: none" transform="matrix(1,0,0,1,0,0)" ><path d="M 4164 986.5 C 4164 1005.55 4148.55 1021 4129.5 1021 C 4110.45 1021 4095 1005.55 4095 986.5 C 4095 967.45 4110.45 952 4129.5 952 C 4148.55 952 4164 967.45 4164 986.5 Z "/></g><g style="stroke-width: 1.0;stroke: rgb(0,0,0);stroke-opacity: 1.0;stroke-linecap: square;; fill: none" transform="matrix(1,0,0,1,0,0)" ><path d="M 4666 986.5 C 4666 1005.55 4650.55 1021 4631.5 1021 C 4612.45 1021 4597 1005.55 4597 986.5 C 4597 967.45 4612.45 952 4631.5 952 C 4650.55 952 4666 967.45 4666 986.5 Z "/></g><g style="stroke-width: 1.0;stroke: rgb(0,0,0);stroke-opacity: 1.0;stroke-linecap: square;; fill: none" transform="matrix(1,0,0,1,0,0)" ><path d="M 5269 986.5 C 5269 1005.55 5253.55 1021 5234.5 1021 C 5215.45 1021 5200 1005.55 5200 986.5 C 5200 967.45 5215.45 952 5234.5 952 C 5253.55 952 5269 967.45 5269 986.5 Z "/></g><g style="stroke-width: 1.0;stroke: rgb(0,0,0);stroke-opacity: 1.0;stroke-linecap: square;; fill: none" transform="matrix(1,0,0,1,0,0)" ><path d="M 6173 986.5 C 6173 1005.55 6157.55 1021 6138.5 1021 C 6119.45 1021 6104 1005.55 6104 986.5 C 6104 967.45 6119.45 952 6138.5 952 C 6157.55 952 6173 967.45 6173 986.5 Z "/></g><g style="stroke-width: 1.0;stroke: rgb(0,0,0);stroke-opacity: 1.0;stroke-linecap: square;; fill: none" transform="matrix(1,0,0,1,0,0)" ><path d="M 6575 986.5 C 6575 1005.55 6559.55 1021 6540.5 1021 C 6521.45 1021 6506 1005.55 6506 986.5 C 6506 967.45 6521.45 952 6540.5 952 C 6559.55 952 6575 967.45 6575 986.5 Z "/></g><g style="stroke-width: 1.0;stroke: rgb(0,0,0);stroke-opacity: 1.0;stroke-linecap: square;; fill: none" transform="matrix(1,0,0,1,0,0)" ><path d="M 6776 986.5 C 6776 1005.55 6760.55 1021 6741.5 1021 C 6722.45 1021 6707 1005.55 6707 986.5 C 6707 967.45 6722.45 952 6741.5 952 C 6760.55 952 6776 967.45 6776 986.5 Z "/></g><g style="stroke-width: 1.0;stroke: rgb(0,0,0);stroke-opacity: 1.0;stroke-linecap: square;; fill: none" transform="matrix(1,0,0,1,0,0)" ><path d="M 7278 986.5 C 7278 1005.55 7262.55 1021 7243.5 1021 C 7224.45 1021 7209 1005.55 7209 986.5 C 7209 967.45 7224.45 952 7243.5 952 C 7262.55 952 7278 967.45 7278 986.5 Z "/></g><g style="stroke-width: 1.0;stroke: rgb(0,0,0);stroke-opacity: 1.0;stroke-linecap: square;; fill: none" transform="matrix(1,0,0,1,0,0)" ><path d="M 7881 986.5 C 7881 1005.55 7865.55 1021 7846.5 1021 C 7827.45 1021 7812 1005.55 7812 986.5 C 7812 967.45 7827.45 952 7846.5 952 C 7865.55 952 7881 967.45 7881 986.5 Z "/></g><g style="stroke-width: 1.0;stroke: rgb(0,0,0);stroke-opacity: 1.0;stroke-linecap: square;; fill: none" transform="matrix(1,0,0,1,0,0)" ><path d="M 8182 986.5 C 8182 1005.55 8166.55 1021 8147.5 1021 C 8128.45 1021 8113 1005.55 8113 986.5 C 8113 967.45 8128.45 952 8147.5 952 C 8166.55 952 8182 967.45 8182 986.5 Z "/></g><g style="stroke-width: 1.0;stroke: rgb(0,0,0);stroke-opacity: 1.0;stroke-linecap: square;; fill: none" transform="matrix(1,0,0,1,0,0)" ><path d="M 8483 986.5 C 8483 1005.55 8467.55 1021 8448.5 1021 C 8429.45 1021 8414 1005.55 8414 986.5 C 8414 967.45 8429.45 952 8448.5 952 C 8467.55 952 8483 967.45 8483 986.5 Z "/></g><g style="stroke-width: 1.0;stroke: rgb(0,0,0);stroke-opacity: 1.0;stroke-linecap: square;; fill: none" transform="matrix(1,0,0,1,0,0)" ><path d="M 9086 986.5 C 9086 1005.55 9070.55 1021 9051.5 1021 C 9032.45 1021 9017 1005.55 9017 986.5 C 9017 967.45 9032.45 952 9051.5 952 C 9070.55 952 9086 967.45 9086 986.5 Z "/></g><g style="stroke-width: 1.0;stroke: rgb(0,0,0);stroke-opacity: 1.0;stroke-linecap: square;; fill: none" transform="matrix(1,0,0,1,0,0)" ><path d="M 9388 986.5 C 9388 1005.55 9372.55 1021 9353.5 1021 C 9334.45 1021 9319 1005.55 9319 986.5 C 9319 967.45 9334.45 952 9353.5 952 C 9372.55 952 9388 967.45 9388 986.5 Z "/></g><g style="stroke-width: 1.0;stroke: rgb(0,0,0);stroke-opacity: 1.0;stroke-linecap: square;; fill: none" transform="matrix(1,0,0,1,0,0)" ><path d="M 9990 986.5 C 9990 1005.55 9974.55 1021 9955.5 1021 C 9936.45 1021 9921 1005.55 9921 986.5 C 9921 967.45 9936.45 952 9955.5 952 C 9974.55 952 9990 967.45 9990 986.5 Z "/></g><g style="stroke-width: 1.0;stroke: rgb(0,0,0);stroke-opacity: 1.0;stroke-linecap: square;; fill: none" transform="matrix(1,0,0,1,0,0)" ><path d="M 2255 1062.5 C 2255 1081.55 2239.55 1097 2220.5 1097 C 2201.45 1097 2186 1081.55 2186 1062.5 C 2186 1043.45 2201.45 1028 2220.5 1028 C 2239.55 1028 2255 1043.45 2255 1062.5 Z "/></g><g style="stroke-width: 1.0;stroke: rgb(0,0,0);stroke-opacity: 1.0;stroke-linecap: square;; fill: none" transform="matrix(1,0,0,1,0,0)" ><path d="M 2757 1062.5 C 2757 1081.55 2741.55 1097 2722.5 1097 C 2703.45 1097 2688 1081.55 2688 1062.5 C 2688 1043.45 2703.45 1028 2722.5 1028 C 2741.55 1028 2757 1043.45 2757 1062.5 Z "/></g><g style="stroke-width: 1.0;stroke: rgb(0,0,0);stroke-opacity: 1.0;stroke-linecap: square;; fill: none" transform="matrix(1,0,0,1,0,0)" ><path d="M 3059 1062.5 C 3059 1081.55 3043.55 1097 3024.5 1097 C 3005.45 1097 2990 1081.55 2990 1062.5 C 2990 1043.45 3005.45 1028 3024.5 1028 C 3043.55 1028 3059 1043.45 3059 1062.5 Z "/></g><g style="stroke-width: 1.0;stroke: rgb(0,0,0);stroke-opacity: 1.0;stroke-linecap: square;; fill: none" transform="matrix(1,0,0,1,0,0)" ><path d="M 3461 1062.5 C 3461 1081.55 3445.55 1097 3426.5 1097 C 3407.45 1097 3392 1081.55 3392 1062.5 C 3392 1043.45 3407.45 1028 3426.5 1028 C 3445.55 1028 3461 1043.45 3461 1062.5 Z "/></g><g style="stroke-width: 1.0;stroke: rgb(0,0,0);stroke-opacity: 1.0;stroke-linecap: square;; fill: none" transform="matrix(1,0,0,1,0,0)" ><path d="M 3762 1062.5 C 3762 1081.55 3746.55 1097 3727.5 1097 C 3708.45 1097 3693 1081.55 3693 1062.5 C 3693 1043.45 3708.45 1028 3727.5 1028 C 3746.55 1028 3762 1043.45 3762 1062.5 Z "/></g><g style="stroke-width: 1.0;stroke: rgb(0,0,0);stroke-opacity: 1.0;stroke-linecap: square;; fill: none" transform="matrix(1,0,0,1,0,0)" ><path d="M 4264 1062.5 C 4264 1081.55 4248.55 1097 4229.5 1097 C 4210.45 1097 4195 1081.55 4195 1062.5 C 4195 1043.45 4210.45 1028 4229.5 1028 C 4248.55 1028 4264 1043.45 4264 1062.5 Z "/></g><g style="stroke-width: 1.0;stroke: rgb(0,0,0);stroke-opacity: 1.0;stroke-linecap: square;; fill: none" transform="matrix(1,0,0,1,0,0)" ><path d="M 4465 1062.5 C 4465 1081.55 4449.55 1097 4430.5 1097 C 4411.45 1097 4396 1081.55 4396 1062.5 C 4396 1043.45 4411.45 1028 4430.5 1028 C 4449.55 1028 4465 1043.45 4465 1062.5 Z "/></g><g style="stroke-width: 1.0;stroke: rgb(0,0,0);stroke-opacity: 1.0;stroke-linecap: square;; fill: none" transform="matrix(1,0,0,1,0,0)" ><path d="M 5068 1062.5 C 5068 1081.55 5052.55 1097 5033.5 1097 C 5014.45 1097 4999 1081.55 4999 1062.5 C 4999 1043.45 5014.45 1028 5033.5 1028 C 5052.55 1028 5068 1043.45 5068 1062.5 Z "/></g><g style="stroke-width: 1.0;stroke: rgb(0,0,0);stroke-opacity: 1.0;stroke-linecap: square;; fill: none" transform="matrix(1,0,0,1,0,0)" ><path d="M 5470 1062.5 C 5470 1081.55 5454.55 1097 5435.5 1097 C 5416.45 1097 5401 1081.55 5401 1062.5 C 5401 1043.45 5416.45 1028 5435.5 1028 C 5454.55 1028 5470 1043.45 5470 1062.5 Z "/></g><g style="stroke-width: 1.0;stroke: rgb(0,0,0);stroke-opacity: 1.0;stroke-linecap: square;; fill: none" transform="matrix(1,0,0,1,0,0)" ><path d="M 5771 1062.5 C 5771 1081.55 5755.55 1097 5736.5 1097 C 5717.45 1097 5702 1081.55 5702 1062.5 C 5702 1043.45 5717.45 1028 5736.5 1028 C 5755.55 1028 5771 1043.45 5771 1062.5 Z "/></g><g style="stroke-width: 1.0;stroke: rgb(0,0,0);stroke-opacity: 1.0;stroke-linecap: square;; fill: none" transform="matrix(1,0,0,1,0,0)" ><path d="M 5972 1062.5 C 5972 1081.55 5956.55 1097 5937.5 1097 C 5918.45 1097 5903 1081.55 5903 1062.5 C 5903 1043.45 5918.45 1028 5937.5 1028 C 5956.55 1028 5972 1043.45 5972 1062.5 Z "/></g><g style="stroke-width: 1.0;stroke: rgb(0,0,0);stroke-opacity: 1.0;stroke-linecap: square;; fill: none" transform="matrix(1,0,0,1,0,0)" ><path d="M 6273 1062.5 C 6273 1081.55 6257.55 1097 6238.5 1097 C 6219.45 1097 6204 1081.55 6204 1062.5 C 6204 1043.45 6219.45 1028 6238.5 1028 C 6257.55 1028 6273 1043.45 6273 1062.5 Z "/></g><g style="stroke-width: 1.0;stroke: rgb(0,0,0);stroke-opacity: 1.0;stroke-linecap: square;; fill: none" transform="matrix(1,0,0,1,0,0)" ><path d="M 6675 1062.5 C 6675 1081.55 6659.55 1097 6640.5 1097 C 6621.45 1097 6606 1081.55 6606 1062.5 C 6606 1043.45 6621.45 1028 6640.5 1028 C 6659.55 1028 6675 1043.45 6675 1062.5 Z "/></g><g style="stroke-width: 1.0;stroke: rgb(0,0,0);stroke-opacity: 1.0;stroke-linecap: square;; fill: none" transform="matrix(1,0,0,1,0,0)" ><path d="M 6977 1062.5 C 6977 1081.55 6961.55 1097 6942.5 1097 C 6923.45 1097 6908 1081.55 6908 1062.5 C 6908 1043.45 6923.45 1028 6942.5 1028 C 6961.55 1028 6977 1043.45 6977 1062.5 Z "/></g><g style="stroke-width: 1.0;stroke: rgb(0,0,0);stroke-opacity: 1.0;stroke-linecap: square;; fill: none" transform="matrix(1,0,0,1,0,0)" ><path d="M 7177 1062.5 C 7177 1081.55 7161.55 1097 7142.5 1097 C 7123.45 1097 7108 1081.55 7108 1062.5 C 7108 1043.45 7123.45 1028 7142.5 1028 C 7161.55 1028 7177 1043.45 7177 1062.5 Z "/></g><g style="stroke-width: 1.0;stroke: rgb(0,0,0);stroke-opacity: 1.0;stroke-linecap: square;; fill: none" transform="matrix(1,0,0,1,0,0)" ><path d="M 8684 1062.5 C 8684 1081.55 8668.55 1097 8649.5 1097 C 8630.45 1097 8615 1081.55 8615 1062.5 C 8615 1043.45 8630.45 1028 8649.5 1028 C 8668.55 1028 8684 1043.45 8684 1062.5 Z "/></g><g style="stroke-width: 1.0;stroke: rgb(0,0,0);stroke-opacity: 1.0;stroke-linecap: square;; fill: none" transform="matrix(1,0,0,1,0,0)" ><path d="M 8986 1062.5 C 8986 1081.55 8970.55 1097 8951.5 1097 C 8932.45 1097 8917 1081.55 8917 1062.5 C 8917 1043.45 8932.45 1028 8951.5 1028 C 8970.55 1028 8986 1043.45 8986 1062.5 Z "/></g><g style="stroke-width: 1.0;stroke: rgb(0,0,0);stroke-opacity: 1.0;stroke-linecap: square;; fill: none" transform="matrix(1,0,0,1,0,0)" ><path d="M 9187 1062.5 C 9187 1081.55 9171.55 1097 9152.5 1097 C 9133.45 1097 9118 1081.55 9118 1062.5 C 9118 1043.45 9133.45 1028 9152.5 1028 C 9171.55 1028 9187 1043.45 9187 1062.5 Z "/></g><g style="stroke-width: 1.0;stroke: rgb(0,0,0);stroke-opacity: 1.0;stroke-linecap: square;; fill: none" transform="matrix(1,0,0,1,0,0)" ><path d="M 9488 1062.5 C 9488 1081.55 9472.55 1097 9453.5 1097 C 9434.45 1097 9419 1081.55 9419 1062.5 C 9419 1043.45 9434.45 1028 9453.5 1028 C 9472.55 1028 9488 1043.45 9488 1062.5 Z "/></g><g style="stroke-width: 1.0;stroke: rgb(0,0,0);stroke-opacity: 1.0;stroke-linecap: square;; fill: none" transform="matrix(1,0,0,1,0,0)" ><path d="M 9940 1062.5 C 9940 1081.55 9924.55 1097 9905.5 1097 C 9886.45 1097 9871 1081.55 9871 1062.5 C 9871 1043.45 9886.45 1028 9905.5 1028 C 9924.55 1028 9940 1043.45 9940 1062.5 Z "/></g><g style="stroke-width: 1.0;stroke: rgb(0,0,0);stroke-opacity: 1.0;stroke-linecap: square;; fill: none" transform="matrix(1,0,0,1,0,0)" ><path d="M 10292 1062.5 C 10292 1081.55 10276.55 1097 10257.5 1097 C 10238.45 1097 10223 1081.55 10223 1062.5 C 10223 1043.45 10238.45 1028 10257.5 1028 C 10276.55 1028 10292 1043.45 10292 1062.5 Z "/></g><g style="stroke-width: 1.0;stroke: rgb(0,0,0);stroke-opacity: 1.0;stroke-linecap: square;; fill: none" transform="matrix(1,0,0,1,0,0)" ><path d="M 10493 1062.5 C 10493 1081.55 10477.55 1097 10458.5 1097 C 10439.45 1097 10424 1081.55 10424 1062.5 C 10424 1043.45 10439.45 1028 10458.5 1028 C 10477.55 1028 10493 1043.45 10493 1062.5 Z "/></g><g style="stroke-width: 1.0;stroke: rgb(0,0,0);stroke-opacity: 1.0;stroke-linecap: square;; fill: none" transform="matrix(1,0,0,1,0,0)" ><path d="M 10693 1062.5 C 10693 1081.55 10677.55 1097 10658.5 1097 C 10639.45 1097 10624 1081.55 10624 1062.5 C 10624 1043.45 10639.45 1028 10658.5 1028 C 10677.55 1028 10693 1043.45 10693 1062.5 Z "/></g><g style="stroke-width: 1.0;stroke: rgb(0,0,0);stroke-opacity: 1.0;stroke-linecap: square;; fill: none" transform="matrix(1,0,0,1,0,0)" ><path d="M 2054 1138.5 C 2054 1157.55 2038.55 1173 2019.5 1173 C 2000.45 1173 1985 1157.55 1985 1138.5 C 1985 1119.45 2000.45 1104 2019.5 1104 C 2038.55 1104 2054 1119.45 2054 1138.5 Z "/></g><g style="stroke-width: 1.0;stroke: rgb(0,0,0);stroke-opacity: 1.0;stroke-linecap: square;; fill: none" transform="matrix(1,0,0,1,0,0)" ><path d="M 2858 1138.5 C 2858 1157.55 2842.55 1173 2823.5 1173 C 2804.45 1173 2789 1157.55 2789 1138.5 C 2789 1119.45 2804.45 1104 2823.5 1104 C 2842.55 1104 2858 1119.45 2858 1138.5 Z "/></g><g style="stroke-width: 1.0;stroke: rgb(0,0,0);stroke-opacity: 1.0;stroke-linecap: square;; fill: none" transform="matrix(1,0,0,1,0,0)" ><path d="M 5269 1138.5 C 5269 1157.55 5253.55 1173 5234.5 1173 C 5215.45 1173 5200 1157.55 5200 1138.5 C 5200 1119.45 5215.45 1104 5234.5 1104 C 5253.55 1104 5269 1119.45 5269 1138.5 Z "/></g><g style="stroke-width: 1.0;stroke: rgb(0,0,0);stroke-opacity: 1.0;stroke-linecap: square;; fill: none" transform="matrix(1,0,0,1,0,0)" ><path d="M 6072 1138.5 C 6072 1157.55 6056.55 1173 6037.5 1173 C 6018.45 1173 6003 1157.55 6003 1138.5 C 6003 1119.45 6018.45 1104 6037.5 1104 C 6056.55 1104 6072 1119.45 6072 1138.5 Z "/></g><g style="stroke-width: 1.0;stroke: rgb(0,0,0);stroke-opacity: 1.0;stroke-linecap: square;; fill: none" transform="matrix(1,0,0,1,0,0)" ><path d="M 7077 1138.5 C 7077 1157.55 7061.55 1173 7042.5 1173 C 7023.45 1173 7008 1157.55 7008 1138.5 C 7008 1119.45 7023.45 1104 7042.5 1104 C 7061.55 1104 7077 1119.45 7077 1138.5 Z "/></g><g style="stroke-width: 1.0;stroke: rgb(0,0,0);stroke-opacity: 1.0;stroke-linecap: square;; fill: none" transform="matrix(1,0,0,1,0,0)" ><path d="M 7378 1138.5 C 7378 1157.55 7362.55 1173 7343.5 1173 C 7324.45 1173 7309 1157.55 7309 1138.5 C 7309 1119.45 7324.45 1104 7343.5 1104 C 7362.55 1104 7378 1119.45 7378 1138.5 Z "/></g><g style="stroke-width: 1.0;stroke: rgb(0,0,0);stroke-opacity: 1.0;stroke-linecap: square;; fill: none" transform="matrix(1,0,0,1,0,0)" ><path d="M 8483 1138.5 C 8483 1157.55 8467.55 1173 8448.5 1173 C 8429.45 1173 8414 1157.55 8414 1138.5 C 8414 1119.45 8429.45 1104 8448.5 1104 C 8467.55 1104 8483 1119.45 8483 1138.5 Z "/></g><g style="stroke-width: 1.0;stroke: rgb(0,0,0);stroke-opacity: 1.0;stroke-linecap: square;; fill: none" transform="matrix(1,0,0,1,0,0)" ><path d="M 9287 1138.5 C 9287 1157.55 9271.55 1173 9252.5 1173 C 9233.45 1173 9218 1157.55 9218 1138.5 C 9218 1119.45 9233.45 1104 9252.5 1104 C 9271.55 1104 9287 1119.45 9287 1138.5 Z "/></g><g style="stroke-width: 1.0;stroke: rgb(0,0,0);stroke-opacity: 1.0;stroke-linecap: square;; fill: none" transform="matrix(1,0,0,1,0,0)" ><path d="M 9890 1138.5 C 9890 1157.55 9874.55 1173 9855.5 1173 C 9836.45 1173 9821 1157.55 9821 1138.5 C 9821 1119.45 9836.45 1104 9855.5 1104 C 9874.55 1104 9890 1119.45 9890 1138.5 Z "/></g><g style="stroke-width: 1.0;stroke: rgb(0,0,0);stroke-opacity: 1.0;stroke-linecap: square;; fill: none" transform="matrix(1,0,0,1,0,0)" ><path d="M 1954 1214.5 C 1954 1233.55 1938.55 1249 1919.5 1249 C 1900.45 1249 1885 1233.55 1885 1214.5 C 1885 1195.45 1900.45 1180 1919.5 1180 C 1938.55 1180 1954 1195.45 1954 1214.5 Z "/></g><g style="stroke-width: 1.0;stroke: rgb(0,0,0);stroke-opacity: 1.0;stroke-linecap: square;; fill: none" transform="matrix(1,0,0,1,0,0)" ><path d="M 3159 1214.5 C 3159 1233.55 3143.55 1249 3124.5 1249 C 3105.45 1249 3090 1233.55 3090 1214.5 C 3090 1195.45 3105.45 1180 3124.5 1180 C 3143.55 1180 3159 1195.45 3159 1214.5 Z "/></g><g style="stroke-width: 1.0;stroke: rgb(0,0,0);stroke-opacity: 1.0;stroke-linecap: square;; fill: none" transform="matrix(1,0,0,1,0,0)" ><path d="M 5168 1214.5 C 5168 1233.55 5152.55 1249 5133.5 1249 C 5114.45 1249 5099 1233.55 5099 1214.5 C 5099 1195.45 5114.45 1180 5133.5 1180 C 5152.55 1180 5168 1195.45 5168 1214.5 Z "/></g><g style="stroke-width: 1.0;stroke: rgb(0,0,0);stroke-opacity: 1.0;stroke-linecap: square;; fill: none" transform="matrix(1,0,0,1,0,0)" ><path d="M 6374 1214.5 C 6374 1233.55 6358.55 1249 6339.5 1249 C 6320.45 1249 6305 1233.55 6305 1214.5 C 6305 1195.45 6320.45 1180 6339.5 1180 C 6358.55 1180 6374 1195.45 6374 1214.5 Z "/></g><g style="stroke-width: 1.0;stroke: rgb(0,0,0);stroke-opacity: 1.0;stroke-linecap: square;; fill: none" transform="matrix(1,0,0,1,0,0)" ><path d="M 8383 1214.5 C 8383 1233.55 8367.55 1249 8348.5 1249 C 8329.45 1249 8314 1233.55 8314 1214.5 C 8314 1195.45 8329.45 1180 8348.5 1180 C 8367.55 1180 8383 1195.45 8383 1214.5 Z "/></g><g style="stroke-width: 1.0;stroke: rgb(0,0,0);stroke-opacity: 1.0;stroke-linecap: square;; fill: none" transform="matrix(1,0,0,1,0,0)" ><path d="M 1050 1290.5 C 1050 1309.55 1034.55 1325 1015.5 1325 C 996.45 1325 981 1309.55 981 1290.5 C 981 1271.45 996.45 1256 1015.5 1256 C 1034.55 1256 1050 1271.45 1050 1290.5 Z "/></g><g style="stroke-width: 1.0;stroke: rgb(0,0,0);stroke-opacity: 1.0;stroke-linecap: square;; fill: none" transform="matrix(1,0,0,1,0,0)" ><path d="M 1250 1290.5 C 1250 1309.55 1234.55 1325 1215.5 1325 C 1196.45 1325 1181 1309.55 1181 1290.5 C 1181 1271.45 1196.45 1256 1215.5 1256 C 1234.55 1256 1250 1271.45 1250 1290.5 Z "/></g><g style="stroke-width: 1.0;stroke: rgb(0,0,0);stroke-opacity: 1.0;stroke-linecap: square;; fill: none" transform="matrix(1,0,0,1,0,0)" ><path d="M 1451 1290.5 C 1451 1309.55 1435.55 1325 1416.5 1325 C 1397.45 1325 1382 1309.55 1382 1290.5 C 1382 1271.45 1397.45 1256 1416.5 1256 C 1435.55 1256 1451 1271.45 1451 1290.5 Z "/></g><g style="stroke-width: 1.0;stroke: rgb(0,0,0);stroke-opacity: 1.0;stroke-linecap: square;; fill: none" transform="matrix(1,0,0,1,0,0)" ><path d="M 1652 1290.5 C 1652 1309.55 1636.55 1325 1617.5 1325 C 1598.45 1325 1583 1309.55 1583 1290.5 C 1583 1271.45 1598.45 1256 1617.5 1256 C 1636.55 1256 1652 1271.45 1652 1290.5 Z "/></g><g style="stroke-width: 1.0;stroke: rgb(0,0,0);stroke-opacity: 1.0;stroke-linecap: square;; fill: none" transform="matrix(1,0,0,1,0,0)" ><path d="M 1853 1290.5 C 1853 1309.55 1837.55 1325 1818.5 1325 C 1799.45 1325 1784 1309.55 1784 1290.5 C 1784 1271.45 1799.45 1256 1818.5 1256 C 1837.55 1256 1853 1271.45 1853 1290.5 Z "/></g><g style="stroke-width: 1.0;stroke: rgb(0,0,0);stroke-opacity: 1.0;stroke-linecap: square;; fill: none" transform="matrix(1,0,0,1,0,0)" ><path d="M 2155 1290.5 C 2155 1309.55 2139.55 1325 2120.5 1325 C 2101.45 1325 2086 1309.55 2086 1290.5 C 2086 1271.45 2101.45 1256 2120.5 1256 C 2139.55 1256 2155 1271.45 2155 1290.5 Z "/></g><g style="stroke-width: 1.0;stroke: rgb(0,0,0);stroke-opacity: 1.0;stroke-linecap: square;; fill: none" transform="matrix(1,0,0,1,0,0)" ><path d="M 2356 1290.5 C 2356 1309.55 2340.55 1325 2321.5 1325 C 2302.45 1325 2287 1309.55 2287 1290.5 C 2287 1271.45 2302.45 1256 2321.5 1256 C 2340.55 1256 2356 1271.45 2356 1290.5 Z "/></g><g style="stroke-width: 1.0;stroke: rgb(0,0,0);stroke-opacity: 1.0;stroke-linecap: square;; fill: none" transform="matrix(1,0,0,1,0,0)" ><path d="M 2657 1290.5 C 2657 1309.55 2641.55 1325 2622.5 1325 C 2603.45 1325 2588 1309.55 2588 1290.5 C 2588 1271.45 2603.45 1256 2622.5 1256 C 2641.55 1256 2657 1271.45 2657 1290.5 Z "/></g><g style="stroke-width: 1.0;stroke: rgb(0,0,0);stroke-opacity: 1.0;stroke-linecap: square;; fill: none" transform="matrix(1,0,0,1,0,0)" ><path d="M 2858 1290.5 C 2858 1309.55 2842.55 1325 2823.5 1325 C 2804.45 1325 2789 1309.55 2789 1290.5 C 2789 1271.45 2804.45 1256 2823.5 1256 C 2842.55 1256 2858 1271.45 2858 1290.5 Z "/></g><g style="stroke-width: 1.0;stroke: rgb(0,0,0);stroke-opacity: 1.0;stroke-linecap: square;; fill: none" transform="matrix(1,0,0,1,0,0)" ><path d="M 3260 1290.5 C 3260 1309.55 3244.55 1325 3225.5 1325 C 3206.45 1325 3191 1309.55 3191 1290.5 C 3191 1271.45 3206.45 1256 3225.5 1256 C 3244.55 1256 3260 1271.45 3260 1290.5 Z "/></g><g style="stroke-width: 1.0;stroke: rgb(0,0,0);stroke-opacity: 1.0;stroke-linecap: square;; fill: none" transform="matrix(1,0,0,1,0,0)" ><path d="M 3862 1290.5 C 3862 1309.55 3846.55 1325 3827.5 1325 C 3808.45 1325 3793 1309.55 3793 1290.5 C 3793 1271.45 3808.45 1256 3827.5 1256 C 3846.55 1256 3862 1271.45 3862 1290.5 Z "/></g><g style="stroke-width: 1.0;stroke: rgb(0,0,0);stroke-opacity: 1.0;stroke-linecap: square;; fill: none" transform="matrix(1,0,0,1,0,0)" ><path d="M 4666 1290.5 C 4666 1309.55 4650.55 1325 4631.5 1325 C 4612.45 1325 4597 1309.55 4597 1290.5 C 4597 1271.45 4612.45 1256 4631.5 1256 C 4650.55 1256 4666 1271.45 4666 1290.5 Z "/></g><g style="stroke-width: 1.0;stroke: rgb(0,0,0);stroke-opacity: 1.0;stroke-linecap: square;; fill: none" transform="matrix(1,0,0,1,0,0)" ><path d="M 4867 1290.5 C 4867 1309.55 4851.55 1325 4832.5 1325 C 4813.45 1325 4798 1309.55 4798 1290.5 C 4798 1271.45 4813.45 1256 4832.5 1256 C 4851.55 1256 4867 1271.45 4867 1290.5 Z "/></g><g style="stroke-width: 1.0;stroke: rgb(0,0,0);stroke-opacity: 1.0;stroke-linecap: square;; fill: none" transform="matrix(1,0,0,1,0,0)" ><path d="M 5068 1290.5 C 5068 1309.55 5052.55 1325 5033.5 1325 C 5014.45 1325 4999 1309.55 4999 1290.5 C 4999 1271.45 5014.45 1256 5033.5 1256 C 5052.55 1256 5068 1271.45 5068 1290.5 Z "/></g><g style="stroke-width: 1.0;stroke: rgb(0,0,0);stroke-opacity: 1.0;stroke-linecap: square;; fill: none" transform="matrix(1,0,0,1,0,0)" ><path d="M 5369 1290.5 C 5369 1309.55 5353.55 1325 5334.5 1325 C 5315.45 1325 5300 1309.55 5300 1290.5 C 5300 1271.45 5315.45 1256 5334.5 1256 C 5353.55 1256 5369 1271.45 5369 1290.5 Z "/></g><g style="stroke-width: 1.0;stroke: rgb(0,0,0);stroke-opacity: 1.0;stroke-linecap: square;; fill: none" transform="matrix(1,0,0,1,0,0)" ><path d="M 5570 1290.5 C 5570 1309.55 5554.55 1325 5535.5 1325 C 5516.45 1325 5501 1309.55 5501 1290.5 C 5501 1271.45 5516.45 1256 5535.5 1256 C 5554.55 1256 5570 1271.45 5570 1290.5 Z "/></g><g style="stroke-width: 1.0;stroke: rgb(0,0,0);stroke-opacity: 1.0;stroke-linecap: square;; fill: none" transform="matrix(1,0,0,1,0,0)" ><path d="M 5872 1290.5 C 5872 1309.55 5856.55 1325 5837.5 1325 C 5818.45 1325 5803 1309.55 5803 1290.5 C 5803 1271.45 5818.45 1256 5837.5 1256 C 5856.55 1256 5872 1271.45 5872 1290.5 Z "/></g><g style="stroke-width: 1.0;stroke: rgb(0,0,0);stroke-opacity: 1.0;stroke-linecap: square;; fill: none" transform="matrix(1,0,0,1,0,0)" ><path d="M 6072 1290.5 C 6072 1309.55 6056.55 1325 6037.5 1325 C 6018.45 1325 6003 1309.55 6003 1290.5 C 6003 1271.45 6018.45 1256 6037.5 1256 C 6056.55 1256 6072 1271.45 6072 1290.5 Z "/></g><g style="stroke-width: 1.0;stroke: rgb(0,0,0);stroke-opacity: 1.0;stroke-linecap: square;; fill: none" transform="matrix(1,0,0,1,0,0)" ><path d="M 6273 1290.5 C 6273 1309.55 6257.55 1325 6238.5 1325 C 6219.45 1325 6204 1309.55 6204 1290.5 C 6204 1271.45 6219.45 1256 6238.5 1256 C 6257.55 1256 6273 1271.45 6273 1290.5 Z "/></g><g style="stroke-width: 1.0;stroke: rgb(0,0,0);stroke-opacity: 1.0;stroke-linecap: square;; fill: none" transform="matrix(1,0,0,1,0,0)" ><path d="M 6474 1290.5 C 6474 1309.55 6458.55 1325 6439.5 1325 C 6420.45 1325 6405 1309.55 6405 1290.5 C 6405 1271.45 6420.45 1256 6439.5 1256 C 6458.55 1256 6474 1271.45 6474 1290.5 Z "/></g><g style="stroke-width: 1.0;stroke: rgb(0,0,0);stroke-opacity: 1.0;stroke-linecap: square;; fill: none" transform="matrix(1,0,0,1,0,0)" ><path d="M 6675 1290.5 C 6675 1309.55 6659.55 1325 6640.5 1325 C 6621.45 1325 6606 1309.55 6606 1290.5 C 6606 1271.45 6621.45 1256 6640.5 1256 C 6659.55 1256 6675 1271.45 6675 1290.5 Z "/></g><g style="stroke-width: 1.0;stroke: rgb(0,0,0);stroke-opacity: 1.0;stroke-linecap: square;; fill: none" transform="matrix(1,0,0,1,0,0)" ><path d="M 6876 1290.5 C 6876 1309.55 6860.55 1325 6841.5 1325 C 6822.45 1325 6807 1309.55 6807 1290.5 C 6807 1271.45 6822.45 1256 6841.5 1256 C 6860.55 1256 6876 1271.45 6876 1290.5 Z "/></g><g style="stroke-width: 1.0;stroke: rgb(0,0,0);stroke-opacity: 1.0;stroke-linecap: square;; fill: none" transform="matrix(1,0,0,1,0,0)" ><path d="M 7077 1290.5 C 7077 1309.55 7061.55 1325 7042.5 1325 C 7023.45 1325 7008 1309.55 7008 1290.5 C 7008 1271.45 7023.45 1256 7042.5 1256 C 7061.55 1256 7077 1271.45 7077 1290.5 Z "/></g><g style="stroke-width: 1.0;stroke: rgb(0,0,0);stroke-opacity: 1.0;stroke-linecap: square;; fill: none" transform="matrix(1,0,0,1,0,0)" ><path d="M 7479 1290.5 C 7479 1309.55 7463.55 1325 7444.5 1325 C 7425.45 1325 7410 1309.55 7410 1290.5 C 7410 1271.45 7425.45 1256 7444.5 1256 C 7463.55 1256 7479 1271.45 7479 1290.5 Z "/></g><g style="stroke-width: 1.0;stroke: rgb(0,0,0);stroke-opacity: 1.0;stroke-linecap: square;; fill: none" transform="matrix(1,0,0,1,0,0)" ><path d="M 7680 1290.5 C 7680 1309.55 7664.55 1325 7645.5 1325 C 7626.45 1325 7611 1309.55 7611 1290.5 C 7611 1271.45 7626.45 1256 7645.5 1256 C 7664.55 1256 7680 1271.45 7680 1290.5 Z "/></g><g style="stroke-width: 1.0;stroke: rgb(0,0,0);stroke-opacity: 1.0;stroke-linecap: square;; fill: none" transform="matrix(1,0,0,1,0,0)" ><path d="M 7881 1290.5 C 7881 1309.55 7865.55 1325 7846.5 1325 C 7827.45 1325 7812 1309.55 7812 1290.5 C 7812 1271.45 7827.45 1256 7846.5 1256 C 7865.55 1256 7881 1271.45 7881 1290.5 Z "/></g><g style="stroke-width: 1.0;stroke: rgb(0,0,0);stroke-opacity: 1.0;stroke-linecap: square;; fill: none" transform="matrix(1,0,0,1,0,0)" ><path d="M 8082 1290.5 C 8082 1309.55 8066.55 1325 8047.5 1325 C 8028.45 1325 8013 1309.55 8013 1290.5 C 8013 1271.45 8028.45 1256 8047.5 1256 C 8066.55 1256 8082 1271.45 8082 1290.5 Z "/></g><g style="stroke-width: 1.0;stroke: rgb(0,0,0);stroke-opacity: 1.0;stroke-linecap: square;; fill: none" transform="matrix(1,0,0,1,0,0)" ><path d="M 8282 1290.5 C 8282 1309.55 8266.55 1325 8247.5 1325 C 8228.45 1325 8213 1309.55 8213 1290.5 C 8213 1271.45 8228.45 1256 8247.5 1256 C 8266.55 1256 8282 1271.45 8282 1290.5 Z "/></g><g style="stroke-width: 1.0;stroke: rgb(0,0,0);stroke-opacity: 1.0;stroke-linecap: square;; fill: none" transform="matrix(1,0,0,1,0,0)" ><path d="M 8584 1290.5 C 8584 1309.55 8568.55 1325 8549.5 1325 C 8530.45 1325 8515 1309.55 8515 1290.5 C 8515 1271.45 8530.45 1256 8549.5 1256 C 8568.55 1256 8584 1271.45 8584 1290.5 Z "/></g><g style="stroke-width: 1.0;stroke: rgb(0,0,0);stroke-opacity: 1.0;stroke-linecap: square;; fill: none" transform="matrix(1,0,0,1,0,0)" ><path d="M 8785 1290.5 C 8785 1309.55 8769.55 1325 8750.5 1325 C 8731.45 1325 8716 1309.55 8716 1290.5 C 8716 1271.45 8731.45 1256 8750.5 1256 C 8769.55 1256 8785 1271.45 8785 1290.5 Z "/></g><g style="stroke-width: 1.0;stroke: rgb(0,0,0);stroke-opacity: 1.0;stroke-linecap: square;; fill: none" transform="matrix(1,0,0,1,0,0)" ><path d="M 9086 1290.5 C 9086 1309.55 9070.55 1325 9051.5 1325 C 9032.45 1325 9017 1309.55 9017 1290.5 C 9017 1271.45 9032.45 1256 9051.5 1256 C 9070.55 1256 9086 1271.45 9086 1290.5 Z "/></g><g style="stroke-width: 1.0;stroke: rgb(0,0,0);stroke-opacity: 1.0;stroke-linecap: square;; fill: none" transform="matrix(1,0,0,1,0,0)" ><path d="M 9287 1290.5 C 9287 1309.55 9271.55 1325 9252.5 1325 C 9233.45 1325 9218 1309.55 9218 1290.5 C 9218 1271.45 9233.45 1256 9252.5 1256 C 9271.55 1256 9287 1271.45 9287 1290.5 Z "/></g><g style="stroke-width: 1.0;stroke: rgb(0,0,0);stroke-opacity: 1.0;stroke-linecap: square;; fill: none" transform="matrix(1,0,0,1,0,0)" ><path d="M 9588 1290.5 C 9588 1309.55 9572.55 1325 9553.5 1325 C 9534.45 1325 9519 1309.55 9519 1290.5 C 9519 1271.45 9534.45 1256 9553.5 1256 C 9572.55 1256 9588 1271.45 9588 1290.5 Z "/></g><g style="stroke-width: 1.0;stroke: rgb(0,0,0);stroke-opacity: 1.0;stroke-linecap: square;; fill: none" transform="matrix(1,0,0,1,0,0)" ><path d="M 9890 1290.5 C 9890 1309.55 9874.55 1325 9855.5 1325 C 9836.45 1325 9821 1309.55 9821 1290.5 C 9821 1271.45 9836.45 1256 9855.5 1256 C 9874.55 1256 9890 1271.45 9890 1290.5 Z "/></g><g style="stroke-width: 1.0;stroke: rgb(0,0,0);stroke-opacity: 1.0;stroke-linecap: square;; fill: none" transform="matrix(1,0,0,1,0,0)" ><path d="M 10091 1290.5 C 10091 1309.55 10075.55 1325 10056.5 1325 C 10037.45 1325 10022 1309.55 10022 1290.5 C 10022 1271.45 10037.45 1256 10056.5 1256 C 10075.55 1256 10091 1271.45 10091 1290.5 Z "/></g><g style="stroke-width: 1.0;stroke: rgb(0,0,0);stroke-opacity: 1.0;stroke-linecap: square;; fill: none" transform="matrix(1,0,0,1,0,0)" ><path d="M 10493 1290.5 C 10493 1309.55 10477.55 1325 10458.5 1325 C 10439.45 1325 10424 1309.55 10424 1290.5 C 10424 1271.45 10439.45 1256 10458.5 1256 C 10477.55 1256 10493 1271.45 10493 1290.5 Z "/></g><g style="stroke-width: 1.0;stroke: rgb(0,0,0);stroke-opacity: 1.0;stroke-linecap: square;; fill: none" transform="matrix(1,0,0,1,0,0)" ><path d="M 10693 1290.5 C 10693 1309.55 10677.55 1325 10658.5 1325 C 10639.45 1325 10624 1309.55 10624 1290.5 C 10624 1271.45 10639.45 1256 10658.5 1256 C 10677.55 1256 10693 1271.45 10693 1290.5 Z "/></g><g style="stroke-width: 1.0;stroke: rgb(0,0,0);stroke-opacity: 1.0;stroke-linecap: square;; fill: none" transform="matrix(1,0,0,1,0,0)" ><path d="M 3360 1366.5 C 3360 1385.55 3344.55 1401 3325.5 1401 C 3306.45 1401 3291 1385.55 3291 1366.5 C 3291 1347.45 3306.45 1332 3325.5 1332 C 3344.55 1332 3360 1347.45 3360 1366.5 Z "/></g><g style="stroke-width: 1.0;stroke: rgb(0,0,0);stroke-opacity: 1.0;stroke-linecap: square;; fill: none" transform="matrix(1,0,0,1,0,0)" ><path d="M 6575 1366.5 C 6575 1385.55 6559.55 1401 6540.5 1401 C 6521.45 1401 6506 1385.55 6506 1366.5 C 6506 1347.45 6521.45 1332 6540.5 1332 C 6559.55 1332 6575 1347.45 6575 1366.5 Z "/></g><g style="stroke-width: 1.0;stroke: rgb(0,0,0);stroke-opacity: 1.0;stroke-linecap: square;; fill: none" transform="matrix(1,0,0,1,0,0)" ><path d="M 6776 1366.5 C 6776 1385.55 6760.55 1401 6741.5 1401 C 6722.45 1401 6707 1385.55 6707 1366.5 C 6707 1347.45 6722.45 1332 6741.5 1332 C 6760.55 1332 6776 1347.45 6776 1366.5 Z "/></g><g style="stroke-width: 1.0;stroke: rgb(0,0,0);stroke-opacity: 1.0;stroke-linecap: square;; fill: none" transform="matrix(1,0,0,1,0,0)" ><path d="M 7278 1366.5 C 7278 1385.55 7262.55 1401 7243.5 1401 C 7224.45 1401 7209 1385.55 7209 1366.5 C 7209 1347.45 7224.45 1332 7243.5 1332 C 7262.55 1332 7278 1347.45 7278 1366.5 Z "/></g><g style="stroke-width: 1.0;stroke: rgb(0,0,0);stroke-opacity: 1.0;stroke-linecap: square;; fill: none" transform="matrix(1,0,0,1,0,0)" ><path d="M 2456 1442.5 C 2456 1461.55 2440.55 1477 2421.5 1477 C 2402.45 1477 2387 1461.55 2387 1442.5 C 2387 1423.45 2402.45 1408 2421.5 1408 C 2440.55 1408 2456 1423.45 2456 1442.5 Z "/></g><g style="stroke-width: 1.0;stroke: rgb(0,0,0);stroke-opacity: 1.0;stroke-linecap: square;; fill: none" transform="matrix(1,0,0,1,0,0)" ><path d="M 3461 1442.5 C 3461 1461.55 3445.55 1477 3426.5 1477 C 3407.45 1477 3392 1461.55 3392 1442.5 C 3392 1423.45 3407.45 1408 3426.5 1408 C 3445.55 1408 3461 1423.45 3461 1442.5 Z "/></g><g style="stroke-width: 1.0;stroke: rgb(0,0,0);stroke-opacity: 1.0;stroke-linecap: square;; fill: none" transform="matrix(1,0,0,1,0,0)" ><path d="M 5671 1442.5 C 5671 1461.55 5655.55 1477 5636.5 1477 C 5617.45 1477 5602 1461.55 5602 1442.5 C 5602 1423.45 5617.45 1408 5636.5 1408 C 5655.55 1408 5671 1423.45 5671 1442.5 Z "/></g><g style="stroke-width: 1.0;stroke: rgb(0,0,0);stroke-opacity: 1.0;stroke-linecap: square;; fill: none" transform="matrix(1,0,0,1,0,0)" ><path d="M 6675 1442.5 C 6675 1461.55 6659.55 1477 6640.5 1477 C 6621.45 1477 6606 1461.55 6606 1442.5 C 6606 1423.45 6621.45 1408 6640.5 1408 C 6659.55 1408 6675 1423.45 6675 1442.5 Z "/></g><g style="stroke-width: 1.0;stroke: rgb(0,0,0);stroke-opacity: 1.0;stroke-linecap: square;; fill: none" transform="matrix(1,0,0,1,0,0)" ><path d="M 6977 1442.5 C 6977 1461.55 6961.55 1477 6942.5 1477 C 6923.45 1477 6908 1461.55 6908 1442.5 C 6908 1423.45 6923.45 1408 6942.5 1408 C 6961.55 1408 6977 1423.45 6977 1442.5 Z "/></g><g style="stroke-width: 1.0;stroke: rgb(0,0,0);stroke-opacity: 1.0;stroke-linecap: square;; fill: none" transform="matrix(1,0,0,1,0,0)" ><path d="M 7177 1442.5 C 7177 1461.55 7161.55 1477 7142.5 1477 C 7123.45 1477 7108 1461.55 7108 1442.5 C 7108 1423.45 7123.45 1408 7142.5 1408 C 7161.55 1408 7177 1423.45 7177 1442.5 Z "/></g><g style="stroke-width: 1.0;stroke: rgb(0,0,0);stroke-opacity: 1.0;stroke-linecap: square;; fill: none" transform="matrix(1,0,0,1,0,0)" ><path d="M 8885 1442.5 C 8885 1461.55 8869.55 1477 8850.5 1477 C 8831.45 1477 8816 1461.55 8816 1442.5 C 8816 1423.45 8831.45 1408 8850.5 1408 C 8869.55 1408 8885 1423.45 8885 1442.5 Z "/></g><g style="stroke-width: 1.0;stroke: rgb(0,0,0);stroke-opacity: 1.0;stroke-linecap: square;; fill: none" transform="matrix(1,0,0,1,0,0)" ><path d="M 9689 1442.5 C 9689 1461.55 9673.55 1477 9654.5 1477 C 9635.45 1477 9620 1461.55 9620 1442.5 C 9620 1423.45 9635.45 1408 9654.5 1408 C 9673.55 1408 9689 1423.45 9689 1442.5 Z "/></g><g style="stroke-width: 1.0;stroke: rgb(0,0,0);stroke-opacity: 1.0;stroke-linecap: square;; fill: none" transform="matrix(1,0,0,1,0,0)" ><path d="M 10091 1442.5 C 10091 1461.55 10075.55 1477 10056.5 1477 C 10037.45 1477 10022 1461.55 10022 1442.5 C 10022 1423.45 10037.45 1408 10056.5 1408 C 10075.55 1408 10091 1423.45 10091 1442.5 Z "/></g><g style="stroke-width: 1.0;stroke: rgb(0,0,0);stroke-opacity: 1.0;stroke-linecap: square;; fill: none" transform="matrix(1,0,0,1,0,0)" ><path d="M 7077 1518.5 C 7077 1537.55 7061.55 1553 7042.5 1553 C 7023.45 1553 7008 1537.55 7008 1518.5 C 7008 1499.45 7023.45 1484 7042.5 1484 C 7061.55 1484 7077 1499.45 7077 1518.5 Z "/></g><g style="stroke-width: 1.0;stroke: rgb(0,0,0);stroke-opacity: 1.0;stroke-linecap: square;; fill: none" transform="matrix(1,0,0,1,0,0)" ><path d="M 7378 1518.5 C 7378 1537.55 7362.55 1553 7343.5 1553 C 7324.45 1553 7309 1537.55 7309 1518.5 C 7309 1499.45 7324.45 1484 7343.5 1484 C 7362.55 1484 7378 1499.45 7378 1518.5 Z "/></g><g style="stroke-width: 1.0;stroke: rgb(0,0,0);stroke-opacity: 1.0;stroke-linecap: square;; fill: none" transform="matrix(1,0,0,1,0,0)" ><path d="M 1853 1594.5 C 1853 1613.55 1837.55 1629 1818.5 1629 C 1799.45 1629 1784 1613.55 1784 1594.5 C 1784 1575.45 1799.45 1560 1818.5 1560 C 1837.55 1560 1853 1575.45 1853 1594.5 Z "/></g><g style="stroke-width: 1.0;stroke: rgb(0,0,0);stroke-opacity: 1.0;stroke-linecap: square;; fill: none" transform="matrix(1,0,0,1,0,0)" ><path d="M 2255 1594.5 C 2255 1613.55 2239.55 1629 2220.5 1629 C 2201.45 1629 2186 1613.55 2186 1594.5 C 2186 1575.45 2201.45 1560 2220.5 1560 C 2239.55 1560 2255 1575.45 2255 1594.5 Z "/></g><g style="stroke-width: 1.0;stroke: rgb(0,0,0);stroke-opacity: 1.0;stroke-linecap: square;; fill: none" transform="matrix(1,0,0,1,0,0)" ><path d="M 2556 1594.5 C 2556 1613.55 2540.55 1629 2521.5 1629 C 2502.45 1629 2487 1613.55 2487 1594.5 C 2487 1575.45 2502.45 1560 2521.5 1560 C 2540.55 1560 2556 1575.45 2556 1594.5 Z "/></g><g style="stroke-width: 1.0;stroke: rgb(0,0,0);stroke-opacity: 1.0;stroke-linecap: square;; fill: none" transform="matrix(1,0,0,1,0,0)" ><path d="M 3461 1594.5 C 3461 1613.55 3445.55 1629 3426.5 1629 C 3407.45 1629 3392 1613.55 3392 1594.5 C 3392 1575.45 3407.45 1560 3426.5 1560 C 3445.55 1560 3461 1575.45 3461 1594.5 Z "/></g><g style="stroke-width: 1.0;stroke: rgb(0,0,0);stroke-opacity: 1.0;stroke-linecap: square;; fill: none" transform="matrix(1,0,0,1,0,0)" ><path d="M 4264 1594.5 C 4264 1613.55 4248.55 1629 4229.5 1629 C 4210.45 1629 4195 1613.55 4195 1594.5 C 4195 1575.45 4210.45 1560 4229.5 1560 C 4248.55 1560 4264 1575.45 4264 1594.5 Z "/></g><g style="stroke-width: 1.0;stroke: rgb(0,0,0);stroke-opacity: 1.0;stroke-linecap: square;; fill: none" transform="matrix(1,0,0,1,0,0)" ><path d="M 5068 1594.5 C 5068 1613.55 5052.55 1629 5033.5 1629 C 5014.45 1629 4999 1613.55 4999 1594.5 C 4999 1575.45 5014.45 1560 5033.5 1560 C 5052.55 1560 5068 1575.45 5068 1594.5 Z "/></g><g style="stroke-width: 1.0;stroke: rgb(0,0,0);stroke-opacity: 1.0;stroke-linecap: square;; fill: none" transform="matrix(1,0,0,1,0,0)" ><path d="M 5771 1594.5 C 5771 1613.55 5755.55 1629 5736.5 1629 C 5717.45 1629 5702 1613.55 5702 1594.5 C 5702 1575.45 5717.45 1560 5736.5 1560 C 5755.55 1560 5771 1575.45 5771 1594.5 Z "/></g><g style="stroke-width: 1.0;stroke: rgb(0,0,0);stroke-opacity: 1.0;stroke-linecap: square;; fill: none" transform="matrix(1,0,0,1,0,0)" ><path d="M 6273 1594.5 C 6273 1613.55 6257.55 1629 6238.5 1629 C 6219.45 1629 6204 1613.55 6204 1594.5 C 6204 1575.45 6219.45 1560 6238.5 1560 C 6257.55 1560 6273 1575.45 6273 1594.5 Z "/></g><g style="stroke-width: 1.0;stroke: rgb(0,0,0);stroke-opacity: 1.0;stroke-linecap: square;; fill: none" transform="matrix(1,0,0,1,0,0)" ><path d="M 8282 1594.5 C 8282 1613.55 8266.55 1629 8247.5 1629 C 8228.45 1629 8213 1613.55 8213 1594.5 C 8213 1575.45 8228.45 1560 8247.5 1560 C 8266.55 1560 8282 1575.45 8282 1594.5 Z "/></g><g style="stroke-width: 1.0;stroke: rgb(0,0,0);stroke-opacity: 1.0;stroke-linecap: square;; fill: none" transform="matrix(1,0,0,1,0,0)" ><path d="M 8684 1594.5 C 8684 1613.55 8668.55 1629 8649.5 1629 C 8630.45 1629 8615 1613.55 8615 1594.5 C 8615 1575.45 8630.45 1560 8649.5 1560 C 8668.55 1560 8684 1575.45 8684 1594.5 Z "/></g><g style="stroke-width: 1.0;stroke: rgb(0,0,0);stroke-opacity: 1.0;stroke-linecap: square;; fill: none" transform="matrix(1,0,0,1,0,0)" ><path d="M 8986 1594.5 C 8986 1613.55 8970.55 1629 8951.5 1629 C 8932.45 1629 8917 1613.55 8917 1594.5 C 8917 1575.45 8932.45 1560 8951.5 1560 C 8970.55 1560 8986 1575.45 8986 1594.5 Z "/></g><g style="stroke-width: 1.0;stroke: rgb(0,0,0);stroke-opacity: 1.0;stroke-linecap: square;; fill: none" transform="matrix(1,0,0,1,0,0)" ><path d="M 9086 1594.5 C 9086 1613.55 9070.55 1629 9051.5 1629 C 9032.45 1629 9017 1613.55 9017 1594.5 C 9017 1575.45 9032.45 1560 9051.5 1560 C 9070.55 1560 9086 1575.45 9086 1594.5 Z "/></g><g style="stroke-width: 1.0;stroke: rgb(0,0,0);stroke-opacity: 1.0;stroke-linecap: square;; fill: none" transform="matrix(1,0,0,1,0,0)" ><path d="M 9789 1594.5 C 9789 1613.55 9773.55 1629 9754.5 1629 C 9735.45 1629 9720 1613.55 9720 1594.5 C 9720 1575.45 9735.45 1560 9754.5 1560 C 9773.55 1560 9789 1575.45 9789 1594.5 Z "/></g><g style="stroke-width: 1.0;stroke: rgb(0,0,0);stroke-opacity: 1.0;stroke-linecap: square;; fill: none" transform="matrix(1,0,0,1,0,0)" ><path d="M 10493 1594.5 C 10493 1613.55 10477.55 1629 10458.5 1629 C 10439.45 1629 10424 1613.55 10424 1594.5 C 10424 1575.45 10439.45 1560 10458.5 1560 C 10477.55 1560 10493 1575.45 10493 1594.5 Z "/></g><g style="stroke-width: 1.0;stroke: rgb(0,0,0);stroke-opacity: 1.0;stroke-linecap: square;; fill: none" transform="matrix(1,0,0,1,0,0)" ><path d="M 10693 1594.5 C 10693 1613.55 10677.55 1629 10658.5 1629 C 10639.45 1629 10624 1613.55 10624 1594.5 C 10624 1575.45 10639.45 1560 10658.5 1560 C 10677.55 1560 10693 1575.45 10693 1594.5 Z "/></g></svg>
