<!DOCTYPE svg PUBLIC "-//W3C//DTD SVG 1.1//EN" "http://www.w3.org/Graphics/SVG/1.1/DTD/svg11.dtd">
<svg xmlns="http://www.w3.org/2000/svg" xmlns:xlink="http://www.w3.org/1999/xlink" xmlns:jfreesvg="http://www.jfree.org/jfreesvg/svg" width="1946" height="1747" text-rendering="auto" shape-rendering="auto">
<defs></defs>
<line x1="0" y1="0" x2="1945" y2="0" style="stroke-width: 1.0;stroke: rgb(0,0,0);stroke-opacity: 1.0;stroke-linecap: square;" transform="matrix(1,0,0,1,0,0)" /><line x1="1946" y1="0" x2="1946" y2="1746" style="stroke-width: 1.0;stroke: rgb(0,0,0);stroke-opacity: 1.0;stroke-linecap: square;" transform="matrix(1,0,0,1,0,0)" /><line x1="1946" y1="1747" x2="1" y2="1747" style="stroke-width: 1.0;stroke: rgb(0,0,0);stroke-opacity: 1.0;stroke-linecap: square;" transform="matrix(1,0,0,1,0,0)" /><line x1="0" y1="1747" x2="0" y2="1" style="stroke-width: 1.0;stroke: rgb(0,0,0);stroke-opacity: 1.0;stroke-linecap: square;" transform="matrix(1,0,0,1,0,0)" /><g style="stroke-width: 1.0;stroke: rgb(0,0,0);stroke-opacity: 1.0;stroke-linecap: square;; fill: none" transform="matrix(1,0,0,1,0,0)" ><path d="M 1050 152 C 1050 168.02 1034.55 181 1015.5 181 C 996.45 181 981 168.02 981 152 C 981 135.98 996.45 123 1015.5 123 C 1034.55 123 1050 135.98 1050 152 Z "/></g><g style="stroke-width: 1.0;stroke: rgb(0,0,0);stroke-opacity: 1.0;stroke-linecap: square;; fill: none" transform="matrix(1,0,0,1,0,0)" ><path d="M 1250 152 C 1250 168.02 1234.55 181 1215.5 181 C 1196.45 181 1181 168.02 1181 152 C 1181 135.98 1196.45 123 1215.5 123 C 1234.55 123 1250 135.98 1250 152 Z "/></g><g style="stroke-width: 1.0;stroke: rgb(0,0,0);stroke-opacity: 1.0;stroke-linecap: square;; fill: none" transform="matrix(1,0,0,1,0,0)" ><path d="M 1451 152 C 1451 168.02 1435.55 181 1416.5 181 C 1397.45 181 1382 168.02 1382 152 C 1382 135.98 1397.45 123 1416.5 123 C 1435.55 123 1451 135.98 1451 152 Z "/></g><g style="stroke-width: 1.0;stroke: rgb(0,0,0);stroke-opacity: 1.0;stroke-linecap: square;; fill: none" transform="matrix(1,0,0,1,0,0)" ><path d="M 1652 152 C 1652 168.02 1636.55 181 1617.5 181 C 1598.45 181 1583 168.02 1583 152 C 1583 135.98 1598.45 123 1617.5 123 C 1636.55 123 1652 135.98 1652 152 Z "/></g><g style="stroke-width: 1.0;stroke: rgb(0,0,0);stroke-opacity: 1.0;stroke-linecap: square;; fill: none" transform="matrix(1,0,0,1,0,0)" ><path d="M 1853 152 C 1853 168.02 1837.55 181 1818.5 181 C 1799.45 181 1784 168.02 1784 152 C 1784 135.98 1799.45 123 1818.5 123 C 1837.55 123 1853 135.98 1853 152 Z "/></g><g style="stroke-width: 1.0;stroke: rgb(0,0,0);stroke-opacity: 1.0;stroke-linecap: square;; fill: none" transform="matrix(1,0,0,1,0,0)" ><path d="M 1250 228 C 1250 244.02 1234.55 257 1215.5 257 C 1196.45 257 1181 244.02 1181 228 C 1181 211.98 1196.45 199 1215.5 199 C 1234.55 199 1250 211.98 1250 228 Z "/></g><g style="stroke-width: 1.0;stroke: rgb(0,0,0);stroke-opacity: 1.0;stroke-linecap: square;; fill: none" transform="matrix(1,0,0,1,0,0)" ><path d="M 1451 304 C 1451 320.02 1435.55 333 1416.5 333 C 1397.45 333 1382 320.02 1382 304 C 1382 287.98 1397.45 275 1416.5 275 C 1435.55 275 1451 287.98 1451 304 Z "/></g><g style="stroke-width: 1.0;stroke: rgb(0,0,0);stroke-opacity: 1.0;stroke-linecap: square;; fill: none" transform="matrix(1,0,0,1,0,0)" ><path d="M 1652 380 C 1652 396.02 1636.55 409 1617.5 409 C 1598.45 409 1583 396.02 1583 380 C 1583 363.98 1598.45 351 1617.5 351 C 1636.55 351 1652 363.98 1652 380 Z "/></g><g style="stroke-width: 1.0;stroke: rgb(0,0,0);stroke-opacity: 1.0;stroke-linecap: square;; fill: none" transform="matrix(1,0,0,1,0,0)" ><path d="M 1853 455 C 1853 471.02 1837.55 484 1818.5 484 C 1799.45 484 1784 471.02 1784 455 C 1784 438.98 1799.45 426 1818.5 426 C 1837.55 426 1853 438.98 1853 455 Z "/></g><g style="stroke-width: 1.0;stroke: rgb(0,0,0);stroke-opacity: 1.0;stroke-linecap: square;; fill: none" transform="matrix(1,0,0,1,0,0)" ><path d="M 1652 531 C 1652 547.02 1636.55 560 1617.5 560 C 1598.45 560 1583 547.02 1583 531 C 1583 514.98 1598.45 502 1617.5 502 C 1636.55 502 1652 514.98 1652 531 Z "/></g><g style="stroke-width: 1.0;stroke: rgb(0,0,0);stroke-opacity: 1.0;stroke-linecap: square;; fill: none" transform="matrix(1,0,0,1,0,0)" ><path d="M 1451 607 C 1451 623.02 1435.55 636 1416.5 636 C 1397.45 636 1382 623.02 1382 607 C 1382 590.98 1397.45 578 1416.5 578 C 1435.55 578 1451 590.98 1451 607 Z "/></g><g style="stroke-width: 1.0;stroke: rgb(0,0,0);stroke-opacity: 1.0;stroke-linecap: square;; fill: none" transform="matrix(1,0,0,1,0,0)" ><path d="M 1250 683 C 1250 699.02 1234.55 712 1215.5 712 C 1196.45 712 1181 699.02 1181 683 C 1181 666.98 1196.45 654 1215.5 654 C 1234.55 654 1250 666.98 1250 683 Z "/></g><g style="stroke-width: 1.0;stroke: rgb(0,0,0);stroke-opacity: 1.0;stroke-linecap: square;; fill: none" transform="matrix(1,0,0,1,0,0)" ><path d="M 1451 759 C 1451 775.02 1435.55 788 1416.5 788 C 1397.45 788 1382 775.02 1382 759 C 1382 742.98 1397.45 730 1416.5 730 C 1435.55 730 1451 742.98 1451 759 Z "/></g><g style="stroke-width: 1.0;stroke: rgb(0,0,0);stroke-opacity: 1.0;stroke-linecap: square;; fill: none" transform="matrix(1,0,0,1,0,0)" ><path d="M 1652 835 C 1652 851.02 1636.55 864 1617.5 864 C 1598.45 864 1583 851.02 1583 835 C 1583 818.98 1598.45 806 1617.5 806 C 1636.55 806 1652 818.98 1652 835 Z "/></g><g style="stroke-width: 1.0;stroke: rgb(0,0,0);stroke-opacity: 1.0;stroke-linecap: square;; fill: none" transform="matrix(1,0,0,1,0,0)" ><path d="M 1853 911 C 1853 927.02 1837.55 940 1818.5 940 C 1799.45 940 1784 927.02 1784 911 C 1784 894.98 1799.45 882 1818.5 882 C 1837.55 882 1853 894.98 1853 911 Z "/></g><g style="stroke-width: 1.0;stroke: rgb(0,0,0);stroke-opacity: 1.0;stroke-linecap: square;; fill: none" transform="matrix(1,0,0,1,0,0)" ><path d="M 1652 987 C 1652 1003.02 1636.55 1016 1617.5 1016 C 1598.45 1016 1583 1003.02 1583 987 C 1583 970.98 1598.45 958 1617.5 958 C 1636.55 958 1652 970.98 1652 987 Z "/></g><g style="stroke-width: 1.0;stroke: rgb(0,0,0);stroke-opacity: 1.0;stroke-linecap: square;; fill: none" transform="matrix(1,0,0,1,0,0)" ><path d="M 1451 1063 C 1451 1079.02 1435.55 1092 1416.5 1092 C 1397.45 1092 1382 1079.02 1382 1063 C 1382 1046.98 1397.45 1034 1416.5 1034 C 1435.55 1034 1451 1046.98 1451 1063 Z "/></g><g style="stroke-width: 1.0;stroke: rgb(0,0,0);stroke-opacity: 1.0;stroke-linecap: square;; fill: none" transform="matrix(1,0,0,1,0,0)" ><path d="M 1250 1139 C 1250 1155.02 1234.55 1168 1215.5 1168 C 1196.45 1168 1181 1155.02 1181 1139 C 1181 1122.98 1196.45 1110 1215.5 1110 C 1234.55 1110 1250 1122.98 1250 1139 Z "/></g><g style="stroke-width: 1.0;stroke: rgb(0,0,0);stroke-opacity: 1.0;stroke-linecap: square;; fill: none" transform="matrix(1,0,0,1,0,0)" ><path d="M 1451 1215 C 1451 1231.02 1435.55 1244 1416.5 1244 C 1397.45 1244 1382 1231.02 1382 1215 C 1382 1198.98 1397.45 1186 1416.5 1186 C 1435.55 1186 1451 1198.98 1451 1215 Z "/></g><g style="stroke-width: 1.0;stroke: rgb(0,0,0);stroke-opacity: 1.0;stroke-linecap: square;; fill: none" transform="matrix(1,0,0,1,0,0)" ><path d="M 1652 1291 C 1652 1307.02 1636.55 1320 1617.5 1320 C 1598.45 1320 1583 1307.02 1583 1291 C 1583 1274.98 1598.45 1262 1617.5 1262 C 1636.55 1262 1652 1274.98 1652 1291 Z "/></g><g style="stroke-width: 1.0;stroke: rgb(0,0,0);stroke-opacity: 1.0;stroke-linecap: square;; fill: none" transform="matrix(1,0,0,1,0,0)" ><path d="M 1853 1367 C 1853 1383.02 1837.55 1396 1818.5 1396 C 1799.45 1396 1784 1383.02 1784 1367 C 1784 1350.98 1799.45 1338 1818.5 1338 C 1837.55 1338 1853 1350.98 1853 1367 Z "/></g><g style="stroke-width: 1.0;stroke: rgb(0,0,0);stroke-opacity: 1.0;stroke-linecap: square;; fill: none" transform="matrix(1,0,0,1,0,0)" ><path d="M 1652 1443 C 1652 1459.02 1636.55 1472 1617.5 1472 C 1598.45 1472 1583 1459.02 1583 1443 C 1583 1426.98 1598.45 1414 1617.5 1414 C 1636.55 1414 1652 1426.98 1652 1443 Z "/></g><g style="stroke-width: 1.0;stroke: rgb(0,0,0);stroke-opacity: 1.0;stroke-linecap: square;; fill: none" transform="matrix(1,0,0,1,0,0)" ><path d="M 1451 1519 C 1451 1535.02 1435.55 1548 1416.5 1548 C 1397.45 1548 1382 1535.02 1382 1519 C 1382 1502.98 1397.45 1490 1416.5 1490 C 1435.55 1490 1451 1502.98 1451 1519 Z "/></g><g style="stroke-width: 1.0;stroke: rgb(0,0,0);stroke-opacity: 1.0;stroke-linecap: square;; fill: none" transform="matrix(1,0,0,1,0,0)" ><path d="M 1050 1595 C 1050 1611.02 1034.55 1624 1015.5 1624 C 996.45 1624 981 1611.02 981 1595 C 981 1578.98 996.45 1566 1015.5 1566 C 1034.55 1566 1050 1578.98 1050 1595 Z "/></g><g style="stroke-width: 1.0;stroke: rgb(0,0,0);stroke-opacity: 1.0;stroke-linecap: square;; fill: none" transform="matrix(1,0,0,1,0,0)" ><path d="M 1250 1595 C 1250 1611.02 1234.55 1624 1215.5 1624 C 1196.45 1624 1181 1611.02 1181 1595 C 1181 1578.98 1196.45 1566 1215.5 1566 C 1234.55 1566 1250 1578.98 1250 1595 Z "/></g><g style="stroke-width: 1.0;stroke: rgb(0,0,0);stroke-opacity: 1.0;stroke-linecap: square;; fill: none" transform="matrix(1,0,0,1,0,0)" ><path d="M 1451 1595 C 1451 1611.02 1435.55 1624 1416.5 1624 C 1397.45 1624 1382 1611.02 1382 1595 C 1382 1578.98 1397.45 1566 1416.5 1566 C 1435.55 1566 1451 1578.98 1451 1595 Z "/></g><g style="stroke-width: 1.0;stroke: rgb(0,0,0);stroke-opacity: 1.0;stroke-linecap: square;; fill: none" transform="matrix(1,0,0,1,0,0)" ><path d="M 1652 1595 C 1652 1611.02 1636.55 1624 1617.5 1624 C 1598.45 1624 1583 1611.02 1583 1595 C 1583 1578.98 1598.45 1566 1617.5 1566 C 1636.55 1566 1652 1578.98 1652 1595 Z "/></g><g style="stroke-width: 1.0;stroke: rgb(0,0,0);stroke-opacity: 1.0;stroke-linecap: square;; fill: none" transform="matrix(1,0,0,1,0,0)" ><path d="M 1853 1595 C 1853 1611.02 1837.55 1624 1818.5 1624 C 1799.45 1624 1784 1611.02 1784 1595 C 1784 1578.98 1799.45 1566 1818.5 1566 C 1837.55 1566 1853 1578.98 1853 1595 Z "/></g></svg>
