999
dxflib 3.7.5.0
  0
SECTION
  2
HEADER
  9
$ACADVER
  1
AC1015
  9
$HANDSEED
  5
FFFF
  9
$DIMADEC
 70
0
  9
$DIMASZ
 40
2.5
  9
$DIMAUNIT
 70
0
  9
$DIMAZIN
 70
2
  9
$DIMDEC
 70
4
  9
$DIMEXE
 40
1.25
  9
$DIMEXO
 40
0.625
  9
$DIMGAP
 40
0.625
  9
$DIMLUNIT
 70
2
  9
$DIMSCALE
 40
1.0
  9
$DIMTSZ
 40
0.0
  9
$DIMTXT
 40
2.5
  9
$DIMZIN
 70
8
  9
$DWGCODEPAGE
  3
ANSI_1252
  9
$INSUNITS
 70
4
  9
$LTSCALE
 40
1.0
  9
$MEASUREMENT
 70
1
  9
$PDMODE
 70
0
  9
$PDSIZE
 40
0
  0
ENDSEC
  0
SECTION
  2
TABLES
  0
TABLE
  2
VPORT
  5
8
100
AcDbSymbolTable
 70
1
  0
VPORT
  5
30
100
AcDbSymbolTableRecord
100
AcDbViewportTableRecord
  2
*Active
 70
0
 10
0.0
 20
0.0
 11
1.0
 21
1.0
 12
286.3055555555554861
 22
148.5
 13
0.0
 23
0.0
 14
10.0
 24
10.0
 15
10.0
 25
10.0
 16
0.0
 26
0.0
 36
1.0
 17
0.0
 27
0.0
 37
0.0
 40
297.0
 41
1.92798353909465
 42
50.0
 43
0.0
 44
0.0
 50
0.0
 51
0.0
 71
0
 72
100
 73
1
 74
3
 75
1
 76
1
 77
0
 78
0
281
0
 65
1
110
0.0
120
0.0
130
0.0
111
1.0
121
0.0
131
0.0
112
0.0
122
1.0
132
0.0
 79
0
146
0.0
  0
ENDTAB
  0
TABLE
  2
LTYPE
  5
5
100
AcDbSymbolTable
 70
50
  0
LTYPE
  5
16
100
AcDbSymbolTableRecord
100
AcDbLinetypeTableRecord
  2
Continuous
 70
0
  3
Solid line
 72
65
 73
0
 40
0.0
  0
LTYPE
  5
31
100
AcDbSymbolTableRecord
100
AcDbLinetypeTableRecord
  2
ACAD_ISO15W100
 70
0
  3
ISO double-dash triple-dot __ __ . . . __ __ . .
 72
65
 73
10
 40
39.0
 49
12.0
 74
0
 49
-3.0
 74
0
 49
12.0
 74
0
 49
-3.0
 74
0
 49
0.0
 74
0
 49
-3.0
 74
0
 49
0.0
 74
0
 49
-3.0
 74
0
 49
0.0
 74
0
 49
-3.0
 74
0
  0
LTYPE
  5
32
100
AcDbSymbolTableRecord
100
AcDbLinetypeTableRecord
  2
HOT_WATER_SUPPLY
 70
0
  3
Hot water supply ---- HW ---- HW ---- HW ----
 72
65
 73
3
 40
22.8599999999999994
 49
12.6999999999999993
 74
0
 49
-5.0800000000000001
 74
0
 49
-5.0800000000000001
 74
0
  0
LTYPE
  5
33
100
AcDbSymbolTableRecord
100
AcDbLinetypeTableRecord
  2
DIVIDE
 70
0
  3
Divide ____ . . ____ . . ____ . . ____ . . ____
 72
65
 73
6
 40
31.75
 49
12.6999999999999993
 74
0
 49
-6.3499999999999996
 74
0
 49
0.0
 74
0
 49
-6.3499999999999996
 74
0
 49
0.0
 74
0
 49
-6.3499999999999996
 74
0
  0
LTYPE
  5
34
100
AcDbSymbolTableRecord
100
AcDbLinetypeTableRecord
  2
ACAD_ISO10W100
 70
0
  3
ISO dash dot __ . __ . __ . __ . __ . __ . __ . 
 72
65
 73
4
 40
18.0
 49
12.0
 74
0
 49
-3.0
 74
0
 49
0.0
 74
0
 49
-3.0
 74
0
  0
LTYPE
  5
35
100
AcDbSymbolTableRecord
100
AcDbLinetypeTableRecord
  2
GAS_LINE
 70
0
  3
Gas line ----GAS----GAS----GAS----GAS----GAS----GAS--
 72
65
 73
3
 40
24.1300000000000026
 49
12.6999999999999993
 74
0
 49
-5.0800000000000001
 74
0
 49
-6.3499999999999996
 74
0
  0
LTYPE
  5
36
100
AcDbSymbolTableRecord
100
AcDbLinetypeTableRecord
  2
ACAD_ISO04W100
 70
0
  3
ISO long-dash dot ____ . ____ . ____ . ____ . _
 72
65
 73
4
 40
30.0
 49
24.0
 74
0
 49
-3.0
 74
0
 49
0.0
 74
0
 49
-3.0
 74
0
  0
LTYPE
  5
37
100
AcDbSymbolTableRecord
100
AcDbLinetypeTableRecord
  2
CENTER2
 70
0
  3
Center (.5x) ___ _ ___ _ ___ _ ___ _ ___ _ ___
 72
65
 73
4
 40
28.5750000000000028
 49
19.0500000000000007
 74
0
 49
-3.1749999999999998
 74
0
 49
3.1749999999999998
 74
0
 49
-3.1749999999999998
 74
0
  0
LTYPE
  5
38
100
AcDbSymbolTableRecord
100
AcDbLinetypeTableRecord
  2
ACAD_ISO11W100
 70
0
  3
ISO double-dash dot __ __ . __ __ . __ __ . __ _
 72
65
 73
6
 40
33.0
 49
12.0
 74
0
 49
-3.0
 74
0
 49
12.0
 74
0
 49
-3.0
 74
0
 49
0.0
 74
0
 49
-3.0
 74
0
  0
LTYPE
  5
39
100
AcDbSymbolTableRecord
100
AcDbLinetypeTableRecord
  2
HIDDEN2
 70
0
  3
Hidden (.5x) _ _ _ _ _ _ _ _ _ _ _ _ _ _ _ _ _ 
 72
65
 73
2
 40
4.7624999999999993
 49
3.1749999999999998
 74
0
 49
-1.5874999999999999
 74
0
  0
LTYPE
  5
3A
100
AcDbSymbolTableRecord
100
AcDbLinetypeTableRecord
  2
BORDERX2
 70
0
  3
Border (2x) ____  ____  .  ____  ____  .  ___
 72
65
 73
6
 40
88.8999999999999915
 49
25.3999999999999986
 74
0
 49
-12.6999999999999993
 74
0
 49
25.3999999999999986
 74
0
 49
-12.6999999999999993
 74
0
 49
0.0
 74
0
 49
-12.6999999999999993
 74
0
  0
LTYPE
  5
3B
100
AcDbSymbolTableRecord
100
AcDbLinetypeTableRecord
  2
ACAD_ISO05W100
 70
0
  3
ISO long-dash double-dot ____ .. ____ .. ____ . 
 72
65
 73
6
 40
33.0
 49
24.0
 74
0
 49
-3.0
 74
0
 49
0.0
 74
0
 49
-3.0
 74
0
 49
0.0
 74
0
 49
-3.0
 74
0
  0
LTYPE
  5
3C
100
AcDbSymbolTableRecord
100
AcDbLinetypeTableRecord
  2
DASHDOTX2
 70
0
  3
Dash dot (2x) ____  .  ____  .  ____  .  ___
 72
65
 73
4
 40
50.7999999999999972
 49
25.3999999999999986
 74
0
 49
-12.6999999999999993
 74
0
 49
0.0
 74
0
 49
-12.6999999999999993
 74
0
  0
LTYPE
  5
3D
100
AcDbSymbolTableRecord
100
AcDbLinetypeTableRecord
  2
HIDDENX2
 70
0
  3
Hidden (2x) ____ ____ ____ ____ ____ ____ ____ 
 72
65
 73
2
 40
19.0499999999999972
 49
12.6999999999999993
 74
0
 49
-6.3499999999999996
 74
0
  0
LTYPE
  5
3E
100
AcDbSymbolTableRecord
100
AcDbLinetypeTableRecord
  2
CENTERX2
 70
0
  3
Center (2x) ________  __  ________  __  _____
 72
65
 73
4
 40
101.6000000000000085
 49
63.5
 74
0
 49
-12.6999999999999993
 74
0
 49
12.6999999999999993
 74
0
 49
-12.6999999999999993
 74
0
  0
LTYPE
  5
3F
100
AcDbSymbolTableRecord
100
AcDbLinetypeTableRecord
  2
BORDER2
 70
0
  3
Border (.5x) __.__.__.__.__.__.__.__.__.__.__.
 72
65
 73
6
 40
22.2249999999999979
 49
6.3499999999999996
 74
0
 49
-3.1749999999999998
 74
0
 49
6.3499999999999996
 74
0
 49
-3.1749999999999998
 74
0
 49
0.0
 74
0
 49
-3.1749999999999998
 74
0
  0
LTYPE
  5
40
100
AcDbSymbolTableRecord
100
AcDbLinetypeTableRecord
  2
DASHDOT2
 70
0
  3
Dash dot (.5x) _._._._._._._._._._._._._._._.
 72
65
 73
4
 40
12.6999999999999993
 49
6.3499999999999996
 74
0
 49
-3.1749999999999998
 74
0
 49
0.0
 74
0
 49
-3.1749999999999998
 74
0
  0
LTYPE
  5
41
100
AcDbSymbolTableRecord
100
AcDbLinetypeTableRecord
  2
ACAD_ISO12W100
 70
0
  3
ISO dash double-dot __ . . __ . . __ . . __ . . 
 72
65
 73
6
 40
21.0
 49
12.0
 74
0
 49
-3.0
 74
0
 49
0.0
 74
0
 49
-3.0
 74
0
 49
0.0
 74
0
 49
-3.0
 74
0
  0
LTYPE
  5
42
100
AcDbSymbolTableRecord
100
AcDbLinetypeTableRecord
  2
ACAD_ISO07W100
 70
0
  3
ISO dot . . . . . . . . . . . . . . . . . . . . 
 72
65
 73
2
 40
3.0
 49
0.0
 74
0
 49
-3.0
 74
0
  0
LTYPE
  5
43
100
AcDbSymbolTableRecord
100
AcDbLinetypeTableRecord
  2
ACAD_ISO06W100
 70
0
  3
ISO long-dash triple-dot ____ ... ____ ... ____
 72
65
 73
8
 40
36.0
 49
24.0
 74
0
 49
-3.0
 74
0
 49
0.0
 74
0
 49
-3.0
 74
0
 49
0.0
 74
0
 49
-3.0
 74
0
 49
0.0
 74
0
 49
-3.0
 74
0
  0
LTYPE
  5
44
100
AcDbSymbolTableRecord
100
AcDbLinetypeTableRecord
  2
CENTER
 70
0
  3
Center ____ _ ____ _ ____ _ ____ _ ____ _ ____
 72
65
 73
4
 40
50.8000000000000043
 49
31.75
 74
0
 49
-6.3499999999999996
 74
0
 49
6.3499999999999996
 74
0
 49
-6.3499999999999996
 74
0
  0
LTYPE
  5
45
100
AcDbSymbolTableRecord
100
AcDbLinetypeTableRecord
  2
HIDDEN
 70
0
  3
Hidden __ __ __ __ __ __ __ __ __ __ __ __ __ __
 72
65
 73
2
 40
9.5249999999999986
 49
6.3499999999999996
 74
0
 49
-3.1749999999999998
 74
0
  0
LTYPE
  5
46
100
AcDbSymbolTableRecord
100
AcDbLinetypeTableRecord
  2
DOTX2
 70
0
  3
Dot (2x) .  .  .  .  .  .  .  .  .  .  .  .  .  .
 72
65
 73
2
 40
12.6999999999999993
 49
0.0
 74
0
 49
-12.6999999999999993
 74
0
  0
LTYPE
  5
47
100
AcDbSymbolTableRecord
100
AcDbLinetypeTableRecord
  2
PHANTOM
 70
0
  3
Phantom ______  __  __  ______  __  __  ______ 
 72
65
 73
6
 40
63.5000000000000071
 49
31.75
 74
0
 49
-6.3499999999999996
 74
0
 49
6.3499999999999996
 74
0
 49
-6.3499999999999996
 74
0
 49
6.3499999999999996
 74
0
 49
-6.3499999999999996
 74
0
  0
LTYPE
  5
48
100
AcDbSymbolTableRecord
100
AcDbLinetypeTableRecord
  2
ACAD_ISO08W100
 70
0
  3
ISO long-dash short-dash ____ __ ____ __ ____ _
 72
65
 73
4
 40
36.0
 49
24.0
 74
0
 49
-3.0
 74
0
 49
6.0
 74
0
 49
-3.0
 74
0
  0
LTYPE
  5
49
100
AcDbSymbolTableRecord
100
AcDbLinetypeTableRecord
  2
DASHEDX2
 70
0
  3
Dashed (2x) ____  ____  ____  ____  ____  ___
 72
65
 73
2
 40
38.0999999999999943
 49
25.3999999999999986
 74
0
 49
-12.6999999999999993
 74
0
  0
LTYPE
  5
4A
100
AcDbSymbolTableRecord
100
AcDbLinetypeTableRecord
  2
DRAINAGE
 70
0
  3
Drainage ---->---->---->----
 72
65
 73
2
 40
10.1600000000000001
 49
5.0800000000000001
 74
0
 49
5.0800000000000001
 74
0
  0
LTYPE
  5
4B
100
AcDbSymbolTableRecord
100
AcDbLinetypeTableRecord
  2
ACAD_ISO02W100
 70
0
  3
ISO dash __ __ __ __ __ __ __ __ __ __ __ __ __
 72
65
 73
2
 40
15.0
 49
12.0
 74
0
 49
-3.0
 74
0
  0
LTYPE
  5
4C
100
AcDbSymbolTableRecord
100
AcDbLinetypeTableRecord
  2
PHANTOM2
 70
0
  3
Phantom (.5x) ___ _ _ ___ _ _ ___ _ _ ___ _ _
 72
65
 73
6
 40
31.7500000000000036
 49
15.875
 74
0
 49
-3.1749999999999998
 74
0
 49
3.1749999999999998
 74
0
 49
-3.1749999999999998
 74
0
 49
3.1749999999999998
 74
0
 49
-3.1749999999999998
 74
0
  0
LTYPE
  5
4D
100
AcDbSymbolTableRecord
100
AcDbLinetypeTableRecord
  2
DASHED2
 70
0
  3
Dashed (.5x) _ _ _ _ _ _ _ _ _ _ _ _ _ _ _ _ _ 
 72
65
 73
2
 40
9.5249999999999986
 49
6.3499999999999996
 74
0
 49
-3.1749999999999998
 74
0
  0
LTYPE
  5
4E
100
AcDbSymbolTableRecord
100
AcDbLinetypeTableRecord
  2
ACAD_ISO09W100
 70
0
  3
ISO long-dash double-short-dash ____ __ __ ____
 72
65
 73
6
 40
45.0
 49
24.0
 74
0
 49
-3.0
 74
0
 49
6.0
 74
0
 49
-3.0
 74
0
 49
6.0
 74
0
 49
-3.0
 74
0
  0
LTYPE
  5
4F
100
AcDbSymbolTableRecord
100
AcDbLinetypeTableRecord
  2
ACAD_ISO13W100
 70
0
  3
ISO double-dash double-dot __ __ . . __ __ . . _
 72
65
 73
8
 40
36.0
 49
12.0
 74
0
 49
-3.0
 74
0
 49
12.0
 74
0
 49
-3.0
 74
0
 49
0.0
 74
0
 49
-3.0
 74
0
 49
0.0
 74
0
 49
-3.0
 74
0
  0
LTYPE
  5
50
100
AcDbSymbolTableRecord
100
AcDbLinetypeTableRecord
  2
TRACKS
 70
0
  3
Tracks -|-|-|-|-|-|-|-|-|-|-|-|-|-|-|-|-|-|-|-|-|-|-|-|-
 72
65
 73
2
 40
7.6200000000000001
 49
3.8100000000000001
 74
0
 49
3.8100000000000001
 74
0
  0
LTYPE
  5
51
100
AcDbSymbolTableRecord
100
AcDbLinetypeTableRecord
  2
DRAINAGE2
 70
0
  3
Drainage reversed----<----<----<----
 72
65
 73
2
 40
10.1600000000000001
 49
5.0800000000000001
 74
0
 49
5.0800000000000001
 74
0
  0
LTYPE
  5
52
100
AcDbSymbolTableRecord
100
AcDbLinetypeTableRecord
  2
DOT2
 70
0
  3
Dot (.5x) ........................................
 72
65
 73
2
 40
3.1749999999999998
 49
0.0
 74
0
 49
-3.1749999999999998
 74
0
  0
LTYPE
  5
53
100
AcDbSymbolTableRecord
100
AcDbLinetypeTableRecord
  2
ZIGZAG
 70
0
  3
Zig zag /\/\/\/\/\/\/\/\/\/\/\/\/\/\/\/\/\/\/\/\/\/\/\/
 72
65
 73
4
 40
20.32254
 49
0.00254
 74
0
 49
-5.0800000000000001
 74
0
 49
-10.1600000000000001
 74
0
 49
-5.0800000000000001
 74
0
  0
LTYPE
  5
54
100
AcDbSymbolTableRecord
100
AcDbLinetypeTableRecord
  2
DASHED
 70
0
  3
Dashed __ __ __ __ __ __ __ __ __ __ __ __ __ _
 72
65
 73
2
 40
19.0499999999999972
 49
12.6999999999999993
 74
0
 49
-6.3499999999999996
 74
0
  0
LTYPE
  5
55
100
AcDbSymbolTableRecord
100
AcDbLinetypeTableRecord
  2
ACAD_ISO14W100
 70
0
  3
ISO dash triple-dot __ . . . __ . . . __ . . . _
 72
65
 73
8
 40
24.0
 49
12.0
 74
0
 49
-3.0
 74
0
 49
0.0
 74
0
 49
-3.0
 74
0
 49
0.0
 74
0
 49
-3.0
 74
0
 49
0.0
 74
0
 49
-3.0
 74
0
  0
LTYPE
  5
15
100
AcDbSymbolTableRecord
100
AcDbLinetypeTableRecord
  2
BYLAYER
 70
0
  3

 72
65
 73
0
 40
0.0
  0
LTYPE
  5
56
100
AcDbSymbolTableRecord
100
AcDbLinetypeTableRecord
  2
PHANTOMX2
 70
0
  3
Phantom (2x) ____________    ____    ____   _
 72
65
 73
6
 40
127.0000000000000142
 49
63.5
 74
0
 49
-12.6999999999999993
 74
0
 49
12.6999999999999993
 74
0
 49
-12.6999999999999993
 74
0
 49
12.6999999999999993
 74
0
 49
-12.6999999999999993
 74
0
  0
LTYPE
  5
14
100
AcDbSymbolTableRecord
100
AcDbLinetypeTableRecord
  2
BYBLOCK
 70
0
  3

 72
65
 73
0
 40
0.0
  0
LTYPE
  5
57
100
AcDbSymbolTableRecord
100
AcDbLinetypeTableRecord
  2
DIVIDEX2
 70
0
  3
Divide (2x) ________  .  .  ________  .  .  _
 72
65
 73
6
 40
63.5
 49
25.3999999999999986
 74
0
 49
-12.6999999999999993
 74
0
 49
0.0
 74
0
 49
-12.6999999999999993
 74
0
 49
0.0
 74
0
 49
-12.6999999999999993
 74
0
  0
LTYPE
  5
58
100
AcDbSymbolTableRecord
100
AcDbLinetypeTableRecord
  2
BORDER
 70
0
  3
Border __ __ . __ __ . __ __ . __ __ . __ __ .
 72
65
 73
6
 40
44.4499999999999957
 49
12.6999999999999993
 74
0
 49
-6.3499999999999996
 74
0
 49
12.6999999999999993
 74
0
 49
-6.3499999999999996
 74
0
 49
0.0
 74
0
 49
-6.3499999999999996
 74
0
  0
LTYPE
  5
59
100
AcDbSymbolTableRecord
100
AcDbLinetypeTableRecord
  2
DIVIDE2
 70
0
  3
Divide (.5x) __..__..__..__..__..__..__..__.._
 72
65
 73
6
 40
15.875
 49
6.3499999999999996
 74
0
 49
-3.1749999999999998
 74
0
 49
0.0
 74
0
 49
-3.1749999999999998
 74
0
 49
0.0
 74
0
 49
-3.1749999999999998
 74
0
  0
LTYPE
  5
5A
100
AcDbSymbolTableRecord
100
AcDbLinetypeTableRecord
  2
DOT
 70
0
  3
Dot . . . . . . . . . . . . . . . . . . . . . . . .
 72
65
 73
2
 40
6.3499999999999996
 49
0.0
 74
0
 49
-6.3499999999999996
 74
0
  0
LTYPE
  5
5B
100
AcDbSymbolTableRecord
100
AcDbLinetypeTableRecord
  2
DASHDOT
 70
0
  3
Dash dot __ . __ . __ . __ . __ . __ . __ . __
 72
65
 73
4
 40
25.3999999999999986
 49
12.6999999999999993
 74
0
 49
-6.3499999999999996
 74
0
 49
0.0
 74
0
 49
-6.3499999999999996
 74
0
  0
LTYPE
  5
5C
100
AcDbSymbolTableRecord
100
AcDbLinetypeTableRecord
  2
FENCELINE1
 70
0
  3
Fenceline circle ----0-----0----0-----0----0-----0--
 72
65
 73
4
 40
36.8299999999999983
 49
6.3499999999999996
 74
0
 49
-2.54
 74
0
 49
-2.54
 74
0
 49
25.3999999999999986
 74
0
  0
LTYPE
  5
5D
100
AcDbSymbolTableRecord
100
AcDbLinetypeTableRecord
  2
BATTING
 70
0
  3
Batting SSSSSSSSSSSSSSSSSSSSSSSSSSSSSSSSSSSSSSSSSSSSSSS
 72
65
 73
4
 40
10.1625399999999999
 49
0.00254
 74
0
 49
-2.54
 74
0
 49
-5.0800000000000001
 74
0
 49
-2.54
 74
0
  0
LTYPE
  5
5E
100
AcDbSymbolTableRecord
100
AcDbLinetypeTableRecord
  2
ACAD_ISO03W100
 70
0
  3
ISO dash space __    __    __    __    __    __
 72
65
 73
2
 40
30.0
 49
12.0
 74
0
 49
-18.0
 74
0
  0
LTYPE
  5
5F
100
AcDbSymbolTableRecord
100
AcDbLinetypeTableRecord
  2
FENCELINE2
 70
0
  3
Fenceline square ----[]-----[]----[]-----[]----[]---
 72
65
 73
4
 40
36.8299999999999983
 49
6.3499999999999996
 74
0
 49
-2.54
 74
0
 49
-2.54
 74
0
 49
25.3999999999999986
 74
0
  0
ENDTAB
  0
TABLE
  2
LAYER
  5
2
100
AcDbSymbolTable
 70
1
  0
LAYER
  5
10
100
AcDbSymbolTableRecord
100
AcDbLayerTableRecord
  2
0
 70
0
 62
7
420
16777215
  6
Continuous
370
25
390
F
  0
ENDTAB
  0
TABLE
  2
STYLE
  5
3
100
AcDbSymbolTable
 70
1
  0
STYLE
  5
60
100
AcDbSymbolTableRecord
100
AcDbTextStyleTableRecord
  2
Standard
 70
0
 40
0.0
 41
1.0
 50
0.0
 71
0
 42
2.5
  3

  4

1001
ACAD
1000
txt
1071
0
  0
ENDTAB
  0
TABLE
  2
VIEW
  5
6
100
AcDbSymbolTable
 70
0
  0
ENDTAB
  0
TABLE
  2
UCS
  5
7
100
AcDbSymbolTable
 70
0
  0
ENDTAB
  0
TABLE
  2
APPID
  5
9
100
AcDbSymbolTable
 70
1
  0
APPID
  5
12
100
AcDbSymbolTableRecord
100
AcDbRegAppTableRecord
  2
ACAD
 70
0
  0
APPID
  5
61
100
AcDbSymbolTableRecord
100
AcDbRegAppTableRecord
  2
QCAD
 70
0
  0
ENDTAB
  0
TABLE
  2
DIMSTYLE
  5
A
100
AcDbSymbolTable
 70
1
100
AcDbDimStyleTable
 71
0
  0
DIMSTYLE
105
27
100
AcDbSymbolTableRecord
100
AcDbDimStyleTableRecord
  2
Standard
 41
2.5
 42
0.625
 43
3.75
 44
1.25
 70
0
 73
0
 74
0
 77
1
 78
8
140
2.5
141
2.5
143
0.03937007874016
147
0.625
171
3
172
1
271
2
272
2
274
3
278
44
283
0
284
8
340
60
  0
ENDTAB
  0
TABLE
  2
BLOCK_RECORD
  5
1
100
AcDbSymbolTable
 70
1
  0
BLOCK_RECORD
  5
1F
100
AcDbSymbolTableRecord
100
AcDbBlockTableRecord
  2
*Model_Space
340
22
  0
BLOCK_RECORD
  5
1B
100
AcDbSymbolTableRecord
100
AcDbBlockTableRecord
  2
*Paper_Space
340
1E
  0
BLOCK_RECORD
  5
23
100
AcDbSymbolTableRecord
100
AcDbBlockTableRecord
  2
*Paper_Space0
340
26
  0
ENDTAB
  0
ENDSEC
  0
SECTION
  2
BLOCKS
  0
BLOCK
  5
20
100
AcDbEntity
  8
0
100
AcDbBlockBegin
  2
*Model_Space
 70
0
 10
0.0
 20
0.0
 30
0.0
  3
*Model_Space
  1

  0
ENDBLK
  5
21
100
AcDbEntity
  8
0
100
AcDbBlockEnd
  0
BLOCK
  5
1C
100
AcDbEntity
 67
1
  8
0
100
AcDbBlockBegin
  2
*Paper_Space
 70
0
 10
0.0
 20
0.0
 30
0.0
  3
*Paper_Space
  1

  0
ENDBLK
  5
1D
100
AcDbEntity
 67
1
  8
0
100
AcDbBlockEnd
  0
BLOCK
  5
24
100
AcDbEntity
  8
0
100
AcDbBlockBegin
  2
*Paper_Space0
 70
0
 10
0.0
 20
0.0
 30
0.0
  3
*Paper_Space0
  1

  0
ENDBLK
  5
25
100
AcDbEntity
  8
0
100
AcDbBlockEnd
  0
ENDSEC
  0
SECTION
  2
ENTITIES
  0
LINE
  5
62
100
AcDbEntity
100
AcDbLine
  8
0
 62
256
370
-1
 48
1.0
  6
BYLAYER
 10
0.0
 20
-0.0
 30
0.0
 11
686.1527777777777146
 21
-0.0
 31
0.0
  0
LINE
  5
63
100
AcDbEntity
100
AcDbLine
  8
0
 62
256
370
-1
 48
1.0
  6
BYLAYER
 10
686.5055555555554747
 20
-0.0
 30
0.0
 11
686.5055555555554747
 21
-615.9499999999999318
 31
0.0
  0
LINE
  5
64
100
AcDbEntity
100
AcDbLine
  8
0
 62
256
370
-1
 48
1.0
  6
BYLAYER
 10
686.5055555555554747
 20
-616.3027777777776919
 30
0.0
 11
0.3527777777777777
 21
-616.3027777777776919
 31
0.0
  0
LINE
  5
65
100
AcDbEntity
100
AcDbLine
  8
0
 62
256
370
-1
 48
1.0
  6
BYLAYER
 10
0.0
 20
-616.3027777777776919
 30
0.0
 11
0.0
 21
-0.3527777777777777
 31
0.0
  0
SPLINE
  5
66
  8
0
 62
256
370
-1
 48
1.0
  6
BYLAYER
100
AcDbEntity
100
AcDbSpline
 70
8
 71
3
 72
8
 73
4
 74
0
 40
0.0
 40
0.0
 40
0.0
 40
0.0
 40
1.0
 40
1.0
 40
1.0
 40
1.0
 10
370.4166666666666288
 20
-53.62222222222222
 30
0.0
 10
370.4166666666666288
 20
-59.2737222222222186
 30
0.0
 10
364.9662499999999454
 20
-63.8527777777777743
 30
0.0
 10
358.2458333333332803
 20
-63.8527777777777743
 30
0.0
  0
SPLINE
  5
67
  8
0
 62
256
370
-1
 48
1.0
  6
BYLAYER
100
AcDbEntity
100
AcDbSpline
 70
8
 71
3
 72
8
 73
4
 74
0
 40
0.0
 40
0.0
 40
0.0
 40
0.0
 40
1.0
 40
1.0
 40
1.0
 40
1.0
 10
358.2458333333332803
 20
-63.8527777777777743
 30
0.0
 10
351.525416666666672
 20
-63.8527777777777743
 30
0.0
 10
346.0749999999999886
 20
-59.2737222222222186
 30
0.0
 10
346.0749999999999886
 20
-53.62222222222222
 30
0.0
  0
SPLINE
  5
68
  8
0
 62
256
370
-1
 48
1.0
  6
BYLAYER
100
AcDbEntity
100
AcDbSpline
 70
8
 71
3
 72
8
 73
4
 74
0
 40
0.0
 40
0.0
 40
0.0
 40
0.0
 40
1.0
 40
1.0
 40
1.0
 40
1.0
 10
346.0749999999999886
 20
-53.62222222222222
 30
0.0
 10
346.0749999999999886
 20
-47.9707222222222143
 30
0.0
 10
351.525416666666672
 20
-43.3916666666666657
 30
0.0
 10
358.2458333333332803
 20
-43.3916666666666657
 30
0.0
  0
SPLINE
  5
69
  8
0
 62
256
370
-1
 48
1.0
  6
BYLAYER
100
AcDbEntity
100
AcDbSpline
 70
8
 71
3
 72
8
 73
4
 74
0
 40
0.0
 40
0.0
 40
0.0
 40
0.0
 40
1.0
 40
1.0
 40
1.0
 40
1.0
 10
358.2458333333332803
 20
-43.3916666666666657
 30
0.0
 10
364.9662499999999454
 20
-43.3916666666666657
 30
0.0
 10
370.4166666666666288
 20
-47.9707222222222143
 30
0.0
 10
370.4166666666666288
 20
-53.62222222222222
 30
0.0
  0
LINE
  5
6A
100
AcDbEntity
100
AcDbLine
  8
0
 62
256
370
-1
 48
1.0
  6
BYLAYER
 10
370.4166666666666288
 20
-53.62222222222222
 30
0.0
 11
370.4166666666666288
 21
-53.62222222222222
 31
0.0
  0
SPLINE
  5
6B
  8
0
 62
256
370
-1
 48
1.0
  6
BYLAYER
100
AcDbEntity
100
AcDbSpline
 70
8
 71
3
 72
8
 73
4
 74
0
 40
0.0
 40
0.0
 40
0.0
 40
0.0
 40
1.0
 40
1.0
 40
1.0
 40
1.0
 10
440.9722222222221717
 20
-53.62222222222222
 30
0.0
 10
440.9722222222221717
 20
-59.2737222222222186
 30
0.0
 10
435.5218055555554884
 20
-63.8527777777777743
 30
0.0
 10
428.8013888888888232
 20
-63.8527777777777743
 30
0.0
  0
SPLINE
  5
6C
  8
0
 62
256
370
-1
 48
1.0
  6
BYLAYER
100
AcDbEntity
100
AcDbSpline
 70
8
 71
3
 72
8
 73
4
 74
0
 40
0.0
 40
0.0
 40
0.0
 40
0.0
 40
1.0
 40
1.0
 40
1.0
 40
1.0
 10
428.8013888888888232
 20
-63.8527777777777743
 30
0.0
 10
422.0809722222222149
 20
-63.8527777777777743
 30
0.0
 10
416.6305555555555316
 20
-59.2737222222222186
 30
0.0
 10
416.6305555555555316
 20
-53.62222222222222
 30
0.0
  0
SPLINE
  5
6D
  8
0
 62
256
370
-1
 48
1.0
  6
BYLAYER
100
AcDbEntity
100
AcDbSpline
 70
8
 71
3
 72
8
 73
4
 74
0
 40
0.0
 40
0.0
 40
0.0
 40
0.0
 40
1.0
 40
1.0
 40
1.0
 40
1.0
 10
416.6305555555555316
 20
-53.62222222222222
 30
0.0
 10
416.6305555555555316
 20
-47.9707222222222143
 30
0.0
 10
422.0809722222222149
 20
-43.3916666666666657
 30
0.0
 10
428.8013888888888232
 20
-43.3916666666666657
 30
0.0
  0
SPLINE
  5
6E
  8
0
 62
256
370
-1
 48
1.0
  6
BYLAYER
100
AcDbEntity
100
AcDbSpline
 70
8
 71
3
 72
8
 73
4
 74
0
 40
0.0
 40
0.0
 40
0.0
 40
0.0
 40
1.0
 40
1.0
 40
1.0
 40
1.0
 10
428.8013888888888232
 20
-43.3916666666666657
 30
0.0
 10
435.5218055555554884
 20
-43.3916666666666657
 30
0.0
 10
440.9722222222221717
 20
-47.9707222222222143
 30
0.0
 10
440.9722222222221717
 20
-53.62222222222222
 30
0.0
  0
LINE
  5
6F
100
AcDbEntity
100
AcDbLine
  8
0
 62
256
370
-1
 48
1.0
  6
BYLAYER
 10
440.9722222222221717
 20
-53.62222222222222
 30
0.0
 11
440.9722222222221717
 21
-53.62222222222222
 31
0.0
  0
SPLINE
  5
70
  8
0
 62
256
370
-1
 48
1.0
  6
BYLAYER
100
AcDbEntity
100
AcDbSpline
 70
8
 71
3
 72
8
 73
4
 74
0
 40
0.0
 40
0.0
 40
0.0
 40
0.0
 40
1.0
 40
1.0
 40
1.0
 40
1.0
 10
511.8805555555555316
 20
-53.62222222222222
 30
0.0
 10
511.8805555555555316
 20
-59.2737222222222186
 30
0.0
 10
506.4301388888888482
 20
-63.8527777777777743
 30
0.0
 10
499.7097222222221831
 20
-63.8527777777777743
 30
0.0
  0
SPLINE
  5
71
  8
0
 62
256
370
-1
 48
1.0
  6
BYLAYER
100
AcDbEntity
100
AcDbSpline
 70
8
 71
3
 72
8
 73
4
 74
0
 40
0.0
 40
0.0
 40
0.0
 40
0.0
 40
1.0
 40
1.0
 40
1.0
 40
1.0
 10
499.7097222222221831
 20
-63.8527777777777743
 30
0.0
 10
492.9893055555555179
 20
-63.8527777777777743
 30
0.0
 10
487.5388888888888346
 20
-59.2737222222222186
 30
0.0
 10
487.5388888888888346
 20
-53.62222222222222
 30
0.0
  0
SPLINE
  5
72
  8
0
 62
256
370
-1
 48
1.0
  6
BYLAYER
100
AcDbEntity
100
AcDbSpline
 70
8
 71
3
 72
8
 73
4
 74
0
 40
0.0
 40
0.0
 40
0.0
 40
0.0
 40
1.0
 40
1.0
 40
1.0
 40
1.0
 10
487.5388888888888346
 20
-53.62222222222222
 30
0.0
 10
487.5388888888888346
 20
-47.9707222222222143
 30
0.0
 10
492.9893055555555179
 20
-43.3916666666666657
 30
0.0
 10
499.7097222222221831
 20
-43.3916666666666657
 30
0.0
  0
SPLINE
  5
73
  8
0
 62
256
370
-1
 48
1.0
  6
BYLAYER
100
AcDbEntity
100
AcDbSpline
 70
8
 71
3
 72
8
 73
4
 74
0
 40
0.0
 40
0.0
 40
0.0
 40
0.0
 40
1.0
 40
1.0
 40
1.0
 40
1.0
 10
499.7097222222221831
 20
-43.3916666666666657
 30
0.0
 10
506.4301388888888482
 20
-43.3916666666666657
 30
0.0
 10
511.8805555555555316
 20
-47.9707222222222143
 30
0.0
 10
511.8805555555555316
 20
-53.62222222222222
 30
0.0
  0
LINE
  5
74
100
AcDbEntity
100
AcDbLine
  8
0
 62
256
370
-1
 48
1.0
  6
BYLAYER
 10
511.8805555555555316
 20
-53.62222222222222
 30
0.0
 11
511.8805555555555316
 21
-53.62222222222222
 31
0.0
  0
SPLINE
  5
75
  8
0
 62
256
370
-1
 48
1.0
  6
BYLAYER
100
AcDbEntity
100
AcDbSpline
 70
8
 71
3
 72
8
 73
4
 74
0
 40
0.0
 40
0.0
 40
0.0
 40
0.0
 40
1.0
 40
1.0
 40
1.0
 40
1.0
 10
582.7888888888888914
 20
-53.62222222222222
 30
0.0
 10
582.7888888888888914
 20
-59.2737222222222186
 30
0.0
 10
577.3384722222222081
 20
-63.8527777777777743
 30
0.0
 10
570.6180555555555429
 20
-63.8527777777777743
 30
0.0
  0
SPLINE
  5
76
  8
0
 62
256
370
-1
 48
1.0
  6
BYLAYER
100
AcDbEntity
100
AcDbSpline
 70
8
 71
3
 72
8
 73
4
 74
0
 40
0.0
 40
0.0
 40
0.0
 40
0.0
 40
1.0
 40
1.0
 40
1.0
 40
1.0
 10
570.6180555555555429
 20
-63.8527777777777743
 30
0.0
 10
563.8976388888888778
 20
-63.8527777777777743
 30
0.0
 10
558.4472222222221944
 20
-59.2737222222222186
 30
0.0
 10
558.4472222222221944
 20
-53.62222222222222
 30
0.0
  0
SPLINE
  5
77
  8
0
 62
256
370
-1
 48
1.0
  6
BYLAYER
100
AcDbEntity
100
AcDbSpline
 70
8
 71
3
 72
8
 73
4
 74
0
 40
0.0
 40
0.0
 40
0.0
 40
0.0
 40
1.0
 40
1.0
 40
1.0
 40
1.0
 10
558.4472222222221944
 20
-53.62222222222222
 30
0.0
 10
558.4472222222221944
 20
-47.9707222222222143
 30
0.0
 10
563.8976388888888778
 20
-43.3916666666666657
 30
0.0
 10
570.6180555555555429
 20
-43.3916666666666657
 30
0.0
  0
SPLINE
  5
78
  8
0
 62
256
370
-1
 48
1.0
  6
BYLAYER
100
AcDbEntity
100
AcDbSpline
 70
8
 71
3
 72
8
 73
4
 74
0
 40
0.0
 40
0.0
 40
0.0
 40
0.0
 40
1.0
 40
1.0
 40
1.0
 40
1.0
 10
570.6180555555555429
 20
-43.3916666666666657
 30
0.0
 10
577.3384722222222081
 20
-43.3916666666666657
 30
0.0
 10
582.7888888888888914
 20
-47.9707222222222143
 30
0.0
 10
582.7888888888888914
 20
-53.62222222222222
 30
0.0
  0
LINE
  5
79
100
AcDbEntity
100
AcDbLine
  8
0
 62
256
370
-1
 48
1.0
  6
BYLAYER
 10
582.7888888888888914
 20
-53.62222222222222
 30
0.0
 11
582.7888888888888914
 21
-53.62222222222222
 31
0.0
  0
SPLINE
  5
7A
  8
0
 62
256
370
-1
 48
1.0
  6
BYLAYER
100
AcDbEntity
100
AcDbSpline
 70
8
 71
3
 72
8
 73
4
 74
0
 40
0.0
 40
0.0
 40
0.0
 40
0.0
 40
1.0
 40
1.0
 40
1.0
 40
1.0
 10
653.6972222222221944
 20
-53.62222222222222
 30
0.0
 10
653.6972222222221944
 20
-59.2737222222222186
 30
0.0
 10
648.2468055555555111
 20
-63.8527777777777743
 30
0.0
 10
641.5263888888888459
 20
-63.8527777777777743
 30
0.0
  0
SPLINE
  5
7B
  8
0
 62
256
370
-1
 48
1.0
  6
BYLAYER
100
AcDbEntity
100
AcDbSpline
 70
8
 71
3
 72
8
 73
4
 74
0
 40
0.0
 40
0.0
 40
0.0
 40
0.0
 40
1.0
 40
1.0
 40
1.0
 40
1.0
 10
641.5263888888888459
 20
-63.8527777777777743
 30
0.0
 10
634.8059722222221808
 20
-63.8527777777777743
 30
0.0
 10
629.3555555555554974
 20
-59.2737222222222186
 30
0.0
 10
629.3555555555554974
 20
-53.62222222222222
 30
0.0
  0
SPLINE
  5
7C
  8
0
 62
256
370
-1
 48
1.0
  6
BYLAYER
100
AcDbEntity
100
AcDbSpline
 70
8
 71
3
 72
8
 73
4
 74
0
 40
0.0
 40
0.0
 40
0.0
 40
0.0
 40
1.0
 40
1.0
 40
1.0
 40
1.0
 10
629.3555555555554974
 20
-53.62222222222222
 30
0.0
 10
629.3555555555554974
 20
-47.9707222222222143
 30
0.0
 10
634.8059722222221808
 20
-43.3916666666666657
 30
0.0
 10
641.5263888888888459
 20
-43.3916666666666657
 30
0.0
  0
SPLINE
  5
7D
  8
0
 62
256
370
-1
 48
1.0
  6
BYLAYER
100
AcDbEntity
100
AcDbSpline
 70
8
 71
3
 72
8
 73
4
 74
0
 40
0.0
 40
0.0
 40
0.0
 40
0.0
 40
1.0
 40
1.0
 40
1.0
 40
1.0
 10
641.5263888888888459
 20
-43.3916666666666657
 30
0.0
 10
648.2468055555555111
 20
-43.3916666666666657
 30
0.0
 10
653.6972222222221944
 20
-47.9707222222222143
 30
0.0
 10
653.6972222222221944
 20
-53.62222222222222
 30
0.0
  0
LINE
  5
7E
100
AcDbEntity
100
AcDbLine
  8
0
 62
256
370
-1
 48
1.0
  6
BYLAYER
 10
653.6972222222221944
 20
-53.62222222222222
 30
0.0
 11
653.6972222222221944
 21
-53.62222222222222
 31
0.0
  0
SPLINE
  5
7F
  8
0
 62
256
370
-1
 48
1.0
  6
BYLAYER
100
AcDbEntity
100
AcDbSpline
 70
8
 71
3
 72
8
 73
4
 74
0
 40
0.0
 40
0.0
 40
0.0
 40
0.0
 40
1.0
 40
1.0
 40
1.0
 40
1.0
 10
440.9722222222221717
 20
-80.4333333333333229
 30
0.0
 10
440.9722222222221717
 20
-86.0848333333333358
 30
0.0
 10
435.5218055555554884
 20
-90.6638888888888772
 30
0.0
 10
428.8013888888888232
 20
-90.6638888888888772
 30
0.0
  0
SPLINE
  5
80
  8
0
 62
256
370
-1
 48
1.0
  6
BYLAYER
100
AcDbEntity
100
AcDbSpline
 70
8
 71
3
 72
8
 73
4
 74
0
 40
0.0
 40
0.0
 40
0.0
 40
0.0
 40
1.0
 40
1.0
 40
1.0
 40
1.0
 10
428.8013888888888232
 20
-90.6638888888888772
 30
0.0
 10
422.0809722222222149
 20
-90.6638888888888772
 30
0.0
 10
416.6305555555555316
 20
-86.0848333333333358
 30
0.0
 10
416.6305555555555316
 20
-80.4333333333333229
 30
0.0
  0
SPLINE
  5
81
  8
0
 62
256
370
-1
 48
1.0
  6
BYLAYER
100
AcDbEntity
100
AcDbSpline
 70
8
 71
3
 72
8
 73
4
 74
0
 40
0.0
 40
0.0
 40
0.0
 40
0.0
 40
1.0
 40
1.0
 40
1.0
 40
1.0
 10
416.6305555555555316
 20
-80.4333333333333229
 30
0.0
 10
416.6305555555555316
 20
-74.7818333333333243
 30
0.0
 10
422.0809722222222149
 20
-70.2027777777777686
 30
0.0
 10
428.8013888888888232
 20
-70.2027777777777686
 30
0.0
  0
SPLINE
  5
82
  8
0
 62
256
370
-1
 48
1.0
  6
BYLAYER
100
AcDbEntity
100
AcDbSpline
 70
8
 71
3
 72
8
 73
4
 74
0
 40
0.0
 40
0.0
 40
0.0
 40
0.0
 40
1.0
 40
1.0
 40
1.0
 40
1.0
 10
428.8013888888888232
 20
-70.2027777777777686
 30
0.0
 10
435.5218055555554884
 20
-70.2027777777777686
 30
0.0
 10
440.9722222222221717
 20
-74.7818333333333243
 30
0.0
 10
440.9722222222221717
 20
-80.4333333333333229
 30
0.0
  0
LINE
  5
83
100
AcDbEntity
100
AcDbLine
  8
0
 62
256
370
-1
 48
1.0
  6
BYLAYER
 10
440.9722222222221717
 20
-80.4333333333333229
 30
0.0
 11
440.9722222222221717
 21
-80.4333333333333229
 31
0.0
  0
SPLINE
  5
84
  8
0
 62
256
370
-1
 48
1.0
  6
BYLAYER
100
AcDbEntity
100
AcDbSpline
 70
8
 71
3
 72
8
 73
4
 74
0
 40
0.0
 40
0.0
 40
0.0
 40
0.0
 40
1.0
 40
1.0
 40
1.0
 40
1.0
 10
511.8805555555555316
 20
-107.24444444444444
 30
0.0
 10
511.8805555555555316
 20
-112.8959444444444244
 30
0.0
 10
506.4301388888888482
 20
-117.4749999999999943
 30
0.0
 10
499.7097222222221831
 20
-117.4749999999999943
 30
0.0
  0
SPLINE
  5
85
  8
0
 62
256
370
-1
 48
1.0
  6
BYLAYER
100
AcDbEntity
100
AcDbSpline
 70
8
 71
3
 72
8
 73
4
 74
0
 40
0.0
 40
0.0
 40
0.0
 40
0.0
 40
1.0
 40
1.0
 40
1.0
 40
1.0
 10
499.7097222222221831
 20
-117.4749999999999943
 30
0.0
 10
492.9893055555555179
 20
-117.4749999999999943
 30
0.0
 10
487.5388888888888346
 20
-112.8959444444444244
 30
0.0
 10
487.5388888888888346
 20
-107.24444444444444
 30
0.0
  0
SPLINE
  5
86
  8
0
 62
256
370
-1
 48
1.0
  6
BYLAYER
100
AcDbEntity
100
AcDbSpline
 70
8
 71
3
 72
8
 73
4
 74
0
 40
0.0
 40
0.0
 40
0.0
 40
0.0
 40
1.0
 40
1.0
 40
1.0
 40
1.0
 10
487.5388888888888346
 20
-107.24444444444444
 30
0.0
 10
487.5388888888888346
 20
-101.5929444444444414
 30
0.0
 10
492.9893055555555179
 20
-97.0138888888888857
 30
0.0
 10
499.7097222222221831
 20
-97.0138888888888857
 30
0.0
  0
SPLINE
  5
87
  8
0
 62
256
370
-1
 48
1.0
  6
BYLAYER
100
AcDbEntity
100
AcDbSpline
 70
8
 71
3
 72
8
 73
4
 74
0
 40
0.0
 40
0.0
 40
0.0
 40
0.0
 40
1.0
 40
1.0
 40
1.0
 40
1.0
 10
499.7097222222221831
 20
-97.0138888888888857
 30
0.0
 10
506.4301388888888482
 20
-97.0138888888888857
 30
0.0
 10
511.8805555555555316
 20
-101.5929444444444414
 30
0.0
 10
511.8805555555555316
 20
-107.24444444444444
 30
0.0
  0
LINE
  5
88
100
AcDbEntity
100
AcDbLine
  8
0
 62
256
370
-1
 48
1.0
  6
BYLAYER
 10
511.8805555555555316
 20
-107.24444444444444
 30
0.0
 11
511.8805555555555316
 21
-107.24444444444444
 31
0.0
  0
SPLINE
  5
89
  8
0
 62
256
370
-1
 48
1.0
  6
BYLAYER
100
AcDbEntity
100
AcDbSpline
 70
8
 71
3
 72
8
 73
4
 74
0
 40
0.0
 40
0.0
 40
0.0
 40
0.0
 40
1.0
 40
1.0
 40
1.0
 40
1.0
 10
582.7888888888888914
 20
-134.0555555555555429
 30
0.0
 10
582.7888888888888914
 20
-139.7070555555555416
 30
0.0
 10
577.3384722222222081
 20
-144.2861111111110972
 30
0.0
 10
570.6180555555555429
 20
-144.2861111111110972
 30
0.0
  0
SPLINE
  5
8A
  8
0
 62
256
370
-1
 48
1.0
  6
BYLAYER
100
AcDbEntity
100
AcDbSpline
 70
8
 71
3
 72
8
 73
4
 74
0
 40
0.0
 40
0.0
 40
0.0
 40
0.0
 40
1.0
 40
1.0
 40
1.0
 40
1.0
 10
570.6180555555555429
 20
-144.2861111111110972
 30
0.0
 10
563.8976388888888778
 20
-144.2861111111110972
 30
0.0
 10
558.4472222222221944
 20
-139.7070555555555416
 30
0.0
 10
558.4472222222221944
 20
-134.0555555555555429
 30
0.0
  0
SPLINE
  5
8B
  8
0
 62
256
370
-1
 48
1.0
  6
BYLAYER
100
AcDbEntity
100
AcDbSpline
 70
8
 71
3
 72
8
 73
4
 74
0
 40
0.0
 40
0.0
 40
0.0
 40
0.0
 40
1.0
 40
1.0
 40
1.0
 40
1.0
 10
558.4472222222221944
 20
-134.0555555555555429
 30
0.0
 10
558.4472222222221944
 20
-128.4040555555555443
 30
0.0
 10
563.8976388888888778
 20
-123.8249999999999886
 30
0.0
 10
570.6180555555555429
 20
-123.8249999999999886
 30
0.0
  0
SPLINE
  5
8C
  8
0
 62
256
370
-1
 48
1.0
  6
BYLAYER
100
AcDbEntity
100
AcDbSpline
 70
8
 71
3
 72
8
 73
4
 74
0
 40
0.0
 40
0.0
 40
0.0
 40
0.0
 40
1.0
 40
1.0
 40
1.0
 40
1.0
 10
570.6180555555555429
 20
-123.8249999999999886
 30
0.0
 10
577.3384722222222081
 20
-123.8249999999999886
 30
0.0
 10
582.7888888888888914
 20
-128.4040555555555443
 30
0.0
 10
582.7888888888888914
 20
-134.0555555555555429
 30
0.0
  0
LINE
  5
8D
100
AcDbEntity
100
AcDbLine
  8
0
 62
256
370
-1
 48
1.0
  6
BYLAYER
 10
582.7888888888888914
 20
-134.0555555555555429
 30
0.0
 11
582.7888888888888914
 21
-134.0555555555555429
 31
0.0
  0
SPLINE
  5
8E
  8
0
 62
256
370
-1
 48
1.0
  6
BYLAYER
100
AcDbEntity
100
AcDbSpline
 70
8
 71
3
 72
8
 73
4
 74
0
 40
0.0
 40
0.0
 40
0.0
 40
0.0
 40
1.0
 40
1.0
 40
1.0
 40
1.0
 10
653.6972222222221944
 20
-160.5138888888888857
 30
0.0
 10
653.6972222222221944
 20
-166.1653888888888559
 30
0.0
 10
648.2468055555555111
 20
-170.74444444444444
 30
0.0
 10
641.5263888888888459
 20
-170.74444444444444
 30
0.0
  0
SPLINE
  5
8F
  8
0
 62
256
370
-1
 48
1.0
  6
BYLAYER
100
AcDbEntity
100
AcDbSpline
 70
8
 71
3
 72
8
 73
4
 74
0
 40
0.0
 40
0.0
 40
0.0
 40
0.0
 40
1.0
 40
1.0
 40
1.0
 40
1.0
 10
641.5263888888888459
 20
-170.74444444444444
 30
0.0
 10
634.8059722222221808
 20
-170.74444444444444
 30
0.0
 10
629.3555555555554974
 20
-166.1653888888888559
 30
0.0
 10
629.3555555555554974
 20
-160.5138888888888857
 30
0.0
  0
SPLINE
  5
90
  8
0
 62
256
370
-1
 48
1.0
  6
BYLAYER
100
AcDbEntity
100
AcDbSpline
 70
8
 71
3
 72
8
 73
4
 74
0
 40
0.0
 40
0.0
 40
0.0
 40
0.0
 40
1.0
 40
1.0
 40
1.0
 40
1.0
 10
629.3555555555554974
 20
-160.5138888888888857
 30
0.0
 10
629.3555555555554974
 20
-154.8623888888888871
 30
0.0
 10
634.8059722222221808
 20
-150.2833333333333314
 30
0.0
 10
641.5263888888888459
 20
-150.2833333333333314
 30
0.0
  0
SPLINE
  5
91
  8
0
 62
256
370
-1
 48
1.0
  6
BYLAYER
100
AcDbEntity
100
AcDbSpline
 70
8
 71
3
 72
8
 73
4
 74
0
 40
0.0
 40
0.0
 40
0.0
 40
0.0
 40
1.0
 40
1.0
 40
1.0
 40
1.0
 10
641.5263888888888459
 20
-150.2833333333333314
 30
0.0
 10
648.2468055555555111
 20
-150.2833333333333314
 30
0.0
 10
653.6972222222221944
 20
-154.8623888888888871
 30
0.0
 10
653.6972222222221944
 20
-160.5138888888888857
 30
0.0
  0
LINE
  5
92
100
AcDbEntity
100
AcDbLine
  8
0
 62
256
370
-1
 48
1.0
  6
BYLAYER
 10
653.6972222222221944
 20
-160.5138888888888857
 30
0.0
 11
653.6972222222221944
 21
-160.5138888888888857
 31
0.0
  0
SPLINE
  5
93
  8
0
 62
256
370
-1
 48
1.0
  6
BYLAYER
100
AcDbEntity
100
AcDbSpline
 70
8
 71
3
 72
8
 73
4
 74
0
 40
0.0
 40
0.0
 40
0.0
 40
0.0
 40
1.0
 40
1.0
 40
1.0
 40
1.0
 10
582.7888888888888914
 20
-187.3249999999999886
 30
0.0
 10
582.7888888888888914
 20
-192.9764999999999873
 30
0.0
 10
577.3384722222222081
 20
-197.5555555555555429
 30
0.0
 10
570.6180555555555429
 20
-197.5555555555555429
 30
0.0
  0
SPLINE
  5
94
  8
0
 62
256
370
-1
 48
1.0
  6
BYLAYER
100
AcDbEntity
100
AcDbSpline
 70
8
 71
3
 72
8
 73
4
 74
0
 40
0.0
 40
0.0
 40
0.0
 40
0.0
 40
1.0
 40
1.0
 40
1.0
 40
1.0
 10
570.6180555555555429
 20
-197.5555555555555429
 30
0.0
 10
563.8976388888888778
 20
-197.5555555555555429
 30
0.0
 10
558.4472222222221944
 20
-192.9764999999999873
 30
0.0
 10
558.4472222222221944
 20
-187.3249999999999886
 30
0.0
  0
SPLINE
  5
95
  8
0
 62
256
370
-1
 48
1.0
  6
BYLAYER
100
AcDbEntity
100
AcDbSpline
 70
8
 71
3
 72
8
 73
4
 74
0
 40
0.0
 40
0.0
 40
0.0
 40
0.0
 40
1.0
 40
1.0
 40
1.0
 40
1.0
 10
558.4472222222221944
 20
-187.3249999999999886
 30
0.0
 10
558.4472222222221944
 20
-181.67349999999999
 30
0.0
 10
563.8976388888888778
 20
-177.0944444444444343
 30
0.0
 10
570.6180555555555429
 20
-177.0944444444444343
 30
0.0
  0
SPLINE
  5
96
  8
0
 62
256
370
-1
 48
1.0
  6
BYLAYER
100
AcDbEntity
100
AcDbSpline
 70
8
 71
3
 72
8
 73
4
 74
0
 40
0.0
 40
0.0
 40
0.0
 40
0.0
 40
1.0
 40
1.0
 40
1.0
 40
1.0
 10
570.6180555555555429
 20
-177.0944444444444343
 30
0.0
 10
577.3384722222222081
 20
-177.0944444444444343
 30
0.0
 10
582.7888888888888914
 20
-181.67349999999999
 30
0.0
 10
582.7888888888888914
 20
-187.3249999999999886
 30
0.0
  0
LINE
  5
97
100
AcDbEntity
100
AcDbLine
  8
0
 62
256
370
-1
 48
1.0
  6
BYLAYER
 10
582.7888888888888914
 20
-187.3249999999999886
 30
0.0
 11
582.7888888888888914
 21
-187.3249999999999886
 31
0.0
  0
SPLINE
  5
98
  8
0
 62
256
370
-1
 48
1.0
  6
BYLAYER
100
AcDbEntity
100
AcDbSpline
 70
8
 71
3
 72
8
 73
4
 74
0
 40
0.0
 40
0.0
 40
0.0
 40
0.0
 40
1.0
 40
1.0
 40
1.0
 40
1.0
 10
511.8805555555555316
 20
-214.1361111111110915
 30
0.0
 10
511.8805555555555316
 20
-219.7876111111110902
 30
0.0
 10
506.4301388888888482
 20
-224.3666666666666458
 30
0.0
 10
499.7097222222221831
 20
-224.3666666666666458
 30
0.0
  0
SPLINE
  5
99
  8
0
 62
256
370
-1
 48
1.0
  6
BYLAYER
100
AcDbEntity
100
AcDbSpline
 70
8
 71
3
 72
8
 73
4
 74
0
 40
0.0
 40
0.0
 40
0.0
 40
0.0
 40
1.0
 40
1.0
 40
1.0
 40
1.0
 10
499.7097222222221831
 20
-224.3666666666666458
 30
0.0
 10
492.9893055555555179
 20
-224.3666666666666458
 30
0.0
 10
487.5388888888888346
 20
-219.7876111111110902
 30
0.0
 10
487.5388888888888346
 20
-214.1361111111110915
 30
0.0
  0
SPLINE
  5
9A
  8
0
 62
256
370
-1
 48
1.0
  6
BYLAYER
100
AcDbEntity
100
AcDbSpline
 70
8
 71
3
 72
8
 73
4
 74
0
 40
0.0
 40
0.0
 40
0.0
 40
0.0
 40
1.0
 40
1.0
 40
1.0
 40
1.0
 10
487.5388888888888346
 20
-214.1361111111110915
 30
0.0
 10
487.5388888888888346
 20
-208.4846111111110929
 30
0.0
 10
492.9893055555555179
 20
-203.9055555555555372
 30
0.0
 10
499.7097222222221831
 20
-203.9055555555555372
 30
0.0
  0
SPLINE
  5
9B
  8
0
 62
256
370
-1
 48
1.0
  6
BYLAYER
100
AcDbEntity
100
AcDbSpline
 70
8
 71
3
 72
8
 73
4
 74
0
 40
0.0
 40
0.0
 40
0.0
 40
0.0
 40
1.0
 40
1.0
 40
1.0
 40
1.0
 10
499.7097222222221831
 20
-203.9055555555555372
 30
0.0
 10
506.4301388888888482
 20
-203.9055555555555372
 30
0.0
 10
511.8805555555555316
 20
-208.4846111111110929
 30
0.0
 10
511.8805555555555316
 20
-214.1361111111110915
 30
0.0
  0
LINE
  5
9C
100
AcDbEntity
100
AcDbLine
  8
0
 62
256
370
-1
 48
1.0
  6
BYLAYER
 10
511.8805555555555316
 20
-214.1361111111110915
 30
0.0
 11
511.8805555555555316
 21
-214.1361111111110915
 31
0.0
  0
SPLINE
  5
9D
  8
0
 62
256
370
-1
 48
1.0
  6
BYLAYER
100
AcDbEntity
100
AcDbSpline
 70
8
 71
3
 72
8
 73
4
 74
0
 40
0.0
 40
0.0
 40
0.0
 40
0.0
 40
1.0
 40
1.0
 40
1.0
 40
1.0
 10
440.9722222222221717
 20
-240.9472222222221944
 30
0.0
 10
440.9722222222221717
 20
-246.5987222222221931
 30
0.0
 10
435.5218055555554884
 20
-251.1777777777777487
 30
0.0
 10
428.8013888888888232
 20
-251.1777777777777487
 30
0.0
  0
SPLINE
  5
9E
  8
0
 62
256
370
-1
 48
1.0
  6
BYLAYER
100
AcDbEntity
100
AcDbSpline
 70
8
 71
3
 72
8
 73
4
 74
0
 40
0.0
 40
0.0
 40
0.0
 40
0.0
 40
1.0
 40
1.0
 40
1.0
 40
1.0
 10
428.8013888888888232
 20
-251.1777777777777487
 30
0.0
 10
422.0809722222222149
 20
-251.1777777777777487
 30
0.0
 10
416.6305555555555316
 20
-246.5987222222221931
 30
0.0
 10
416.6305555555555316
 20
-240.9472222222221944
 30
0.0
  0
SPLINE
  5
9F
  8
0
 62
256
370
-1
 48
1.0
  6
BYLAYER
100
AcDbEntity
100
AcDbSpline
 70
8
 71
3
 72
8
 73
4
 74
0
 40
0.0
 40
0.0
 40
0.0
 40
0.0
 40
1.0
 40
1.0
 40
1.0
 40
1.0
 10
416.6305555555555316
 20
-240.9472222222221944
 30
0.0
 10
416.6305555555555316
 20
-235.2957222222221958
 30
0.0
 10
422.0809722222222149
 20
-230.7166666666666401
 30
0.0
 10
428.8013888888888232
 20
-230.7166666666666401
 30
0.0
  0
SPLINE
  5
A0
  8
0
 62
256
370
-1
 48
1.0
  6
BYLAYER
100
AcDbEntity
100
AcDbSpline
 70
8
 71
3
 72
8
 73
4
 74
0
 40
0.0
 40
0.0
 40
0.0
 40
0.0
 40
1.0
 40
1.0
 40
1.0
 40
1.0
 10
428.8013888888888232
 20
-230.7166666666666401
 30
0.0
 10
435.5218055555554884
 20
-230.7166666666666401
 30
0.0
 10
440.9722222222221717
 20
-235.2957222222221958
 30
0.0
 10
440.9722222222221717
 20
-240.9472222222221944
 30
0.0
  0
LINE
  5
A1
100
AcDbEntity
100
AcDbLine
  8
0
 62
256
370
-1
 48
1.0
  6
BYLAYER
 10
440.9722222222221717
 20
-240.9472222222221944
 30
0.0
 11
440.9722222222221717
 21
-240.9472222222221944
 31
0.0
  0
SPLINE
  5
A2
  8
0
 62
256
370
-1
 48
1.0
  6
BYLAYER
100
AcDbEntity
100
AcDbSpline
 70
8
 71
3
 72
8
 73
4
 74
0
 40
0.0
 40
0.0
 40
0.0
 40
0.0
 40
1.0
 40
1.0
 40
1.0
 40
1.0
 10
511.8805555555555316
 20
-267.7583333333333258
 30
0.0
 10
511.8805555555555316
 20
-273.4098333333333244
 30
0.0
 10
506.4301388888888482
 20
-277.98888888888888
 30
0.0
 10
499.7097222222221831
 20
-277.98888888888888
 30
0.0
  0
SPLINE
  5
A3
  8
0
 62
256
370
-1
 48
1.0
  6
BYLAYER
100
AcDbEntity
100
AcDbSpline
 70
8
 71
3
 72
8
 73
4
 74
0
 40
0.0
 40
0.0
 40
0.0
 40
0.0
 40
1.0
 40
1.0
 40
1.0
 40
1.0
 10
499.7097222222221831
 20
-277.98888888888888
 30
0.0
 10
492.9893055555555179
 20
-277.98888888888888
 30
0.0
 10
487.5388888888888346
 20
-273.4098333333333244
 30
0.0
 10
487.5388888888888346
 20
-267.7583333333333258
 30
0.0
  0
SPLINE
  5
A4
  8
0
 62
256
370
-1
 48
1.0
  6
BYLAYER
100
AcDbEntity
100
AcDbSpline
 70
8
 71
3
 72
8
 73
4
 74
0
 40
0.0
 40
0.0
 40
0.0
 40
0.0
 40
1.0
 40
1.0
 40
1.0
 40
1.0
 10
487.5388888888888346
 20
-267.7583333333333258
 30
0.0
 10
487.5388888888888346
 20
-262.1068333333333271
 30
0.0
 10
492.9893055555555179
 20
-257.5277777777777715
 30
0.0
 10
499.7097222222221831
 20
-257.5277777777777715
 30
0.0
  0
SPLINE
  5
A5
  8
0
 62
256
370
-1
 48
1.0
  6
BYLAYER
100
AcDbEntity
100
AcDbSpline
 70
8
 71
3
 72
8
 73
4
 74
0
 40
0.0
 40
0.0
 40
0.0
 40
0.0
 40
1.0
 40
1.0
 40
1.0
 40
1.0
 10
499.7097222222221831
 20
-257.5277777777777715
 30
0.0
 10
506.4301388888888482
 20
-257.5277777777777715
 30
0.0
 10
511.8805555555555316
 20
-262.1068333333333271
 30
0.0
 10
511.8805555555555316
 20
-267.7583333333333258
 30
0.0
  0
LINE
  5
A6
100
AcDbEntity
100
AcDbLine
  8
0
 62
256
370
-1
 48
1.0
  6
BYLAYER
 10
511.8805555555555316
 20
-267.7583333333333258
 30
0.0
 11
511.8805555555555316
 21
-267.7583333333333258
 31
0.0
  0
SPLINE
  5
A7
  8
0
 62
256
370
-1
 48
1.0
  6
BYLAYER
100
AcDbEntity
100
AcDbSpline
 70
8
 71
3
 72
8
 73
4
 74
0
 40
0.0
 40
0.0
 40
0.0
 40
0.0
 40
1.0
 40
1.0
 40
1.0
 40
1.0
 10
582.7888888888888914
 20
-294.5694444444444002
 30
0.0
 10
582.7888888888888914
 20
-300.2209444444443989
 30
0.0
 10
577.3384722222222081
 20
-304.7999999999999545
 30
0.0
 10
570.6180555555555429
 20
-304.7999999999999545
 30
0.0
  0
SPLINE
  5
A8
  8
0
 62
256
370
-1
 48
1.0
  6
BYLAYER
100
AcDbEntity
100
AcDbSpline
 70
8
 71
3
 72
8
 73
4
 74
0
 40
0.0
 40
0.0
 40
0.0
 40
0.0
 40
1.0
 40
1.0
 40
1.0
 40
1.0
 10
570.6180555555555429
 20
-304.7999999999999545
 30
0.0
 10
563.8976388888888778
 20
-304.7999999999999545
 30
0.0
 10
558.4472222222221944
 20
-300.2209444444443989
 30
0.0
 10
558.4472222222221944
 20
-294.5694444444444002
 30
0.0
  0
SPLINE
  5
A9
  8
0
 62
256
370
-1
 48
1.0
  6
BYLAYER
100
AcDbEntity
100
AcDbSpline
 70
8
 71
3
 72
8
 73
4
 74
0
 40
0.0
 40
0.0
 40
0.0
 40
0.0
 40
1.0
 40
1.0
 40
1.0
 40
1.0
 10
558.4472222222221944
 20
-294.5694444444444002
 30
0.0
 10
558.4472222222221944
 20
-288.9179444444444016
 30
0.0
 10
563.8976388888888778
 20
-284.3388888888888459
 30
0.0
 10
570.6180555555555429
 20
-284.3388888888888459
 30
0.0
  0
SPLINE
  5
AA
  8
0
 62
256
370
-1
 48
1.0
  6
BYLAYER
100
AcDbEntity
100
AcDbSpline
 70
8
 71
3
 72
8
 73
4
 74
0
 40
0.0
 40
0.0
 40
0.0
 40
0.0
 40
1.0
 40
1.0
 40
1.0
 40
1.0
 10
570.6180555555555429
 20
-284.3388888888888459
 30
0.0
 10
577.3384722222222081
 20
-284.3388888888888459
 30
0.0
 10
582.7888888888888914
 20
-288.9179444444444016
 30
0.0
 10
582.7888888888888914
 20
-294.5694444444444002
 30
0.0
  0
LINE
  5
AB
100
AcDbEntity
100
AcDbLine
  8
0
 62
256
370
-1
 48
1.0
  6
BYLAYER
 10
582.7888888888888914
 20
-294.5694444444444002
 30
0.0
 11
582.7888888888888914
 21
-294.5694444444444002
 31
0.0
  0
SPLINE
  5
AC
  8
0
 62
256
370
-1
 48
1.0
  6
BYLAYER
100
AcDbEntity
100
AcDbSpline
 70
8
 71
3
 72
8
 73
4
 74
0
 40
0.0
 40
0.0
 40
0.0
 40
0.0
 40
1.0
 40
1.0
 40
1.0
 40
1.0
 10
653.6972222222221944
 20
-321.3805555555555316
 30
0.0
 10
653.6972222222221944
 20
-327.0320555555555302
 30
0.0
 10
648.2468055555555111
 20
-331.6111111111110858
 30
0.0
 10
641.5263888888888459
 20
-331.6111111111110858
 30
0.0
  0
SPLINE
  5
AD
  8
0
 62
256
370
-1
 48
1.0
  6
BYLAYER
100
AcDbEntity
100
AcDbSpline
 70
8
 71
3
 72
8
 73
4
 74
0
 40
0.0
 40
0.0
 40
0.0
 40
0.0
 40
1.0
 40
1.0
 40
1.0
 40
1.0
 10
641.5263888888888459
 20
-331.6111111111110858
 30
0.0
 10
634.8059722222221808
 20
-331.6111111111110858
 30
0.0
 10
629.3555555555554974
 20
-327.0320555555555302
 30
0.0
 10
629.3555555555554974
 20
-321.3805555555555316
 30
0.0
  0
SPLINE
  5
AE
  8
0
 62
256
370
-1
 48
1.0
  6
BYLAYER
100
AcDbEntity
100
AcDbSpline
 70
8
 71
3
 72
8
 73
4
 74
0
 40
0.0
 40
0.0
 40
0.0
 40
0.0
 40
1.0
 40
1.0
 40
1.0
 40
1.0
 10
629.3555555555554974
 20
-321.3805555555555316
 30
0.0
 10
629.3555555555554974
 20
-315.7290555555555329
 30
0.0
 10
634.8059722222221808
 20
-311.1499999999999773
 30
0.0
 10
641.5263888888888459
 20
-311.1499999999999773
 30
0.0
  0
SPLINE
  5
AF
  8
0
 62
256
370
-1
 48
1.0
  6
BYLAYER
100
AcDbEntity
100
AcDbSpline
 70
8
 71
3
 72
8
 73
4
 74
0
 40
0.0
 40
0.0
 40
0.0
 40
0.0
 40
1.0
 40
1.0
 40
1.0
 40
1.0
 10
641.5263888888888459
 20
-311.1499999999999773
 30
0.0
 10
648.2468055555555111
 20
-311.1499999999999773
 30
0.0
 10
653.6972222222221944
 20
-315.7290555555555329
 30
0.0
 10
653.6972222222221944
 20
-321.3805555555555316
 30
0.0
  0
LINE
  5
B0
100
AcDbEntity
100
AcDbLine
  8
0
 62
256
370
-1
 48
1.0
  6
BYLAYER
 10
653.6972222222221944
 20
-321.3805555555555316
 30
0.0
 11
653.6972222222221944
 21
-321.3805555555555316
 31
0.0
  0
SPLINE
  5
B1
  8
0
 62
256
370
-1
 48
1.0
  6
BYLAYER
100
AcDbEntity
100
AcDbSpline
 70
8
 71
3
 72
8
 73
4
 74
0
 40
0.0
 40
0.0
 40
0.0
 40
0.0
 40
1.0
 40
1.0
 40
1.0
 40
1.0
 10
582.7888888888888914
 20
-348.1916666666666629
 30
0.0
 10
582.7888888888888914
 20
-353.8431666666666047
 30
0.0
 10
577.3384722222222081
 20
-358.4222222222222172
 30
0.0
 10
570.6180555555555429
 20
-358.4222222222222172
 30
0.0
  0
SPLINE
  5
B2
  8
0
 62
256
370
-1
 48
1.0
  6
BYLAYER
100
AcDbEntity
100
AcDbSpline
 70
8
 71
3
 72
8
 73
4
 74
0
 40
0.0
 40
0.0
 40
0.0
 40
0.0
 40
1.0
 40
1.0
 40
1.0
 40
1.0
 10
570.6180555555555429
 20
-358.4222222222222172
 30
0.0
 10
563.8976388888888778
 20
-358.4222222222222172
 30
0.0
 10
558.4472222222221944
 20
-353.8431666666666047
 30
0.0
 10
558.4472222222221944
 20
-348.1916666666666629
 30
0.0
  0
SPLINE
  5
B3
  8
0
 62
256
370
-1
 48
1.0
  6
BYLAYER
100
AcDbEntity
100
AcDbSpline
 70
8
 71
3
 72
8
 73
4
 74
0
 40
0.0
 40
0.0
 40
0.0
 40
0.0
 40
1.0
 40
1.0
 40
1.0
 40
1.0
 10
558.4472222222221944
 20
-348.1916666666666629
 30
0.0
 10
558.4472222222221944
 20
-342.5401666666666642
 30
0.0
 10
563.8976388888888778
 20
-337.9611111111111086
 30
0.0
 10
570.6180555555555429
 20
-337.9611111111111086
 30
0.0
  0
SPLINE
  5
B4
  8
0
 62
256
370
-1
 48
1.0
  6
BYLAYER
100
AcDbEntity
100
AcDbSpline
 70
8
 71
3
 72
8
 73
4
 74
0
 40
0.0
 40
0.0
 40
0.0
 40
0.0
 40
1.0
 40
1.0
 40
1.0
 40
1.0
 10
570.6180555555555429
 20
-337.9611111111111086
 30
0.0
 10
577.3384722222222081
 20
-337.9611111111111086
 30
0.0
 10
582.7888888888888914
 20
-342.5401666666666642
 30
0.0
 10
582.7888888888888914
 20
-348.1916666666666629
 30
0.0
  0
LINE
  5
B5
100
AcDbEntity
100
AcDbLine
  8
0
 62
256
370
-1
 48
1.0
  6
BYLAYER
 10
582.7888888888888914
 20
-348.1916666666666629
 30
0.0
 11
582.7888888888888914
 21
-348.1916666666666629
 31
0.0
  0
SPLINE
  5
B6
  8
0
 62
256
370
-1
 48
1.0
  6
BYLAYER
100
AcDbEntity
100
AcDbSpline
 70
8
 71
3
 72
8
 73
4
 74
0
 40
0.0
 40
0.0
 40
0.0
 40
0.0
 40
1.0
 40
1.0
 40
1.0
 40
1.0
 10
511.8805555555555316
 20
-375.0027777777777374
 30
0.0
 10
511.8805555555555316
 20
-380.654277777777736
 30
0.0
 10
506.4301388888888482
 20
-385.2333333333332916
 30
0.0
 10
499.7097222222221831
 20
-385.2333333333332916
 30
0.0
  0
SPLINE
  5
B7
  8
0
 62
256
370
-1
 48
1.0
  6
BYLAYER
100
AcDbEntity
100
AcDbSpline
 70
8
 71
3
 72
8
 73
4
 74
0
 40
0.0
 40
0.0
 40
0.0
 40
0.0
 40
1.0
 40
1.0
 40
1.0
 40
1.0
 10
499.7097222222221831
 20
-385.2333333333332916
 30
0.0
 10
492.9893055555555179
 20
-385.2333333333332916
 30
0.0
 10
487.5388888888888346
 20
-380.654277777777736
 30
0.0
 10
487.5388888888888346
 20
-375.0027777777777374
 30
0.0
  0
SPLINE
  5
B8
  8
0
 62
256
370
-1
 48
1.0
  6
BYLAYER
100
AcDbEntity
100
AcDbSpline
 70
8
 71
3
 72
8
 73
4
 74
0
 40
0.0
 40
0.0
 40
0.0
 40
0.0
 40
1.0
 40
1.0
 40
1.0
 40
1.0
 10
487.5388888888888346
 20
-375.0027777777777374
 30
0.0
 10
487.5388888888888346
 20
-369.3512777777777387
 30
0.0
 10
492.9893055555555179
 20
-364.7722222222221831
 30
0.0
 10
499.7097222222221831
 20
-364.7722222222221831
 30
0.0
  0
SPLINE
  5
B9
  8
0
 62
256
370
-1
 48
1.0
  6
BYLAYER
100
AcDbEntity
100
AcDbSpline
 70
8
 71
3
 72
8
 73
4
 74
0
 40
0.0
 40
0.0
 40
0.0
 40
0.0
 40
1.0
 40
1.0
 40
1.0
 40
1.0
 10
499.7097222222221831
 20
-364.7722222222221831
 30
0.0
 10
506.4301388888888482
 20
-364.7722222222221831
 30
0.0
 10
511.8805555555555316
 20
-369.3512777777777387
 30
0.0
 10
511.8805555555555316
 20
-375.0027777777777374
 30
0.0
  0
LINE
  5
BA
100
AcDbEntity
100
AcDbLine
  8
0
 62
256
370
-1
 48
1.0
  6
BYLAYER
 10
511.8805555555555316
 20
-375.0027777777777374
 30
0.0
 11
511.8805555555555316
 21
-375.0027777777777374
 31
0.0
  0
SPLINE
  5
BB
  8
0
 62
256
370
-1
 48
1.0
  6
BYLAYER
100
AcDbEntity
100
AcDbSpline
 70
8
 71
3
 72
8
 73
4
 74
0
 40
0.0
 40
0.0
 40
0.0
 40
0.0
 40
1.0
 40
1.0
 40
1.0
 40
1.0
 10
440.9722222222221717
 20
-401.8138888888888687
 30
0.0
 10
440.9722222222221717
 20
-407.4653888888888673
 30
0.0
 10
435.5218055555554884
 20
-412.044444444444423
 30
0.0
 10
428.8013888888888232
 20
-412.044444444444423
 30
0.0
  0
SPLINE
  5
BC
  8
0
 62
256
370
-1
 48
1.0
  6
BYLAYER
100
AcDbEntity
100
AcDbSpline
 70
8
 71
3
 72
8
 73
4
 74
0
 40
0.0
 40
0.0
 40
0.0
 40
0.0
 40
1.0
 40
1.0
 40
1.0
 40
1.0
 10
428.8013888888888232
 20
-412.044444444444423
 30
0.0
 10
422.0809722222222149
 20
-412.044444444444423
 30
0.0
 10
416.6305555555555316
 20
-407.4653888888888673
 30
0.0
 10
416.6305555555555316
 20
-401.8138888888888687
 30
0.0
  0
SPLINE
  5
BD
  8
0
 62
256
370
-1
 48
1.0
  6
BYLAYER
100
AcDbEntity
100
AcDbSpline
 70
8
 71
3
 72
8
 73
4
 74
0
 40
0.0
 40
0.0
 40
0.0
 40
0.0
 40
1.0
 40
1.0
 40
1.0
 40
1.0
 10
416.6305555555555316
 20
-401.8138888888888687
 30
0.0
 10
416.6305555555555316
 20
-396.16238888888887
 30
0.0
 10
422.0809722222222149
 20
-391.5833333333333144
 30
0.0
 10
428.8013888888888232
 20
-391.5833333333333144
 30
0.0
  0
SPLINE
  5
BE
  8
0
 62
256
370
-1
 48
1.0
  6
BYLAYER
100
AcDbEntity
100
AcDbSpline
 70
8
 71
3
 72
8
 73
4
 74
0
 40
0.0
 40
0.0
 40
0.0
 40
0.0
 40
1.0
 40
1.0
 40
1.0
 40
1.0
 10
428.8013888888888232
 20
-391.5833333333333144
 30
0.0
 10
435.5218055555554884
 20
-391.5833333333333144
 30
0.0
 10
440.9722222222221717
 20
-396.16238888888887
 30
0.0
 10
440.9722222222221717
 20
-401.8138888888888687
 30
0.0
  0
LINE
  5
BF
100
AcDbEntity
100
AcDbLine
  8
0
 62
256
370
-1
 48
1.0
  6
BYLAYER
 10
440.9722222222221717
 20
-401.8138888888888687
 30
0.0
 11
440.9722222222221717
 21
-401.8138888888888687
 31
0.0
  0
SPLINE
  5
C0
  8
0
 62
256
370
-1
 48
1.0
  6
BYLAYER
100
AcDbEntity
100
AcDbSpline
 70
8
 71
3
 72
8
 73
4
 74
0
 40
0.0
 40
0.0
 40
0.0
 40
0.0
 40
1.0
 40
1.0
 40
1.0
 40
1.0
 10
511.8805555555555316
 20
-428.6249999999999432
 30
0.0
 10
511.8805555555555316
 20
-434.2764999999999418
 30
0.0
 10
506.4301388888888482
 20
-438.8555555555554974
 30
0.0
 10
499.7097222222221831
 20
-438.8555555555554974
 30
0.0
  0
SPLINE
  5
C1
  8
0
 62
256
370
-1
 48
1.0
  6
BYLAYER
100
AcDbEntity
100
AcDbSpline
 70
8
 71
3
 72
8
 73
4
 74
0
 40
0.0
 40
0.0
 40
0.0
 40
0.0
 40
1.0
 40
1.0
 40
1.0
 40
1.0
 10
499.7097222222221831
 20
-438.8555555555554974
 30
0.0
 10
492.9893055555555179
 20
-438.8555555555554974
 30
0.0
 10
487.5388888888888346
 20
-434.2764999999999418
 30
0.0
 10
487.5388888888888346
 20
-428.6249999999999432
 30
0.0
  0
SPLINE
  5
C2
  8
0
 62
256
370
-1
 48
1.0
  6
BYLAYER
100
AcDbEntity
100
AcDbSpline
 70
8
 71
3
 72
8
 73
4
 74
0
 40
0.0
 40
0.0
 40
0.0
 40
0.0
 40
1.0
 40
1.0
 40
1.0
 40
1.0
 10
487.5388888888888346
 20
-428.6249999999999432
 30
0.0
 10
487.5388888888888346
 20
-422.9734999999999445
 30
0.0
 10
492.9893055555555179
 20
-418.3944444444443889
 30
0.0
 10
499.7097222222221831
 20
-418.3944444444443889
 30
0.0
  0
SPLINE
  5
C3
  8
0
 62
256
370
-1
 48
1.0
  6
BYLAYER
100
AcDbEntity
100
AcDbSpline
 70
8
 71
3
 72
8
 73
4
 74
0
 40
0.0
 40
0.0
 40
0.0
 40
0.0
 40
1.0
 40
1.0
 40
1.0
 40
1.0
 10
499.7097222222221831
 20
-418.3944444444443889
 30
0.0
 10
506.4301388888888482
 20
-418.3944444444443889
 30
0.0
 10
511.8805555555555316
 20
-422.9734999999999445
 30
0.0
 10
511.8805555555555316
 20
-428.6249999999999432
 30
0.0
  0
LINE
  5
C4
100
AcDbEntity
100
AcDbLine
  8
0
 62
256
370
-1
 48
1.0
  6
BYLAYER
 10
511.8805555555555316
 20
-428.6249999999999432
 30
0.0
 11
511.8805555555555316
 21
-428.6249999999999432
 31
0.0
  0
SPLINE
  5
C5
  8
0
 62
256
370
-1
 48
1.0
  6
BYLAYER
100
AcDbEntity
100
AcDbSpline
 70
8
 71
3
 72
8
 73
4
 74
0
 40
0.0
 40
0.0
 40
0.0
 40
0.0
 40
1.0
 40
1.0
 40
1.0
 40
1.0
 10
582.7888888888888914
 20
-455.4361111111110745
 30
0.0
 10
582.7888888888888914
 20
-461.0876111111110731
 30
0.0
 10
577.3384722222222081
 20
-465.6666666666666288
 30
0.0
 10
570.6180555555555429
 20
-465.6666666666666288
 30
0.0
  0
SPLINE
  5
C6
  8
0
 62
256
370
-1
 48
1.0
  6
BYLAYER
100
AcDbEntity
100
AcDbSpline
 70
8
 71
3
 72
8
 73
4
 74
0
 40
0.0
 40
0.0
 40
0.0
 40
0.0
 40
1.0
 40
1.0
 40
1.0
 40
1.0
 10
570.6180555555555429
 20
-465.6666666666666288
 30
0.0
 10
563.8976388888888778
 20
-465.6666666666666288
 30
0.0
 10
558.4472222222221944
 20
-461.0876111111110731
 30
0.0
 10
558.4472222222221944
 20
-455.4361111111110745
 30
0.0
  0
SPLINE
  5
C7
  8
0
 62
256
370
-1
 48
1.0
  6
BYLAYER
100
AcDbEntity
100
AcDbSpline
 70
8
 71
3
 72
8
 73
4
 74
0
 40
0.0
 40
0.0
 40
0.0
 40
0.0
 40
1.0
 40
1.0
 40
1.0
 40
1.0
 10
558.4472222222221944
 20
-455.4361111111110745
 30
0.0
 10
558.4472222222221944
 20
-449.7846111111110758
 30
0.0
 10
563.8976388888888778
 20
-445.2055555555555202
 30
0.0
 10
570.6180555555555429
 20
-445.2055555555555202
 30
0.0
  0
SPLINE
  5
C8
  8
0
 62
256
370
-1
 48
1.0
  6
BYLAYER
100
AcDbEntity
100
AcDbSpline
 70
8
 71
3
 72
8
 73
4
 74
0
 40
0.0
 40
0.0
 40
0.0
 40
0.0
 40
1.0
 40
1.0
 40
1.0
 40
1.0
 10
570.6180555555555429
 20
-445.2055555555555202
 30
0.0
 10
577.3384722222222081
 20
-445.2055555555555202
 30
0.0
 10
582.7888888888888914
 20
-449.7846111111110758
 30
0.0
 10
582.7888888888888914
 20
-455.4361111111110745
 30
0.0
  0
LINE
  5
C9
100
AcDbEntity
100
AcDbLine
  8
0
 62
256
370
-1
 48
1.0
  6
BYLAYER
 10
582.7888888888888914
 20
-455.4361111111110745
 30
0.0
 11
582.7888888888888914
 21
-455.4361111111110745
 31
0.0
  0
SPLINE
  5
CA
  8
0
 62
256
370
-1
 48
1.0
  6
BYLAYER
100
AcDbEntity
100
AcDbSpline
 70
8
 71
3
 72
8
 73
4
 74
0
 40
0.0
 40
0.0
 40
0.0
 40
0.0
 40
1.0
 40
1.0
 40
1.0
 40
1.0
 10
653.6972222222221944
 20
-482.2472222222222058
 30
0.0
 10
653.6972222222221944
 20
-487.8987222222221476
 30
0.0
 10
648.2468055555555111
 20
-492.4777777777777601
 30
0.0
 10
641.5263888888888459
 20
-492.4777777777777601
 30
0.0
  0
SPLINE
  5
CB
  8
0
 62
256
370
-1
 48
1.0
  6
BYLAYER
100
AcDbEntity
100
AcDbSpline
 70
8
 71
3
 72
8
 73
4
 74
0
 40
0.0
 40
0.0
 40
0.0
 40
0.0
 40
1.0
 40
1.0
 40
1.0
 40
1.0
 10
641.5263888888888459
 20
-492.4777777777777601
 30
0.0
 10
634.8059722222221808
 20
-492.4777777777777601
 30
0.0
 10
629.3555555555554974
 20
-487.8987222222221476
 30
0.0
 10
629.3555555555554974
 20
-482.2472222222222058
 30
0.0
  0
SPLINE
  5
CC
  8
0
 62
256
370
-1
 48
1.0
  6
BYLAYER
100
AcDbEntity
100
AcDbSpline
 70
8
 71
3
 72
8
 73
4
 74
0
 40
0.0
 40
0.0
 40
0.0
 40
0.0
 40
1.0
 40
1.0
 40
1.0
 40
1.0
 10
629.3555555555554974
 20
-482.2472222222222058
 30
0.0
 10
629.3555555555554974
 20
-476.5957222222222072
 30
0.0
 10
634.8059722222221808
 20
-472.0166666666666515
 30
0.0
 10
641.5263888888888459
 20
-472.0166666666666515
 30
0.0
  0
SPLINE
  5
CD
  8
0
 62
256
370
-1
 48
1.0
  6
BYLAYER
100
AcDbEntity
100
AcDbSpline
 70
8
 71
3
 72
8
 73
4
 74
0
 40
0.0
 40
0.0
 40
0.0
 40
0.0
 40
1.0
 40
1.0
 40
1.0
 40
1.0
 10
641.5263888888888459
 20
-472.0166666666666515
 30
0.0
 10
648.2468055555555111
 20
-472.0166666666666515
 30
0.0
 10
653.6972222222221944
 20
-476.5957222222222072
 30
0.0
 10
653.6972222222221944
 20
-482.2472222222222058
 30
0.0
  0
LINE
  5
CE
100
AcDbEntity
100
AcDbLine
  8
0
 62
256
370
-1
 48
1.0
  6
BYLAYER
 10
653.6972222222221944
 20
-482.2472222222222058
 30
0.0
 11
653.6972222222221944
 21
-482.2472222222222058
 31
0.0
  0
SPLINE
  5
CF
  8
0
 62
256
370
-1
 48
1.0
  6
BYLAYER
100
AcDbEntity
100
AcDbSpline
 70
8
 71
3
 72
8
 73
4
 74
0
 40
0.0
 40
0.0
 40
0.0
 40
0.0
 40
1.0
 40
1.0
 40
1.0
 40
1.0
 10
582.7888888888888914
 20
-509.0583333333332803
 30
0.0
 10
582.7888888888888914
 20
-514.7098333333333358
 30
0.0
 10
577.3384722222222081
 20
-519.2888888888888914
 30
0.0
 10
570.6180555555555429
 20
-519.2888888888888914
 30
0.0
  0
SPLINE
  5
D0
  8
0
 62
256
370
-1
 48
1.0
  6
BYLAYER
100
AcDbEntity
100
AcDbSpline
 70
8
 71
3
 72
8
 73
4
 74
0
 40
0.0
 40
0.0
 40
0.0
 40
0.0
 40
1.0
 40
1.0
 40
1.0
 40
1.0
 10
570.6180555555555429
 20
-519.2888888888888914
 30
0.0
 10
563.8976388888888778
 20
-519.2888888888888914
 30
0.0
 10
558.4472222222221944
 20
-514.7098333333333358
 30
0.0
 10
558.4472222222221944
 20
-509.0583333333332803
 30
0.0
  0
SPLINE
  5
D1
  8
0
 62
256
370
-1
 48
1.0
  6
BYLAYER
100
AcDbEntity
100
AcDbSpline
 70
8
 71
3
 72
8
 73
4
 74
0
 40
0.0
 40
0.0
 40
0.0
 40
0.0
 40
1.0
 40
1.0
 40
1.0
 40
1.0
 10
558.4472222222221944
 20
-509.0583333333332803
 30
0.0
 10
558.4472222222221944
 20
-503.4068333333332816
 30
0.0
 10
563.8976388888888778
 20
-498.827777777777726
 30
0.0
 10
570.6180555555555429
 20
-498.827777777777726
 30
0.0
  0
SPLINE
  5
D2
  8
0
 62
256
370
-1
 48
1.0
  6
BYLAYER
100
AcDbEntity
100
AcDbSpline
 70
8
 71
3
 72
8
 73
4
 74
0
 40
0.0
 40
0.0
 40
0.0
 40
0.0
 40
1.0
 40
1.0
 40
1.0
 40
1.0
 10
570.6180555555555429
 20
-498.827777777777726
 30
0.0
 10
577.3384722222222081
 20
-498.827777777777726
 30
0.0
 10
582.7888888888888914
 20
-503.4068333333332816
 30
0.0
 10
582.7888888888888914
 20
-509.0583333333332803
 30
0.0
  0
LINE
  5
D3
100
AcDbEntity
100
AcDbLine
  8
0
 62
256
370
-1
 48
1.0
  6
BYLAYER
 10
582.7888888888888914
 20
-509.0583333333332803
 30
0.0
 11
582.7888888888888914
 21
-509.0583333333332803
 31
0.0
  0
SPLINE
  5
D4
  8
0
 62
256
370
-1
 48
1.0
  6
BYLAYER
100
AcDbEntity
100
AcDbSpline
 70
8
 71
3
 72
8
 73
4
 74
0
 40
0.0
 40
0.0
 40
0.0
 40
0.0
 40
1.0
 40
1.0
 40
1.0
 40
1.0
 10
511.8805555555555316
 20
-535.8694444444444116
 30
0.0
 10
511.8805555555555316
 20
-541.5209444444443534
 30
0.0
 10
506.4301388888888482
 20
-546.0999999999999091
 30
0.0
 10
499.7097222222221831
 20
-546.0999999999999091
 30
0.0
  0
SPLINE
  5
D5
  8
0
 62
256
370
-1
 48
1.0
  6
BYLAYER
100
AcDbEntity
100
AcDbSpline
 70
8
 71
3
 72
8
 73
4
 74
0
 40
0.0
 40
0.0
 40
0.0
 40
0.0
 40
1.0
 40
1.0
 40
1.0
 40
1.0
 10
499.7097222222221831
 20
-546.0999999999999091
 30
0.0
 10
492.9893055555555179
 20
-546.0999999999999091
 30
0.0
 10
487.5388888888888346
 20
-541.5209444444443534
 30
0.0
 10
487.5388888888888346
 20
-535.8694444444444116
 30
0.0
  0
SPLINE
  5
D6
  8
0
 62
256
370
-1
 48
1.0
  6
BYLAYER
100
AcDbEntity
100
AcDbSpline
 70
8
 71
3
 72
8
 73
4
 74
0
 40
0.0
 40
0.0
 40
0.0
 40
0.0
 40
1.0
 40
1.0
 40
1.0
 40
1.0
 10
487.5388888888888346
 20
-535.8694444444444116
 30
0.0
 10
487.5388888888888346
 20
-530.2179444444443561
 30
0.0
 10
492.9893055555555179
 20
-525.6388888888888005
 30
0.0
 10
499.7097222222221831
 20
-525.6388888888888005
 30
0.0
  0
SPLINE
  5
D7
  8
0
 62
256
370
-1
 48
1.0
  6
BYLAYER
100
AcDbEntity
100
AcDbSpline
 70
8
 71
3
 72
8
 73
4
 74
0
 40
0.0
 40
0.0
 40
0.0
 40
0.0
 40
1.0
 40
1.0
 40
1.0
 40
1.0
 10
499.7097222222221831
 20
-525.6388888888888005
 30
0.0
 10
506.4301388888888482
 20
-525.6388888888888005
 30
0.0
 10
511.8805555555555316
 20
-530.2179444444443561
 30
0.0
 10
511.8805555555555316
 20
-535.8694444444444116
 30
0.0
  0
LINE
  5
D8
100
AcDbEntity
100
AcDbLine
  8
0
 62
256
370
-1
 48
1.0
  6
BYLAYER
 10
511.8805555555555316
 20
-535.8694444444444116
 30
0.0
 11
511.8805555555555316
 21
-535.8694444444444116
 31
0.0
  0
SPLINE
  5
D9
  8
0
 62
256
370
-1
 48
1.0
  6
BYLAYER
100
AcDbEntity
100
AcDbSpline
 70
8
 71
3
 72
8
 73
4
 74
0
 40
0.0
 40
0.0
 40
0.0
 40
0.0
 40
1.0
 40
1.0
 40
1.0
 40
1.0
 10
370.4166666666666288
 20
-562.6805555555555429
 30
0.0
 10
370.4166666666666288
 20
-568.3320555555554847
 30
0.0
 10
364.9662499999999454
 20
-572.9111111111110404
 30
0.0
 10
358.2458333333332803
 20
-572.9111111111110404
 30
0.0
  0
SPLINE
  5
DA
  8
0
 62
256
370
-1
 48
1.0
  6
BYLAYER
100
AcDbEntity
100
AcDbSpline
 70
8
 71
3
 72
8
 73
4
 74
0
 40
0.0
 40
0.0
 40
0.0
 40
0.0
 40
1.0
 40
1.0
 40
1.0
 40
1.0
 10
358.2458333333332803
 20
-572.9111111111110404
 30
0.0
 10
351.525416666666672
 20
-572.9111111111110404
 30
0.0
 10
346.0749999999999886
 20
-568.3320555555554847
 30
0.0
 10
346.0749999999999886
 20
-562.6805555555555429
 30
0.0
  0
SPLINE
  5
DB
  8
0
 62
256
370
-1
 48
1.0
  6
BYLAYER
100
AcDbEntity
100
AcDbSpline
 70
8
 71
3
 72
8
 73
4
 74
0
 40
0.0
 40
0.0
 40
0.0
 40
0.0
 40
1.0
 40
1.0
 40
1.0
 40
1.0
 10
346.0749999999999886
 20
-562.6805555555555429
 30
0.0
 10
346.0749999999999886
 20
-557.0290555555554874
 30
0.0
 10
351.525416666666672
 20
-552.4499999999999318
 30
0.0
 10
358.2458333333332803
 20
-552.4499999999999318
 30
0.0
  0
SPLINE
  5
DC
  8
0
 62
256
370
-1
 48
1.0
  6
BYLAYER
100
AcDbEntity
100
AcDbSpline
 70
8
 71
3
 72
8
 73
4
 74
0
 40
0.0
 40
0.0
 40
0.0
 40
0.0
 40
1.0
 40
1.0
 40
1.0
 40
1.0
 10
358.2458333333332803
 20
-552.4499999999999318
 30
0.0
 10
364.9662499999999454
 20
-552.4499999999999318
 30
0.0
 10
370.4166666666666288
 20
-557.0290555555554874
 30
0.0
 10
370.4166666666666288
 20
-562.6805555555555429
 30
0.0
  0
LINE
  5
DD
100
AcDbEntity
100
AcDbLine
  8
0
 62
256
370
-1
 48
1.0
  6
BYLAYER
 10
370.4166666666666288
 20
-562.6805555555555429
 30
0.0
 11
370.4166666666666288
 21
-562.6805555555555429
 31
0.0
  0
SPLINE
  5
DE
  8
0
 62
256
370
-1
 48
1.0
  6
BYLAYER
100
AcDbEntity
100
AcDbSpline
 70
8
 71
3
 72
8
 73
4
 74
0
 40
0.0
 40
0.0
 40
0.0
 40
0.0
 40
1.0
 40
1.0
 40
1.0
 40
1.0
 10
440.9722222222221717
 20
-562.6805555555555429
 30
0.0
 10
440.9722222222221717
 20
-568.3320555555554847
 30
0.0
 10
435.5218055555554884
 20
-572.9111111111110404
 30
0.0
 10
428.8013888888888232
 20
-572.9111111111110404
 30
0.0
  0
SPLINE
  5
DF
  8
0
 62
256
370
-1
 48
1.0
  6
BYLAYER
100
AcDbEntity
100
AcDbSpline
 70
8
 71
3
 72
8
 73
4
 74
0
 40
0.0
 40
0.0
 40
0.0
 40
0.0
 40
1.0
 40
1.0
 40
1.0
 40
1.0
 10
428.8013888888888232
 20
-572.9111111111110404
 30
0.0
 10
422.0809722222222149
 20
-572.9111111111110404
 30
0.0
 10
416.6305555555555316
 20
-568.3320555555554847
 30
0.0
 10
416.6305555555555316
 20
-562.6805555555555429
 30
0.0
  0
SPLINE
  5
E0
  8
0
 62
256
370
-1
 48
1.0
  6
BYLAYER
100
AcDbEntity
100
AcDbSpline
 70
8
 71
3
 72
8
 73
4
 74
0
 40
0.0
 40
0.0
 40
0.0
 40
0.0
 40
1.0
 40
1.0
 40
1.0
 40
1.0
 10
416.6305555555555316
 20
-562.6805555555555429
 30
0.0
 10
416.6305555555555316
 20
-557.0290555555554874
 30
0.0
 10
422.0809722222222149
 20
-552.4499999999999318
 30
0.0
 10
428.8013888888888232
 20
-552.4499999999999318
 30
0.0
  0
SPLINE
  5
E1
  8
0
 62
256
370
-1
 48
1.0
  6
BYLAYER
100
AcDbEntity
100
AcDbSpline
 70
8
 71
3
 72
8
 73
4
 74
0
 40
0.0
 40
0.0
 40
0.0
 40
0.0
 40
1.0
 40
1.0
 40
1.0
 40
1.0
 10
428.8013888888888232
 20
-552.4499999999999318
 30
0.0
 10
435.5218055555554884
 20
-552.4499999999999318
 30
0.0
 10
440.9722222222221717
 20
-557.0290555555554874
 30
0.0
 10
440.9722222222221717
 20
-562.6805555555555429
 30
0.0
  0
LINE
  5
E2
100
AcDbEntity
100
AcDbLine
  8
0
 62
256
370
-1
 48
1.0
  6
BYLAYER
 10
440.9722222222221717
 20
-562.6805555555555429
 30
0.0
 11
440.9722222222221717
 21
-562.6805555555555429
 31
0.0
  0
SPLINE
  5
E3
  8
0
 62
256
370
-1
 48
1.0
  6
BYLAYER
100
AcDbEntity
100
AcDbSpline
 70
8
 71
3
 72
8
 73
4
 74
0
 40
0.0
 40
0.0
 40
0.0
 40
0.0
 40
1.0
 40
1.0
 40
1.0
 40
1.0
 10
511.8805555555555316
 20
-562.6805555555555429
 30
0.0
 10
511.8805555555555316
 20
-568.3320555555554847
 30
0.0
 10
506.4301388888888482
 20
-572.9111111111110404
 30
0.0
 10
499.7097222222221831
 20
-572.9111111111110404
 30
0.0
  0
SPLINE
  5
E4
  8
0
 62
256
370
-1
 48
1.0
  6
BYLAYER
100
AcDbEntity
100
AcDbSpline
 70
8
 71
3
 72
8
 73
4
 74
0
 40
0.0
 40
0.0
 40
0.0
 40
0.0
 40
1.0
 40
1.0
 40
1.0
 40
1.0
 10
499.7097222222221831
 20
-572.9111111111110404
 30
0.0
 10
492.9893055555555179
 20
-572.9111111111110404
 30
0.0
 10
487.5388888888888346
 20
-568.3320555555554847
 30
0.0
 10
487.5388888888888346
 20
-562.6805555555555429
 30
0.0
  0
SPLINE
  5
E5
  8
0
 62
256
370
-1
 48
1.0
  6
BYLAYER
100
AcDbEntity
100
AcDbSpline
 70
8
 71
3
 72
8
 73
4
 74
0
 40
0.0
 40
0.0
 40
0.0
 40
0.0
 40
1.0
 40
1.0
 40
1.0
 40
1.0
 10
487.5388888888888346
 20
-562.6805555555555429
 30
0.0
 10
487.5388888888888346
 20
-557.0290555555554874
 30
0.0
 10
492.9893055555555179
 20
-552.4499999999999318
 30
0.0
 10
499.7097222222221831
 20
-552.4499999999999318
 30
0.0
  0
SPLINE
  5
E6
  8
0
 62
256
370
-1
 48
1.0
  6
BYLAYER
100
AcDbEntity
100
AcDbSpline
 70
8
 71
3
 72
8
 73
4
 74
0
 40
0.0
 40
0.0
 40
0.0
 40
0.0
 40
1.0
 40
1.0
 40
1.0
 40
1.0
 10
499.7097222222221831
 20
-552.4499999999999318
 30
0.0
 10
506.4301388888888482
 20
-552.4499999999999318
 30
0.0
 10
511.8805555555555316
 20
-557.0290555555554874
 30
0.0
 10
511.8805555555555316
 20
-562.6805555555555429
 30
0.0
  0
LINE
  5
E7
100
AcDbEntity
100
AcDbLine
  8
0
 62
256
370
-1
 48
1.0
  6
BYLAYER
 10
511.8805555555555316
 20
-562.6805555555555429
 30
0.0
 11
511.8805555555555316
 21
-562.6805555555555429
 31
0.0
  0
SPLINE
  5
E8
  8
0
 62
256
370
-1
 48
1.0
  6
BYLAYER
100
AcDbEntity
100
AcDbSpline
 70
8
 71
3
 72
8
 73
4
 74
0
 40
0.0
 40
0.0
 40
0.0
 40
0.0
 40
1.0
 40
1.0
 40
1.0
 40
1.0
 10
582.7888888888888914
 20
-562.6805555555555429
 30
0.0
 10
582.7888888888888914
 20
-568.3320555555554847
 30
0.0
 10
577.3384722222222081
 20
-572.9111111111110404
 30
0.0
 10
570.6180555555555429
 20
-572.9111111111110404
 30
0.0
  0
SPLINE
  5
E9
  8
0
 62
256
370
-1
 48
1.0
  6
BYLAYER
100
AcDbEntity
100
AcDbSpline
 70
8
 71
3
 72
8
 73
4
 74
0
 40
0.0
 40
0.0
 40
0.0
 40
0.0
 40
1.0
 40
1.0
 40
1.0
 40
1.0
 10
570.6180555555555429
 20
-572.9111111111110404
 30
0.0
 10
563.8976388888888778
 20
-572.9111111111110404
 30
0.0
 10
558.4472222222221944
 20
-568.3320555555554847
 30
0.0
 10
558.4472222222221944
 20
-562.6805555555555429
 30
0.0
  0
SPLINE
  5
EA
  8
0
 62
256
370
-1
 48
1.0
  6
BYLAYER
100
AcDbEntity
100
AcDbSpline
 70
8
 71
3
 72
8
 73
4
 74
0
 40
0.0
 40
0.0
 40
0.0
 40
0.0
 40
1.0
 40
1.0
 40
1.0
 40
1.0
 10
558.4472222222221944
 20
-562.6805555555555429
 30
0.0
 10
558.4472222222221944
 20
-557.0290555555554874
 30
0.0
 10
563.8976388888888778
 20
-552.4499999999999318
 30
0.0
 10
570.6180555555555429
 20
-552.4499999999999318
 30
0.0
  0
SPLINE
  5
EB
  8
0
 62
256
370
-1
 48
1.0
  6
BYLAYER
100
AcDbEntity
100
AcDbSpline
 70
8
 71
3
 72
8
 73
4
 74
0
 40
0.0
 40
0.0
 40
0.0
 40
0.0
 40
1.0
 40
1.0
 40
1.0
 40
1.0
 10
570.6180555555555429
 20
-552.4499999999999318
 30
0.0
 10
577.3384722222222081
 20
-552.4499999999999318
 30
0.0
 10
582.7888888888888914
 20
-557.0290555555554874
 30
0.0
 10
582.7888888888888914
 20
-562.6805555555555429
 30
0.0
  0
LINE
  5
EC
100
AcDbEntity
100
AcDbLine
  8
0
 62
256
370
-1
 48
1.0
  6
BYLAYER
 10
582.7888888888888914
 20
-562.6805555555555429
 30
0.0
 11
582.7888888888888914
 21
-562.6805555555555429
 31
0.0
  0
SPLINE
  5
ED
  8
0
 62
256
370
-1
 48
1.0
  6
BYLAYER
100
AcDbEntity
100
AcDbSpline
 70
8
 71
3
 72
8
 73
4
 74
0
 40
0.0
 40
0.0
 40
0.0
 40
0.0
 40
1.0
 40
1.0
 40
1.0
 40
1.0
 10
653.6972222222221944
 20
-562.6805555555555429
 30
0.0
 10
653.6972222222221944
 20
-568.3320555555554847
 30
0.0
 10
648.2468055555555111
 20
-572.9111111111110404
 30
0.0
 10
641.5263888888888459
 20
-572.9111111111110404
 30
0.0
  0
SPLINE
  5
EE
  8
0
 62
256
370
-1
 48
1.0
  6
BYLAYER
100
AcDbEntity
100
AcDbSpline
 70
8
 71
3
 72
8
 73
4
 74
0
 40
0.0
 40
0.0
 40
0.0
 40
0.0
 40
1.0
 40
1.0
 40
1.0
 40
1.0
 10
641.5263888888888459
 20
-572.9111111111110404
 30
0.0
 10
634.8059722222221808
 20
-572.9111111111110404
 30
0.0
 10
629.3555555555554974
 20
-568.3320555555554847
 30
0.0
 10
629.3555555555554974
 20
-562.6805555555555429
 30
0.0
  0
SPLINE
  5
EF
  8
0
 62
256
370
-1
 48
1.0
  6
BYLAYER
100
AcDbEntity
100
AcDbSpline
 70
8
 71
3
 72
8
 73
4
 74
0
 40
0.0
 40
0.0
 40
0.0
 40
0.0
 40
1.0
 40
1.0
 40
1.0
 40
1.0
 10
629.3555555555554974
 20
-562.6805555555555429
 30
0.0
 10
629.3555555555554974
 20
-557.0290555555554874
 30
0.0
 10
634.8059722222221808
 20
-552.4499999999999318
 30
0.0
 10
641.5263888888888459
 20
-552.4499999999999318
 30
0.0
  0
SPLINE
  5
F0
  8
0
 62
256
370
-1
 48
1.0
  6
BYLAYER
100
AcDbEntity
100
AcDbSpline
 70
8
 71
3
 72
8
 73
4
 74
0
 40
0.0
 40
0.0
 40
0.0
 40
0.0
 40
1.0
 40
1.0
 40
1.0
 40
1.0
 10
641.5263888888888459
 20
-552.4499999999999318
 30
0.0
 10
648.2468055555555111
 20
-552.4499999999999318
 30
0.0
 10
653.6972222222221944
 20
-557.0290555555554874
 30
0.0
 10
653.6972222222221944
 20
-562.6805555555555429
 30
0.0
  0
LINE
  5
F1
100
AcDbEntity
100
AcDbLine
  8
0
 62
256
370
-1
 48
1.0
  6
BYLAYER
 10
653.6972222222221944
 20
-562.6805555555555429
 30
0.0
 11
653.6972222222221944
 21
-562.6805555555555429
 31
0.0
  0
ENDSEC
  0
SECTION
  2
OBJECTS
  0
DICTIONARY
  5
C
100
AcDbDictionary
280
0
281
1
  3
ACAD_GROUP
350
D
  3
ACAD_LAYOUT
350
1A
  3
ACAD_MLINESTYLE
350
17
  3
ACAD_PLOTSETTINGS
350
19
  3
ACAD_PLOTSTYLENAME
350
E
  3
AcDbVariableDictionary
350
F2
  3
QCAD_OBJECTS
350
F3
  0
DICTIONARY
  5
D
100
AcDbDictionary
280
0
281
1
  0
ACDBDICTIONARYWDFLT
  5
E
100
AcDbDictionary
281
1
  3
Normal
350
F
100
AcDbDictionaryWithDefault
340
F
  0
ACDBPLACEHOLDER
  5
F
  0
DICTIONARY
  5
17
100
AcDbDictionary
280
0
281
1
  3
Standard
350
18
  0
MLINESTYLE
  5
18
100
AcDbMlineStyle
  2
STANDARD
 70
0
  3

 62
256
 51
90.0
 52
90.0
 71
2
 49
0.5
 62
256
  6
BYLAYER
 49
-0.5
 62
256
  6
BYLAYER
  0
DICTIONARY
  5
19
100
AcDbDictionary
280
0
281
1
  0
DICTIONARY
  5
1A
100
AcDbDictionary
281
1
  3
Layout1
350
1E
  3
Layout2
350
26
  3
Model
350
22
  0
LAYOUT
  5
1E
100
AcDbPlotSettings
  1

  2
none_device
  4

  6

 40
0.0
 41
0.0
 42
0.0
 43
0.0
 44
0.0
 45
0.0
 46
0.0
 47
0.0
 48
0.0
 49
0.0
140
0.0
141
0.0
142
1.0
143
1.0
 70
688
 72
0
 73
0
 74
5
  7

 75
16
147
1.0
148
0.0
149
0.0
100
AcDbLayout
  1
Layout1
 70
1
 71
1
 10
0.0
 20
0.0
 11
420.0
 21
297.0
 12
0.0
 22
0.0
 32
0.0
 14
100000000000000000000.0
 24
100000000000000000000.0
 34
100000000000000000000.0
 15
-100000000000000000000.0
 25
-100000000000000000000.0
 35
-100000000000000000000.0
146
0.0
 13
0.0
 23
0.0
 33
0.0
 16
1.0
 26
0.0
 36
0.0
 17
0.0
 27
1.0
 37
0.0
 76
0
330
1B
  0
LAYOUT
  5
22
100
AcDbPlotSettings
  1

  2
none_device
  4

  6

 40
0.0
 41
0.0
 42
0.0
 43
0.0
 44
0.0
 45
0.0
 46
0.0
 47
0.0
 48
0.0
 49
0.0
140
0.0
141
0.0
142
1.0
143
1.0
 70
1712
 72
0
 73
0
 74
0
  7

 75
0
147
1.0
148
0.0
149
0.0
100
AcDbLayout
  1
Model
 70
1
 71
0
 10
0.0
 20
0.0
 11
12.0
 21
9.0
 12
0.0
 22
0.0
 32
0.0
 14
0.0
 24
0.0
 34
0.0
 15
0.0
 25
0.0
 35
0.0
146
0.0
 13
0.0
 23
0.0
 33
0.0
 16
1.0
 26
0.0
 36
0.0
 17
0.0
 27
1.0
 37
0.0
 76
0
330
1F
  0
LAYOUT
  5
26
100
AcDbPlotSettings
  1

  2
none_device
  4

  6

 40
0.0
 41
0.0
 42
0.0
 43
0.0
 44
0.0
 45
0.0
 46
0.0
 47
0.0
 48
0.0
 49
0.0
140
0.0
141
0.0
142
1.0
143
1.0
 70
688
 72
0
 73
0
 74
5
  7

 75
16
147
1.0
148
0.0
149
0.0
100
AcDbLayout
  1
Layout2
 70
1
 71
2
 10
0.0
 20
0.0
 11
12.0
 21
9.0
 12
0.0
 22
0.0
 32
0.0
 14
0.0
 24
0.0
 34
0.0
 15
0.0
 25
0.0
 35
0.0
146
0.0
 13
0.0
 23
0.0
 33
0.0
 16
1.0
 26
0.0
 36
0.0
 17
0.0
 27
1.0
 37
0.0
 76
0
330
23
  0
DICTIONARY
  5
F2
100
AcDbDictionary
281
1
  3
DIMASSOC
350
F5
  3
HIDETEXT
350
F4
  0
DICTIONARYVAR
  5
F4
100
DictionaryVariables
280
0
  1
2
  0
DICTIONARYVAR
  5
F5
100
DictionaryVariables
280
0
  1
1
  0
DICTIONARY
  5
F3
100
AcDbDictionary
281
1
  3
ColorSettings/BackgroundColor
350
F6
  3
ColorSettings/ColorMode
350
F7
  3
Grid/DisplayGrid00
350
F8
  3
Grid/DisplayGrid01
350
F9
  3
Grid/DisplayGrid02
350
FA
  3
Grid/DisplayGrid03
350
FB
  3
Grid/GridSpacingX00
350
FC
  3
Grid/GridSpacingX01
350
FD
  3
Grid/GridSpacingX02
350
FE
  3
Grid/GridSpacingX03
350
FF
  3
Grid/GridSpacingY00
350
100
  3
Grid/GridSpacingY01
350
101
  3
Grid/GridSpacingY02
350
102
  3
Grid/GridSpacingY03
350
103
  3
Grid/IsometricGrid00
350
104
  3
Grid/IsometricGrid01
350
105
  3
Grid/IsometricGrid02
350
106
  3
Grid/IsometricGrid03
350
107
  3
Grid/IsometricProjection00
350
108
  3
Grid/IsometricProjection01
350
109
  3
Grid/IsometricProjection02
350
10A
  3
Grid/IsometricProjection03
350
10B
  3
Grid/MetaGridSpacingX00
350
10C
  3
Grid/MetaGridSpacingX01
350
10D
  3
Grid/MetaGridSpacingX02
350
10E
  3
Grid/MetaGridSpacingX03
350
10F
  3
Grid/MetaGridSpacingY00
350
110
  3
Grid/MetaGridSpacingY01
350
111
  3
Grid/MetaGridSpacingY02
350
112
  3
Grid/MetaGridSpacingY03
350
113
  3
MultiPageSettings/Columns
350
114
  3
MultiPageSettings/GlueMarginsBottom
350
115
  3
MultiPageSettings/GlueMarginsLeft
350
116
  3
MultiPageSettings/GlueMarginsRight
350
117
  3
MultiPageSettings/GlueMarginsTop
350
118
  3
MultiPageSettings/PrintCropMarks
350
119
  3
MultiPageSettings/Rows
350
11A
  3
PageSettings/OffsetX
350
11B
  3
PageSettings/OffsetY
350
11C
  3
PageSettings/PageOrientation
350
11D
  3
PageSettings/PaperHeight
350
11E
  3
PageSettings/PaperWidth
350
11F
  3
PageSettings/Scale
350
120
  3
PageSettings/ShowPaperBorders
350
121
  3
UnitSettings/PaperUnit
350
122
  0
XRECORD
  5
F6
330
F3
100
AcDbXrecord
280
1
1000
White
  0
XRECORD
  5
F7
330
F3
100
AcDbXrecord
280
1
1000
FullColor
  0
XRECORD
  5
F8
330
F3
100
AcDbXrecord
280
1
290
1
  0
XRECORD
  5
F9
330
F3
100
AcDbXrecord
280
1
290
1
  0
XRECORD
  5
FA
330
F3
100
AcDbXrecord
280
1
290
1
  0
XRECORD
  5
FB
330
F3
100
AcDbXrecord
280
1
290
1
  0
XRECORD
  5
FC
330
F3
100
AcDbXrecord
280
1
1000
auto
  0
XRECORD
  5
FD
330
F3
100
AcDbXrecord
280
1
1000
auto
  0
XRECORD
  5
FE
330
F3
100
AcDbXrecord
280
1
1000
auto
  0
XRECORD
  5
FF
330
F3
100
AcDbXrecord
280
1
1000
auto
  0
XRECORD
  5
100
330
F3
100
AcDbXrecord
280
1
1000
auto
  0
XRECORD
  5
101
330
F3
100
AcDbXrecord
280
1
1000
auto
  0
XRECORD
  5
102
330
F3
100
AcDbXrecord
280
1
1000
auto
  0
XRECORD
  5
103
330
F3
100
AcDbXrecord
280
1
1000
auto
  0
XRECORD
  5
104
330
F3
100
AcDbXrecord
280
1
290
0
  0
XRECORD
  5
105
330
F3
100
AcDbXrecord
280
1
290
0
  0
XRECORD
  5
106
330
F3
100
AcDbXrecord
280
1
290
0
  0
XRECORD
  5
107
330
F3
100
AcDbXrecord
280
1
290
0
  0
XRECORD
  5
108
330
F3
100
AcDbXrecord
280
1
 90
0
  0
XRECORD
  5
109
330
F3
100
AcDbXrecord
280
1
 90
0
  0
XRECORD
  5
10A
330
F3
100
AcDbXrecord
280
1
 90
0
  0
XRECORD
  5
10B
330
F3
100
AcDbXrecord
280
1
 90
0
  0
XRECORD
  5
10C
330
F3
100
AcDbXrecord
280
1
1000
auto
  0
XRECORD
  5
10D
330
F3
100
AcDbXrecord
280
1
1000
auto
  0
XRECORD
  5
10E
330
F3
100
AcDbXrecord
280
1
1000
auto
  0
XRECORD
  5
10F
330
F3
100
AcDbXrecord
280
1
1000
auto
  0
XRECORD
  5
110
330
F3
100
AcDbXrecord
280
1
1000
auto
  0
XRECORD
  5
111
330
F3
100
AcDbXrecord
280
1
1000
auto
  0
XRECORD
  5
112
330
F3
100
AcDbXrecord
280
1
1000
auto
  0
XRECORD
  5
113
330
F3
100
AcDbXrecord
280
1
1000
auto
  0
XRECORD
  5
114
330
F3
100
AcDbXrecord
280
1
 90
1
  0
XRECORD
  5
115
330
F3
100
AcDbXrecord
280
1
 40
10.0
  0
XRECORD
  5
116
330
F3
100
AcDbXrecord
280
1
 40
10.0
  0
XRECORD
  5
117
330
F3
100
AcDbXrecord
280
1
 40
10.0
  0
XRECORD
  5
118
330
F3
100
AcDbXrecord
280
1
 40
10.0
  0
XRECORD
  5
119
330
F3
100
AcDbXrecord
280
1
290
0
  0
XRECORD
  5
11A
330
F3
100
AcDbXrecord
280
1
 90
1
  0
XRECORD
  5
11B
330
F3
100
AcDbXrecord
280
1
 40
0.0
  0
XRECORD
  5
11C
330
F3
100
AcDbXrecord
280
1
 40
0.0
  0
XRECORD
  5
11D
330
F3
100
AcDbXrecord
280
1
1000
Portrait
  0
XRECORD
  5
11E
330
F3
100
AcDbXrecord
280
1
 40
297.0
  0
XRECORD
  5
11F
330
F3
100
AcDbXrecord
280
1
 40
210.0
  0
XRECORD
  5
120
330
F3
100
AcDbXrecord
280
1
1000
1:1
  0
XRECORD
  5
121
330
F3
100
AcDbXrecord
280
1
290
1
  0
XRECORD
  5
122
330
F3
100
AcDbXrecord
280
1
 90
4
  0
ENDSEC
  0
EOF
