  0
SECTION
  2
HEADER
  9
$ACADVER
  1
AC1014
  9
$ACADMAINTVER
 70
     9
  9
$DWGCODEPAGE
  3
ANSI_1252
  9
$INSBASE
 10
0.0
 20
0.0
 30
0.0
  9
$EXTMIN
 10
1.000000000000000E+20
 20
1.000000000000000E+20
 30
1.000000000000000E+20
  9
$EXTMAX
 10
-1.000000000000000E+20
 20
-1.000000000000000E+20
 30
-1.000000000000000E+20
  9
$LIMMIN
 10
0.0
 20
0.0
  9
$LIMMAX
 10
12.0
 20
9.0
  9
$ORTHOMODE
 70
     0
  9
$REGENMODE
 70
     1
  9
$FILLMODE
 70
     1
  9
$QTEXTMODE
 70
     0
  9
$MIRRTEXT
 70
     1
  9
$DRAGMODE
 70
     2
  9
$LTSCALE
 40
1.0
  9
$OSMODE
 70
    37
  9
$ATTMODE
 70
     1
  9
$TEXTSIZE
 40
0.2
  9
$TRACEWID
 40
0.05
  9
$TEXTSTYLE
  7
STANDARD
  9
$CLAYER
  8
0
  9
$CELTYPE
  6
BYLAYER
  9
$CECOLOR
 62
   256
  9
$CELTSCALE
 40
1.0
  9
$DELOBJ
 70
     1
  9
$DISPSILH
 70
     0
  9
$DIMSCALE
 40
1.0
  9
$DIMASZ
 40
2.5
  9
$DIMEXO
 40
0.625
  9
$DIMDLI
 40
0.38
  9
$DIMRND
 40
0.0
  9
$DIMDLE
 40
0.0
  9
$DIMEXE
 40
1.25
  9
$DIMTP
 40
0.0
  9
$DIMTM
 40
0.0
  9
$DIMTXT
 40
2.5
  9
$DIMCEN
 40
0.09
  9
$DIMTSZ
 40
0.0
  9
$DIMTOL
 70
     0
  9
$DIMLIM
 70
     0
  9
$DIMTIH
 70
     1
  9
$DIMTOH
 70
     1
  9
$DIMSE1
 70
     0
  9
$DIMSE2
 70
     0
  9
$DIMTAD
 70
     0
  9
$DIMZIN
 70
     8
  9
$DIMBLK
  1

  9
$DIMASO
 70
     1
  9
$DIMSHO
 70
     1
  9
$DIMPOST
  1

  9
$DIMAPOST
  1

  9
$DIMALT
 70
     0
  9
$DIMALTD
 70
     2
  9
$DIMALTF
 40
25.4
  9
$DIMLFAC
 40
1.0
  9
$DIMTOFL
 70
     0
  9
$DIMTVP
 40
0.0
  9
$DIMTIX
 70
     0
  9
$DIMSOXD
 70
     0
  9
$DIMSAH
 70
     0
  9
$DIMBLK1
  1

  9
$DIMBLK2
  1

  9
$DIMSTYLE
  2
STANDARD
  9
$DIMCLRD
 70
     0
  9
$DIMCLRE
 70
     0
  9
$DIMCLRT
 70
     0
  9
$DIMTFAC
 40
1.0
  9
$DIMGAP
 40
0.625
  9
$DIMJUST
 70
     0
  9
$DIMSD1
 70
     0
  9
$DIMSD2
 70
     0
  9
$DIMTOLJ
 70
     1
  9
$DIMTZIN
 70
     0
  9
$DIMALTZ
 70
     0
  9
$DIMALTTZ
 70
     0
  9
$DIMFIT
 70
     3
  9
$DIMUPT
 70
     0
  9
$DIMUNIT
 70
     2
  9
$DIMDEC
 70
     4
  9
$DIMTDEC
 70
     4
  9
$DIMALTU
 70
     2
  9
$DIMALTTD
 70
     2
  9
$DIMTXSTY
  7
STANDARD
  9
$DIMAUNIT
 70
     0
  9
$LUNITS
 70
     2
  9
$LUPREC
 70
     4
  9
$SKETCHINC
 40
0.1
  9
$FILLETRAD
 40
0.5
  9
$AUNITS
 70
     0
  9
$AUPREC
 70
     0
  9
$MENU
  1
.
  9
$ELEVATION
 40
0.0
  9
$PELEVATION
 40
0.0
  9
$THICKNESS
 40
0.0
  9
$LIMCHECK
 70
     0
  9
$CHAMFERA
 40
0.0
  9
$CHAMFERB
 40
0.0
  9
$CHAMFERC
 40
0.0
  9
$CHAMFERD
 40
0.0
  9
$SKPOLY
 70
     0
  9
$TDCREATE
 40
2457327.443935185
  9
$TDUPDATE
 40
2457327.443935185
  9
$TDINDWG
 40
0.0000000116
  9
$TDUSRTIMER
 40
0.0000000116
  9
$USRTIMER
 70
     1
  9
$ANGBASE
 50
0.0
  9
$ANGDIR
 70
     0
  9
$PDMODE
 70
     0
  9
$PDSIZE
 40
0.0
  9
$PLINEWID
 40
0.0
  9
$COORDS
 70
     1
  9
$SPLFRAME
 70
     0
  9
$SPLINETYPE
 70
     6
  9
$SPLINESEGS
 70
     8
  9
$ATTDIA
 70
     0
  9
$ATTREQ
 70
     1
  9
$HANDLING
 70
     1
  9
$HANDSEED
  5
1D0
  9
$SURFTAB1
 70
     6
  9
$SURFTAB2
 70
     6
  9
$SURFTYPE
 70
     6
  9
$SURFU
 70
     6
  9
$SURFV
 70
     6
  9
$UCSNAME
  2

  9
$UCSORG
 10
0.0
 20
0.0
 30
0.0
  9
$UCSXDIR
 10
1.0
 20
0.0
 30
0.0
  9
$UCSYDIR
 10
0.0
 20
1.0
 30
0.0
  9
$PUCSNAME
  2

  9
$PUCSORG
 10
0.0
 20
0.0
 30
0.0
  9
$PUCSXDIR
 10
1.0
 20
0.0
 30
0.0
  9
$PUCSYDIR
 10
0.0
 20
1.0
 30
0.0
  9
$USERI1
 70
     0
  9
$USERI2
 70
     0
  9
$USERI3
 70
     0
  9
$USERI4
 70
     0
  9
$USERI5
 70
     0
  9
$USERR1
 40
0.0
  9
$USERR2
 40
0.0
  9
$USERR3
 40
0.0
  9
$USERR4
 40
0.0
  9
$USERR5
 40
0.0
  9
$WORLDVIEW
 70
     1
  9
$SHADEDGE
 70
     3
  9
$SHADEDIF
 70
    70
  9
$TILEMODE
 70
     1
  9
$MAXACTVP
 70
    64
  9
$PINSBASE
 10
0.0
 20
0.0
 30
0.0
  9
$PLIMCHECK
 70
     0
  9
$PEXTMIN
 10
1.000000000000000E+20
 20
1.000000000000000E+20
 30
1.000000000000000E+20
  9
$PEXTMAX
 10
-1.000000000000000E+20
 20
-1.000000000000000E+20
 30
-1.000000000000000E+20
  9
$PLIMMIN
 10
0.0
 20
0.0
  9
$PLIMMAX
 10
12.0
 20
9.0
  9
$UNITMODE
 70
     0
  9
$VISRETAIN
 70
     1
  9
$PLINEGEN
 70
     0
  9
$PSLTSCALE
 70
     1
  9
$TREEDEPTH
 70
  3020
  9
$PICKSTYLE
 70
     1
  9
$CMLSTYLE
  2
STANDARD
  9
$CMLJUST
 70
     0
  9
$CMLSCALE
 40
1.0
  9
$PROXYGRAPHICS
 70
     1
  9
$MEASUREMENT
 70
     1
  0
ENDSEC
  0
SECTION
  2
CLASSES
  0
CLASS
  1
ACDBDICTIONARYWDFLT
  2
AcDbDictionaryWithDefault
  3
ObjectDBX Classes
 90
        0
280
     0
281
     0
  0
CLASS
  1
VISUALSTYLE
  2
AcDbVisualStyle
  3
ObjectDBX Classes
 90
     4095
280
     0
281
     0
  0
CLASS
  1
MATERIAL
  2
AcDbMaterial
  3
ObjectDBX Classes
 90
     1153
280
     0
281
     0
  0
CLASS
  1
SCALE
  2
AcDbScale
  3
ObjectDBX Classes
 90
     1153
280
     0
281
     0
  0
CLASS
  1
TABLESTYLE
  2
AcDbTableStyle
  3
ObjectDBX Classes
 90
     4095
280
     0
281
     0
  0
CLASS
  1
MLEADERSTYLE
  2
AcDbMLeaderStyle
  3
ACDB_MLEADERSTYLE_CLASS
 90
     4095
280
     0
281
     0
  0
CLASS
  1
SUN
  2
AcDbSun
  3
SCENEOE
 90
     1153
280
     0
281
     0
  0
CLASS
  1
DICTIONARYVAR
  2
AcDbDictionaryVar
  3
ObjectDBX Classes
 90
        0
280
     0
281
     0
  0
CLASS
  1
XRECORD
  2
AcDbXrecord
  3
ObjectDBX Classes
 90
        0
280
     0
281
     0
  0
CLASS
  1
LWPOLYLINE
  2
AcDbPolyline
  3
ObjectDBX Classes
 90
        0
280
     0
281
     1
  0
CLASS
  1
HATCH
  2
AcDbHatch
  3
ObjectDBX Classes
 90
        0
280
     0
281
     1
  0
CLASS
  1
ACDBPLACEHOLDER
  2
AcDbPlaceHolder
  3
ObjectDBX Classes
 90
        0
280
     0
281
     0
  0
CLASS
  1
LAYOUT
  2
AcDbLayout
  3
ObjectDBX Classes
 90
        0
280
     0
281
     0
  0
ENDSEC
  0
SECTION
  2
TABLES
  0
TABLE
  2
VPORT
  5
CD
102
{ACAD_XDICTIONARY
360
1C5
102
}
330
0
100
AcDbSymbolTable
 70
     1
  0
VPORT
  5
ED
330
CD
100
AcDbSymbolTableRecord
100
AcDbViewportTableRecord
  2
*ACTIVE
 70
     0
 10
0.0
 20
0.0
 11
1.0
 21
1.0
 12
10.42990654205607
 22
4.5
 13
0.0
 23
0.0
 14
0.5
 24
0.5
 15
0.5
 25
0.5
 16
0.0
 26
0.0
 36
1.0
 17
0.0
 27
0.0
 37
0.0
 40
9.0
 41
1.972972972850329
 42
50.0
 43
0.0
 44
0.0
 50
0.0
 51
0.0
 71
     0
 72
   100
 73
     1
 74
     3
 75
     0
 76
     0
 77
     0
 78
     0
  0
ENDTAB
  0
TABLE
  2
LTYPE
  5
CA
330
0
100
AcDbSymbolTable
 70
    48
  0
LTYPE
  5
D8
330
CA
100
AcDbSymbolTableRecord
100
AcDbLinetypeTableRecord
  2
BYBLOCK
 70
     0
  3

 72
    65
 73
     0
 40
0.0
  0
LTYPE
  5
D9
330
CA
100
AcDbSymbolTableRecord
100
AcDbLinetypeTableRecord
  2
BYLAYER
 70
     0
  3

 72
    65
 73
     0
 40
0.0
  0
LTYPE
  5
DA
330
CA
100
AcDbSymbolTableRecord
100
AcDbLinetypeTableRecord
  2
CONTINUOUS
 70
     0
  3
Solid line
 72
    65
 73
     0
 40
0.0
  0
LTYPE
  5
163
330
CA
100
AcDbSymbolTableRecord
100
AcDbLinetypeTableRecord
  2
ACAD_ISO02W100
 70
     0
  3
ISO dash __ __ __ __ __ __ __ __ __ __ __ __ __
 72
    65
 73
     2
 40
15.0
 49
12.0
 74
     0
 49
-3.0
 74
     0
  0
LTYPE
  5
164
330
CA
100
AcDbSymbolTableRecord
100
AcDbLinetypeTableRecord
  2
ACAD_ISO03W100
 70
     0
  3
ISO dash space __    __    __    __    __    __
 72
    65
 73
     2
 40
30.0
 49
12.0
 74
     0
 49
-18.0
 74
     0
  0
LTYPE
  5
165
330
CA
100
AcDbSymbolTableRecord
100
AcDbLinetypeTableRecord
  2
ACAD_ISO04W100
 70
     0
  3
ISO long-dash dot ____ . ____ . ____ . ____ . _
 72
    65
 73
     4
 40
30.0
 49
24.0
 74
     0
 49
-3.0
 74
     0
 49
0.0
 74
     0
 49
-3.0
 74
     0
  0
LTYPE
  5
166
330
CA
100
AcDbSymbolTableRecord
100
AcDbLinetypeTableRecord
  2
ACAD_ISO05W100
 70
     0
  3
ISO long-dash double-dot ____ .. ____ .. ____ . 
 72
    65
 73
     6
 40
33.0
 49
24.0
 74
     0
 49
-3.0
 74
     0
 49
0.0
 74
     0
 49
-3.0
 74
     0
 49
0.0
 74
     0
 49
-3.0
 74
     0
  0
LTYPE
  5
167
330
CA
100
AcDbSymbolTableRecord
100
AcDbLinetypeTableRecord
  2
ACAD_ISO06W100
 70
     0
  3
ISO long-dash triple-dot ____ ... ____ ... ____
 72
    65
 73
     8
 40
36.0
 49
24.0
 74
     0
 49
-3.0
 74
     0
 49
0.0
 74
     0
 49
-3.0
 74
     0
 49
0.0
 74
     0
 49
-3.0
 74
     0
 49
0.0
 74
     0
 49
-3.0
 74
     0
  0
LTYPE
  5
168
330
CA
100
AcDbSymbolTableRecord
100
AcDbLinetypeTableRecord
  2
ACAD_ISO07W100
 70
     0
  3
ISO dot . . . . . . . . . . . . . . . . . . . . 
 72
    65
 73
     2
 40
3.0
 49
0.0
 74
     0
 49
-3.0
 74
     0
  0
LTYPE
  5
169
330
CA
100
AcDbSymbolTableRecord
100
AcDbLinetypeTableRecord
  2
ACAD_ISO08W100
 70
     0
  3
ISO long-dash short-dash ____ __ ____ __ ____ _
 72
    65
 73
     4
 40
36.0
 49
24.0
 74
     0
 49
-3.0
 74
     0
 49
6.0
 74
     0
 49
-3.0
 74
     0
  0
LTYPE
  5
16A
330
CA
100
AcDbSymbolTableRecord
100
AcDbLinetypeTableRecord
  2
ACAD_ISO09W100
 70
     0
  3
ISO long-dash double-short-dash ____ __ __ ____
 72
    65
 73
     6
 40
45.0
 49
24.0
 74
     0
 49
-3.0
 74
     0
 49
6.0
 74
     0
 49
-3.0
 74
     0
 49
6.0
 74
     0
 49
-3.0
 74
     0
  0
LTYPE
  5
16B
330
CA
100
AcDbSymbolTableRecord
100
AcDbLinetypeTableRecord
  2
ACAD_ISO10W100
 70
     0
  3
ISO dash dot __ . __ . __ . __ . __ . __ . __ . 
 72
    65
 73
     4
 40
18.0
 49
12.0
 74
     0
 49
-3.0
 74
     0
 49
0.0
 74
     0
 49
-3.0
 74
     0
  0
LTYPE
  5
16C
330
CA
100
AcDbSymbolTableRecord
100
AcDbLinetypeTableRecord
  2
ACAD_ISO11W100
 70
     0
  3
ISO double-dash dot __ __ . __ __ . __ __ . __ _
 72
    65
 73
     6
 40
33.0
 49
12.0
 74
     0
 49
-3.0
 74
     0
 49
12.0
 74
     0
 49
-3.0
 74
     0
 49
0.0
 74
     0
 49
-3.0
 74
     0
  0
LTYPE
  5
16D
330
CA
100
AcDbSymbolTableRecord
100
AcDbLinetypeTableRecord
  2
ACAD_ISO12W100
 70
     0
  3
ISO dash double-dot __ . . __ . . __ . . __ . . 
 72
    65
 73
     6
 40
21.0
 49
12.0
 74
     0
 49
-3.0
 74
     0
 49
0.0
 74
     0
 49
-3.0
 74
     0
 49
0.0
 74
     0
 49
-3.0
 74
     0
  0
LTYPE
  5
16E
330
CA
100
AcDbSymbolTableRecord
100
AcDbLinetypeTableRecord
  2
ACAD_ISO13W100
 70
     0
  3
ISO double-dash double-dot __ __ . . __ __ . . _
 72
    65
 73
     8
 40
36.0
 49
12.0
 74
     0
 49
-3.0
 74
     0
 49
12.0
 74
     0
 49
-3.0
 74
     0
 49
0.0
 74
     0
 49
-3.0
 74
     0
 49
0.0
 74
     0
 49
-3.0
 74
     0
  0
LTYPE
  5
16F
330
CA
100
AcDbSymbolTableRecord
100
AcDbLinetypeTableRecord
  2
ACAD_ISO14W100
 70
     0
  3
ISO dash triple-dot __ . . . __ . . . __ . . . _
 72
    65
 73
     8
 40
24.0
 49
12.0
 74
     0
 49
-3.0
 74
     0
 49
0.0
 74
     0
 49
-3.0
 74
     0
 49
0.0
 74
     0
 49
-3.0
 74
     0
 49
0.0
 74
     0
 49
-3.0
 74
     0
  0
LTYPE
  5
170
330
CA
100
AcDbSymbolTableRecord
100
AcDbLinetypeTableRecord
  2
ACAD_ISO15W100
 70
     0
  3
ISO double-dash triple-dot __ __ . . . __ __ . .
 72
    65
 73
    10
 40
39.0
 49
12.0
 74
     0
 49
-3.0
 74
     0
 49
12.0
 74
     0
 49
-3.0
 74
     0
 49
0.0
 74
     0
 49
-3.0
 74
     0
 49
0.0
 74
     0
 49
-3.0
 74
     0
 49
0.0
 74
     0
 49
-3.0
 74
     0
  0
LTYPE
  5
173
330
CA
100
AcDbSymbolTableRecord
100
AcDbLinetypeTableRecord
  2
BATTING
 70
     0
  3
Batting SSSSSSSSSSSSSSSSSSSSSSSSSSSSSSSSSSSSSSSSSSSSSSS
 72
    65
 73
     4
 40
10.16254
 49
0.00254
 74
     0
 49
-2.54
 74
     2
 75
     0
340
171
 46
2.54
 50
0.0
 44
-2.54
 45
0.0
  9
BAT
 49
-5.08
 74
     2
 75
     0
340
172
 46
2.54
 50
180.0
 44
2.54
 45
0.0
  9
BAT
 49
-2.54
 74
     0
  0
LTYPE
  5
174
330
CA
100
AcDbSymbolTableRecord
100
AcDbLinetypeTableRecord
  2
BORDER
 70
     0
  3
Border __ __ . __ __ . __ __ . __ __ . __ __ .
 72
    65
 73
     6
 40
44.45
 49
12.7
 74
     0
 49
-6.35
 74
     0
 49
12.7
 74
     0
 49
-6.35
 74
     0
 49
0.0
 74
     0
 49
-6.35
 74
     0
  0
LTYPE
  5
175
330
CA
100
AcDbSymbolTableRecord
100
AcDbLinetypeTableRecord
  2
BORDER2
 70
     0
  3
Border (.5x) __.__.__.__.__.__.__.__.__.__.__.
 72
    65
 73
     6
 40
22.225
 49
6.35
 74
     0
 49
-3.175
 74
     0
 49
6.35
 74
     0
 49
-3.175
 74
     0
 49
0.0
 74
     0
 49
-3.175
 74
     0
  0
LTYPE
  5
176
330
CA
100
AcDbSymbolTableRecord
100
AcDbLinetypeTableRecord
  2
BORDERX2
 70
     0
  3
Border (2x) ____  ____  .  ____  ____  .  ___
 72
    65
 73
     6
 40
88.89999999999999
 49
25.4
 74
     0
 49
-12.7
 74
     0
 49
25.4
 74
     0
 49
-12.7
 74
     0
 49
0.0
 74
     0
 49
-12.7
 74
     0
  0
LTYPE
  5
177
330
CA
100
AcDbSymbolTableRecord
100
AcDbLinetypeTableRecord
  2
CENTER
 70
     0
  3
Center ____ _ ____ _ ____ _ ____ _ ____ _ ____
 72
    65
 73
     4
 40
50.8
 49
31.75
 74
     0
 49
-6.35
 74
     0
 49
6.35
 74
     0
 49
-6.35
 74
     0
  0
LTYPE
  5
178
330
CA
100
AcDbSymbolTableRecord
100
AcDbLinetypeTableRecord
  2
CENTER2
 70
     0
  3
Center (.5x) ___ _ ___ _ ___ _ ___ _ ___ _ ___
 72
    65
 73
     4
 40
28.575
 49
19.05
 74
     0
 49
-3.175
 74
     0
 49
3.175
 74
     0
 49
-3.175
 74
     0
  0
LTYPE
  5
179
330
CA
100
AcDbSymbolTableRecord
100
AcDbLinetypeTableRecord
  2
CENTERX2
 70
     0
  3
Center (2x) ________  __  ________  __  _____
 72
    65
 73
     4
 40
101.6
 49
63.5
 74
     0
 49
-12.7
 74
     0
 49
12.7
 74
     0
 49
-12.7
 74
     0
  0
LTYPE
  5
17A
330
CA
100
AcDbSymbolTableRecord
100
AcDbLinetypeTableRecord
  2
DASHDOT
 70
     0
  3
Dash dot __ . __ . __ . __ . __ . __ . __ . __
 72
    65
 73
     4
 40
25.4
 49
12.7
 74
     0
 49
-6.35
 74
     0
 49
0.0
 74
     0
 49
-6.35
 74
     0
  0
LTYPE
  5
17B
330
CA
100
AcDbSymbolTableRecord
100
AcDbLinetypeTableRecord
  2
DASHDOT2
 70
     0
  3
Dash dot (.5x) _._._._._._._._._._._._._._._.
 72
    65
 73
     4
 40
12.7
 49
6.35
 74
     0
 49
-3.175
 74
     0
 49
0.0
 74
     0
 49
-3.175
 74
     0
  0
LTYPE
  5
17C
330
CA
100
AcDbSymbolTableRecord
100
AcDbLinetypeTableRecord
  2
DASHDOTX2
 70
     0
  3
Dash dot (2x) ____  .  ____  .  ____  .  ___
 72
    65
 73
     4
 40
50.8
 49
25.4
 74
     0
 49
-12.7
 74
     0
 49
0.0
 74
     0
 49
-12.7
 74
     0
  0
LTYPE
  5
17D
330
CA
100
AcDbSymbolTableRecord
100
AcDbLinetypeTableRecord
  2
DASHED
 70
     0
  3
Dashed __ __ __ __ __ __ __ __ __ __ __ __ __ _
 72
    65
 73
     2
 40
19.05
 49
12.7
 74
     0
 49
-6.35
 74
     0
  0
LTYPE
  5
17E
330
CA
100
AcDbSymbolTableRecord
100
AcDbLinetypeTableRecord
  2
DASHED2
 70
     0
  3
Dashed (.5x) _ _ _ _ _ _ _ _ _ _ _ _ _ _ _ _ _ 
 72
    65
 73
     2
 40
9.524999999999999
 49
6.35
 74
     0
 49
-3.175
 74
     0
  0
LTYPE
  5
17F
330
CA
100
AcDbSymbolTableRecord
100
AcDbLinetypeTableRecord
  2
DASHEDX2
 70
     0
  3
Dashed (2x) ____  ____  ____  ____  ____  ___
 72
    65
 73
     2
 40
38.09999999999999
 49
25.4
 74
     0
 49
-12.7
 74
     0
  0
LTYPE
  5
180
330
CA
100
AcDbSymbolTableRecord
100
AcDbLinetypeTableRecord
  2
DIVIDE
 70
     0
  3
Divide ____ . . ____ . . ____ . . ____ . . ____
 72
    65
 73
     6
 40
31.75
 49
12.7
 74
     0
 49
-6.35
 74
     0
 49
0.0
 74
     0
 49
-6.35
 74
     0
 49
0.0
 74
     0
 49
-6.35
 74
     0
  0
LTYPE
  5
181
330
CA
100
AcDbSymbolTableRecord
100
AcDbLinetypeTableRecord
  2
DIVIDE2
 70
     0
  3
Divide (.5x) __..__..__..__..__..__..__..__.._
 72
    65
 73
     6
 40
15.875
 49
6.35
 74
     0
 49
-3.175
 74
     0
 49
0.0
 74
     0
 49
-3.175
 74
     0
 49
0.0
 74
     0
 49
-3.175
 74
     0
  0
LTYPE
  5
182
330
CA
100
AcDbSymbolTableRecord
100
AcDbLinetypeTableRecord
  2
DIVIDEX2
 70
     0
  3
Divide (2x) ________  .  .  ________  .  .  _
 72
    65
 73
     6
 40
63.5
 49
25.4
 74
     0
 49
-12.7
 74
     0
 49
0.0
 74
     0
 49
-12.7
 74
     0
 49
0.0
 74
     0
 49
-12.7
 74
     0
  0
LTYPE
  5
183
330
CA
100
AcDbSymbolTableRecord
100
AcDbLinetypeTableRecord
  2
DOT
 70
     0
  3
Dot . . . . . . . . . . . . . . . . . . . . . . . .
 72
    65
 73
     2
 40
6.35
 49
0.0
 74
     0
 49
-6.35
 74
     0
  0
LTYPE
  5
184
330
CA
100
AcDbSymbolTableRecord
100
AcDbLinetypeTableRecord
  2
DOT2
 70
     0
  3
Dot (.5x) ........................................
 72
    65
 73
     2
 40
3.175
 49
0.0
 74
     0
 49
-3.175
 74
     0
  0
LTYPE
  5
185
330
CA
100
AcDbSymbolTableRecord
100
AcDbLinetypeTableRecord
  2
DOTX2
 70
     0
  3
Dot (2x) .  .  .  .  .  .  .  .  .  .  .  .  .  .
 72
    65
 73
     2
 40
12.7
 49
0.0
 74
     0
 49
-12.7
 74
     0
  0
LTYPE
  5
187
330
CA
100
AcDbSymbolTableRecord
100
AcDbLinetypeTableRecord
  2
DRAINAGE
 70
     0
  3
Drainage ---->---->---->----
 72
    65
 73
     2
 40
10.16
 49
5.08
 74
     2
 75
     0
340
186
 46
2.54
 50
180.0
 44
0.0
 45
0.0
  9
RIGHT_ARROW
 49
5.08
 74
     0
  0
LTYPE
  5
189
330
CA
100
AcDbSymbolTableRecord
100
AcDbLinetypeTableRecord
  2
DRAINAGE2
 70
     0
  3
Drainage reversed----<----<----<----
 72
    65
 73
     2
 40
10.16
 49
5.08
 74
     2
 75
     0
340
188
 46
2.54
 50
0.0
 44
0.0
 45
0.0
  9
RIGHT_ARROW
 49
5.08
 74
     0
  0
LTYPE
  5
18B
330
CA
100
AcDbSymbolTableRecord
100
AcDbLinetypeTableRecord
  2
FENCELINE1
 70
     0
  3
Fenceline circle ----0-----0----0-----0----0-----0--
 72
    65
 73
     4
 40
36.83
 49
6.35
 74
     0
 49
-2.54
 74
     2
 75
     0
340
18A
 46
2.54
 50
0.0
 44
-2.54
 45
0.0
  9
CIRC1
 49
-2.54
 74
     0
 49
25.4
 74
     0
  0
LTYPE
  5
18D
330
CA
100
AcDbSymbolTableRecord
100
AcDbLinetypeTableRecord
  2
FENCELINE2
 70
     0
  3
Fenceline square ----[]-----[]----[]-----[]----[]---
 72
    65
 73
     4
 40
36.83
 49
6.35
 74
     0
 49
-2.54
 74
     2
 75
     0
340
18C
 46
2.54
 50
0.0
 44
-2.54
 45
0.0
  9
BOX
 49
-2.54
 74
     0
 49
25.4
 74
     0
  0
LTYPE
  5
18F
330
CA
100
AcDbSymbolTableRecord
100
AcDbLinetypeTableRecord
  2
GAS_LINE
 70
     0
  3
Gas line ----GAS----GAS----GAS----GAS----GAS----GAS--
 72
    65
 73
     3
 40
24.13
 49
12.7
 74
     0
 49
-5.08
 74
     2
 75
     0
340
18E
 46
2.54
 50
0.0
 44
-2.54
 45
-1.27
  9
GAS
 49
-6.35
 74
     0
  0
LTYPE
  5
190
330
CA
100
AcDbSymbolTableRecord
100
AcDbLinetypeTableRecord
  2
HIDDEN
 70
     0
  3
Hidden __ __ __ __ __ __ __ __ __ __ __ __ __ __
 72
    65
 73
     2
 40
9.524999999999999
 49
6.35
 74
     0
 49
-3.175
 74
     0
  0
LTYPE
  5
191
330
CA
100
AcDbSymbolTableRecord
100
AcDbLinetypeTableRecord
  2
HIDDEN2
 70
     0
  3
Hidden (.5x) _ _ _ _ _ _ _ _ _ _ _ _ _ _ _ _ _ 
 72
    65
 73
     2
 40
4.762499999999999
 49
3.175
 74
     0
 49
-1.5875
 74
     0
  0
LTYPE
  5
192
330
CA
100
AcDbSymbolTableRecord
100
AcDbLinetypeTableRecord
  2
HIDDENX2
 70
     0
  3
Hidden (2x) ____ ____ ____ ____ ____ ____ ____ 
 72
    65
 73
     2
 40
19.05
 49
12.7
 74
     0
 49
-6.35
 74
     0
  0
LTYPE
  5
194
330
CA
100
AcDbSymbolTableRecord
100
AcDbLinetypeTableRecord
  2
HOT_WATER_SUPPLY
 70
     0
  3
Hot water supply ---- HW ---- HW ---- HW ----
 72
    65
 73
     3
 40
22.86
 49
12.7
 74
     0
 49
-5.08
 74
     2
 75
     0
340
193
 46
2.54
 50
0.0
 44
-2.54
 45
-1.27
  9
HW
 49
-5.08
 74
     0
  0
LTYPE
  5
195
330
CA
100
AcDbSymbolTableRecord
100
AcDbLinetypeTableRecord
  2
PHANTOM
 70
     0
  3
Phantom ______  __  __  ______  __  __  ______ 
 72
    65
 73
     6
 40
63.50000000000001
 49
31.75
 74
     0
 49
-6.35
 74
     0
 49
6.35
 74
     0
 49
-6.35
 74
     0
 49
6.35
 74
     0
 49
-6.35
 74
     0
  0
LTYPE
  5
196
330
CA
100
AcDbSymbolTableRecord
100
AcDbLinetypeTableRecord
  2
PHANTOM2
 70
     0
  3
Phantom (.5x) ___ _ _ ___ _ _ ___ _ _ ___ _ _
 72
    65
 73
     6
 40
31.75
 49
15.875
 74
     0
 49
-3.175
 74
     0
 49
3.175
 74
     0
 49
-3.175
 74
     0
 49
3.175
 74
     0
 49
-3.175
 74
     0
  0
LTYPE
  5
197
330
CA
100
AcDbSymbolTableRecord
100
AcDbLinetypeTableRecord
  2
PHANTOMX2
 70
     0
  3
Phantom (2x) ____________    ____    ____   _
 72
    65
 73
     6
 40
127.0
 49
63.5
 74
     0
 49
-12.7
 74
     0
 49
12.7
 74
     0
 49
-12.7
 74
     0
 49
12.7
 74
     0
 49
-12.7
 74
     0
  0
LTYPE
  5
199
330
CA
100
AcDbSymbolTableRecord
100
AcDbLinetypeTableRecord
  2
TRACKS
 70
     0
  3
Tracks -|-|-|-|-|-|-|-|-|-|-|-|-|-|-|-|-|-|-|-|-|-|-|-|-
 72
    65
 73
     2
 40
7.62
 49
3.81
 74
     2
 75
     0
340
198
 46
6.35
 50
0.0
 44
0.0
 45
0.0
  9
TRACK1
 49
3.81
 74
     0
  0
LTYPE
  5
19C
330
CA
100
AcDbSymbolTableRecord
100
AcDbLinetypeTableRecord
  2
ZIGZAG
 70
     0
  3
Zig zag /\/\/\/\/\/\/\/\/\/\/\/\/\/\/\/\/\/\/\/\/\/\/\/
 72
    65
 73
     4
 40
20.32254
 49
0.00254
 74
     0
 49
-5.08
 74
     2
 75
     0
340
19A
 46
5.08
 50
0.0
 44
-5.08
 45
0.0
  9
ZIG
 49
-10.16
 74
     2
 75
     0
340
19B
 46
5.08
 50
180.0
 44
5.08
 45
0.0
  9
ZIG
 49
-5.08
 74
     0
  0
ENDTAB
  0
TABLE
  2
LAYER
  5
C7
330
0
100
AcDbSymbolTable
 70
     1
  0
LAYER
  5
D5
330
C7
100
AcDbSymbolTableRecord
100
AcDbLayerTableRecord
  2
0
 70
     0
 62
     7
  6
CONTINUOUS
  0
ENDTAB
  0
TABLE
  2
STYLE
  5
C8
330
0
100
AcDbSymbolTable
 70
    12
  0
STYLE
  5
D6
330
C8
100
AcDbSymbolTableRecord
100
AcDbTextStyleTableRecord
  2
STANDARD
 70
     0
 40
0.0
 41
1.0
 50
0.0
 71
     0
 42
0.2
  3
txt
  4

  0
STYLE
  5
171
330
C8
100
AcDbSymbolTableRecord
100
AcDbTextStyleTableRecord
  2
TEXTSTYLE0
 70
     0
 40
0.0
 41
1.0
 50
0.0
 71
     0
 42
0.2
  3
ltypeshp.shx
  4

  0
STYLE
  5
172
330
C8
100
AcDbSymbolTableRecord
100
AcDbTextStyleTableRecord
  2
TEXTSTYLE1
 70
     0
 40
0.0
 41
1.0
 50
0.0
 71
     0
 42
0.2
  3
ltypeshp.shx
  4

  0
STYLE
  5
186
330
C8
100
AcDbSymbolTableRecord
100
AcDbTextStyleTableRecord
  2
TEXTSTYLE2
 70
     0
 40
0.0
 41
1.0
 50
0.0
 71
     0
 42
0.2
  3
qcadshp.shx
  4

  0
STYLE
  5
188
330
C8
100
AcDbSymbolTableRecord
100
AcDbTextStyleTableRecord
  2
TEXTSTYLE3
 70
     0
 40
0.0
 41
1.0
 50
0.0
 71
     0
 42
0.2
  3
qcadshp.shx
  4

  0
STYLE
  5
18A
330
C8
100
AcDbSymbolTableRecord
100
AcDbTextStyleTableRecord
  2
TEXTSTYLE4
 70
     0
 40
0.0
 41
1.0
 50
0.0
 71
     0
 42
0.2
  3
ltypeshp.shx
  4

  0
STYLE
  5
18C
330
C8
100
AcDbSymbolTableRecord
100
AcDbTextStyleTableRecord
  2
TEXTSTYLE5
 70
     0
 40
0.0
 41
1.0
 50
0.0
 71
     0
 42
0.2
  3
ltypeshp.shx
  4

  0
STYLE
  5
18E
330
C8
100
AcDbSymbolTableRecord
100
AcDbTextStyleTableRecord
  2
TEXTSTYLE6
 70
     0
 40
0.0
 41
1.0
 50
0.0
 71
     0
 42
0.2
  3
STANDARD
  4

  0
STYLE
  5
193
330
C8
100
AcDbSymbolTableRecord
100
AcDbTextStyleTableRecord
  2
TEXTSTYLE7
 70
     0
 40
0.0
 41
1.0
 50
0.0
 71
     0
 42
0.2
  3
STANDARD
  4

  0
STYLE
  5
198
330
C8
100
AcDbSymbolTableRecord
100
AcDbTextStyleTableRecord
  2
TEXTSTYLE8
 70
     0
 40
0.0
 41
1.0
 50
0.0
 71
     0
 42
0.2
  3
ltypeshp.shx
  4

  0
STYLE
  5
19A
330
C8
100
AcDbSymbolTableRecord
100
AcDbTextStyleTableRecord
  2
TEXTSTYLE9
 70
     0
 40
0.0
 41
1.0
 50
0.0
 71
     0
 42
0.2
  3
ltypeshp.shx
  4

  0
STYLE
  5
19B
330
C8
100
AcDbSymbolTableRecord
100
AcDbTextStyleTableRecord
  2
TEXTSTYLE10
 70
     0
 40
0.0
 41
1.0
 50
0.0
 71
     0
 42
0.2
  3
ltypeshp.shx
  4

  0
ENDTAB
  0
TABLE
  2
VIEW
  5
CB
330
0
100
AcDbSymbolTable
 70
     0
  0
ENDTAB
  0
TABLE
  2
UCS
  5
CC
330
0
100
AcDbSymbolTable
 70
     0
  0
ENDTAB
  0
TABLE
  2
APPID
  5
CE
330
0
100
AcDbSymbolTable
 70
     3
  0
APPID
  5
D7
330
CE
100
AcDbSymbolTableRecord
100
AcDbRegAppTableRecord
  2
ACAD
 70
     0
  0
APPID
  5
132
330
CE
100
AcDbSymbolTableRecord
100
AcDbRegAppTableRecord
  2
QCAD
 70
     0
  0
APPID
  5
1CF
330
CE
100
AcDbSymbolTableRecord
100
AcDbRegAppTableRecord
  2
ACAD_MLEADERVER
 70
     0
  0
ENDTAB
  0
TABLE
  2
DIMSTYLE
  5
CF
330
0
100
AcDbSymbolTable
 70
     2
  0
DIMSTYLE
105
EB
330
CF
100
AcDbSymbolTableRecord
100
AcDbDimStyleTableRecord
  2
STANDARD
 70
     0
  3

  4

  5

  6

  7

 40
1.0
 41
0.18
 42
0.0625
 43
0.38
 44
0.18
 45
0.0
 46
0.0
 47
0.0
 48
0.0
140
0.18
141
0.09
142
0.0
143
25.4
144
1.0
145
0.0
146
1.0
147
0.09
 71
     0
 72
     0
 73
     1
 74
     1
 75
     0
 76
     0
 77
     0
 78
     0
170
     0
171
     2
172
     0
173
     0
174
     0
175
     0
176
     0
177
     0
178
     0
270
     2
271
     4
272
     4
273
     2
274
     2
340
D6
275
     0
280
     0
281
     0
282
     0
283
     1
284
     0
285
     0
286
     0
287
     3
288
     0
  0
DIMSTYLE
105
162
330
CF
100
AcDbSymbolTableRecord
100
AcDbDimStyleTableRecord
  2
QCADDIMSTYLE
 70
     0
  3

  4

  5

  6

  7

 40
1.0
 41
2.5
 42
0.625
 43
0.38
 44
1.25
 45
0.0
 46
0.0
 47
0.0
 48
0.0
140
2.5
141
0.09
142
0.0
143
25.4
144
1.0
145
0.0
146
1.0
147
0.625
 71
     0
 72
     0
 73
     0
 74
     1
 75
     0
 76
     0
 77
     1
 78
     0
170
     0
171
     2
172
     0
173
     0
174
     0
175
     0
176
     0
177
     0
178
     0
270
     2
271
     4
272
     4
273
     2
274
     2
340
D6
275
     0
280
     0
281
     0
282
     0
283
     1
284
     0
285
     0
286
     0
287
     3
288
     0
  0
ENDTAB
  0
TABLE
  2
BLOCK_RECORD
  5
C6
330
0
100
AcDbSymbolTable
 70
     1
  0
BLOCK_RECORD
  5
E3
330
C6
100
AcDbSymbolTableRecord
100
AcDbBlockTableRecord
  2
*MODEL_SPACE
  0
BLOCK_RECORD
  5
DF
330
C6
100
AcDbSymbolTableRecord
100
AcDbBlockTableRecord
  2
*PAPER_SPACE
  0
ENDTAB
  0
ENDSEC
  0
SECTION
  2
BLOCKS
  0
BLOCK
  5
E4
330
E3
100
AcDbEntity
  8
0
100
AcDbBlockBegin
  2
*MODEL_SPACE
 70
     0
 10
0.0
 20
0.0
 30
0.0
  3
*MODEL_SPACE
  1

  0
ENDBLK
  5
E5
330
E3
100
AcDbEntity
  8
0
100
AcDbBlockEnd
  0
BLOCK
  5
E0
330
DF
100
AcDbEntity
 67
     1
  8
0
100
AcDbBlockBegin
  2
*PAPER_SPACE
 70
     0
 10
0.0
 20
0.0
 30
0.0
  3
*PAPER_SPACE
  1

  0
ENDBLK
  5
E1
330
DF
100
AcDbEntity
 67
     1
  8
0
100
AcDbBlockEnd
  0
ENDSEC
  0
SECTION
  2
ENTITIES
  0
LINE
  5
35
330
E3
100
AcDbEntity
  8
0
100
AcDbLine
 10
0.0
 20
0.0
 30
0.0
 11
686.1527777777777
 21
0.0
 31
0.0
  0
LINE
  5
36
330
E3
100
AcDbEntity
  8
0
100
AcDbLine
 10
686.5055555555555
 20
0.0
 30
0.0
 11
686.5055555555555
 21
-615.9499999999999
 31
0.0
  0
LINE
  5
37
330
E3
100
AcDbEntity
  8
0
100
AcDbLine
 10
686.5055555555555
 20
-616.3027777777777
 30
0.0
 11
0.3527777777777777
 21
-616.3027777777777
 31
0.0
  0
LINE
  5
38
330
E3
100
AcDbEntity
  8
0
100
AcDbLine
 10
0.0
 20
-616.3027777777777
 30
0.0
 11
0.0
 21
-0.3527777777777777
 31
0.0
  0
SPLINE
  5
39
330
E3
100
AcDbEntity
  8
0
100
AcDbSpline
210
0.0
220
0.0
230
1.0
 70
     8
 71
     3
 72
     8
 73
     4
 74
     0
 42
0.000000001
 43
0.001
 40
0.0
 40
0.0
 40
0.0
 40
0.0
 40
1.0
 40
1.0
 40
1.0
 40
1.0
 10
370.4166666666666
 20
-53.62222222222222
 30
0.0
 10
370.4166666666666
 20
-59.27372222222222
 30
0.0
 10
364.9662499999999
 20
-63.85277777777777
 30
0.0
 10
358.2458333333333
 20
-63.85277777777777
 30
0.0
  0
SPLINE
  5
3A
330
E3
100
AcDbEntity
  8
0
100
AcDbSpline
210
0.0
220
0.0
230
1.0
 70
     8
 71
     3
 72
     8
 73
     4
 74
     0
 42
0.000000001
 43
0.001
 40
0.0
 40
0.0
 40
0.0
 40
0.0
 40
1.0
 40
1.0
 40
1.0
 40
1.0
 10
358.2458333333333
 20
-63.85277777777777
 30
0.0
 10
351.5254166666667
 20
-63.85277777777777
 30
0.0
 10
346.075
 20
-59.27372222222222
 30
0.0
 10
346.075
 20
-53.62222222222222
 30
0.0
  0
SPLINE
  5
3B
330
E3
100
AcDbEntity
  8
0
100
AcDbSpline
210
0.0
220
0.0
230
1.0
 70
     8
 71
     3
 72
     8
 73
     4
 74
     0
 42
0.000000001
 43
0.001
 40
0.0
 40
0.0
 40
0.0
 40
0.0
 40
1.0
 40
1.0
 40
1.0
 40
1.0
 10
346.075
 20
-53.62222222222222
 30
0.0
 10
346.075
 20
-47.97072222222221
 30
0.0
 10
351.5254166666667
 20
-43.39166666666667
 30
0.0
 10
358.2458333333333
 20
-43.39166666666667
 30
0.0
  0
SPLINE
  5
3C
330
E3
100
AcDbEntity
  8
0
100
AcDbSpline
210
0.0
220
0.0
230
1.0
 70
     8
 71
     3
 72
     8
 73
     4
 74
     0
 42
0.000000001
 43
0.001
 40
0.0
 40
0.0
 40
0.0
 40
0.0
 40
1.0
 40
1.0
 40
1.0
 40
1.0
 10
358.2458333333333
 20
-43.39166666666667
 30
0.0
 10
364.9662499999999
 20
-43.39166666666667
 30
0.0
 10
370.4166666666666
 20
-47.97072222222221
 30
0.0
 10
370.4166666666666
 20
-53.62222222222222
 30
0.0
  0
LINE
  5
3D
330
E3
100
AcDbEntity
  8
0
100
AcDbLine
 10
370.4166666666666
 20
-53.62222222222222
 30
0.0
 11
370.4166666666666
 21
-53.62222222222222
 31
0.0
  0
SPLINE
  5
3E
330
E3
100
AcDbEntity
  8
0
100
AcDbSpline
210
0.0
220
0.0
230
1.0
 70
     8
 71
     3
 72
     8
 73
     4
 74
     0
 42
0.000000001
 43
0.001
 40
0.0
 40
0.0
 40
0.0
 40
0.0
 40
1.0
 40
1.0
 40
1.0
 40
1.0
 10
440.9722222222222
 20
-53.62222222222222
 30
0.0
 10
440.9722222222222
 20
-59.27372222222222
 30
0.0
 10
435.5218055555555
 20
-63.85277777777777
 30
0.0
 10
428.8013888888888
 20
-63.85277777777777
 30
0.0
  0
SPLINE
  5
3F
330
E3
100
AcDbEntity
  8
0
100
AcDbSpline
210
0.0
220
0.0
230
1.0
 70
     8
 71
     3
 72
     8
 73
     4
 74
     0
 42
0.000000001
 43
0.001
 40
0.0
 40
0.0
 40
0.0
 40
0.0
 40
1.0
 40
1.0
 40
1.0
 40
1.0
 10
428.8013888888888
 20
-63.85277777777777
 30
0.0
 10
422.0809722222222
 20
-63.85277777777777
 30
0.0
 10
416.6305555555555
 20
-59.27372222222222
 30
0.0
 10
416.6305555555555
 20
-53.62222222222222
 30
0.0
  0
SPLINE
  5
40
330
E3
100
AcDbEntity
  8
0
100
AcDbSpline
210
0.0
220
0.0
230
1.0
 70
     8
 71
     3
 72
     8
 73
     4
 74
     0
 42
0.000000001
 43
0.001
 40
0.0
 40
0.0
 40
0.0
 40
0.0
 40
1.0
 40
1.0
 40
1.0
 40
1.0
 10
416.6305555555555
 20
-53.62222222222222
 30
0.0
 10
416.6305555555555
 20
-47.97072222222221
 30
0.0
 10
422.0809722222222
 20
-43.39166666666667
 30
0.0
 10
428.8013888888888
 20
-43.39166666666667
 30
0.0
  0
SPLINE
  5
41
330
E3
100
AcDbEntity
  8
0
100
AcDbSpline
210
0.0
220
0.0
230
1.0
 70
     8
 71
     3
 72
     8
 73
     4
 74
     0
 42
0.000000001
 43
0.001
 40
0.0
 40
0.0
 40
0.0
 40
0.0
 40
1.0
 40
1.0
 40
1.0
 40
1.0
 10
428.8013888888888
 20
-43.39166666666667
 30
0.0
 10
435.5218055555555
 20
-43.39166666666667
 30
0.0
 10
440.9722222222222
 20
-47.97072222222221
 30
0.0
 10
440.9722222222222
 20
-53.62222222222222
 30
0.0
  0
LINE
  5
42
330
E3
100
AcDbEntity
  8
0
100
AcDbLine
 10
440.9722222222222
 20
-53.62222222222222
 30
0.0
 11
440.9722222222222
 21
-53.62222222222222
 31
0.0
  0
SPLINE
  5
43
330
E3
100
AcDbEntity
  8
0
100
AcDbSpline
210
0.0
220
0.0
230
1.0
 70
     8
 71
     3
 72
     8
 73
     4
 74
     0
 42
0.000000001
 43
0.001
 40
0.0
 40
0.0
 40
0.0
 40
0.0
 40
1.0
 40
1.0
 40
1.0
 40
1.0
 10
511.8805555555555
 20
-53.62222222222222
 30
0.0
 10
511.8805555555555
 20
-59.27372222222222
 30
0.0
 10
506.4301388888888
 20
-63.85277777777777
 30
0.0
 10
499.7097222222222
 20
-63.85277777777777
 30
0.0
  0
SPLINE
  5
44
330
E3
100
AcDbEntity
  8
0
100
AcDbSpline
210
0.0
220
0.0
230
1.0
 70
     8
 71
     3
 72
     8
 73
     4
 74
     0
 42
0.000000001
 43
0.001
 40
0.0
 40
0.0
 40
0.0
 40
0.0
 40
1.0
 40
1.0
 40
1.0
 40
1.0
 10
499.7097222222222
 20
-63.85277777777777
 30
0.0
 10
492.9893055555555
 20
-63.85277777777777
 30
0.0
 10
487.5388888888888
 20
-59.27372222222222
 30
0.0
 10
487.5388888888888
 20
-53.62222222222222
 30
0.0
  0
SPLINE
  5
45
330
E3
100
AcDbEntity
  8
0
100
AcDbSpline
210
0.0
220
0.0
230
1.0
 70
     8
 71
     3
 72
     8
 73
     4
 74
     0
 42
0.000000001
 43
0.001
 40
0.0
 40
0.0
 40
0.0
 40
0.0
 40
1.0
 40
1.0
 40
1.0
 40
1.0
 10
487.5388888888888
 20
-53.62222222222222
 30
0.0
 10
487.5388888888888
 20
-47.97072222222221
 30
0.0
 10
492.9893055555555
 20
-43.39166666666667
 30
0.0
 10
499.7097222222222
 20
-43.39166666666667
 30
0.0
  0
SPLINE
  5
46
330
E3
100
AcDbEntity
  8
0
100
AcDbSpline
210
0.0
220
0.0
230
1.0
 70
     8
 71
     3
 72
     8
 73
     4
 74
     0
 42
0.000000001
 43
0.001
 40
0.0
 40
0.0
 40
0.0
 40
0.0
 40
1.0
 40
1.0
 40
1.0
 40
1.0
 10
499.7097222222222
 20
-43.39166666666667
 30
0.0
 10
506.4301388888888
 20
-43.39166666666667
 30
0.0
 10
511.8805555555555
 20
-47.97072222222221
 30
0.0
 10
511.8805555555555
 20
-53.62222222222222
 30
0.0
  0
LINE
  5
47
330
E3
100
AcDbEntity
  8
0
100
AcDbLine
 10
511.8805555555555
 20
-53.62222222222222
 30
0.0
 11
511.8805555555555
 21
-53.62222222222222
 31
0.0
  0
SPLINE
  5
48
330
E3
100
AcDbEntity
  8
0
100
AcDbSpline
210
0.0
220
0.0
230
1.0
 70
     8
 71
     3
 72
     8
 73
     4
 74
     0
 42
0.000000001
 43
0.001
 40
0.0
 40
0.0
 40
0.0
 40
0.0
 40
1.0
 40
1.0
 40
1.0
 40
1.0
 10
582.7888888888889
 20
-53.62222222222222
 30
0.0
 10
582.7888888888889
 20
-59.27372222222222
 30
0.0
 10
577.3384722222222
 20
-63.85277777777777
 30
0.0
 10
570.6180555555555
 20
-63.85277777777777
 30
0.0
  0
SPLINE
  5
49
330
E3
100
AcDbEntity
  8
0
100
AcDbSpline
210
0.0
220
0.0
230
1.0
 70
     8
 71
     3
 72
     8
 73
     4
 74
     0
 42
0.000000001
 43
0.001
 40
0.0
 40
0.0
 40
0.0
 40
0.0
 40
1.0
 40
1.0
 40
1.0
 40
1.0
 10
570.6180555555555
 20
-63.85277777777777
 30
0.0
 10
563.8976388888889
 20
-63.85277777777777
 30
0.0
 10
558.4472222222222
 20
-59.27372222222222
 30
0.0
 10
558.4472222222222
 20
-53.62222222222222
 30
0.0
  0
SPLINE
  5
4A
330
E3
100
AcDbEntity
  8
0
100
AcDbSpline
210
0.0
220
0.0
230
1.0
 70
     8
 71
     3
 72
     8
 73
     4
 74
     0
 42
0.000000001
 43
0.001
 40
0.0
 40
0.0
 40
0.0
 40
0.0
 40
1.0
 40
1.0
 40
1.0
 40
1.0
 10
558.4472222222222
 20
-53.62222222222222
 30
0.0
 10
558.4472222222222
 20
-47.97072222222221
 30
0.0
 10
563.8976388888889
 20
-43.39166666666667
 30
0.0
 10
570.6180555555555
 20
-43.39166666666667
 30
0.0
  0
SPLINE
  5
4B
330
E3
100
AcDbEntity
  8
0
100
AcDbSpline
210
0.0
220
0.0
230
1.0
 70
     8
 71
     3
 72
     8
 73
     4
 74
     0
 42
0.000000001
 43
0.001
 40
0.0
 40
0.0
 40
0.0
 40
0.0
 40
1.0
 40
1.0
 40
1.0
 40
1.0
 10
570.6180555555555
 20
-43.39166666666667
 30
0.0
 10
577.3384722222222
 20
-43.39166666666667
 30
0.0
 10
582.7888888888889
 20
-47.97072222222221
 30
0.0
 10
582.7888888888889
 20
-53.62222222222222
 30
0.0
  0
LINE
  5
4C
330
E3
100
AcDbEntity
  8
0
100
AcDbLine
 10
582.7888888888889
 20
-53.62222222222222
 30
0.0
 11
582.7888888888889
 21
-53.62222222222222
 31
0.0
  0
SPLINE
  5
4D
330
E3
100
AcDbEntity
  8
0
100
AcDbSpline
210
0.0
220
0.0
230
1.0
 70
     8
 71
     3
 72
     8
 73
     4
 74
     0
 42
0.000000001
 43
0.001
 40
0.0
 40
0.0
 40
0.0
 40
0.0
 40
1.0
 40
1.0
 40
1.0
 40
1.0
 10
653.6972222222222
 20
-53.62222222222222
 30
0.0
 10
653.6972222222222
 20
-59.27372222222222
 30
0.0
 10
648.2468055555555
 20
-63.85277777777777
 30
0.0
 10
641.5263888888888
 20
-63.85277777777777
 30
0.0
  0
SPLINE
  5
4E
330
E3
100
AcDbEntity
  8
0
100
AcDbSpline
210
0.0
220
0.0
230
1.0
 70
     8
 71
     3
 72
     8
 73
     4
 74
     0
 42
0.000000001
 43
0.001
 40
0.0
 40
0.0
 40
0.0
 40
0.0
 40
1.0
 40
1.0
 40
1.0
 40
1.0
 10
641.5263888888888
 20
-63.85277777777777
 30
0.0
 10
634.8059722222222
 20
-63.85277777777777
 30
0.0
 10
629.3555555555555
 20
-59.27372222222222
 30
0.0
 10
629.3555555555555
 20
-53.62222222222222
 30
0.0
  0
SPLINE
  5
4F
330
E3
100
AcDbEntity
  8
0
100
AcDbSpline
210
0.0
220
0.0
230
1.0
 70
     8
 71
     3
 72
     8
 73
     4
 74
     0
 42
0.000000001
 43
0.001
 40
0.0
 40
0.0
 40
0.0
 40
0.0
 40
1.0
 40
1.0
 40
1.0
 40
1.0
 10
629.3555555555555
 20
-53.62222222222222
 30
0.0
 10
629.3555555555555
 20
-47.97072222222221
 30
0.0
 10
634.8059722222222
 20
-43.39166666666667
 30
0.0
 10
641.5263888888888
 20
-43.39166666666667
 30
0.0
  0
SPLINE
  5
50
330
E3
100
AcDbEntity
  8
0
100
AcDbSpline
210
0.0
220
0.0
230
1.0
 70
     8
 71
     3
 72
     8
 73
     4
 74
     0
 42
0.000000001
 43
0.001
 40
0.0
 40
0.0
 40
0.0
 40
0.0
 40
1.0
 40
1.0
 40
1.0
 40
1.0
 10
641.5263888888888
 20
-43.39166666666667
 30
0.0
 10
648.2468055555555
 20
-43.39166666666667
 30
0.0
 10
653.6972222222222
 20
-47.97072222222221
 30
0.0
 10
653.6972222222222
 20
-53.62222222222222
 30
0.0
  0
LINE
  5
51
330
E3
100
AcDbEntity
  8
0
100
AcDbLine
 10
653.6972222222222
 20
-53.62222222222222
 30
0.0
 11
653.6972222222222
 21
-53.62222222222222
 31
0.0
  0
SPLINE
  5
52
330
E3
100
AcDbEntity
  8
0
100
AcDbSpline
210
0.0
220
0.0
230
1.0
 70
     8
 71
     3
 72
     8
 73
     4
 74
     0
 42
0.000000001
 43
0.001
 40
0.0
 40
0.0
 40
0.0
 40
0.0
 40
1.0
 40
1.0
 40
1.0
 40
1.0
 10
440.9722222222222
 20
-80.43333333333332
 30
0.0
 10
440.9722222222222
 20
-86.08483333333334
 30
0.0
 10
435.5218055555555
 20
-90.66388888888888
 30
0.0
 10
428.8013888888888
 20
-90.66388888888888
 30
0.0
  0
SPLINE
  5
53
330
E3
100
AcDbEntity
  8
0
100
AcDbSpline
210
0.0
220
0.0
230
1.0
 70
     8
 71
     3
 72
     8
 73
     4
 74
     0
 42
0.000000001
 43
0.001
 40
0.0
 40
0.0
 40
0.0
 40
0.0
 40
1.0
 40
1.0
 40
1.0
 40
1.0
 10
428.8013888888888
 20
-90.66388888888888
 30
0.0
 10
422.0809722222222
 20
-90.66388888888888
 30
0.0
 10
416.6305555555555
 20
-86.08483333333334
 30
0.0
 10
416.6305555555555
 20
-80.43333333333332
 30
0.0
  0
SPLINE
  5
54
330
E3
100
AcDbEntity
  8
0
100
AcDbSpline
210
0.0
220
0.0
230
1.0
 70
     8
 71
     3
 72
     8
 73
     4
 74
     0
 42
0.000000001
 43
0.001
 40
0.0
 40
0.0
 40
0.0
 40
0.0
 40
1.0
 40
1.0
 40
1.0
 40
1.0
 10
416.6305555555555
 20
-80.43333333333332
 30
0.0
 10
416.6305555555555
 20
-74.78183333333332
 30
0.0
 10
422.0809722222222
 20
-70.20277777777777
 30
0.0
 10
428.8013888888888
 20
-70.20277777777777
 30
0.0
  0
SPLINE
  5
55
330
E3
100
AcDbEntity
  8
0
100
AcDbSpline
210
0.0
220
0.0
230
1.0
 70
     8
 71
     3
 72
     8
 73
     4
 74
     0
 42
0.000000001
 43
0.001
 40
0.0
 40
0.0
 40
0.0
 40
0.0
 40
1.0
 40
1.0
 40
1.0
 40
1.0
 10
428.8013888888888
 20
-70.20277777777777
 30
0.0
 10
435.5218055555555
 20
-70.20277777777777
 30
0.0
 10
440.9722222222222
 20
-74.78183333333332
 30
0.0
 10
440.9722222222222
 20
-80.43333333333332
 30
0.0
  0
LINE
  5
56
330
E3
100
AcDbEntity
  8
0
100
AcDbLine
 10
440.9722222222222
 20
-80.43333333333332
 30
0.0
 11
440.9722222222222
 21
-80.43333333333332
 31
0.0
  0
SPLINE
  5
57
330
E3
100
AcDbEntity
  8
0
100
AcDbSpline
210
0.0
220
0.0
230
1.0
 70
     8
 71
     3
 72
     8
 73
     4
 74
     0
 42
0.000000001
 43
0.001
 40
0.0
 40
0.0
 40
0.0
 40
0.0
 40
1.0
 40
1.0
 40
1.0
 40
1.0
 10
511.8805555555555
 20
-107.2444444444444
 30
0.0
 10
511.8805555555555
 20
-112.8959444444444
 30
0.0
 10
506.4301388888888
 20
-117.475
 30
0.0
 10
499.7097222222222
 20
-117.475
 30
0.0
  0
SPLINE
  5
58
330
E3
100
AcDbEntity
  8
0
100
AcDbSpline
210
0.0
220
0.0
230
1.0
 70
     8
 71
     3
 72
     8
 73
     4
 74
     0
 42
0.000000001
 43
0.001
 40
0.0
 40
0.0
 40
0.0
 40
0.0
 40
1.0
 40
1.0
 40
1.0
 40
1.0
 10
499.7097222222222
 20
-117.475
 30
0.0
 10
492.9893055555555
 20
-117.475
 30
0.0
 10
487.5388888888888
 20
-112.8959444444444
 30
0.0
 10
487.5388888888888
 20
-107.2444444444444
 30
0.0
  0
SPLINE
  5
59
330
E3
100
AcDbEntity
  8
0
100
AcDbSpline
210
0.0
220
0.0
230
1.0
 70
     8
 71
     3
 72
     8
 73
     4
 74
     0
 42
0.000000001
 43
0.001
 40
0.0
 40
0.0
 40
0.0
 40
0.0
 40
1.0
 40
1.0
 40
1.0
 40
1.0
 10
487.5388888888888
 20
-107.2444444444444
 30
0.0
 10
487.5388888888888
 20
-101.5929444444444
 30
0.0
 10
492.9893055555555
 20
-97.01388888888889
 30
0.0
 10
499.7097222222222
 20
-97.01388888888889
 30
0.0
  0
SPLINE
  5
5A
330
E3
100
AcDbEntity
  8
0
100
AcDbSpline
210
0.0
220
0.0
230
1.0
 70
     8
 71
     3
 72
     8
 73
     4
 74
     0
 42
0.000000001
 43
0.001
 40
0.0
 40
0.0
 40
0.0
 40
0.0
 40
1.0
 40
1.0
 40
1.0
 40
1.0
 10
499.7097222222222
 20
-97.01388888888889
 30
0.0
 10
506.4301388888888
 20
-97.01388888888889
 30
0.0
 10
511.8805555555555
 20
-101.5929444444444
 30
0.0
 10
511.8805555555555
 20
-107.2444444444444
 30
0.0
  0
LINE
  5
5B
330
E3
100
AcDbEntity
  8
0
100
AcDbLine
 10
511.8805555555555
 20
-107.2444444444444
 30
0.0
 11
511.8805555555555
 21
-107.2444444444444
 31
0.0
  0
SPLINE
  5
5C
330
E3
100
AcDbEntity
  8
0
100
AcDbSpline
210
0.0
220
0.0
230
1.0
 70
     8
 71
     3
 72
     8
 73
     4
 74
     0
 42
0.000000001
 43
0.001
 40
0.0
 40
0.0
 40
0.0
 40
0.0
 40
1.0
 40
1.0
 40
1.0
 40
1.0
 10
582.7888888888889
 20
-134.0555555555555
 30
0.0
 10
582.7888888888889
 20
-139.7070555555555
 30
0.0
 10
577.3384722222222
 20
-144.2861111111111
 30
0.0
 10
570.6180555555555
 20
-144.2861111111111
 30
0.0
  0
SPLINE
  5
5D
330
E3
100
AcDbEntity
  8
0
100
AcDbSpline
210
0.0
220
0.0
230
1.0
 70
     8
 71
     3
 72
     8
 73
     4
 74
     0
 42
0.000000001
 43
0.001
 40
0.0
 40
0.0
 40
0.0
 40
0.0
 40
1.0
 40
1.0
 40
1.0
 40
1.0
 10
570.6180555555555
 20
-144.2861111111111
 30
0.0
 10
563.8976388888889
 20
-144.2861111111111
 30
0.0
 10
558.4472222222222
 20
-139.7070555555555
 30
0.0
 10
558.4472222222222
 20
-134.0555555555555
 30
0.0
  0
SPLINE
  5
5E
330
E3
100
AcDbEntity
  8
0
100
AcDbSpline
210
0.0
220
0.0
230
1.0
 70
     8
 71
     3
 72
     8
 73
     4
 74
     0
 42
0.000000001
 43
0.001
 40
0.0
 40
0.0
 40
0.0
 40
0.0
 40
1.0
 40
1.0
 40
1.0
 40
1.0
 10
558.4472222222222
 20
-134.0555555555555
 30
0.0
 10
558.4472222222222
 20
-128.4040555555555
 30
0.0
 10
563.8976388888889
 20
-123.825
 30
0.0
 10
570.6180555555555
 20
-123.825
 30
0.0
  0
SPLINE
  5
5F
330
E3
100
AcDbEntity
  8
0
100
AcDbSpline
210
0.0
220
0.0
230
1.0
 70
     8
 71
     3
 72
     8
 73
     4
 74
     0
 42
0.000000001
 43
0.001
 40
0.0
 40
0.0
 40
0.0
 40
0.0
 40
1.0
 40
1.0
 40
1.0
 40
1.0
 10
570.6180555555555
 20
-123.825
 30
0.0
 10
577.3384722222222
 20
-123.825
 30
0.0
 10
582.7888888888889
 20
-128.4040555555555
 30
0.0
 10
582.7888888888889
 20
-134.0555555555555
 30
0.0
  0
LINE
  5
60
330
E3
100
AcDbEntity
  8
0
100
AcDbLine
 10
582.7888888888889
 20
-134.0555555555555
 30
0.0
 11
582.7888888888889
 21
-134.0555555555555
 31
0.0
  0
SPLINE
  5
61
330
E3
100
AcDbEntity
  8
0
100
AcDbSpline
210
0.0
220
0.0
230
1.0
 70
     8
 71
     3
 72
     8
 73
     4
 74
     0
 42
0.000000001
 43
0.001
 40
0.0
 40
0.0
 40
0.0
 40
0.0
 40
1.0
 40
1.0
 40
1.0
 40
1.0
 10
653.6972222222222
 20
-160.5138888888889
 30
0.0
 10
653.6972222222222
 20
-166.1653888888889
 30
0.0
 10
648.2468055555555
 20
-170.7444444444444
 30
0.0
 10
641.5263888888888
 20
-170.7444444444444
 30
0.0
  0
SPLINE
  5
62
330
E3
100
AcDbEntity
  8
0
100
AcDbSpline
210
0.0
220
0.0
230
1.0
 70
     8
 71
     3
 72
     8
 73
     4
 74
     0
 42
0.000000001
 43
0.001
 40
0.0
 40
0.0
 40
0.0
 40
0.0
 40
1.0
 40
1.0
 40
1.0
 40
1.0
 10
641.5263888888888
 20
-170.7444444444444
 30
0.0
 10
634.8059722222222
 20
-170.7444444444444
 30
0.0
 10
629.3555555555555
 20
-166.1653888888889
 30
0.0
 10
629.3555555555555
 20
-160.5138888888889
 30
0.0
  0
SPLINE
  5
63
330
E3
100
AcDbEntity
  8
0
100
AcDbSpline
210
0.0
220
0.0
230
1.0
 70
     8
 71
     3
 72
     8
 73
     4
 74
     0
 42
0.000000001
 43
0.001
 40
0.0
 40
0.0
 40
0.0
 40
0.0
 40
1.0
 40
1.0
 40
1.0
 40
1.0
 10
629.3555555555555
 20
-160.5138888888889
 30
0.0
 10
629.3555555555555
 20
-154.8623888888889
 30
0.0
 10
634.8059722222222
 20
-150.2833333333333
 30
0.0
 10
641.5263888888888
 20
-150.2833333333333
 30
0.0
  0
SPLINE
  5
64
330
E3
100
AcDbEntity
  8
0
100
AcDbSpline
210
0.0
220
0.0
230
1.0
 70
     8
 71
     3
 72
     8
 73
     4
 74
     0
 42
0.000000001
 43
0.001
 40
0.0
 40
0.0
 40
0.0
 40
0.0
 40
1.0
 40
1.0
 40
1.0
 40
1.0
 10
641.5263888888888
 20
-150.2833333333333
 30
0.0
 10
648.2468055555555
 20
-150.2833333333333
 30
0.0
 10
653.6972222222222
 20
-154.8623888888889
 30
0.0
 10
653.6972222222222
 20
-160.5138888888889
 30
0.0
  0
LINE
  5
65
330
E3
100
AcDbEntity
  8
0
100
AcDbLine
 10
653.6972222222222
 20
-160.5138888888889
 30
0.0
 11
653.6972222222222
 21
-160.5138888888889
 31
0.0
  0
SPLINE
  5
66
330
E3
100
AcDbEntity
  8
0
100
AcDbSpline
210
0.0
220
0.0
230
1.0
 70
     8
 71
     3
 72
     8
 73
     4
 74
     0
 42
0.000000001
 43
0.001
 40
0.0
 40
0.0
 40
0.0
 40
0.0
 40
1.0
 40
1.0
 40
1.0
 40
1.0
 10
582.7888888888889
 20
-187.325
 30
0.0
 10
582.7888888888889
 20
-192.9765
 30
0.0
 10
577.3384722222222
 20
-197.5555555555555
 30
0.0
 10
570.6180555555555
 20
-197.5555555555555
 30
0.0
  0
SPLINE
  5
67
330
E3
100
AcDbEntity
  8
0
100
AcDbSpline
210
0.0
220
0.0
230
1.0
 70
     8
 71
     3
 72
     8
 73
     4
 74
     0
 42
0.000000001
 43
0.001
 40
0.0
 40
0.0
 40
0.0
 40
0.0
 40
1.0
 40
1.0
 40
1.0
 40
1.0
 10
570.6180555555555
 20
-197.5555555555555
 30
0.0
 10
563.8976388888889
 20
-197.5555555555555
 30
0.0
 10
558.4472222222222
 20
-192.9765
 30
0.0
 10
558.4472222222222
 20
-187.325
 30
0.0
  0
SPLINE
  5
68
330
E3
100
AcDbEntity
  8
0
100
AcDbSpline
210
0.0
220
0.0
230
1.0
 70
     8
 71
     3
 72
     8
 73
     4
 74
     0
 42
0.000000001
 43
0.001
 40
0.0
 40
0.0
 40
0.0
 40
0.0
 40
1.0
 40
1.0
 40
1.0
 40
1.0
 10
558.4472222222222
 20
-187.325
 30
0.0
 10
558.4472222222222
 20
-181.6735
 30
0.0
 10
563.8976388888889
 20
-177.0944444444444
 30
0.0
 10
570.6180555555555
 20
-177.0944444444444
 30
0.0
  0
SPLINE
  5
69
330
E3
100
AcDbEntity
  8
0
100
AcDbSpline
210
0.0
220
0.0
230
1.0
 70
     8
 71
     3
 72
     8
 73
     4
 74
     0
 42
0.000000001
 43
0.001
 40
0.0
 40
0.0
 40
0.0
 40
0.0
 40
1.0
 40
1.0
 40
1.0
 40
1.0
 10
570.6180555555555
 20
-177.0944444444444
 30
0.0
 10
577.3384722222222
 20
-177.0944444444444
 30
0.0
 10
582.7888888888889
 20
-181.6735
 30
0.0
 10
582.7888888888889
 20
-187.325
 30
0.0
  0
LINE
  5
6A
330
E3
100
AcDbEntity
  8
0
100
AcDbLine
 10
582.7888888888889
 20
-187.325
 30
0.0
 11
582.7888888888889
 21
-187.325
 31
0.0
  0
SPLINE
  5
6B
330
E3
100
AcDbEntity
  8
0
100
AcDbSpline
210
0.0
220
0.0
230
1.0
 70
     8
 71
     3
 72
     8
 73
     4
 74
     0
 42
0.000000001
 43
0.001
 40
0.0
 40
0.0
 40
0.0
 40
0.0
 40
1.0
 40
1.0
 40
1.0
 40
1.0
 10
511.8805555555555
 20
-214.1361111111111
 30
0.0
 10
511.8805555555555
 20
-219.7876111111111
 30
0.0
 10
506.4301388888888
 20
-224.3666666666666
 30
0.0
 10
499.7097222222222
 20
-224.3666666666666
 30
0.0
  0
SPLINE
  5
6C
330
E3
100
AcDbEntity
  8
0
100
AcDbSpline
210
0.0
220
0.0
230
1.0
 70
     8
 71
     3
 72
     8
 73
     4
 74
     0
 42
0.000000001
 43
0.001
 40
0.0
 40
0.0
 40
0.0
 40
0.0
 40
1.0
 40
1.0
 40
1.0
 40
1.0
 10
499.7097222222222
 20
-224.3666666666666
 30
0.0
 10
492.9893055555555
 20
-224.3666666666666
 30
0.0
 10
487.5388888888888
 20
-219.7876111111111
 30
0.0
 10
487.5388888888888
 20
-214.1361111111111
 30
0.0
  0
SPLINE
  5
6D
330
E3
100
AcDbEntity
  8
0
100
AcDbSpline
210
0.0
220
0.0
230
1.0
 70
     8
 71
     3
 72
     8
 73
     4
 74
     0
 42
0.000000001
 43
0.001
 40
0.0
 40
0.0
 40
0.0
 40
0.0
 40
1.0
 40
1.0
 40
1.0
 40
1.0
 10
487.5388888888888
 20
-214.1361111111111
 30
0.0
 10
487.5388888888888
 20
-208.4846111111111
 30
0.0
 10
492.9893055555555
 20
-203.9055555555555
 30
0.0
 10
499.7097222222222
 20
-203.9055555555555
 30
0.0
  0
SPLINE
  5
6E
330
E3
100
AcDbEntity
  8
0
100
AcDbSpline
210
0.0
220
0.0
230
1.0
 70
     8
 71
     3
 72
     8
 73
     4
 74
     0
 42
0.000000001
 43
0.001
 40
0.0
 40
0.0
 40
0.0
 40
0.0
 40
1.0
 40
1.0
 40
1.0
 40
1.0
 10
499.7097222222222
 20
-203.9055555555555
 30
0.0
 10
506.4301388888888
 20
-203.9055555555555
 30
0.0
 10
511.8805555555555
 20
-208.4846111111111
 30
0.0
 10
511.8805555555555
 20
-214.1361111111111
 30
0.0
  0
LINE
  5
6F
330
E3
100
AcDbEntity
  8
0
100
AcDbLine
 10
511.8805555555555
 20
-214.1361111111111
 30
0.0
 11
511.8805555555555
 21
-214.1361111111111
 31
0.0
  0
SPLINE
  5
70
330
E3
100
AcDbEntity
  8
0
100
AcDbSpline
210
0.0
220
0.0
230
1.0
 70
     8
 71
     3
 72
     8
 73
     4
 74
     0
 42
0.000000001
 43
0.001
 40
0.0
 40
0.0
 40
0.0
 40
0.0
 40
1.0
 40
1.0
 40
1.0
 40
1.0
 10
440.9722222222222
 20
-240.9472222222222
 30
0.0
 10
440.9722222222222
 20
-246.5987222222222
 30
0.0
 10
435.5218055555555
 20
-251.1777777777777
 30
0.0
 10
428.8013888888888
 20
-251.1777777777777
 30
0.0
  0
SPLINE
  5
71
330
E3
100
AcDbEntity
  8
0
100
AcDbSpline
210
0.0
220
0.0
230
1.0
 70
     8
 71
     3
 72
     8
 73
     4
 74
     0
 42
0.000000001
 43
0.001
 40
0.0
 40
0.0
 40
0.0
 40
0.0
 40
1.0
 40
1.0
 40
1.0
 40
1.0
 10
428.8013888888888
 20
-251.1777777777777
 30
0.0
 10
422.0809722222222
 20
-251.1777777777777
 30
0.0
 10
416.6305555555555
 20
-246.5987222222222
 30
0.0
 10
416.6305555555555
 20
-240.9472222222222
 30
0.0
  0
SPLINE
  5
72
330
E3
100
AcDbEntity
  8
0
100
AcDbSpline
210
0.0
220
0.0
230
1.0
 70
     8
 71
     3
 72
     8
 73
     4
 74
     0
 42
0.000000001
 43
0.001
 40
0.0
 40
0.0
 40
0.0
 40
0.0
 40
1.0
 40
1.0
 40
1.0
 40
1.0
 10
416.6305555555555
 20
-240.9472222222222
 30
0.0
 10
416.6305555555555
 20
-235.2957222222222
 30
0.0
 10
422.0809722222222
 20
-230.7166666666666
 30
0.0
 10
428.8013888888888
 20
-230.7166666666666
 30
0.0
  0
SPLINE
  5
73
330
E3
100
AcDbEntity
  8
0
100
AcDbSpline
210
0.0
220
0.0
230
1.0
 70
     8
 71
     3
 72
     8
 73
     4
 74
     0
 42
0.000000001
 43
0.001
 40
0.0
 40
0.0
 40
0.0
 40
0.0
 40
1.0
 40
1.0
 40
1.0
 40
1.0
 10
428.8013888888888
 20
-230.7166666666666
 30
0.0
 10
435.5218055555555
 20
-230.7166666666666
 30
0.0
 10
440.9722222222222
 20
-235.2957222222222
 30
0.0
 10
440.9722222222222
 20
-240.9472222222222
 30
0.0
  0
LINE
  5
74
330
E3
100
AcDbEntity
  8
0
100
AcDbLine
 10
440.9722222222222
 20
-240.9472222222222
 30
0.0
 11
440.9722222222222
 21
-240.9472222222222
 31
0.0
  0
SPLINE
  5
75
330
E3
100
AcDbEntity
  8
0
100
AcDbSpline
210
0.0
220
0.0
230
1.0
 70
     8
 71
     3
 72
     8
 73
     4
 74
     0
 42
0.000000001
 43
0.001
 40
0.0
 40
0.0
 40
0.0
 40
0.0
 40
1.0
 40
1.0
 40
1.0
 40
1.0
 10
511.8805555555555
 20
-267.7583333333333
 30
0.0
 10
511.8805555555555
 20
-273.4098333333333
 30
0.0
 10
506.4301388888888
 20
-277.9888888888889
 30
0.0
 10
499.7097222222222
 20
-277.9888888888889
 30
0.0
  0
SPLINE
  5
76
330
E3
100
AcDbEntity
  8
0
100
AcDbSpline
210
0.0
220
0.0
230
1.0
 70
     8
 71
     3
 72
     8
 73
     4
 74
     0
 42
0.000000001
 43
0.001
 40
0.0
 40
0.0
 40
0.0
 40
0.0
 40
1.0
 40
1.0
 40
1.0
 40
1.0
 10
499.7097222222222
 20
-277.9888888888889
 30
0.0
 10
492.9893055555555
 20
-277.9888888888889
 30
0.0
 10
487.5388888888888
 20
-273.4098333333333
 30
0.0
 10
487.5388888888888
 20
-267.7583333333333
 30
0.0
  0
SPLINE
  5
77
330
E3
100
AcDbEntity
  8
0
100
AcDbSpline
210
0.0
220
0.0
230
1.0
 70
     8
 71
     3
 72
     8
 73
     4
 74
     0
 42
0.000000001
 43
0.001
 40
0.0
 40
0.0
 40
0.0
 40
0.0
 40
1.0
 40
1.0
 40
1.0
 40
1.0
 10
487.5388888888888
 20
-267.7583333333333
 30
0.0
 10
487.5388888888888
 20
-262.1068333333333
 30
0.0
 10
492.9893055555555
 20
-257.5277777777778
 30
0.0
 10
499.7097222222222
 20
-257.5277777777778
 30
0.0
  0
SPLINE
  5
78
330
E3
100
AcDbEntity
  8
0
100
AcDbSpline
210
0.0
220
0.0
230
1.0
 70
     8
 71
     3
 72
     8
 73
     4
 74
     0
 42
0.000000001
 43
0.001
 40
0.0
 40
0.0
 40
0.0
 40
0.0
 40
1.0
 40
1.0
 40
1.0
 40
1.0
 10
499.7097222222222
 20
-257.5277777777778
 30
0.0
 10
506.4301388888888
 20
-257.5277777777778
 30
0.0
 10
511.8805555555555
 20
-262.1068333333333
 30
0.0
 10
511.8805555555555
 20
-267.7583333333333
 30
0.0
  0
LINE
  5
79
330
E3
100
AcDbEntity
  8
0
100
AcDbLine
 10
511.8805555555555
 20
-267.7583333333333
 30
0.0
 11
511.8805555555555
 21
-267.7583333333333
 31
0.0
  0
SPLINE
  5
7A
330
E3
100
AcDbEntity
  8
0
100
AcDbSpline
210
0.0
220
0.0
230
1.0
 70
     8
 71
     3
 72
     8
 73
     4
 74
     0
 42
0.000000001
 43
0.001
 40
0.0
 40
0.0
 40
0.0
 40
0.0
 40
1.0
 40
1.0
 40
1.0
 40
1.0
 10
582.7888888888889
 20
-294.5694444444444
 30
0.0
 10
582.7888888888889
 20
-300.2209444444444
 30
0.0
 10
577.3384722222222
 20
-304.8
 30
0.0
 10
570.6180555555555
 20
-304.8
 30
0.0
  0
SPLINE
  5
7B
330
E3
100
AcDbEntity
  8
0
100
AcDbSpline
210
0.0
220
0.0
230
1.0
 70
     8
 71
     3
 72
     8
 73
     4
 74
     0
 42
0.000000001
 43
0.001
 40
0.0
 40
0.0
 40
0.0
 40
0.0
 40
1.0
 40
1.0
 40
1.0
 40
1.0
 10
570.6180555555555
 20
-304.8
 30
0.0
 10
563.8976388888889
 20
-304.8
 30
0.0
 10
558.4472222222222
 20
-300.2209444444444
 30
0.0
 10
558.4472222222222
 20
-294.5694444444444
 30
0.0
  0
SPLINE
  5
7C
330
E3
100
AcDbEntity
  8
0
100
AcDbSpline
210
0.0
220
0.0
230
1.0
 70
     8
 71
     3
 72
     8
 73
     4
 74
     0
 42
0.000000001
 43
0.001
 40
0.0
 40
0.0
 40
0.0
 40
0.0
 40
1.0
 40
1.0
 40
1.0
 40
1.0
 10
558.4472222222222
 20
-294.5694444444444
 30
0.0
 10
558.4472222222222
 20
-288.9179444444444
 30
0.0
 10
563.8976388888889
 20
-284.3388888888888
 30
0.0
 10
570.6180555555555
 20
-284.3388888888888
 30
0.0
  0
SPLINE
  5
7D
330
E3
100
AcDbEntity
  8
0
100
AcDbSpline
210
0.0
220
0.0
230
1.0
 70
     8
 71
     3
 72
     8
 73
     4
 74
     0
 42
0.000000001
 43
0.001
 40
0.0
 40
0.0
 40
0.0
 40
0.0
 40
1.0
 40
1.0
 40
1.0
 40
1.0
 10
570.6180555555555
 20
-284.3388888888888
 30
0.0
 10
577.3384722222222
 20
-284.3388888888888
 30
0.0
 10
582.7888888888889
 20
-288.9179444444444
 30
0.0
 10
582.7888888888889
 20
-294.5694444444444
 30
0.0
  0
LINE
  5
7E
330
E3
100
AcDbEntity
  8
0
100
AcDbLine
 10
582.7888888888889
 20
-294.5694444444444
 30
0.0
 11
582.7888888888889
 21
-294.5694444444444
 31
0.0
  0
SPLINE
  5
7F
330
E3
100
AcDbEntity
  8
0
100
AcDbSpline
210
0.0
220
0.0
230
1.0
 70
     8
 71
     3
 72
     8
 73
     4
 74
     0
 42
0.000000001
 43
0.001
 40
0.0
 40
0.0
 40
0.0
 40
0.0
 40
1.0
 40
1.0
 40
1.0
 40
1.0
 10
653.6972222222222
 20
-321.3805555555555
 30
0.0
 10
653.6972222222222
 20
-327.0320555555555
 30
0.0
 10
648.2468055555555
 20
-331.6111111111111
 30
0.0
 10
641.5263888888888
 20
-331.6111111111111
 30
0.0
  0
SPLINE
  5
80
330
E3
100
AcDbEntity
  8
0
100
AcDbSpline
210
0.0
220
0.0
230
1.0
 70
     8
 71
     3
 72
     8
 73
     4
 74
     0
 42
0.000000001
 43
0.001
 40
0.0
 40
0.0
 40
0.0
 40
0.0
 40
1.0
 40
1.0
 40
1.0
 40
1.0
 10
641.5263888888888
 20
-331.6111111111111
 30
0.0
 10
634.8059722222222
 20
-331.6111111111111
 30
0.0
 10
629.3555555555555
 20
-327.0320555555555
 30
0.0
 10
629.3555555555555
 20
-321.3805555555555
 30
0.0
  0
SPLINE
  5
81
330
E3
100
AcDbEntity
  8
0
100
AcDbSpline
210
0.0
220
0.0
230
1.0
 70
     8
 71
     3
 72
     8
 73
     4
 74
     0
 42
0.000000001
 43
0.001
 40
0.0
 40
0.0
 40
0.0
 40
0.0
 40
1.0
 40
1.0
 40
1.0
 40
1.0
 10
629.3555555555555
 20
-321.3805555555555
 30
0.0
 10
629.3555555555555
 20
-315.7290555555555
 30
0.0
 10
634.8059722222222
 20
-311.15
 30
0.0
 10
641.5263888888888
 20
-311.15
 30
0.0
  0
SPLINE
  5
82
330
E3
100
AcDbEntity
  8
0
100
AcDbSpline
210
0.0
220
0.0
230
1.0
 70
     8
 71
     3
 72
     8
 73
     4
 74
     0
 42
0.000000001
 43
0.001
 40
0.0
 40
0.0
 40
0.0
 40
0.0
 40
1.0
 40
1.0
 40
1.0
 40
1.0
 10
641.5263888888888
 20
-311.15
 30
0.0
 10
648.2468055555555
 20
-311.15
 30
0.0
 10
653.6972222222222
 20
-315.7290555555555
 30
0.0
 10
653.6972222222222
 20
-321.3805555555555
 30
0.0
  0
LINE
  5
83
330
E3
100
AcDbEntity
  8
0
100
AcDbLine
 10
653.6972222222222
 20
-321.3805555555555
 30
0.0
 11
653.6972222222222
 21
-321.3805555555555
 31
0.0
  0
SPLINE
  5
84
330
E3
100
AcDbEntity
  8
0
100
AcDbSpline
210
0.0
220
0.0
230
1.0
 70
     8
 71
     3
 72
     8
 73
     4
 74
     0
 42
0.000000001
 43
0.001
 40
0.0
 40
0.0
 40
0.0
 40
0.0
 40
1.0
 40
1.0
 40
1.0
 40
1.0
 10
582.7888888888889
 20
-348.1916666666667
 30
0.0
 10
582.7888888888889
 20
-353.8431666666666
 30
0.0
 10
577.3384722222222
 20
-358.4222222222222
 30
0.0
 10
570.6180555555555
 20
-358.4222222222222
 30
0.0
  0
SPLINE
  5
85
330
E3
100
AcDbEntity
  8
0
100
AcDbSpline
210
0.0
220
0.0
230
1.0
 70
     8
 71
     3
 72
     8
 73
     4
 74
     0
 42
0.000000001
 43
0.001
 40
0.0
 40
0.0
 40
0.0
 40
0.0
 40
1.0
 40
1.0
 40
1.0
 40
1.0
 10
570.6180555555555
 20
-358.4222222222222
 30
0.0
 10
563.8976388888889
 20
-358.4222222222222
 30
0.0
 10
558.4472222222222
 20
-353.8431666666666
 30
0.0
 10
558.4472222222222
 20
-348.1916666666667
 30
0.0
  0
SPLINE
  5
86
330
E3
100
AcDbEntity
  8
0
100
AcDbSpline
210
0.0
220
0.0
230
1.0
 70
     8
 71
     3
 72
     8
 73
     4
 74
     0
 42
0.000000001
 43
0.001
 40
0.0
 40
0.0
 40
0.0
 40
0.0
 40
1.0
 40
1.0
 40
1.0
 40
1.0
 10
558.4472222222222
 20
-348.1916666666667
 30
0.0
 10
558.4472222222222
 20
-342.5401666666667
 30
0.0
 10
563.8976388888889
 20
-337.9611111111111
 30
0.0
 10
570.6180555555555
 20
-337.9611111111111
 30
0.0
  0
SPLINE
  5
87
330
E3
100
AcDbEntity
  8
0
100
AcDbSpline
210
0.0
220
0.0
230
1.0
 70
     8
 71
     3
 72
     8
 73
     4
 74
     0
 42
0.000000001
 43
0.001
 40
0.0
 40
0.0
 40
0.0
 40
0.0
 40
1.0
 40
1.0
 40
1.0
 40
1.0
 10
570.6180555555555
 20
-337.9611111111111
 30
0.0
 10
577.3384722222222
 20
-337.9611111111111
 30
0.0
 10
582.7888888888889
 20
-342.5401666666667
 30
0.0
 10
582.7888888888889
 20
-348.1916666666667
 30
0.0
  0
LINE
  5
88
330
E3
100
AcDbEntity
  8
0
100
AcDbLine
 10
582.7888888888889
 20
-348.1916666666667
 30
0.0
 11
582.7888888888889
 21
-348.1916666666667
 31
0.0
  0
SPLINE
  5
89
330
E3
100
AcDbEntity
  8
0
100
AcDbSpline
210
0.0
220
0.0
230
1.0
 70
     8
 71
     3
 72
     8
 73
     4
 74
     0
 42
0.000000001
 43
0.001
 40
0.0
 40
0.0
 40
0.0
 40
0.0
 40
1.0
 40
1.0
 40
1.0
 40
1.0
 10
511.8805555555555
 20
-375.0027777777777
 30
0.0
 10
511.8805555555555
 20
-380.6542777777777
 30
0.0
 10
506.4301388888888
 20
-385.2333333333333
 30
0.0
 10
499.7097222222222
 20
-385.2333333333333
 30
0.0
  0
SPLINE
  5
8A
330
E3
100
AcDbEntity
  8
0
100
AcDbSpline
210
0.0
220
0.0
230
1.0
 70
     8
 71
     3
 72
     8
 73
     4
 74
     0
 42
0.000000001
 43
0.001
 40
0.0
 40
0.0
 40
0.0
 40
0.0
 40
1.0
 40
1.0
 40
1.0
 40
1.0
 10
499.7097222222222
 20
-385.2333333333333
 30
0.0
 10
492.9893055555555
 20
-385.2333333333333
 30
0.0
 10
487.5388888888888
 20
-380.6542777777777
 30
0.0
 10
487.5388888888888
 20
-375.0027777777777
 30
0.0
  0
SPLINE
  5
8B
330
E3
100
AcDbEntity
  8
0
100
AcDbSpline
210
0.0
220
0.0
230
1.0
 70
     8
 71
     3
 72
     8
 73
     4
 74
     0
 42
0.000000001
 43
0.001
 40
0.0
 40
0.0
 40
0.0
 40
0.0
 40
1.0
 40
1.0
 40
1.0
 40
1.0
 10
487.5388888888888
 20
-375.0027777777777
 30
0.0
 10
487.5388888888888
 20
-369.3512777777777
 30
0.0
 10
492.9893055555555
 20
-364.7722222222222
 30
0.0
 10
499.7097222222222
 20
-364.7722222222222
 30
0.0
  0
SPLINE
  5
8C
330
E3
100
AcDbEntity
  8
0
100
AcDbSpline
210
0.0
220
0.0
230
1.0
 70
     8
 71
     3
 72
     8
 73
     4
 74
     0
 42
0.000000001
 43
0.001
 40
0.0
 40
0.0
 40
0.0
 40
0.0
 40
1.0
 40
1.0
 40
1.0
 40
1.0
 10
499.7097222222222
 20
-364.7722222222222
 30
0.0
 10
506.4301388888888
 20
-364.7722222222222
 30
0.0
 10
511.8805555555555
 20
-369.3512777777777
 30
0.0
 10
511.8805555555555
 20
-375.0027777777777
 30
0.0
  0
LINE
  5
8D
330
E3
100
AcDbEntity
  8
0
100
AcDbLine
 10
511.8805555555555
 20
-375.0027777777777
 30
0.0
 11
511.8805555555555
 21
-375.0027777777777
 31
0.0
  0
SPLINE
  5
8E
330
E3
100
AcDbEntity
  8
0
100
AcDbSpline
210
0.0
220
0.0
230
1.0
 70
     8
 71
     3
 72
     8
 73
     4
 74
     0
 42
0.000000001
 43
0.001
 40
0.0
 40
0.0
 40
0.0
 40
0.0
 40
1.0
 40
1.0
 40
1.0
 40
1.0
 10
440.9722222222222
 20
-401.8138888888889
 30
0.0
 10
440.9722222222222
 20
-407.4653888888889
 30
0.0
 10
435.5218055555555
 20
-412.0444444444444
 30
0.0
 10
428.8013888888888
 20
-412.0444444444444
 30
0.0
  0
SPLINE
  5
8F
330
E3
100
AcDbEntity
  8
0
100
AcDbSpline
210
0.0
220
0.0
230
1.0
 70
     8
 71
     3
 72
     8
 73
     4
 74
     0
 42
0.000000001
 43
0.001
 40
0.0
 40
0.0
 40
0.0
 40
0.0
 40
1.0
 40
1.0
 40
1.0
 40
1.0
 10
428.8013888888888
 20
-412.0444444444444
 30
0.0
 10
422.0809722222222
 20
-412.0444444444444
 30
0.0
 10
416.6305555555555
 20
-407.4653888888889
 30
0.0
 10
416.6305555555555
 20
-401.8138888888889
 30
0.0
  0
SPLINE
  5
90
330
E3
100
AcDbEntity
  8
0
100
AcDbSpline
210
0.0
220
0.0
230
1.0
 70
     8
 71
     3
 72
     8
 73
     4
 74
     0
 42
0.000000001
 43
0.001
 40
0.0
 40
0.0
 40
0.0
 40
0.0
 40
1.0
 40
1.0
 40
1.0
 40
1.0
 10
416.6305555555555
 20
-401.8138888888889
 30
0.0
 10
416.6305555555555
 20
-396.1623888888889
 30
0.0
 10
422.0809722222222
 20
-391.5833333333333
 30
0.0
 10
428.8013888888888
 20
-391.5833333333333
 30
0.0
  0
SPLINE
  5
91
330
E3
100
AcDbEntity
  8
0
100
AcDbSpline
210
0.0
220
0.0
230
1.0
 70
     8
 71
     3
 72
     8
 73
     4
 74
     0
 42
0.000000001
 43
0.001
 40
0.0
 40
0.0
 40
0.0
 40
0.0
 40
1.0
 40
1.0
 40
1.0
 40
1.0
 10
428.8013888888888
 20
-391.5833333333333
 30
0.0
 10
435.5218055555555
 20
-391.5833333333333
 30
0.0
 10
440.9722222222222
 20
-396.1623888888889
 30
0.0
 10
440.9722222222222
 20
-401.8138888888889
 30
0.0
  0
LINE
  5
92
330
E3
100
AcDbEntity
  8
0
100
AcDbLine
 10
440.9722222222222
 20
-401.8138888888889
 30
0.0
 11
440.9722222222222
 21
-401.8138888888889
 31
0.0
  0
SPLINE
  5
93
330
E3
100
AcDbEntity
  8
0
100
AcDbSpline
210
0.0
220
0.0
230
1.0
 70
     8
 71
     3
 72
     8
 73
     4
 74
     0
 42
0.000000001
 43
0.001
 40
0.0
 40
0.0
 40
0.0
 40
0.0
 40
1.0
 40
1.0
 40
1.0
 40
1.0
 10
511.8805555555555
 20
-428.6249999999999
 30
0.0
 10
511.8805555555555
 20
-434.2764999999999
 30
0.0
 10
506.4301388888888
 20
-438.8555555555555
 30
0.0
 10
499.7097222222222
 20
-438.8555555555555
 30
0.0
  0
SPLINE
  5
94
330
E3
100
AcDbEntity
  8
0
100
AcDbSpline
210
0.0
220
0.0
230
1.0
 70
     8
 71
     3
 72
     8
 73
     4
 74
     0
 42
0.000000001
 43
0.001
 40
0.0
 40
0.0
 40
0.0
 40
0.0
 40
1.0
 40
1.0
 40
1.0
 40
1.0
 10
499.7097222222222
 20
-438.8555555555555
 30
0.0
 10
492.9893055555555
 20
-438.8555555555555
 30
0.0
 10
487.5388888888888
 20
-434.2764999999999
 30
0.0
 10
487.5388888888888
 20
-428.6249999999999
 30
0.0
  0
SPLINE
  5
95
330
E3
100
AcDbEntity
  8
0
100
AcDbSpline
210
0.0
220
0.0
230
1.0
 70
     8
 71
     3
 72
     8
 73
     4
 74
     0
 42
0.000000001
 43
0.001
 40
0.0
 40
0.0
 40
0.0
 40
0.0
 40
1.0
 40
1.0
 40
1.0
 40
1.0
 10
487.5388888888888
 20
-428.6249999999999
 30
0.0
 10
487.5388888888888
 20
-422.9734999999999
 30
0.0
 10
492.9893055555555
 20
-418.3944444444444
 30
0.0
 10
499.7097222222222
 20
-418.3944444444444
 30
0.0
  0
SPLINE
  5
96
330
E3
100
AcDbEntity
  8
0
100
AcDbSpline
210
0.0
220
0.0
230
1.0
 70
     8
 71
     3
 72
     8
 73
     4
 74
     0
 42
0.000000001
 43
0.001
 40
0.0
 40
0.0
 40
0.0
 40
0.0
 40
1.0
 40
1.0
 40
1.0
 40
1.0
 10
499.7097222222222
 20
-418.3944444444444
 30
0.0
 10
506.4301388888888
 20
-418.3944444444444
 30
0.0
 10
511.8805555555555
 20
-422.9734999999999
 30
0.0
 10
511.8805555555555
 20
-428.6249999999999
 30
0.0
  0
LINE
  5
97
330
E3
100
AcDbEntity
  8
0
100
AcDbLine
 10
511.8805555555555
 20
-428.6249999999999
 30
0.0
 11
511.8805555555555
 21
-428.6249999999999
 31
0.0
  0
SPLINE
  5
98
330
E3
100
AcDbEntity
  8
0
100
AcDbSpline
210
0.0
220
0.0
230
1.0
 70
     8
 71
     3
 72
     8
 73
     4
 74
     0
 42
0.000000001
 43
0.001
 40
0.0
 40
0.0
 40
0.0
 40
0.0
 40
1.0
 40
1.0
 40
1.0
 40
1.0
 10
582.7888888888889
 20
-455.4361111111111
 30
0.0
 10
582.7888888888889
 20
-461.0876111111111
 30
0.0
 10
577.3384722222222
 20
-465.6666666666666
 30
0.0
 10
570.6180555555555
 20
-465.6666666666666
 30
0.0
  0
SPLINE
  5
99
330
E3
100
AcDbEntity
  8
0
100
AcDbSpline
210
0.0
220
0.0
230
1.0
 70
     8
 71
     3
 72
     8
 73
     4
 74
     0
 42
0.000000001
 43
0.001
 40
0.0
 40
0.0
 40
0.0
 40
0.0
 40
1.0
 40
1.0
 40
1.0
 40
1.0
 10
570.6180555555555
 20
-465.6666666666666
 30
0.0
 10
563.8976388888889
 20
-465.6666666666666
 30
0.0
 10
558.4472222222222
 20
-461.0876111111111
 30
0.0
 10
558.4472222222222
 20
-455.4361111111111
 30
0.0
  0
SPLINE
  5
9A
330
E3
100
AcDbEntity
  8
0
100
AcDbSpline
210
0.0
220
0.0
230
1.0
 70
     8
 71
     3
 72
     8
 73
     4
 74
     0
 42
0.000000001
 43
0.001
 40
0.0
 40
0.0
 40
0.0
 40
0.0
 40
1.0
 40
1.0
 40
1.0
 40
1.0
 10
558.4472222222222
 20
-455.4361111111111
 30
0.0
 10
558.4472222222222
 20
-449.7846111111111
 30
0.0
 10
563.8976388888889
 20
-445.2055555555555
 30
0.0
 10
570.6180555555555
 20
-445.2055555555555
 30
0.0
  0
SPLINE
  5
9B
330
E3
100
AcDbEntity
  8
0
100
AcDbSpline
210
0.0
220
0.0
230
1.0
 70
     8
 71
     3
 72
     8
 73
     4
 74
     0
 42
0.000000001
 43
0.001
 40
0.0
 40
0.0
 40
0.0
 40
0.0
 40
1.0
 40
1.0
 40
1.0
 40
1.0
 10
570.6180555555555
 20
-445.2055555555555
 30
0.0
 10
577.3384722222222
 20
-445.2055555555555
 30
0.0
 10
582.7888888888889
 20
-449.7846111111111
 30
0.0
 10
582.7888888888889
 20
-455.4361111111111
 30
0.0
  0
LINE
  5
9C
330
E3
100
AcDbEntity
  8
0
100
AcDbLine
 10
582.7888888888889
 20
-455.4361111111111
 30
0.0
 11
582.7888888888889
 21
-455.4361111111111
 31
0.0
  0
SPLINE
  5
9D
330
E3
100
AcDbEntity
  8
0
100
AcDbSpline
210
0.0
220
0.0
230
1.0
 70
     8
 71
     3
 72
     8
 73
     4
 74
     0
 42
0.000000001
 43
0.001
 40
0.0
 40
0.0
 40
0.0
 40
0.0
 40
1.0
 40
1.0
 40
1.0
 40
1.0
 10
653.6972222222222
 20
-482.2472222222222
 30
0.0
 10
653.6972222222222
 20
-487.8987222222221
 30
0.0
 10
648.2468055555555
 20
-492.4777777777778
 30
0.0
 10
641.5263888888888
 20
-492.4777777777778
 30
0.0
  0
SPLINE
  5
9E
330
E3
100
AcDbEntity
  8
0
100
AcDbSpline
210
0.0
220
0.0
230
1.0
 70
     8
 71
     3
 72
     8
 73
     4
 74
     0
 42
0.000000001
 43
0.001
 40
0.0
 40
0.0
 40
0.0
 40
0.0
 40
1.0
 40
1.0
 40
1.0
 40
1.0
 10
641.5263888888888
 20
-492.4777777777778
 30
0.0
 10
634.8059722222222
 20
-492.4777777777778
 30
0.0
 10
629.3555555555555
 20
-487.8987222222221
 30
0.0
 10
629.3555555555555
 20
-482.2472222222222
 30
0.0
  0
SPLINE
  5
9F
330
E3
100
AcDbEntity
  8
0
100
AcDbSpline
210
0.0
220
0.0
230
1.0
 70
     8
 71
     3
 72
     8
 73
     4
 74
     0
 42
0.000000001
 43
0.001
 40
0.0
 40
0.0
 40
0.0
 40
0.0
 40
1.0
 40
1.0
 40
1.0
 40
1.0
 10
629.3555555555555
 20
-482.2472222222222
 30
0.0
 10
629.3555555555555
 20
-476.5957222222222
 30
0.0
 10
634.8059722222222
 20
-472.0166666666667
 30
0.0
 10
641.5263888888888
 20
-472.0166666666667
 30
0.0
  0
SPLINE
  5
A0
330
E3
100
AcDbEntity
  8
0
100
AcDbSpline
210
0.0
220
0.0
230
1.0
 70
     8
 71
     3
 72
     8
 73
     4
 74
     0
 42
0.000000001
 43
0.001
 40
0.0
 40
0.0
 40
0.0
 40
0.0
 40
1.0
 40
1.0
 40
1.0
 40
1.0
 10
641.5263888888888
 20
-472.0166666666667
 30
0.0
 10
648.2468055555555
 20
-472.0166666666667
 30
0.0
 10
653.6972222222222
 20
-476.5957222222222
 30
0.0
 10
653.6972222222222
 20
-482.2472222222222
 30
0.0
  0
LINE
  5
A1
330
E3
100
AcDbEntity
  8
0
100
AcDbLine
 10
653.6972222222222
 20
-482.2472222222222
 30
0.0
 11
653.6972222222222
 21
-482.2472222222222
 31
0.0
  0
SPLINE
  5
A2
330
E3
100
AcDbEntity
  8
0
100
AcDbSpline
210
0.0
220
0.0
230
1.0
 70
     8
 71
     3
 72
     8
 73
     4
 74
     0
 42
0.000000001
 43
0.001
 40
0.0
 40
0.0
 40
0.0
 40
0.0
 40
1.0
 40
1.0
 40
1.0
 40
1.0
 10
582.7888888888889
 20
-509.0583333333333
 30
0.0
 10
582.7888888888889
 20
-514.7098333333333
 30
0.0
 10
577.3384722222222
 20
-519.2888888888889
 30
0.0
 10
570.6180555555555
 20
-519.2888888888889
 30
0.0
  0
SPLINE
  5
A3
330
E3
100
AcDbEntity
  8
0
100
AcDbSpline
210
0.0
220
0.0
230
1.0
 70
     8
 71
     3
 72
     8
 73
     4
 74
     0
 42
0.000000001
 43
0.001
 40
0.0
 40
0.0
 40
0.0
 40
0.0
 40
1.0
 40
1.0
 40
1.0
 40
1.0
 10
570.6180555555555
 20
-519.2888888888889
 30
0.0
 10
563.8976388888889
 20
-519.2888888888889
 30
0.0
 10
558.4472222222222
 20
-514.7098333333333
 30
0.0
 10
558.4472222222222
 20
-509.0583333333333
 30
0.0
  0
SPLINE
  5
A4
330
E3
100
AcDbEntity
  8
0
100
AcDbSpline
210
0.0
220
0.0
230
1.0
 70
     8
 71
     3
 72
     8
 73
     4
 74
     0
 42
0.000000001
 43
0.001
 40
0.0
 40
0.0
 40
0.0
 40
0.0
 40
1.0
 40
1.0
 40
1.0
 40
1.0
 10
558.4472222222222
 20
-509.0583333333333
 30
0.0
 10
558.4472222222222
 20
-503.4068333333333
 30
0.0
 10
563.8976388888889
 20
-498.8277777777777
 30
0.0
 10
570.6180555555555
 20
-498.8277777777777
 30
0.0
  0
SPLINE
  5
A5
330
E3
100
AcDbEntity
  8
0
100
AcDbSpline
210
0.0
220
0.0
230
1.0
 70
     8
 71
     3
 72
     8
 73
     4
 74
     0
 42
0.000000001
 43
0.001
 40
0.0
 40
0.0
 40
0.0
 40
0.0
 40
1.0
 40
1.0
 40
1.0
 40
1.0
 10
570.6180555555555
 20
-498.8277777777777
 30
0.0
 10
577.3384722222222
 20
-498.8277777777777
 30
0.0
 10
582.7888888888889
 20
-503.4068333333333
 30
0.0
 10
582.7888888888889
 20
-509.0583333333333
 30
0.0
  0
LINE
  5
A6
330
E3
100
AcDbEntity
  8
0
100
AcDbLine
 10
582.7888888888889
 20
-509.0583333333333
 30
0.0
 11
582.7888888888889
 21
-509.0583333333333
 31
0.0
  0
SPLINE
  5
A7
330
E3
100
AcDbEntity
  8
0
100
AcDbSpline
210
0.0
220
0.0
230
1.0
 70
     8
 71
     3
 72
     8
 73
     4
 74
     0
 42
0.000000001
 43
0.001
 40
0.0
 40
0.0
 40
0.0
 40
0.0
 40
1.0
 40
1.0
 40
1.0
 40
1.0
 10
511.8805555555555
 20
-535.8694444444444
 30
0.0
 10
511.8805555555555
 20
-541.5209444444444
 30
0.0
 10
506.4301388888888
 20
-546.0999999999999
 30
0.0
 10
499.7097222222222
 20
-546.0999999999999
 30
0.0
  0
SPLINE
  5
A8
330
E3
100
AcDbEntity
  8
0
100
AcDbSpline
210
0.0
220
0.0
230
1.0
 70
     8
 71
     3
 72
     8
 73
     4
 74
     0
 42
0.000000001
 43
0.001
 40
0.0
 40
0.0
 40
0.0
 40
0.0
 40
1.0
 40
1.0
 40
1.0
 40
1.0
 10
499.7097222222222
 20
-546.0999999999999
 30
0.0
 10
492.9893055555555
 20
-546.0999999999999
 30
0.0
 10
487.5388888888888
 20
-541.5209444444444
 30
0.0
 10
487.5388888888888
 20
-535.8694444444444
 30
0.0
  0
SPLINE
  5
A9
330
E3
100
AcDbEntity
  8
0
100
AcDbSpline
210
0.0
220
0.0
230
1.0
 70
     8
 71
     3
 72
     8
 73
     4
 74
     0
 42
0.000000001
 43
0.001
 40
0.0
 40
0.0
 40
0.0
 40
0.0
 40
1.0
 40
1.0
 40
1.0
 40
1.0
 10
487.5388888888888
 20
-535.8694444444444
 30
0.0
 10
487.5388888888888
 20
-530.2179444444444
 30
0.0
 10
492.9893055555555
 20
-525.6388888888888
 30
0.0
 10
499.7097222222222
 20
-525.6388888888888
 30
0.0
  0
SPLINE
  5
AA
330
E3
100
AcDbEntity
  8
0
100
AcDbSpline
210
0.0
220
0.0
230
1.0
 70
     8
 71
     3
 72
     8
 73
     4
 74
     0
 42
0.000000001
 43
0.001
 40
0.0
 40
0.0
 40
0.0
 40
0.0
 40
1.0
 40
1.0
 40
1.0
 40
1.0
 10
499.7097222222222
 20
-525.6388888888888
 30
0.0
 10
506.4301388888888
 20
-525.6388888888888
 30
0.0
 10
511.8805555555555
 20
-530.2179444444444
 30
0.0
 10
511.8805555555555
 20
-535.8694444444444
 30
0.0
  0
LINE
  5
AB
330
E3
100
AcDbEntity
  8
0
100
AcDbLine
 10
511.8805555555555
 20
-535.8694444444444
 30
0.0
 11
511.8805555555555
 21
-535.8694444444444
 31
0.0
  0
SPLINE
  5
AC
330
E3
100
AcDbEntity
  8
0
100
AcDbSpline
210
0.0
220
0.0
230
1.0
 70
     8
 71
     3
 72
     8
 73
     4
 74
     0
 42
0.000000001
 43
0.001
 40
0.0
 40
0.0
 40
0.0
 40
0.0
 40
1.0
 40
1.0
 40
1.0
 40
1.0
 10
370.4166666666666
 20
-562.6805555555555
 30
0.0
 10
370.4166666666666
 20
-568.3320555555555
 30
0.0
 10
364.9662499999999
 20
-572.911111111111
 30
0.0
 10
358.2458333333333
 20
-572.911111111111
 30
0.0
  0
SPLINE
  5
AD
330
E3
100
AcDbEntity
  8
0
100
AcDbSpline
210
0.0
220
0.0
230
1.0
 70
     8
 71
     3
 72
     8
 73
     4
 74
     0
 42
0.000000001
 43
0.001
 40
0.0
 40
0.0
 40
0.0
 40
0.0
 40
1.0
 40
1.0
 40
1.0
 40
1.0
 10
358.2458333333333
 20
-572.911111111111
 30
0.0
 10
351.5254166666667
 20
-572.911111111111
 30
0.0
 10
346.075
 20
-568.3320555555555
 30
0.0
 10
346.075
 20
-562.6805555555555
 30
0.0
  0
SPLINE
  5
AE
330
E3
100
AcDbEntity
  8
0
100
AcDbSpline
210
0.0
220
0.0
230
1.0
 70
     8
 71
     3
 72
     8
 73
     4
 74
     0
 42
0.000000001
 43
0.001
 40
0.0
 40
0.0
 40
0.0
 40
0.0
 40
1.0
 40
1.0
 40
1.0
 40
1.0
 10
346.075
 20
-562.6805555555555
 30
0.0
 10
346.075
 20
-557.0290555555555
 30
0.0
 10
351.5254166666667
 20
-552.4499999999999
 30
0.0
 10
358.2458333333333
 20
-552.4499999999999
 30
0.0
  0
SPLINE
  5
AF
330
E3
100
AcDbEntity
  8
0
100
AcDbSpline
210
0.0
220
0.0
230
1.0
 70
     8
 71
     3
 72
     8
 73
     4
 74
     0
 42
0.000000001
 43
0.001
 40
0.0
 40
0.0
 40
0.0
 40
0.0
 40
1.0
 40
1.0
 40
1.0
 40
1.0
 10
358.2458333333333
 20
-552.4499999999999
 30
0.0
 10
364.9662499999999
 20
-552.4499999999999
 30
0.0
 10
370.4166666666666
 20
-557.0290555555555
 30
0.0
 10
370.4166666666666
 20
-562.6805555555555
 30
0.0
  0
LINE
  5
B0
330
E3
100
AcDbEntity
  8
0
100
AcDbLine
 10
370.4166666666666
 20
-562.6805555555555
 30
0.0
 11
370.4166666666666
 21
-562.6805555555555
 31
0.0
  0
SPLINE
  5
B1
330
E3
100
AcDbEntity
  8
0
100
AcDbSpline
210
0.0
220
0.0
230
1.0
 70
     8
 71
     3
 72
     8
 73
     4
 74
     0
 42
0.000000001
 43
0.001
 40
0.0
 40
0.0
 40
0.0
 40
0.0
 40
1.0
 40
1.0
 40
1.0
 40
1.0
 10
440.9722222222222
 20
-562.6805555555555
 30
0.0
 10
440.9722222222222
 20
-568.3320555555555
 30
0.0
 10
435.5218055555555
 20
-572.911111111111
 30
0.0
 10
428.8013888888888
 20
-572.911111111111
 30
0.0
  0
SPLINE
  5
B2
330
E3
100
AcDbEntity
  8
0
100
AcDbSpline
210
0.0
220
0.0
230
1.0
 70
     8
 71
     3
 72
     8
 73
     4
 74
     0
 42
0.000000001
 43
0.001
 40
0.0
 40
0.0
 40
0.0
 40
0.0
 40
1.0
 40
1.0
 40
1.0
 40
1.0
 10
428.8013888888888
 20
-572.911111111111
 30
0.0
 10
422.0809722222222
 20
-572.911111111111
 30
0.0
 10
416.6305555555555
 20
-568.3320555555555
 30
0.0
 10
416.6305555555555
 20
-562.6805555555555
 30
0.0
  0
SPLINE
  5
B3
330
E3
100
AcDbEntity
  8
0
100
AcDbSpline
210
0.0
220
0.0
230
1.0
 70
     8
 71
     3
 72
     8
 73
     4
 74
     0
 42
0.000000001
 43
0.001
 40
0.0
 40
0.0
 40
0.0
 40
0.0
 40
1.0
 40
1.0
 40
1.0
 40
1.0
 10
416.6305555555555
 20
-562.6805555555555
 30
0.0
 10
416.6305555555555
 20
-557.0290555555555
 30
0.0
 10
422.0809722222222
 20
-552.4499999999999
 30
0.0
 10
428.8013888888888
 20
-552.4499999999999
 30
0.0
  0
SPLINE
  5
B4
330
E3
100
AcDbEntity
  8
0
100
AcDbSpline
210
0.0
220
0.0
230
1.0
 70
     8
 71
     3
 72
     8
 73
     4
 74
     0
 42
0.000000001
 43
0.001
 40
0.0
 40
0.0
 40
0.0
 40
0.0
 40
1.0
 40
1.0
 40
1.0
 40
1.0
 10
428.8013888888888
 20
-552.4499999999999
 30
0.0
 10
435.5218055555555
 20
-552.4499999999999
 30
0.0
 10
440.9722222222222
 20
-557.0290555555555
 30
0.0
 10
440.9722222222222
 20
-562.6805555555555
 30
0.0
  0
LINE
  5
B5
330
E3
100
AcDbEntity
  8
0
100
AcDbLine
 10
440.9722222222222
 20
-562.6805555555555
 30
0.0
 11
440.9722222222222
 21
-562.6805555555555
 31
0.0
  0
SPLINE
  5
B6
330
E3
100
AcDbEntity
  8
0
100
AcDbSpline
210
0.0
220
0.0
230
1.0
 70
     8
 71
     3
 72
     8
 73
     4
 74
     0
 42
0.000000001
 43
0.001
 40
0.0
 40
0.0
 40
0.0
 40
0.0
 40
1.0
 40
1.0
 40
1.0
 40
1.0
 10
511.8805555555555
 20
-562.6805555555555
 30
0.0
 10
511.8805555555555
 20
-568.3320555555555
 30
0.0
 10
506.4301388888888
 20
-572.911111111111
 30
0.0
 10
499.7097222222222
 20
-572.911111111111
 30
0.0
  0
SPLINE
  5
B7
330
E3
100
AcDbEntity
  8
0
100
AcDbSpline
210
0.0
220
0.0
230
1.0
 70
     8
 71
     3
 72
     8
 73
     4
 74
     0
 42
0.000000001
 43
0.001
 40
0.0
 40
0.0
 40
0.0
 40
0.0
 40
1.0
 40
1.0
 40
1.0
 40
1.0
 10
499.7097222222222
 20
-572.911111111111
 30
0.0
 10
492.9893055555555
 20
-572.911111111111
 30
0.0
 10
487.5388888888888
 20
-568.3320555555555
 30
0.0
 10
487.5388888888888
 20
-562.6805555555555
 30
0.0
  0
SPLINE
  5
B8
330
E3
100
AcDbEntity
  8
0
100
AcDbSpline
210
0.0
220
0.0
230
1.0
 70
     8
 71
     3
 72
     8
 73
     4
 74
     0
 42
0.000000001
 43
0.001
 40
0.0
 40
0.0
 40
0.0
 40
0.0
 40
1.0
 40
1.0
 40
1.0
 40
1.0
 10
487.5388888888888
 20
-562.6805555555555
 30
0.0
 10
487.5388888888888
 20
-557.0290555555555
 30
0.0
 10
492.9893055555555
 20
-552.4499999999999
 30
0.0
 10
499.7097222222222
 20
-552.4499999999999
 30
0.0
  0
SPLINE
  5
B9
330
E3
100
AcDbEntity
  8
0
100
AcDbSpline
210
0.0
220
0.0
230
1.0
 70
     8
 71
     3
 72
     8
 73
     4
 74
     0
 42
0.000000001
 43
0.001
 40
0.0
 40
0.0
 40
0.0
 40
0.0
 40
1.0
 40
1.0
 40
1.0
 40
1.0
 10
499.7097222222222
 20
-552.4499999999999
 30
0.0
 10
506.4301388888888
 20
-552.4499999999999
 30
0.0
 10
511.8805555555555
 20
-557.0290555555555
 30
0.0
 10
511.8805555555555
 20
-562.6805555555555
 30
0.0
  0
LINE
  5
BA
330
E3
100
AcDbEntity
  8
0
100
AcDbLine
 10
511.8805555555555
 20
-562.6805555555555
 30
0.0
 11
511.8805555555555
 21
-562.6805555555555
 31
0.0
  0
SPLINE
  5
BB
330
E3
100
AcDbEntity
  8
0
100
AcDbSpline
210
0.0
220
0.0
230
1.0
 70
     8
 71
     3
 72
     8
 73
     4
 74
     0
 42
0.000000001
 43
0.001
 40
0.0
 40
0.0
 40
0.0
 40
0.0
 40
1.0
 40
1.0
 40
1.0
 40
1.0
 10
582.7888888888889
 20
-562.6805555555555
 30
0.0
 10
582.7888888888889
 20
-568.3320555555555
 30
0.0
 10
577.3384722222222
 20
-572.911111111111
 30
0.0
 10
570.6180555555555
 20
-572.911111111111
 30
0.0
  0
SPLINE
  5
BC
330
E3
100
AcDbEntity
  8
0
100
AcDbSpline
210
0.0
220
0.0
230
1.0
 70
     8
 71
     3
 72
     8
 73
     4
 74
     0
 42
0.000000001
 43
0.001
 40
0.0
 40
0.0
 40
0.0
 40
0.0
 40
1.0
 40
1.0
 40
1.0
 40
1.0
 10
570.6180555555555
 20
-572.911111111111
 30
0.0
 10
563.8976388888889
 20
-572.911111111111
 30
0.0
 10
558.4472222222222
 20
-568.3320555555555
 30
0.0
 10
558.4472222222222
 20
-562.6805555555555
 30
0.0
  0
SPLINE
  5
BD
330
E3
100
AcDbEntity
  8
0
100
AcDbSpline
210
0.0
220
0.0
230
1.0
 70
     8
 71
     3
 72
     8
 73
     4
 74
     0
 42
0.000000001
 43
0.001
 40
0.0
 40
0.0
 40
0.0
 40
0.0
 40
1.0
 40
1.0
 40
1.0
 40
1.0
 10
558.4472222222222
 20
-562.6805555555555
 30
0.0
 10
558.4472222222222
 20
-557.0290555555555
 30
0.0
 10
563.8976388888889
 20
-552.4499999999999
 30
0.0
 10
570.6180555555555
 20
-552.4499999999999
 30
0.0
  0
SPLINE
  5
BE
330
E3
100
AcDbEntity
  8
0
100
AcDbSpline
210
0.0
220
0.0
230
1.0
 70
     8
 71
     3
 72
     8
 73
     4
 74
     0
 42
0.000000001
 43
0.001
 40
0.0
 40
0.0
 40
0.0
 40
0.0
 40
1.0
 40
1.0
 40
1.0
 40
1.0
 10
570.6180555555555
 20
-552.4499999999999
 30
0.0
 10
577.3384722222222
 20
-552.4499999999999
 30
0.0
 10
582.7888888888889
 20
-557.0290555555555
 30
0.0
 10
582.7888888888889
 20
-562.6805555555555
 30
0.0
  0
LINE
  5
BF
330
E3
100
AcDbEntity
  8
0
100
AcDbLine
 10
582.7888888888889
 20
-562.6805555555555
 30
0.0
 11
582.7888888888889
 21
-562.6805555555555
 31
0.0
  0
SPLINE
  5
C0
330
E3
100
AcDbEntity
  8
0
100
AcDbSpline
210
0.0
220
0.0
230
1.0
 70
     8
 71
     3
 72
     8
 73
     4
 74
     0
 42
0.000000001
 43
0.001
 40
0.0
 40
0.0
 40
0.0
 40
0.0
 40
1.0
 40
1.0
 40
1.0
 40
1.0
 10
653.6972222222222
 20
-562.6805555555555
 30
0.0
 10
653.6972222222222
 20
-568.3320555555555
 30
0.0
 10
648.2468055555555
 20
-572.911111111111
 30
0.0
 10
641.5263888888888
 20
-572.911111111111
 30
0.0
  0
SPLINE
  5
C1
330
E3
100
AcDbEntity
  8
0
100
AcDbSpline
210
0.0
220
0.0
230
1.0
 70
     8
 71
     3
 72
     8
 73
     4
 74
     0
 42
0.000000001
 43
0.001
 40
0.0
 40
0.0
 40
0.0
 40
0.0
 40
1.0
 40
1.0
 40
1.0
 40
1.0
 10
641.5263888888888
 20
-572.911111111111
 30
0.0
 10
634.8059722222222
 20
-572.911111111111
 30
0.0
 10
629.3555555555555
 20
-568.3320555555555
 30
0.0
 10
629.3555555555555
 20
-562.6805555555555
 30
0.0
  0
SPLINE
  5
C2
330
E3
100
AcDbEntity
  8
0
100
AcDbSpline
210
0.0
220
0.0
230
1.0
 70
     8
 71
     3
 72
     8
 73
     4
 74
     0
 42
0.000000001
 43
0.001
 40
0.0
 40
0.0
 40
0.0
 40
0.0
 40
1.0
 40
1.0
 40
1.0
 40
1.0
 10
629.3555555555555
 20
-562.6805555555555
 30
0.0
 10
629.3555555555555
 20
-557.0290555555555
 30
0.0
 10
634.8059722222222
 20
-552.4499999999999
 30
0.0
 10
641.5263888888888
 20
-552.4499999999999
 30
0.0
  0
SPLINE
  5
C3
330
E3
100
AcDbEntity
  8
0
100
AcDbSpline
210
0.0
220
0.0
230
1.0
 70
     8
 71
     3
 72
     8
 73
     4
 74
     0
 42
0.000000001
 43
0.001
 40
0.0
 40
0.0
 40
0.0
 40
0.0
 40
1.0
 40
1.0
 40
1.0
 40
1.0
 10
641.5263888888888
 20
-552.4499999999999
 30
0.0
 10
648.2468055555555
 20
-552.4499999999999
 30
0.0
 10
653.6972222222222
 20
-557.0290555555555
 30
0.0
 10
653.6972222222222
 20
-562.6805555555555
 30
0.0
  0
LINE
  5
C4
330
E3
100
AcDbEntity
  8
0
100
AcDbLine
 10
653.6972222222222
 20
-562.6805555555555
 30
0.0
 11
653.6972222222222
 21
-562.6805555555555
 31
0.0
  0
ENDSEC
  0
SECTION
  2
OBJECTS
  0
DICTIONARY
  5
D1
330
0
100
AcDbDictionary
  3
ACAD_GROUP
350
D2
  3
ACAD_LAYOUT
350
DE
  3
ACAD_MATERIAL
350
107
  3
ACAD_MLEADERSTYLE
350
12F
  3
ACAD_MLINESTYLE
350
DB
  3
ACAD_PLOTSETTINGS
350
DD
  3
ACAD_SCALELIST
350
10B
  3
ACAD_VISUALSTYLE
350
EE
  3
ACDBHEADERROUNDTRIPXREC
350
19D
  3
ACDBVARIABLEDICTIONARY
350
1BE
  3
QCAD_OBJECTS
350
133
  0
DICTIONARY
  5
1C5
330
CD
100
AcDbDictionary
280
     1
  3
ACAD_XREC_ROUNDTRIP
360
1C6
  0
DICTIONARY
  5
D2
102
{ACAD_REACTORS
330
D1
102
}
330
D1
100
AcDbDictionary
  0
DICTIONARY
  5
DE
102
{ACAD_REACTORS
330
D1
102
}
330
D1
100
AcDbDictionary
  0
DICTIONARY
  5
107
102
{ACAD_REACTORS
330
D1
102
}
330
D1
100
AcDbDictionary
  3
BYBLOCK
350
109
  3
BYLAYER
350
108
  3
GLOBAL
350
10A
  0
DICTIONARY
  5
12F
102
{ACAD_REACTORS
330
D1
102
}
330
D1
100
AcDbDictionary
  3
STANDARD
350
130
  0
DICTIONARY
  5
DB
102
{ACAD_REACTORS
330
D1
102
}
330
D1
100
AcDbDictionary
  3
STANDARD
350
DC
  0
DICTIONARY
  5
DD
102
{ACAD_REACTORS
330
D1
102
}
330
D1
100
AcDbDictionary
  0
DICTIONARY
  5
10B
102
{ACAD_REACTORS
330
D1
102
}
330
D1
100
AcDbDictionary
  3
A0
350
10C
  3
A1
350
10D
  3
A2
350
10E
  3
A3
350
10F
  3
A4
350
110
  3
A5
350
111
  3
A6
350
112
  3
A7
350
113
  3
A8
350
114
  3
A9
350
115
  3
B0
350
116
  3
B1
350
117
  3
B2
350
118
  3
B3
350
119
  3
B4
350
11A
  3
B5
350
11B
  3
B6
350
11C
  3
B7
350
11D
  3
B8
350
11E
  3
B9
350
11F
  3
C0
350
120
  3
C1
350
121
  3
C2
350
122
  3
C3
350
123
  3
C4
350
124
  3
C5
350
125
  3
C6
350
126
  3
C7
350
127
  3
C8
350
128
  3
C9
350
129
  3
D0
350
12A
  3
D1
350
12B
  3
D2
350
12C
  0
DICTIONARY
  5
EE
102
{ACAD_REACTORS
330
D1
102
}
330
D1
100
AcDbDictionary
  3
2DWIREFRAME
350
F3
  3
BASIC
350
F6
  3
BRIGHTEN
350
FA
  3
COLORCHANGE
350
FE
  3
CONCEPTUAL
350
F8
  3
DIM
350
F9
  3
EDGECOLOROFF
350
101
  3
FACEPATTERN
350
FD
  3
FLAT
350
EF
  3
FLATWITHEDGES
350
F0
  3
GOURAUD
350
F1
  3
GOURAUDWITHEDGES
350
F2
  3
HIDDEN
350
F5
  3
JITTEROFF
350
FF
  3
LINEPATTERN
350
FC
  3
OVERHANGOFF
350
100
  3
REALISTIC
350
F7
  3
SHADED
350
106
  3
SHADED_WITH_EDGES
350
105
  3
SHADES_OF_GRAY
350
102
  3
SKETCHY
350
103
  3
THICKEN
350
FB
  3
WIREFRAME
350
F4
  3
X-RAY
350
104
  0
DICTIONARY
  5
19D
102
{ACAD_REACTORS
330
D1
102
}
330
D1
100
AcDbDictionary
  3
CEPSNID
350
1A7
  3
CEPSNTYPE
350
1A6
  3
DIMSTYLEDATA
350
1BD
  3
FINGERPRINTGUID
350
1A8
  3
HYPERLINKBASE
350
1A0
  3
INSUNITS
350
1A5
  3
LAYOUTDICT
350
1A2
  3
LWETCUNION
350
1A4
  3
PLOTSETDICT
350
1A3
  3
PSVPSCALE
350
1AA
  3
PUCSBASE
350
1AD
  3
PUCSORGBACK
350
1B3
  3
PUCSORGBOTTOM
350
1AF
  3
PUCSORGFRONT
350
1B2
  3
PUCSORGLEFT
350
1B0
  3
PUCSORGRIGHT
350
1B1
  3
PUCSORGTOP
350
1AE
  3
PUCSORTHOREF
350
1AB
  3
PUCSORTHOVIEW
350
1AC
  3
STYLESHEET
350
1A1
  3
TSTACKALIGN
350
19E
  3
TSTACKSIZE
350
19F
  3
UCSBASE
350
1B6
  3
UCSORGBACK
350
1BC
  3
UCSORGBOTTOM
350
1B8
  3
UCSORGFRONT
350
1BB
  3
UCSORGLEFT
350
1B9
  3
UCSORGRIGHT
350
1BA
  3
UCSORGTOP
350
1B7
  3
UCSORTHOREF
350
1B4
  3
UCSORTHOVIEW
350
1B5
  3
VERSIONGUID
350
1A9
  0
DICTIONARY
  5
1BE
102
{ACAD_REACTORS
330
D1
102
}
330
D1
100
AcDbDictionary
  3
CANNOSCALE
350
1C7
  3
CMLEADERSTYLE
350
1C0
  3
CTABLESTYLE
350
1BF
  3
DIMASSOC
350
1C3
  3
HIDETEXT
350
1C4
  3
MSLTSCALE
350
1C8
  0
DICTIONARY
  5
133
102
{ACAD_REACTORS
330
D1
102
}
330
D1
100
AcDbDictionary
  3
COLORSETTINGS/BACKGROUNDCOLOR
350
135
  3
COLORSETTINGS/COLORMODE
350
136
  3
GRID/DISPLAYGRID00
350
137
  3
GRID/DISPLAYGRID01
350
138
  3
GRID/DISPLAYGRID02
350
139
  3
GRID/DISPLAYGRID03
350
13A
  3
GRID/GRIDSPACINGX00
350
13B
  3
GRID/GRIDSPACINGX01
350
13C
  3
GRID/GRIDSPACINGX02
350
13D
  3
GRID/GRIDSPACINGX03
350
13E
  3
GRID/GRIDSPACINGY00
350
13F
  3
GRID/GRIDSPACINGY01
350
140
  3
GRID/GRIDSPACINGY02
350
141
  3
GRID/GRIDSPACINGY03
350
142
  3
GRID/ISOMETRICGRID00
350
143
  3
GRID/ISOMETRICGRID01
350
144
  3
GRID/ISOMETRICGRID02
350
145
  3
GRID/ISOMETRICGRID03
350
146
  3
GRID/ISOMETRICPROJECTION00
350
147
  3
GRID/ISOMETRICPROJECTION01
350
148
  3
GRID/ISOMETRICPROJECTION02
350
149
  3
GRID/ISOMETRICPROJECTION03
350
14A
  3
GRID/METAGRIDSPACINGX00
350
14B
  3
GRID/METAGRIDSPACINGX01
350
14C
  3
GRID/METAGRIDSPACINGX02
350
14D
  3
GRID/METAGRIDSPACINGX03
350
14E
  3
GRID/METAGRIDSPACINGY00
350
14F
  3
GRID/METAGRIDSPACINGY01
350
150
  3
GRID/METAGRIDSPACINGY02
350
151
  3
GRID/METAGRIDSPACINGY03
350
152
  3
MULTIPAGESETTINGS/COLUMNS
350
153
  3
MULTIPAGESETTINGS/GLUEMAR0
350
155
  3
MULTIPAGESETTINGS/GLUEMAR1
350
156
  3
MULTIPAGESETTINGS/GLUEMAR2
350
157
  3
MULTIPAGESETTINGS/GLUEMARG
350
154
  3
MULTIPAGESETTINGS/PRINTCRO
350
158
  3
MULTIPAGESETTINGS/ROWS
350
159
  3
PAGESETTINGS/OFFSETX
350
15A
  3
PAGESETTINGS/OFFSETY
350
15B
  3
PAGESETTINGS/PAGEORIENTATION
350
15C
  3
PAGESETTINGS/PAPERHEIGHT
350
15D
  3
PAGESETTINGS/PAPERWIDTH
350
15E
  3
PAGESETTINGS/SCALE
350
15F
  3
PAGESETTINGS/SHOWPAPERBORDERS
350
160
  3
QCADVERSION
350
134
  3
UNITSETTINGS/PAPERUNIT
350
161
  0
XRECORD
  5
1C6
102
{ACAD_REACTORS
330
1C5
102
}
330
1C5
100
AcDbXrecord
102
VTR_0.000_0.000_1.000_1.000_GRIDDISPLAY
 70
     3
102
VTR_0.000_0.000_1.000_1.000_GRIDMAJOR
 70
     5
102
VTR_0.000_0.000_1.000_1.000_DEFAULTLIGHTING
280
     1
102
VTR_0.000_0.000_1.000_1.000_DEFAULTLIGHTINGTYPE
 70
     1
102
VTR_0.000_0.000_1.000_1.000_BRIGHTNESS
141
0.0
102
VTR_0.000_0.000_1.000_1.000_CONTRAST
142
0.0
  0
MATERIAL
  5
109
102
{ACAD_REACTORS
330
107
102
}
102
{ACAD_XDICTIONARY
360
1CB
102
}
330
107
100
AcDbMaterial
  1
BYBLOCK
  0
MATERIAL
  5
108
102
{ACAD_REACTORS
330
107
102
}
102
{ACAD_XDICTIONARY
360
1C9
102
}
330
107
100
AcDbMaterial
  1
BYLAYER
  0
MATERIAL
  5
10A
102
{ACAD_REACTORS
330
107
102
}
102
{ACAD_XDICTIONARY
360
1CD
102
}
330
107
100
AcDbMaterial
  1
GLOBAL
  0
ACAD_PROXY_OBJECT
  5
130
102
{ACAD_REACTORS
330
12F
102
}
330
12F
100
AcDbProxyObject
 90
      499
 91
      505
 93
      610
310
40901902A4063FBFFFFFE056BD1B81E855B9FC0AD7A3703D0AD73F4214DD185B99185C9900AD7A3703D0AC73F90141901A02B5E8DC0F42B1CFC02B5E8DC0F42B1CFE5764000000000000300FC0
340
D8
340
0
340
D6
340
0
 94
        0
1001
ACAD_MLEADERVER
1070
     2
  0
MLINESTYLE
  5
DC
102
{ACAD_REACTORS
330
DB
102
}
330
DB
100
AcDbMlineStyle
  2
Standard
 70
     0
  3

 62
   256
 51
90.0
 52
90.0
 71
     2
 49
0.5
 62
   256
  6
BYLAYER
 49
-0.5
 62
   256
  6
BYLAYER
  0
ACAD_PROXY_OBJECT
  5
10C
102
{ACAD_REACTORS
330
10B
102
}
330
10B
100
AcDbProxyObject
 90
      499
 91
      503
 93
       41
310
903313A31580
  0
ACAD_PROXY_OBJECT
  5
10D
102
{ACAD_REACTORS
330
10B
102
}
330
10B
100
AcDbProxyObject
 90
      499
 91
      503
 93
      105
310
903313A324000000000000004000
  0
ACAD_PROXY_OBJECT
  5
10E
102
{ACAD_REACTORS
330
10B
102
}
330
10B
100
AcDbProxyObject
 90
      499
 91
      503
 93
      105
310
903313A344000000000000104000
  0
ACAD_PROXY_OBJECT
  5
10F
102
{ACAD_REACTORS
330
10B
102
}
330
10B
100
AcDbProxyObject
 90
      499
 91
      503
 93
      105
310
903313A354000000000000144000
  0
ACAD_PROXY_OBJECT
  5
110
102
{ACAD_REACTORS
330
10B
102
}
330
10B
100
AcDbProxyObject
 90
      499
 91
      503
 93
      105
310
903313A384000000000000204000
  0
ACAD_PROXY_OBJECT
  5
111
102
{ACAD_REACTORS
330
10B
102
}
330
10B
100
AcDbProxyObject
 90
      499
 91
      503
 93
      113
310
904313A31304000000000000244000
  0
ACAD_PROXY_OBJECT
  5
112
102
{ACAD_REACTORS
330
10B
102
}
330
10B
100
AcDbProxyObject
 90
      499
 91
      503
 93
      113
310
904313A31364000000000000304000
  0
ACAD_PROXY_OBJECT
  5
113
102
{ACAD_REACTORS
330
10B
102
}
330
10B
100
AcDbProxyObject
 90
      499
 91
      503
 93
      113
310
904313A32304000000000000344000
  0
ACAD_PROXY_OBJECT
  5
114
102
{ACAD_REACTORS
330
10B
102
}
330
10B
100
AcDbProxyObject
 90
      499
 91
      503
 93
      113
310
904313A333040000000000003E4000
  0
ACAD_PROXY_OBJECT
  5
115
102
{ACAD_REACTORS
330
10B
102
}
330
10B
100
AcDbProxyObject
 90
      499
 91
      503
 93
      113
310
904313A34304000000000000444000
  0
ACAD_PROXY_OBJECT
  5
116
102
{ACAD_REACTORS
330
10B
102
}
330
10B
100
AcDbProxyObject
 90
      499
 91
      503
 93
      113
310
904313A35304000000000000494000
  0
ACAD_PROXY_OBJECT
  5
117
102
{ACAD_REACTORS
330
10B
102
}
330
10B
100
AcDbProxyObject
 90
      499
 91
      503
 93
      121
310
905313A3130304000000000000594000
  0
ACAD_PROXY_OBJECT
  5
118
102
{ACAD_REACTORS
330
10B
102
}
330
10B
100
AcDbProxyObject
 90
      499
 91
      503
 93
      105
310
903323A310000000000000010100
  0
ACAD_PROXY_OBJECT
  5
119
102
{ACAD_REACTORS
330
10B
102
}
330
10B
100
AcDbProxyObject
 90
      499
 91
      503
 93
      105
310
903343A310000000000000410100
  0
ACAD_PROXY_OBJECT
  5
11A
102
{ACAD_REACTORS
330
10B
102
}
330
10B
100
AcDbProxyObject
 90
      499
 91
      503
 93
      105
310
903383A310000000000000810100
  0
ACAD_PROXY_OBJECT
  5
11B
102
{ACAD_REACTORS
330
10B
102
}
330
10B
100
AcDbProxyObject
 90
      499
 91
      503
 93
      113
310
90431303A310000000000000910100
  0
ACAD_PROXY_OBJECT
  5
11C
102
{ACAD_REACTORS
330
10B
102
}
330
10B
100
AcDbProxyObject
 90
      499
 91
      503
 93
      121
310
9053130303A310000000000001650100
  0
ACAD_PROXY_OBJECT
  5
11D
102
{ACAD_REACTORS
330
10B
102
}
330
10B
100
AcDbProxyObject
 90
      499
 91
      503
 93
      257
310
90E312F31323822203D2031272D3022000000000000200FC000000000000284000
  0
ACAD_PROXY_OBJECT
  5
11E
102
{ACAD_REACTORS
330
10B
102
}
330
10B
100
AcDbProxyObject
 90
      499
 91
      503
 93
      249
310
90D312F363422203D2031272D3022000000000000240FC000000000000284000
  0
ACAD_PROXY_OBJECT
  5
11F
102
{ACAD_REACTORS
330
10B
102
}
330
10B
100
AcDbProxyObject
 90
      499
 91
      503
 93
      249
310
90D312F333222203D2031272D3022000000000000280FC000000000000284000
  0
ACAD_PROXY_OBJECT
  5
120
102
{ACAD_REACTORS
330
10B
102
}
330
10B
100
AcDbProxyObject
 90
      499
 91
      503
 93
      249
310
90D312F313622203D2031272D30220000000000002C0FC000000000000284000
  0
ACAD_PROXY_OBJECT
  5
121
102
{ACAD_REACTORS
330
10B
102
}
330
10B
100
AcDbProxyObject
 90
      499
 91
      503
 93
      249
310
90D332F333222203D2031272D30220000000000002E0FC000000000000284000
  0
ACAD_PROXY_OBJECT
  5
122
102
{ACAD_REACTORS
330
10B
102
}
330
10B
100
AcDbProxyObject
 90
      499
 91
      503
 93
      241
310
90C312F3822203D2031272D3022000000000000300FC000000000000284000
  0
ACAD_PROXY_OBJECT
  5
123
102
{ACAD_REACTORS
330
10B
102
}
330
10B
100
AcDbProxyObject
 90
      499
 91
      503
 93
      249
310
90D332F313622203D2031272D3022000000000000320FC000000000000284000
  0
ACAD_PROXY_OBJECT
  5
124
102
{ACAD_REACTORS
330
10B
102
}
330
10B
100
AcDbProxyObject
 90
      499
 91
      503
 93
      241
310
90C312F3422203D2031272D3022000000000000340FC000000000000284000
  0
ACAD_PROXY_OBJECT
  5
125
102
{ACAD_REACTORS
330
10B
102
}
330
10B
100
AcDbProxyObject
 90
      499
 91
      503
 93
      241
310
90C332F3822203D2031272D3022000000000000360FC000000000000284000
  0
ACAD_PROXY_OBJECT
  5
126
102
{ACAD_REACTORS
330
10B
102
}
330
10B
100
AcDbProxyObject
 90
      499
 91
      503
 93
      241
310
90C312F3222203D2031272D3022000000000000380FC000000000000284000
  0
ACAD_PROXY_OBJECT
  5
127
102
{ACAD_REACTORS
330
10B
102
}
330
10B
100
AcDbProxyObject
 90
      499
 91
      503
 93
      241
310
90C332F3422203D2031272D30220000000000003A0FC000000000000284000
  0
ACAD_PROXY_OBJECT
  5
128
102
{ACAD_REACTORS
330
10B
102
}
330
10B
100
AcDbProxyObject
 90
      499
 91
      503
 93
      161
310
90A3122203D2031272D30224000000000000284000
  0
ACAD_PROXY_OBJECT
  5
129
102
{ACAD_REACTORS
330
10B
102
}
330
10B
100
AcDbProxyObject
 90
      499
 91
      503
 93
      257
310
90E312D312F3222203D2031272D30220000000000003E0FC000000000000284000
  0
ACAD_PROXY_OBJECT
  5
12A
102
{ACAD_REACTORS
330
10B
102
}
330
10B
100
AcDbProxyObject
 90
      499
 91
      503
 93
      225
310
90A3322203D2031272D302200000000000002100000000000000284000
  0
ACAD_PROXY_OBJECT
  5
12B
102
{ACAD_REACTORS
330
10B
102
}
330
10B
100
AcDbProxyObject
 90
      499
 91
      503
 93
      225
310
90A3622203D2031272D302200000000000006100000000000000284000
  0
ACAD_PROXY_OBJECT
  5
12C
102
{ACAD_REACTORS
330
10B
102
}
330
10B
100
AcDbProxyObject
 90
      499
 91
      503
 93
      249
310
90D31272D3022203D2031272D30220000000000000A100000000000000284000
  0
ACAD_PROXY_OBJECT
  5
F3
102
{ACAD_REACTORS
330
EE
102
}
330
EE
100
AcDbProxyObject
 90
      499
 91
      501
 93
      436
310
42CC9915DA5C99599C985B595049028333333333333E33F0000000000000F90107901411070040501600405405064090741402480A0340
1001
ACAD
1000
AcDbSavedByObjectVersion
1070
     0
  0
ACAD_PROXY_OBJECT
  5
F6
102
{ACAD_REACTORS
330
EE
102
}
330
EE
100
AcDbProxyObject
 90
      499
 91
      501
 93
      388
310
4150985CDA58D07406404333333333333E33F0000000000000F90107A41107004050150841D405064090741402480A0350
1001
ACAD
1000
AcDbSavedByObjectVersion
1070
     0
  0
ACAD_PROXY_OBJECT
  5
FA
102
{ACAD_REACTORS
330
EE
102
}
330
EE
100
AcDbProxyObject
 90
      499
 91
      501
 93
      428
310
42109C9A59DA1D195B90C409028333333333333E33F0000000000000F9010790141107004050150841D405064090741402480A029950
1001
ACAD
1000
AcDbSavedByObjectVersion
1070
     0
  0
ACAD_PROXY_OBJECT
  5
FE
102
{ACAD_REACTORS
330
EE
102
}
330
EE
100
AcDbProxyObject
 90
      499
 91
      501
 93
      452
310
42D0DBDB1BDC90DA185B99D95104090240C333333333333E33F0000000000000F90108901411070040501508421405064090741402480A0350
1001
ACAD
1000
AcDbSavedByObjectVersion
1070
     0
  0
ACAD_PROXY_OBJECT
  5
F8
102
{ACAD_REACTORS
330
EE
102
}
330
EE
100
AcDbProxyObject
 90
      499
 91
      501
 93
      500
310
4290DBDB98D95C1D1D585B10940D028333333333333E33F0000000000000F90107902409070040501000000000018199010841D405064090740C02480A0340
1001
ACAD
1000
AcDbSavedByObjectVersion
1070
     0
  0
ACAD_PROXY_OBJECT
  5
F9
102
{ACAD_REACTORS
330
EE
102
}
330
EE
100
AcDbProxyObject
 90
      499
 91
      501
 93
      412
310
40D11A5B50B409028333333333333E33F0000000000000F9010790141107004050150841D405064090741402480A02677FFFFFD0
1001
ACAD
1000
AcDbSavedByObjectVersion
1070
     0
  0
ACAD_PROXY_OBJECT
  5
101
102
{ACAD_REACTORS
330
EE
102
}
330
EE
100
AcDbProxyObject
 90
      499
 91
      501
 93
      452
310
43115919D950DBDB1BDC93D999916409028333333333333E33F0000000000000F9010790141107004050150841D405064090741402480A0350
1001
ACAD
1000
AcDbSavedByObjectVersion
1070
     0
  0
ACAD_PROXY_OBJECT
  5
FD
102
{ACAD_REACTORS
330
EE
102
}
330
EE
100
AcDbProxyObject
 90
      499
 91
      501
 93
      444
310
42D19858D95C185D1D195C9B90F409028333333333333E33F0000000000000F9010790141107004050150841D405064090741402480A0350
1001
ACAD
1000
AcDbSavedByObjectVersion
1070
     0
  0
ACAD_PROXY_OBJECT
  5
EF
102
{ACAD_REACTORS
330
EE
102
}
330
EE
100
AcDbProxyObject
 90
      499
 91
      501
 93
      380
310
41119B185D240901404333333333333E33F0000000000000F9010740A907004050150841D405064090741402480A1B50
1001
ACAD
1000
AcDbSavedByObjectVersion
1070
     0
  0
ACAD_PROXY_OBJECT
  5
F0
102
{ACAD_REACTORS
330
EE
102
}
330
EE
100
AcDbProxyObject
 90
      499
 91
      501
 93
      468
310
43519B185D15DA5D1A115919D95CD0140901404333333333333E33F0000000000000F90107409019070040501600405405064090741402480A1B50
1001
ACAD
1000
AcDbSavedByObjectVersion
1070
     0
  0
ACAD_PROXY_OBJECT
  5
F1
102
{ACAD_REACTORS
330
EE
102
}
330
EE
100
AcDbProxyObject
 90
      499
 91
      501
 93
      404
310
41D1DBDD5C985D5910240902404333333333333E33F0000000000000F9010740A9070040501641D405064090741402480A1B50
1001
ACAD
1000
AcDbSavedByObjectVersion
1070
     0
  0
ACAD_PROXY_OBJECT
  5
F2
102
{ACAD_REACTORS
330
EE
102
}
330
EE
100
AcDbProxyObject
 90
      499
 91
      501
 93
      492
310
4411DBDD5C985D5915DA5D1A115919D95CD0340902404333333333333E33F0000000000000F90107409019070040501600405405064090741402480A1B50
1001
ACAD
1000
AcDbSavedByObjectVersion
1070
     0
  0
ACAD_PROXY_OBJECT
  5
F5
102
{ACAD_REACTORS
330
EE
102
}
330
EE
100
AcDbProxyObject
 90
      499
 91
      501
 93
      476
310
41921A5919195B90640502408333333333333E33F0000000000000F901079024090700405020000000000001110200405405064090740C02480A0340
1001
ACAD
1000
AcDbSavedByObjectVersion
1070
     0
  0
ACAD_PROXY_OBJECT
  5
FF
102
{ACAD_REACTORS
330
EE
102
}
330
EE
100
AcDbProxyObject
 90
      499
 91
      501
 93
      428
310
42529A5D1D195C93D999914409028333333333333E33F0000000000000F9010790141107004050150A41D405064090741402480A0350
1001
ACAD
1000
AcDbSavedByObjectVersion
1070
     0
  0
ACAD_PROXY_OBJECT
  5
FC
102
{ACAD_REACTORS
330
EE
102
}
330
EE
100
AcDbProxyObject
 90
      499
 91
      501
 93
      444
310
42D31A5B995C185D1D195C9B90E409028333333333333E33F0000000000000F9010790141107004050750841D405064090741402483A0350
1001
ACAD
1000
AcDbSavedByObjectVersion
1070
     0
  0
ACAD_PROXY_OBJECT
  5
100
102
{ACAD_REACTORS
330
EE
102
}
330
EE
100
AcDbProxyObject
 90
      499
 91
      501
 93
      444
310
42D3DD995C9A185B99D3D999915409028333333333333E33F0000000000000F9010790141107004050150941D405064090741402480A0350
1001
ACAD
1000
AcDbSavedByObjectVersion
1070
     0
  0
ACAD_PROXY_OBJECT
  5
F7
102
{ACAD_REACTORS
330
EE
102
}
330
EE
100
AcDbProxyObject
 90
      499
 91
      501
 93
      428
310
425499585B1A5CDD1A58D08409038333333333333E33F0000000000000F9010740A907004050150800405405064090740C02480A1B40
1001
ACAD
1000
AcDbSavedByObjectVersion
1070
     0
  0
ACAD_PROXY_OBJECT
  5
106
102
{ACAD_REACTORS
330
EE
102
}
330
EE
100
AcDbProxyObject
 90
      499
 91
      501
 93
      420
310
4194DA1859195911B40902404333333333333E33F0000000000000F9010740A41107004050150800405405064090840C02480A0B40
1001
ACAD
1000
AcDbSavedByObjectVersion
1070
     0
  0
ACAD_PROXY_OBJECT
  5
105
102
{ACAD_REACTORS
330
EE
102
}
330
EE
100
AcDbProxyObject
 90
      499
 91
      501
 93
      516
310
4454DA18591959081DDA5D1A08195919D95CD1A40902404333333333333E33F0000000000000F901074090142907004050250800405405064090740C02480A0B40
1001
ACAD
1000
AcDbSavedByObjectVersion
1070
     0
  0
ACAD_PROXY_OBJECT
  5
102
102
{ACAD_REACTORS
330
EE
102
}
330
EE
100
AcDbProxyObject
 90
      499
 91
      501
 93
      532
310
4394DA1859195CC81BD98811DC985E5174090240C333333333333E33F0000000000000F901079024090741D01000000000000111010841D405064090740C02480A0340
1001
ACAD
1000
AcDbSavedByObjectVersion
1070
     0
  0
ACAD_PROXY_OBJECT
  5
103
102
{ACAD_REACTORS
330
EE
102
}
330
EE
100
AcDbProxyObject
 90
      499
 91
      501
 93
      476
310
41D4DAD95D18DA1E51840502408333333333333E33F0000000000000F901079024090741D01000000000000111010B41D405064090741802480A0340
1001
ACAD
1000
AcDbSavedByObjectVersion
1070
     0
  0
ACAD_PROXY_OBJECT
  5
FB
102
{ACAD_REACTORS
330
EE
102
}
330
EE
100
AcDbProxyObject
 90
      499
 91
      501
 93
      412
310
41D51A1A58DAD95B90D409028333333333333E33F0000000000000F9010790141107004050150C41D405064090741402480A0350
1001
ACAD
1000
AcDbSavedByObjectVersion
1070
     0
  0
ACAD_PROXY_OBJECT
  5
F4
102
{ACAD_REACTORS
330
EE
102
}
330
EE
100
AcDbProxyObject
 90
      499
 91
      501
 93
      420
310
4255DA5C99599C985B595059028333333333333E33F0000000000000F90107901411070040501600405405064090740C02480A0340
1001
ACAD
1000
AcDbSavedByObjectVersion
1070
     0
  0
ACAD_PROXY_OBJECT
  5
104
102
{ACAD_REACTORS
330
EE
102
}
330
EE
100
AcDbProxyObject
 90
      499
 91
      501
 93
      404
310
41560B54985E51940902404000000000000E03F0000000000000F9010740501907004050150841D405064090740C02480A1B40
1001
ACAD
1000
AcDbSavedByObjectVersion
1070
     0
  0
XRECORD
  5
1A7
102
{ACAD_REACTORS
330
19D
102
}
330
19D
100
AcDbXrecord
340
0
  0
XRECORD
  5
1A6
102
{ACAD_REACTORS
330
19D
102
}
330
19D
100
AcDbXrecord
 90
        0
  0
XRECORD
  5
1BD
102
{ACAD_REACTORS
330
19D
102
}
330
19D
100
AcDbXrecord
1000
DSTYLE
1002
{
1070
   171
 70
     2
1070
   143
 40
25.4
1070
   274
 70
     2
1070
    79
 70
     2
1070
   141
 40
0.09
1070
   271
 70
     4
1070
    43
 40
0.38
1070
   278
 70
    46
1070
    77
 70
     0
1070
   272
 70
     4
1070
    73
 70
     1
1070
   172
 70
     0
1070
    74
 70
     1
1070
   283
 70
     1
1070
   340
340
D6
1070
   284
 70
     0
1002
}
  0
XRECORD
  5
1A8
102
{ACAD_REACTORS
330
19D
102
}
330
19D
100
AcDbXrecord
  1
{95D07B20-90C0-3CD7-0D41-F855BE9B6B12}
  0
XRECORD
  5
1A0
102
{ACAD_REACTORS
330
19D
102
}
330
19D
100
AcDbXrecord
  1

  0
XRECORD
  5
1A5
102
{ACAD_REACTORS
330
19D
102
}
330
19D
100
AcDbXrecord
 90
        4
  0
XRECORD
  5
1A2
102
{ACAD_REACTORS
330
19D
102
}
330
19D
100
AcDbXrecord
340
DE
  0
XRECORD
  5
1A4
102
{ACAD_REACTORS
330
19D
102
}
330
19D
100
AcDbXrecord
 90
    10781
  0
XRECORD
  5
1A3
102
{ACAD_REACTORS
330
19D
102
}
330
19D
100
AcDbXrecord
340
DD
  0
XRECORD
  5
1AA
102
{ACAD_REACTORS
330
19D
102
}
330
19D
100
AcDbXrecord
 40
0.0
  0
XRECORD
  5
1AD
102
{ACAD_REACTORS
330
19D
102
}
330
19D
100
AcDbXrecord
340
0
  0
XRECORD
  5
1B3
102
{ACAD_REACTORS
330
19D
102
}
330
19D
100
AcDbXrecord
 10
0.0
 20
0.0
 30
0.0
  0
XRECORD
  5
1AF
102
{ACAD_REACTORS
330
19D
102
}
330
19D
100
AcDbXrecord
 10
0.0
 20
0.0
 30
0.0
  0
XRECORD
  5
1B2
102
{ACAD_REACTORS
330
19D
102
}
330
19D
100
AcDbXrecord
 10
0.0
 20
0.0
 30
0.0
  0
XRECORD
  5
1B0
102
{ACAD_REACTORS
330
19D
102
}
330
19D
100
AcDbXrecord
 10
0.0
 20
0.0
 30
0.0
  0
XRECORD
  5
1B1
102
{ACAD_REACTORS
330
19D
102
}
330
19D
100
AcDbXrecord
 10
0.0
 20
0.0
 30
0.0
  0
XRECORD
  5
1AE
102
{ACAD_REACTORS
330
19D
102
}
330
19D
100
AcDbXrecord
 10
0.0
 20
0.0
 30
0.0
  0
XRECORD
  5
1AB
102
{ACAD_REACTORS
330
19D
102
}
330
19D
100
AcDbXrecord
340
0
  0
XRECORD
  5
1AC
102
{ACAD_REACTORS
330
19D
102
}
330
19D
100
AcDbXrecord
 70
     0
  0
XRECORD
  5
1A1
102
{ACAD_REACTORS
330
19D
102
}
330
19D
100
AcDbXrecord
  1

  0
XRECORD
  5
19E
102
{ACAD_REACTORS
330
19D
102
}
330
19D
100
AcDbXrecord
 90
        1
  0
XRECORD
  5
19F
102
{ACAD_REACTORS
330
19D
102
}
330
19D
100
AcDbXrecord
 90
       70
  0
XRECORD
  5
1B6
102
{ACAD_REACTORS
330
19D
102
}
330
19D
100
AcDbXrecord
340
0
  0
XRECORD
  5
1BC
102
{ACAD_REACTORS
330
19D
102
}
330
19D
100
AcDbXrecord
 10
0.0
 20
0.0
 30
0.0
  0
XRECORD
  5
1B8
102
{ACAD_REACTORS
330
19D
102
}
330
19D
100
AcDbXrecord
 10
0.0
 20
0.0
 30
0.0
  0
XRECORD
  5
1BB
102
{ACAD_REACTORS
330
19D
102
}
330
19D
100
AcDbXrecord
 10
0.0
 20
0.0
 30
0.0
  0
XRECORD
  5
1B9
102
{ACAD_REACTORS
330
19D
102
}
330
19D
100
AcDbXrecord
 10
0.0
 20
0.0
 30
0.0
  0
XRECORD
  5
1BA
102
{ACAD_REACTORS
330
19D
102
}
330
19D
100
AcDbXrecord
 10
0.0
 20
0.0
 30
0.0
  0
XRECORD
  5
1B7
102
{ACAD_REACTORS
330
19D
102
}
330
19D
100
AcDbXrecord
 10
0.0
 20
0.0
 30
0.0
  0
XRECORD
  5
1B4
102
{ACAD_REACTORS
330
19D
102
}
330
19D
100
AcDbXrecord
340
0
  0
XRECORD
  5
1B5
102
{ACAD_REACTORS
330
19D
102
}
330
19D
100
AcDbXrecord
 70
     0
  0
XRECORD
  5
1A9
102
{ACAD_REACTORS
330
19D
102
}
330
19D
100
AcDbXrecord
  1
{FAEB1C32-E019-11D5-929B-00C0DF256EC4}
  0
DICTIONARYVAR
  5
1C7
102
{ACAD_REACTORS
330
1BE
102
}
330
1BE
100
DictionaryVariables
280
     0
  1
1:1
  0
DICTIONARYVAR
  5
1C0
102
{ACAD_REACTORS
330
1BE
102
}
330
1BE
100
DictionaryVariables
280
     0
  1
Standard
  0
DICTIONARYVAR
  5
1BF
102
{ACAD_REACTORS
330
1BE
102
}
330
1BE
100
DictionaryVariables
280
     0
  1
Standard
  0
DICTIONARYVAR
  5
1C3
102
{ACAD_REACTORS
330
1BE
102
}
330
1BE
100
DictionaryVariables
280
     0
  1
2
  0
DICTIONARYVAR
  5
1C4
102
{ACAD_REACTORS
330
1BE
102
}
330
1BE
100
DictionaryVariables
280
     0
  1
1
  0
DICTIONARYVAR
  5
1C8
102
{ACAD_REACTORS
330
1BE
102
}
330
1BE
100
DictionaryVariables
280
     0
  1
1
  0
XRECORD
  5
135
102
{ACAD_REACTORS
330
133
102
}
330
133
100
AcDbXrecord
1000
#ffffff
  0
XRECORD
  5
136
102
{ACAD_REACTORS
330
133
102
}
330
133
100
AcDbXrecord
1000
FullColor
  0
ACAD_PROXY_OBJECT
  5
137
102
{ACAD_REACTORS
330
133
102
}
330
133
100
AcDbProxyObject
 90
      499
 91
      508
 93
       34
310
40C8804040
  0
ACAD_PROXY_OBJECT
  5
138
102
{ACAD_REACTORS
330
133
102
}
330
133
100
AcDbProxyObject
 90
      499
 91
      508
 93
       34
310
40C8804040
  0
ACAD_PROXY_OBJECT
  5
139
102
{ACAD_REACTORS
330
133
102
}
330
133
100
AcDbProxyObject
 90
      499
 91
      508
 93
       34
310
40C8804040
  0
ACAD_PROXY_OBJECT
  5
13A
102
{ACAD_REACTORS
330
133
102
}
330
133
100
AcDbProxyObject
 90
      499
 91
      508
 93
       34
310
40C8804040
  0
XRECORD
  5
13B
102
{ACAD_REACTORS
330
133
102
}
330
133
100
AcDbXrecord
1000
auto
  0
XRECORD
  5
13C
102
{ACAD_REACTORS
330
133
102
}
330
133
100
AcDbXrecord
1000
auto
  0
XRECORD
  5
13D
102
{ACAD_REACTORS
330
133
102
}
330
133
100
AcDbXrecord
1000
auto
  0
XRECORD
  5
13E
102
{ACAD_REACTORS
330
133
102
}
330
133
100
AcDbXrecord
1000
auto
  0
XRECORD
  5
13F
102
{ACAD_REACTORS
330
133
102
}
330
133
100
AcDbXrecord
1000
auto
  0
XRECORD
  5
140
102
{ACAD_REACTORS
330
133
102
}
330
133
100
AcDbXrecord
1000
auto
  0
XRECORD
  5
141
102
{ACAD_REACTORS
330
133
102
}
330
133
100
AcDbXrecord
1000
auto
  0
XRECORD
  5
142
102
{ACAD_REACTORS
330
133
102
}
330
133
100
AcDbXrecord
1000
auto
  0
ACAD_PROXY_OBJECT
  5
143
102
{ACAD_REACTORS
330
133
102
}
330
133
100
AcDbProxyObject
 90
      499
 91
      508
 93
       34
310
40C8804000
  0
ACAD_PROXY_OBJECT
  5
144
102
{ACAD_REACTORS
330
133
102
}
330
133
100
AcDbProxyObject
 90
      499
 91
      508
 93
       34
310
40C8804000
  0
ACAD_PROXY_OBJECT
  5
145
102
{ACAD_REACTORS
330
133
102
}
330
133
100
AcDbProxyObject
 90
      499
 91
      508
 93
       34
310
40C8804000
  0
ACAD_PROXY_OBJECT
  5
146
102
{ACAD_REACTORS
330
133
102
}
330
133
100
AcDbProxyObject
 90
      499
 91
      508
 93
       34
310
40C8804000
  0
XRECORD
  5
147
102
{ACAD_REACTORS
330
133
102
}
330
133
100
AcDbXrecord
 90
        0
  0
XRECORD
  5
148
102
{ACAD_REACTORS
330
133
102
}
330
133
100
AcDbXrecord
 90
        0
  0
XRECORD
  5
149
102
{ACAD_REACTORS
330
133
102
}
330
133
100
AcDbXrecord
 90
        0
  0
XRECORD
  5
14A
102
{ACAD_REACTORS
330
133
102
}
330
133
100
AcDbXrecord
 90
        0
  0
XRECORD
  5
14B
102
{ACAD_REACTORS
330
133
102
}
330
133
100
AcDbXrecord
1000
auto
  0
XRECORD
  5
14C
102
{ACAD_REACTORS
330
133
102
}
330
133
100
AcDbXrecord
1000
auto
  0
XRECORD
  5
14D
102
{ACAD_REACTORS
330
133
102
}
330
133
100
AcDbXrecord
1000
auto
  0
XRECORD
  5
14E
102
{ACAD_REACTORS
330
133
102
}
330
133
100
AcDbXrecord
1000
auto
  0
XRECORD
  5
14F
102
{ACAD_REACTORS
330
133
102
}
330
133
100
AcDbXrecord
1000
auto
  0
XRECORD
  5
150
102
{ACAD_REACTORS
330
133
102
}
330
133
100
AcDbXrecord
1000
auto
  0
XRECORD
  5
151
102
{ACAD_REACTORS
330
133
102
}
330
133
100
AcDbXrecord
1000
auto
  0
XRECORD
  5
152
102
{ACAD_REACTORS
330
133
102
}
330
133
100
AcDbXrecord
1000
auto
  0
XRECORD
  5
153
102
{ACAD_REACTORS
330
133
102
}
330
133
100
AcDbXrecord
 90
        1
  0
XRECORD
  5
155
102
{ACAD_REACTORS
330
133
102
}
330
133
100
AcDbXrecord
 40
10.0
  0
XRECORD
  5
156
102
{ACAD_REACTORS
330
133
102
}
330
133
100
AcDbXrecord
 40
10.0
  0
XRECORD
  5
157
102
{ACAD_REACTORS
330
133
102
}
330
133
100
AcDbXrecord
 40
10.0
  0
XRECORD
  5
154
102
{ACAD_REACTORS
330
133
102
}
330
133
100
AcDbXrecord
 40
10.0
  0
ACAD_PROXY_OBJECT
  5
158
102
{ACAD_REACTORS
330
133
102
}
330
133
100
AcDbProxyObject
 90
      499
 91
      508
 93
       34
310
40C8804000
  0
XRECORD
  5
159
102
{ACAD_REACTORS
330
133
102
}
330
133
100
AcDbXrecord
 90
        1
  0
XRECORD
  5
15A
102
{ACAD_REACTORS
330
133
102
}
330
133
100
AcDbXrecord
 40
0.0
  0
XRECORD
  5
15B
102
{ACAD_REACTORS
330
133
102
}
330
133
100
AcDbXrecord
 40
0.0
  0
XRECORD
  5
15C
102
{ACAD_REACTORS
330
133
102
}
330
133
100
AcDbXrecord
1000
Portrait
  0
XRECORD
  5
15D
102
{ACAD_REACTORS
330
133
102
}
330
133
100
AcDbXrecord
 40
297.0
  0
XRECORD
  5
15E
102
{ACAD_REACTORS
330
133
102
}
330
133
100
AcDbXrecord
 40
210.0
  0
XRECORD
  5
15F
102
{ACAD_REACTORS
330
133
102
}
330
133
100
AcDbXrecord
1000
1:1
  0
ACAD_PROXY_OBJECT
  5
160
102
{ACAD_REACTORS
330
133
102
}
330
133
100
AcDbProxyObject
 90
      499
 91
      508
 93
       34
310
40C8804040
  0
XRECORD
  5
134
102
{ACAD_REACTORS
330
133
102
}
330
133
100
AcDbXrecord
1000
3.11.3
  0
XRECORD
  5
161
102
{ACAD_REACTORS
330
133
102
}
330
133
100
AcDbXrecord
 90
        4
  0
DICTIONARY
  5
1CB
330
109
100
AcDbDictionary
280
     1
  3
ACAD_XREC_ROUNDTRIP
360
1CC
  0
DICTIONARY
  5
1C9
330
108
100
AcDbDictionary
280
     1
  3
ACAD_XREC_ROUNDTRIP
360
1CA
  0
DICTIONARY
  5
1CD
330
10A
100
AcDbDictionary
280
     1
  3
ACAD_XREC_ROUNDTRIP
360
1CE
  0
XRECORD
  5
1CC
102
{ACAD_REACTORS
330
1CB
102
}
330
1CB
100
AcDbXrecord
102
MATERIAL
148
0.0
149
0.0
149
0.0
 93
        0
 94
      127
282
     0
 72
     1
 77
     1
171
     1
175
     1
179
     1
273
     0
  0
XRECORD
  5
1CA
102
{ACAD_REACTORS
330
1C9
102
}
330
1C9
100
AcDbXrecord
102
MATERIAL
148
0.0
149
0.0
149
0.0
 93
        0
 94
      127
282
     0
 72
     1
 77
     1
171
     1
175
     1
179
     1
273
     0
  0
XRECORD
  5
1CE
102
{ACAD_REACTORS
330
1CD
102
}
330
1CD
100
AcDbXrecord
102
MATERIAL
148
0.0
149
0.0
149
0.0
 93
        0
 94
      127
282
     0
 72
     1
 77
     1
171
     1
175
     1
179
     1
273
     0
  0
ENDSEC
  0
EOF
